<svg width="166" height="166" viewBox="0 0 166 166" fill="none" xmlns="http://www.w3.org/2000/svg">
<g clip-path="url(#clip0_529_4744)">
<path d="M138.08 139.879L125.026 139.95L125.101 153.797L138.155 153.727L138.08 139.879Z" fill="#ECECEC"/>
<path d="M151.071 139.809L138.017 139.88L138.092 153.727L151.146 153.657L151.071 139.809Z" fill="#F5F5F5"/>
<path d="M125.038 143.779C133.713 143.852 142.411 143.799 151.083 143.66C151.263 143.66 151.259 143.384 151.083 143.381C142.408 143.334 133.71 143.374 125.038 143.54C124.885 143.54 124.885 143.776 125.038 143.779Z" fill="#E1E1E1"/>
<path d="M140.604 153.494L116.886 153.623L116.947 164.907L140.665 164.779L140.604 153.494Z" fill="#ECECEC"/>
<path d="M164.208 153.37L140.491 153.498L140.552 164.783L164.27 164.654L164.208 153.37Z" fill="#F5F5F5"/>
<path d="M116.894 156.767C132.651 156.947 148.46 156.787 164.217 156.535C164.396 156.535 164.393 156.259 164.217 156.256C148.46 156.173 132.647 156.183 116.894 156.528C116.741 156.532 116.741 156.764 116.894 156.767Z" fill="#E1E1E1"/>
<path d="M113.816 87.3724L94.6168 80.9117L71.6391 80.822C71.6391 80.822 53.9036 86.6221 51.7523 87.8206L50.7629 137.946L49.9927 166.528L112.624 166.176V131.555L113.82 87.3691L113.816 87.3724Z" fill="#A2C8A3"/>
<path d="M51.7491 87.8206C51.7491 87.8206 44.5945 93.9958 40.8661 104.328C38.313 111.409 32.5063 127.119 32.5063 127.119L50.6999 133.886L54.8134 103.418L51.7491 87.8206Z" fill="#A2C8A3"/>
<path d="M111.589 86.622C111.589 86.622 116.326 87.0436 120.971 94.8523C124.248 100.36 132.226 124.47 132.226 124.47L111.223 132.166L106.154 128.072L111.585 86.6187L111.589 86.622Z" fill="#A2C8A3"/>
<path d="M50.7598 100.218C50.8129 100.218 50.8594 108.664 50.8594 119.082C50.8594 129.5 50.8162 137.946 50.7598 137.946C50.7033 137.946 50.6602 129.5 50.6602 119.082C50.6602 108.664 50.7033 100.218 50.7598 100.218Z" fill="#1A2E35"/>
<path d="M49.8568 102.024C49.8501 102.047 49.4783 101.947 48.9172 101.678C48.3561 101.409 47.6191 100.945 46.9152 100.284C46.2147 99.6199 45.6935 98.8995 45.3814 98.345C45.066 97.7906 44.9332 97.4121 44.9531 97.4022C45.0096 97.3623 45.657 98.8364 47.048 100.131C48.4225 101.443 49.8866 101.961 49.8568 102.024Z" fill="white"/>
<path d="M111.758 103.697C111.758 103.697 111.712 103.727 111.619 103.776C111.516 103.83 111.376 103.903 111.197 103.996C110.815 104.188 110.271 104.467 109.57 104.819C109.215 104.998 108.823 105.194 108.392 105.41C107.957 105.612 107.472 105.805 106.954 106.027C105.918 106.452 104.756 107 103.415 107.428C102.748 107.661 102.051 107.903 101.327 108.156C100.6 108.405 99.8196 108.59 99.0261 108.823C98.6277 108.936 98.2227 109.049 97.811 109.162C97.6051 109.218 97.3993 109.281 97.1868 109.331C96.9743 109.377 96.7619 109.424 96.5461 109.467C95.6862 109.653 94.7997 109.842 93.8901 110.038C90.2347 110.699 86.1677 111.154 81.8816 111.173C77.5955 111.15 73.5252 110.695 69.8699 110.031C68.9602 109.835 68.0737 109.646 67.2139 109.46C66.9981 109.414 66.7856 109.367 66.5731 109.321C66.3606 109.271 66.1548 109.208 65.9489 109.152C65.5373 109.035 65.1322 108.922 64.7338 108.81C63.9403 108.577 63.1601 108.391 62.4331 108.142C61.706 107.89 61.0088 107.644 60.3448 107.412C59.0035 106.98 57.8415 106.436 56.8057 106.008C56.2911 105.785 55.8063 105.593 55.3681 105.39C54.9398 105.174 54.5447 104.975 54.1895 104.799C53.4923 104.444 52.9445 104.168 52.5627 103.976C52.3834 103.883 52.244 103.81 52.1411 103.757C52.0481 103.707 51.9983 103.68 52.0016 103.677C52.0049 103.674 52.0547 103.693 52.151 103.74C52.2573 103.79 52.3967 103.856 52.5793 103.939C52.9644 104.125 53.5155 104.387 54.2194 104.729C54.5746 104.902 54.9697 105.095 55.4013 105.304C55.8395 105.503 56.3243 105.689 56.8422 105.905C57.8813 106.32 59.0433 106.857 60.3846 107.276C61.0486 107.505 61.7458 107.741 62.4729 107.99C63.2 108.232 63.9769 108.415 64.7703 108.644C65.1687 108.753 65.5738 108.866 65.9855 108.979C66.1913 109.032 66.3971 109.098 66.6096 109.145C66.8221 109.188 67.0346 109.235 67.2504 109.281C68.1103 109.464 68.9934 109.65 69.8997 109.842C73.5484 110.493 77.6055 110.941 81.8783 110.964C86.1511 110.941 90.2082 110.496 93.8535 109.845C94.7599 109.653 95.6463 109.467 96.5029 109.288C96.7187 109.241 96.9312 109.198 97.1437 109.152C97.3528 109.102 97.5587 109.039 97.7678 108.986C98.1795 108.873 98.5845 108.76 98.9829 108.65C99.7764 108.421 100.553 108.242 101.28 107.996C102.007 107.747 102.705 107.508 103.369 107.282C104.713 106.864 105.872 106.326 106.911 105.911C107.429 105.695 107.914 105.51 108.352 105.31C108.784 105.101 109.179 104.909 109.534 104.736C110.238 104.397 110.789 104.132 111.174 103.949C111.357 103.863 111.499 103.796 111.602 103.75C111.699 103.707 111.748 103.684 111.752 103.687L111.758 103.697Z" fill="white"/>
<path d="M120.941 96.7548C120.941 96.7548 120.865 96.8643 120.699 97.0336C120.536 97.203 120.29 97.4387 119.978 97.7209C119.358 98.2853 118.461 99.0223 117.412 99.7461C116.363 100.47 115.36 101.041 114.62 101.416C114.251 101.605 113.946 101.748 113.733 101.838C113.521 101.927 113.401 101.974 113.395 101.961C113.382 101.931 113.836 101.695 114.557 101.287C115.277 100.878 116.26 100.291 117.302 99.5735C118.345 98.853 119.248 98.1392 119.889 97.608C120.529 97.0768 120.918 96.7315 120.938 96.7548H120.941Z" fill="white"/>
<path d="M50.4545 106.502C50.4545 106.502 50.3283 106.492 50.1025 106.436C49.8801 106.383 49.5614 106.283 49.1763 106.137C48.406 105.848 47.3735 105.324 46.3642 104.543C45.3549 103.76 44.5781 102.88 44.0867 102.193C43.841 101.851 43.6551 101.562 43.5422 101.353C43.426 101.147 43.3696 101.028 43.3795 101.021C43.4094 101.001 43.6817 101.449 44.1963 102.103C44.7109 102.761 45.4911 103.607 46.4837 104.381C47.4764 105.148 48.4791 105.682 49.2294 106.004C49.9797 106.33 50.4644 106.469 50.4545 106.506V106.502Z" fill="white"/>
<path d="M110.676 110.583C110.676 110.583 110.629 110.612 110.536 110.659C110.433 110.709 110.294 110.778 110.118 110.868C109.74 111.051 109.195 111.316 108.501 111.652C108.149 111.821 107.758 112.007 107.329 112.213C106.894 112.405 106.413 112.585 105.902 112.794C104.869 113.192 103.714 113.707 102.379 114.099C101.718 114.311 101.025 114.537 100.301 114.769C99.577 114.998 98.8035 115.161 98.0166 115.37C97.6216 115.47 97.2198 115.573 96.8081 115.676C96.6023 115.725 96.3998 115.785 96.1873 115.828C95.9781 115.868 95.7657 115.908 95.5532 115.948C94.6999 116.107 93.8201 116.27 92.9171 116.436C89.295 116.984 85.2678 117.306 81.0415 117.179C76.8151 117.007 72.8178 116.406 69.2355 115.606C68.3458 115.377 67.4793 115.151 66.636 114.935C66.4268 114.882 66.2177 114.826 66.0085 114.772C65.8027 114.716 65.6001 114.643 65.4009 114.577C64.9992 114.444 64.6041 114.314 64.2157 114.188C63.4421 113.926 62.6819 113.707 61.9747 113.431C61.2675 113.149 60.5903 112.877 59.9462 112.618C58.6381 112.133 57.5193 111.539 56.5166 111.067C56.0186 110.825 55.5472 110.612 55.1289 110.39C54.7139 110.154 54.3354 109.942 53.9967 109.749C53.3261 109.364 52.7982 109.065 52.433 108.856C52.2604 108.757 52.1276 108.677 52.028 108.621C51.9383 108.567 51.8919 108.537 51.8952 108.534C51.8952 108.534 51.945 108.554 52.0379 108.604C52.1409 108.657 52.277 108.73 52.4529 108.823C52.8248 109.026 53.3527 109.314 54.0333 109.683C54.3752 109.872 54.757 110.081 55.172 110.307C55.5937 110.523 56.0651 110.729 56.5664 110.968C57.5724 111.426 58.6945 112.01 59.9993 112.485C60.6467 112.741 61.324 113.006 62.0278 113.285C62.735 113.557 63.4953 113.77 64.2688 114.029C64.6573 114.155 65.0523 114.281 65.4541 114.411C65.6566 114.474 65.8558 114.547 66.0616 114.603C66.2675 114.656 66.4766 114.709 66.6891 114.763C67.5291 114.978 68.3956 115.197 69.282 115.423C72.8543 116.21 76.8417 116.804 81.0547 116.977C85.2678 117.1 89.2817 116.788 92.8972 116.25C93.7969 116.087 94.6734 115.928 95.5266 115.772C95.7391 115.732 95.9516 115.695 96.1608 115.656C96.3699 115.612 96.5757 115.556 96.7783 115.506C97.1866 115.407 97.5884 115.307 97.9834 115.207C98.7703 115.002 99.5438 114.845 100.264 114.62C100.985 114.391 101.679 114.172 102.339 113.966C103.674 113.584 104.829 113.079 105.862 112.691C106.376 112.488 106.858 112.316 107.296 112.13C107.724 111.931 108.119 111.748 108.471 111.585C109.172 111.263 109.72 111.014 110.101 110.838C110.281 110.759 110.423 110.695 110.53 110.649C110.626 110.606 110.676 110.586 110.679 110.589L110.676 110.583Z" fill="white"/>
<path d="M123.079 99.4006C123.079 99.4006 122.97 99.5401 122.75 99.7692C122.531 99.9982 122.206 100.317 121.794 100.705C120.974 101.482 119.812 102.521 118.474 103.597C117.133 104.673 115.875 105.579 114.945 106.203C114.48 106.515 114.099 106.761 113.833 106.924C113.567 107.086 113.415 107.173 113.408 107.159C113.401 107.146 113.537 107.04 113.793 106.857C114.079 106.652 114.44 106.393 114.869 106.084C115.778 105.43 117.02 104.507 118.355 103.434C119.689 102.362 120.865 101.346 121.705 100.599C122.1 100.247 122.435 99.9484 122.701 99.7127C122.936 99.5036 123.072 99.394 123.079 99.404V99.4006Z" fill="white"/>
<path d="M78.5582 143.324C78.5582 143.324 78.4619 143.341 78.2826 143.358C78.0801 143.371 77.8178 143.388 77.4891 143.411C77.1439 143.434 76.7222 143.451 76.2309 143.461C75.7395 143.474 75.1818 143.49 74.5609 143.484C73.3226 143.494 71.8518 143.437 70.2184 143.344C68.5849 143.235 66.7954 143.072 64.923 142.833C63.0505 142.584 61.2743 142.285 59.6674 141.973C58.0638 141.641 56.623 141.322 55.4244 140.994C54.8235 140.841 54.2857 140.685 53.8109 140.546C53.3362 140.409 52.9311 140.287 52.6024 140.174C52.287 140.068 52.0347 139.985 51.8455 139.918C51.6728 139.858 51.5832 139.822 51.5865 139.815C51.5898 139.809 51.6828 139.828 51.8588 139.878C52.0513 139.935 52.307 140.004 52.6257 140.094C52.9577 140.194 53.366 140.307 53.8408 140.433C54.3156 140.562 54.8567 140.708 55.4576 140.851C56.6562 141.16 58.097 141.465 59.7006 141.784C61.3075 142.086 63.0804 142.378 64.9495 142.627C66.8187 142.866 68.6048 143.036 70.235 143.155C71.8651 143.255 73.3325 143.328 74.5676 143.338C75.1851 143.354 75.7428 143.351 76.2342 143.348C76.7255 143.348 77.1472 143.344 77.4925 143.331C77.8212 143.324 78.0868 143.321 78.2893 143.318C78.4719 143.318 78.5681 143.318 78.5681 143.328L78.5582 143.324Z" fill="white"/>
<path d="M73.7738 147.783C73.7738 147.783 73.6941 147.796 73.5381 147.806C73.3621 147.813 73.1364 147.82 72.8608 147.83C72.5653 147.843 72.2068 147.846 71.7885 147.836C71.3701 147.833 70.8921 147.83 70.3675 147.803C69.3151 147.77 68.0634 147.67 66.6757 147.534C65.2912 147.385 63.7706 147.182 62.1804 146.923C59.0031 146.399 56.1513 145.774 54.0962 145.3C53.067 145.061 52.237 144.858 51.6659 144.715C51.397 144.646 51.1779 144.589 51.0086 144.543C50.8592 144.5 50.7795 144.476 50.7828 144.47C50.7828 144.463 50.8658 144.473 51.0185 144.503C51.1912 144.536 51.4103 144.583 51.6858 144.636C52.2868 144.765 53.1168 144.941 54.1294 145.157C56.1911 145.599 59.043 146.196 62.2136 146.721C63.8005 146.98 65.3145 147.186 66.6956 147.345C68.08 147.491 69.325 147.607 70.3775 147.657C70.902 147.693 71.3768 147.707 71.7951 147.72C72.2134 147.74 72.572 147.747 72.8674 147.747C73.1463 147.753 73.3688 147.757 73.5447 147.76C73.7008 147.767 73.7804 147.773 73.7804 147.78L73.7738 147.783Z" fill="white"/>
<path d="M112.621 138.978C112.621 138.978 112.595 138.992 112.538 139.008C112.472 139.025 112.389 139.048 112.293 139.075C112.06 139.131 111.742 139.211 111.34 139.307C110.513 139.51 109.311 139.772 107.824 140.074C104.846 140.682 100.706 141.385 96.0978 141.887C91.4897 142.385 87.2965 142.581 84.2654 142.627C82.7481 142.65 81.5197 142.65 80.6731 142.627C80.2614 142.617 79.9361 142.61 79.697 142.604C79.5941 142.6 79.5111 142.594 79.4447 142.594C79.3883 142.591 79.3584 142.587 79.3584 142.584C79.3584 142.581 79.3883 142.577 79.4447 142.574C79.5144 142.574 79.5974 142.567 79.697 142.564C79.9361 142.561 80.2614 142.554 80.6731 142.551C81.5197 142.547 82.7481 142.524 84.262 142.481C87.2932 142.398 91.4764 142.179 96.0779 141.681C100.676 141.18 104.816 140.499 107.798 139.928C109.288 139.646 110.493 139.403 111.323 139.224C111.725 139.141 112.047 139.078 112.283 139.028C112.382 139.012 112.465 138.995 112.532 138.982C112.588 138.972 112.618 138.968 112.618 138.972L112.621 138.978Z" fill="white"/>
<path d="M112.621 144.47C112.621 144.47 112.592 144.483 112.528 144.496C112.455 144.513 112.362 144.533 112.25 144.556C111.987 144.609 111.625 144.682 111.171 144.772C110.231 144.954 108.873 145.207 107.187 145.492C105.503 145.784 103.491 146.087 101.254 146.395C99.0127 146.687 96.546 146.97 93.9497 147.182C91.3502 147.381 88.8701 147.484 86.6125 147.504C84.3549 147.491 82.3198 147.438 80.6199 147.275C80.195 147.239 79.7899 147.212 79.4048 147.169C79.023 147.122 78.6644 147.076 78.3258 147.033C77.9905 146.99 77.6784 146.95 77.3862 146.913C77.0974 146.87 76.8384 146.82 76.6027 146.777C76.1446 146.694 75.7827 146.628 75.5204 146.578C75.4075 146.555 75.3146 146.535 75.2382 146.521C75.1751 146.508 75.1419 146.498 75.1452 146.495C75.1452 146.492 75.1784 146.495 75.2415 146.502C75.3179 146.512 75.4108 146.525 75.5237 146.538C75.7893 146.578 76.1512 146.631 76.6127 146.697C76.8484 146.731 77.1107 146.777 77.3995 146.814C77.6884 146.844 78.0038 146.88 78.3391 146.917C78.6777 146.953 79.0363 146.993 79.4181 147.036C79.7999 147.073 80.2049 147.096 80.6299 147.126C82.3297 147.272 84.3582 147.308 86.6125 147.312C88.8668 147.282 91.3435 147.172 93.9364 146.973C96.5294 146.764 98.9928 146.485 101.234 146.206C103.471 145.907 105.483 145.622 107.167 145.346C108.853 145.084 110.218 144.852 111.157 144.692C111.615 144.616 111.981 144.556 112.243 144.513C112.359 144.496 112.452 144.483 112.525 144.473C112.588 144.466 112.621 144.463 112.621 144.466V144.47Z" fill="white"/>
<path d="M100.935 123.527C100.935 123.527 100.908 123.56 100.845 123.617C100.776 123.68 100.686 123.76 100.57 123.863C100.317 124.085 99.9589 124.397 99.5041 124.792C98.5678 125.606 97.2266 126.771 95.5765 128.205C92.2632 131.09 87.7114 135.107 82.748 139.619C77.7813 144.134 73.3458 148.291 70.152 151.319C68.565 152.83 67.2768 154.055 66.3738 154.911C65.9356 155.326 65.5903 155.652 65.3446 155.884C65.2317 155.987 65.1421 156.07 65.0724 156.133C65.0093 156.189 64.9761 156.216 64.9761 156.213C64.9761 156.209 65.0026 156.179 65.0591 156.116C65.1255 156.05 65.2085 155.96 65.318 155.851C65.5571 155.612 65.8924 155.276 66.324 154.848C67.1972 153.982 68.4754 152.737 70.059 151.206C73.2296 148.148 77.6518 143.975 82.6186 139.457C87.5853 134.945 92.1536 130.944 95.4869 128.086C97.1535 126.658 98.5114 125.509 99.4543 124.722C99.9191 124.337 100.284 124.035 100.543 123.823C100.663 123.726 100.756 123.65 100.829 123.594C100.895 123.544 100.928 123.517 100.932 123.521L100.935 123.527Z" fill="#1A2E35"/>
<g opacity="0.3">
<path d="M82.2435 140.064L69.2324 152.102C80.4407 146.777 90.0123 138.673 96.2373 127.541L82.2435 140.064Z" fill="black"/>
</g>
<g opacity="0.3">
<path d="M112.621 131.558C115.433 125.576 115.5 113.849 112.658 107.382C112.827 114.653 112.81 124.304 112.621 131.558Z" fill="black"/>
</g>
<path d="M112.621 101.592C112.674 101.592 112.721 116.051 112.721 133.882C112.721 151.714 112.678 166.176 112.621 166.176C112.565 166.176 112.521 151.721 112.521 133.882C112.521 116.044 112.565 101.592 112.621 101.592Z" fill="#1A2E35"/>
<path d="M108 51.5595C108.93 49.4147 109.879 47.2069 110.012 44.8464C110.145 42.4859 109.278 39.9029 107.356 38.7841C105.58 37.7516 103.362 38.1633 101.47 37.4063C99.1357 36.4734 97.7014 33.9502 96.7087 31.4801C95.7161 29.01 97.1868 28.1535 95.4637 26.2113C93.1763 23.6383 91.659 23.2399 88.661 24.7073C86.5628 23.0705 79.2123 20.0261 77.0776 19.9066C73.9103 19.7306 70.2948 19.9066 68.0306 22.2405C66.2743 24.0499 65.1322 26.3739 62.9941 27.6588C60.0559 29.4217 56.3906 27.7783 53.0042 27.8281C52.3137 27.8381 51.5069 28.0041 51.2081 28.6581C50.9492 29.2225 51.1948 29.8865 51.4438 30.4575C52.2738 32.3865 53.1038 34.3154 53.9338 36.2443C52.4996 36.9017 50.7765 36.8153 49.4087 36.0219C49.4784 39.7635 50.8529 43.4587 53.2101 46.2674C52.6191 45.8059 51.7061 46.2475 51.3907 46.9447C51.0753 47.6419 51.1948 48.4652 51.3708 49.2122C52.4498 53.8104 55.5009 57.8575 59.5181 60.0188C63.5353 62.1801 68.4489 62.4192 72.6387 60.6562L91.2573 62.5686C91.742 64.1057 92.9571 65.3474 94.4047 65.7757C96.5295 64.2053 96.8814 63.3023 96.8814 63.3023C98.1463 64.3348 97.147 63.8069 98.1463 64.3348C100.434 65.5466 103.883 64.2551 104.461 61.5659C104.703 60.4405 105.025 59.3648 105.766 58.6145C106.523 57.8442 107.582 57.5687 108.525 57.0972C110.009 56.3569 111.257 55.0753 112.021 53.5083C110.51 53.4884 109.019 52.7646 108.003 51.5595H108Z" fill="#1A2E35"/>
<path d="M79.6105 23.074L78.6743 23.1238C69.2455 23.6218 61.7523 31.6263 61.4701 41.5199C61.2045 50.7329 61.0252 60.922 61.3207 65.8422C61.9315 76.0247 71.7222 77.097 71.7222 77.097C71.7289 77.2033 71.689 78.7305 71.6359 80.8221C71.4666 87.5451 76.6159 93.0961 83.0301 93.0961C89.2585 93.0961 94.3314 87.8538 94.4277 81.3234L94.9821 42.8612C95.344 32.2339 89.7498 23.157 79.6105 23.074Z" fill="#FFBE9D"/>
<path d="M71.7225 77.0969C71.7225 77.0969 77.8645 77.1501 84.1824 72.5054C84.1824 72.5054 81.4534 80.1115 71.7158 79.7065L71.7225 77.0969Z" fill="#EB996E"/>
<path d="M77.9471 46.0781C78.1363 46.2872 79.2751 45.3709 80.8986 45.3643C82.522 45.3311 83.7172 46.2208 83.8932 46.005C83.9795 45.9087 83.787 45.5303 83.2657 45.1252C82.7544 44.7235 81.878 44.3384 80.8687 44.3517C79.8561 44.3649 79.0062 44.7733 78.5214 45.185C78.0234 45.6 77.8574 45.9851 77.9504 46.0781H77.9471Z" fill="#1A2E35"/>
<path d="M79.398 49.2521C79.4079 49.9792 80.0055 50.5701 80.7293 50.5734C81.4531 50.5734 82.0341 49.9891 82.0208 49.262C82.0108 48.535 81.4132 47.9407 80.6895 47.9407C79.9657 47.9407 79.3847 48.525 79.3947 49.2554L79.398 49.2521Z" fill="#1A2E35"/>
<path d="M73.6247 57.8275C73.6247 57.7378 72.6917 57.6183 71.1778 57.4955C70.796 57.4755 70.4308 57.4125 70.3511 57.1435C70.2482 56.858 70.3877 56.4198 70.547 55.945C70.8591 54.959 71.1845 53.9231 71.5264 52.8408C72.8843 48.4219 73.8471 44.7998 73.6745 44.7433C73.5051 44.6869 72.2668 48.2227 70.9089 52.6416C70.5835 53.7306 70.2715 54.7697 69.976 55.7624C69.8531 56.2239 69.6307 56.7518 69.8531 57.3427C69.9693 57.6349 70.2615 57.8374 70.5072 57.8939C70.7562 57.9603 70.9687 57.9536 71.1579 57.9536C72.6751 57.9603 73.6147 57.9171 73.6147 57.8275H73.6247Z" fill="#1A2E35"/>
<path d="M78.3228 39.3916C78.4722 39.7734 79.777 39.5178 81.3307 39.6406C82.8878 39.727 84.156 40.1519 84.3453 39.7934C84.4283 39.6207 84.1926 39.2688 83.6713 38.9202C83.1534 38.5716 82.34 38.2562 81.4071 38.1931C80.4742 38.1334 79.6342 38.3359 79.0831 38.6148C78.5286 38.8936 78.2564 39.2124 78.3228 39.395V39.3916Z" fill="#1A2E35"/>
<path d="M63.2863 42.4826C63.449 42.7947 64.7238 42.4826 66.261 42.4693C67.7982 42.4261 69.0664 42.6917 69.2357 42.373C69.3088 42.2203 69.0631 41.9381 68.5319 41.6825C68.0073 41.4268 67.1906 41.221 66.271 41.2343C65.3513 41.2509 64.5313 41.4866 64.0001 41.7655C63.4656 42.041 63.2132 42.3332 63.2863 42.4826Z" fill="#1A2E35"/>
<path d="M94.5508 50.4474C94.7135 50.3644 101.128 48.0238 101.251 54.9991C101.373 61.9777 94.6703 60.6663 94.6537 60.4671C94.6371 60.2679 94.5508 50.4474 94.5508 50.4474Z" fill="#FFBE9D"/>
<path d="M96.6388 57.7878C96.6687 57.7645 96.755 57.8708 96.9542 57.9604C97.1468 58.0467 97.4755 58.1065 97.8208 57.9604C98.518 57.6749 99.089 56.493 99.099 55.238C99.1056 54.6039 98.9662 53.9997 98.7437 53.505C98.5313 52.997 98.2092 52.6484 97.854 52.5887C97.502 52.509 97.253 52.7381 97.1767 52.9339C97.0904 53.1298 97.1368 53.2693 97.1003 53.2825C97.0804 53.2991 96.9542 53.1697 97.004 52.8775C97.0306 52.7381 97.1036 52.5721 97.2564 52.4359C97.4124 52.2965 97.6481 52.2235 97.8938 52.2467C98.4084 52.2733 98.8765 52.7613 99.1222 53.3058C99.3944 53.8536 99.5638 54.5309 99.5571 55.2413C99.5405 56.649 98.8765 57.977 97.9204 58.2858C97.4556 58.4219 97.0605 58.2825 96.858 58.1231C96.6488 57.9538 96.6123 57.7977 96.6322 57.7878H96.6388Z" fill="#EB996E"/>
<path d="M103.631 39.3718C102.3 36.8818 102.037 33.9403 101.34 31.1781C100.643 28.4158 99.2453 25.5407 96.7021 24.5215L96.6424 24.548C94.3616 23.5222 91.5229 23.4425 89.594 25.0726C89.2023 21.4372 86.2375 18.499 82.8843 17.4897C79.5311 16.4838 74.1129 16.9087 70.8493 18.1969C68.3261 19.1929 65.8627 21.2978 62.8581 24.4053C61.5932 25.7134 60.4212 27.1277 59.3754 28.635L56.2413 38.0604C55.9193 38.2962 55.6371 38.585 55.398 38.9104C54.1962 40.5504 56.331 42.6918 57.8382 41.3605C57.8482 41.3539 57.8548 41.3439 57.8648 41.3373C58.1536 41.8818 58.3694 42.4329 58.5985 42.984V42.9973L58.6483 43.1002C58.7911 43.4422 58.9405 43.7841 59.1198 44.1261V44.1028L61.1616 54.6505C61.3674 51.792 61.3807 41.832 61.5865 38.9734C65.7996 38.8838 69.6475 37.1906 72.5425 33.9768C74.0697 32.2803 75.2882 30.1389 77.3034 29.1529C79.903 27.8813 82.9441 28.9238 85.63 29.9729L85.5171 29.8634C86.9115 30.5805 88.1731 31.5798 89.2089 32.7949C88.4785 38.4124 88.9134 44.1958 90.4871 49.624C90.7228 50.4407 91.3802 52.1306 92.1338 52.456C93.6146 53.0967 94.0495 51.5131 94.9658 50.6864C95.6398 50.0788 96.6225 50.0224 97.6948 50.049C98.3622 48.3259 99.076 45.4109 99.6735 42.8578C100.57 43.1666 101.526 43.2662 102.459 43.1201C102.187 42.3964 101.918 41.6693 101.646 40.9455C102.011 41.2012 102.393 41.4634 102.828 41.5398C103.262 41.6162 103.767 41.4568 103.97 41.0484C104.235 40.5206 103.903 39.8964 103.624 39.3752L103.631 39.3718Z" fill="#1A2E35"/>
<path d="M86.523 26.1682C86.5031 26.1948 86.9248 26.4471 87.4759 27.1244C88.0237 27.7983 88.6279 28.9637 88.8902 30.534C89.0263 31.3142 89.1027 32.1874 89.0828 33.1236C89.0662 34.0599 88.9732 35.0592 88.8836 36.1149C88.7939 37.1707 88.701 38.2829 88.7408 39.4482C88.7607 40.0292 88.8138 40.6202 88.9201 41.2111C89.0296 41.7921 89.1624 42.4263 89.5675 42.9342C89.8895 43.3492 90.4406 43.5418 90.9254 43.4488C91.4101 43.3691 91.8483 43.1102 92.1704 42.7483C92.8111 41.998 92.9871 41.0352 93.1597 40.1853L92.9572 40.2052C93.2726 40.9787 93.598 41.7457 94.0893 42.3632C94.574 42.984 95.2546 43.4023 95.9518 43.4853C96.3004 43.5252 96.6524 43.4754 96.9545 43.326C97.2632 43.1766 97.4923 42.9176 97.6484 42.6421C97.8011 42.3599 97.8808 42.0478 97.8741 41.7457C97.8642 41.4435 97.7579 41.1547 97.5786 40.9489L97.4724 41.0418C98.1995 41.9515 98.9797 42.4495 99.5208 42.7284C99.7931 42.8678 100.012 42.9541 100.162 43.0073C100.311 43.0571 100.391 43.0803 100.391 43.0737C100.391 43.067 100.318 43.0338 100.175 42.9707C100.032 42.9043 99.8196 42.8081 99.554 42.662C99.0295 42.3665 98.2758 41.8552 97.5786 40.9522L97.4724 41.0451C97.7911 41.4137 97.7944 42.0511 97.5056 42.5557C97.3595 42.8047 97.1504 43.0371 96.8781 43.1633C96.6092 43.2928 96.2872 43.3393 95.9684 43.2961C95.3277 43.2131 94.6936 42.8213 94.2387 42.2304C93.7739 41.6394 93.4585 40.8957 93.1464 40.1189L93.0136 39.7902L92.9406 40.1421C92.768 40.992 92.582 41.915 91.9977 42.5923C91.7089 42.9176 91.3072 43.15 90.8822 43.2197C90.4572 43.2961 90.009 43.1367 89.7268 42.7848C89.3716 42.3466 89.2355 41.7457 89.1292 41.1746C89.023 40.5969 88.9699 40.0193 88.95 39.4482C88.9068 38.3061 88.9998 37.1973 89.0794 36.1448C89.1658 35.0891 89.2521 34.0831 89.2587 33.1369C89.272 32.1874 89.1824 31.3043 89.0363 30.5141C88.7474 28.9205 88.1067 27.7419 87.529 27.0746C86.9447 26.4039 86.5098 26.1782 86.5098 26.1782L86.523 26.1682Z" fill="#375A64"/>
<path d="M56.3208 35.3514C56.3208 35.3514 56.344 35.378 56.3972 35.4212C56.4602 35.4743 56.5399 35.534 56.6362 35.6137C56.7391 35.7 56.8719 35.7996 57.0412 35.8992C57.2072 36.0055 57.3932 36.1316 57.6256 36.2379C58.5153 36.7093 59.9496 37.1874 61.759 37.1177C63.5484 37.0546 65.7098 36.4404 67.6586 34.9896C69.6274 33.5752 71.3737 31.4637 72.8146 29.0335C73.545 27.8184 74.1492 26.57 74.8066 25.4213C75.4606 24.2693 76.1777 23.2069 77.0376 22.3769C77.8875 21.5402 78.8669 20.9327 79.8696 20.6638C80.3676 20.521 80.8689 20.4978 81.347 20.521C81.825 20.5575 82.2766 20.6704 82.6882 20.8231C83.5182 21.1352 84.1822 21.6365 84.6802 22.1478C85.1816 22.6624 85.5169 23.2002 85.7426 23.6617C86.1643 24.6079 86.1742 25.2055 86.2108 25.1989C86.2141 25.1989 86.2108 25.1624 86.2041 25.0926C86.1942 25.0096 86.1809 24.9067 86.1643 24.7806C86.1244 24.5083 86.0182 24.1099 85.8223 23.6252C85.6032 23.1504 85.2745 22.5927 84.7699 22.0582C84.2652 21.527 83.5946 21.0057 82.7414 20.6704C82.3164 20.5077 81.8516 20.3849 81.3569 20.3417C80.8622 20.3118 80.3377 20.3318 79.8198 20.4778C78.7806 20.7468 77.7647 21.3709 76.8915 22.2208C76.0084 23.0674 75.2714 24.1464 74.6107 25.3051C73.9434 26.4638 73.3424 27.7088 72.6187 28.9106C71.1878 31.3243 69.4647 33.4126 67.5358 34.8136C65.6234 36.2512 63.5119 36.8687 61.749 36.955C59.9695 37.0446 58.5518 36.5964 57.6621 36.1582C56.7624 35.7133 56.3407 35.3249 56.3208 35.3548V35.3514Z" fill="#375A64"/>
<path d="M55.5342 30.8626C55.5342 30.8626 55.6471 30.9688 55.8761 31.1249C56.1019 31.2842 56.4505 31.4834 56.8954 31.6959C57.3369 31.9117 57.8881 32.1209 58.5122 32.2968C59.1397 32.4628 59.8435 32.589 60.5905 32.6355C61.3375 32.6753 62.0513 32.6288 62.6921 32.5359C63.3329 32.433 63.9006 32.2902 64.3621 32.1242C64.8269 31.9615 65.1921 31.8055 65.4344 31.6727C65.6768 31.5432 65.8096 31.4668 65.8029 31.4502C65.7863 31.4104 65.2419 31.686 64.3189 31.9648C63.8574 32.1076 63.2963 32.2304 62.6655 32.3201C62.0347 32.3998 61.3375 32.4363 60.6038 32.3998C59.8734 32.3533 59.1829 32.2338 58.5653 32.0844C57.9511 31.9217 57.4033 31.7358 56.9618 31.5432C56.072 31.1614 55.5607 30.8261 55.5375 30.8626H55.5342Z" fill="#375A64"/>
<path d="M63.1302 46.3704C63.3194 46.5796 64.4582 45.6633 66.0817 45.6533C67.7051 45.6201 68.9003 46.5099 69.0763 46.2941C69.1626 46.1978 68.9701 45.8193 68.4488 45.4143C67.9342 45.0126 67.0611 44.6274 66.0518 44.6374C65.0392 44.6507 64.1893 45.059 63.7045 45.4707C63.2065 45.8857 63.0405 46.2708 63.1335 46.3638L63.1302 46.3704Z" fill="#1A2E35"/>
<path d="M65.4278 49.5211C65.4377 50.2482 66.0353 50.8392 66.7591 50.8425C67.4828 50.8425 68.0638 50.2582 68.0506 49.5311C68.0406 48.804 67.443 48.2097 66.7192 48.2097C65.9955 48.2097 65.4145 48.794 65.4244 49.5244L65.4278 49.5211Z" fill="#1A2E35"/>
<path d="M72.5391 61.1843C73.3226 60.8888 75.63 60.5203 76.46 60.424L77.4261 60.175C77.8643 60.8058 77.8577 62.4891 77.456 63.1498C77.0377 63.8304 76.2907 64.242 75.5271 64.3516C74.9826 64.4313 74.3817 64.3516 73.9667 63.9764C73.9667 63.9764 72.7715 63.3822 72.5424 61.1876" fill="#EB996E"/>
<path d="M74.9527 64.2751C74.9428 64.212 75.6002 64.3382 76.3936 63.7871C76.7788 63.5148 77.1605 63.0666 77.3763 62.4591C77.5955 61.8615 77.6685 61.1211 77.4959 60.4006C77.4859 60.3608 77.4759 60.3243 77.4693 60.2878L77.6419 60.404C76.2011 60.6364 74.8996 60.8289 73.9567 60.9551C73.0139 61.0813 72.4295 61.1344 72.4229 61.0912C72.4163 61.048 72.9873 60.9152 73.9236 60.7326C74.8565 60.55 76.1546 60.321 77.5955 60.0852L77.7316 60.062L77.7648 60.1981C77.7747 60.238 77.7847 60.2778 77.7947 60.321C77.9839 61.1145 77.8943 61.9179 77.6386 62.5686C77.3863 63.226 76.9414 63.7107 76.5065 63.9796C76.0683 64.2519 75.6533 64.3348 75.3777 64.3382C75.0988 64.3415 74.9494 64.2917 74.9494 64.2751H74.9527Z" fill="#1A2E35"/>
<path d="M75.3479 64.388C75.1388 64.388 74.9595 64.3548 74.9197 64.3117L74.9064 64.2951V64.2785V64.2619L74.9197 64.2386C74.9429 64.2087 74.9794 64.2054 75.0757 64.1988C75.2915 64.1822 75.7961 64.1423 76.3705 63.7439C76.6195 63.568 77.0777 63.1663 77.3366 62.4425C77.5624 61.8217 77.6122 61.1278 77.4694 60.4837C76.1447 60.6962 74.9064 60.8821 73.9635 61.0049C72.3931 61.2108 72.3865 61.161 72.3765 61.0979C72.3666 61.0348 72.3599 60.985 73.9137 60.6829C74.8898 60.4937 76.1912 60.2646 77.5856 60.0355L77.7649 60.0056L77.8413 60.3111C78.0205 61.0647 77.9641 61.8748 77.6852 62.5919C77.4528 63.1961 77.0345 63.7174 76.5332 64.0261C76.0352 64.3382 75.5969 64.388 75.3811 64.3913C75.3712 64.3913 75.3579 64.3913 75.3479 64.3913V64.388ZM75.2185 64.2851C75.2649 64.2851 75.3181 64.2917 75.3811 64.2884C75.5903 64.2884 76.0086 64.2353 76.4867 63.9365C76.9681 63.6377 77.3731 63.1331 77.5989 62.5521C77.8711 61.8549 77.9243 61.068 77.7516 60.3343L77.6985 60.1185L77.6022 60.1351C76.2111 60.3609 74.9064 60.5933 73.9336 60.7825C73.2431 60.9186 72.8745 61.0016 72.6787 61.0514C72.8812 61.0381 73.2563 61.0016 73.9535 60.9087C74.8898 60.7858 76.1248 60.6032 77.4462 60.3907L77.3964 60.1849L77.7748 60.4372L77.652 60.4571C77.6221 60.4605 77.5923 60.4671 77.5657 60.4704C77.7085 61.1344 77.6587 61.8449 77.4263 62.4823C77.2271 63.0368 76.8718 63.5182 76.4236 63.8336C75.9323 64.1755 75.4874 64.2619 75.2218 64.2917L75.2185 64.2851Z" fill="#1A2E35"/>
<path d="M31.8125 65.6595C31.8125 65.6595 20.2822 70.0153 14.6382 68.3055C8.99086 66.5924 5.02346 64.1954 2.19482 57.1802C-0.0959753 51.503 0.362185 44.531 3.1045 39.0796C5.50486 34.3087 9.79099 31.6195 14.3029 29.0299C19.907 25.8128 27.5131 23.1668 33.8942 22.9112C40.2752 22.6555 44.3721 24.621 49.0898 29.1395C53.8075 33.658 56.3208 40.8657 54.6541 47.3331C52.8912 54.1889 47.0082 59.056 40.8463 61.9909C40.8463 61.9909 39.1099 68.3487 44.0003 71.8646C44.0003 71.8646 36.0289 73.9362 31.8125 65.6595Z" fill="#FAFAFA"/>
<path d="M31.8125 65.6595C31.8125 65.6595 31.8589 65.7292 31.9453 65.8753C32.0349 66.0247 32.1644 66.2438 32.3337 66.5293C32.42 66.6754 32.5163 66.8381 32.6225 67.0174C32.7321 67.1933 32.8782 67.366 33.0243 67.5618C33.1703 67.7577 33.3297 67.9669 33.5023 68.196C33.6783 68.4184 33.9007 68.6209 34.1165 68.8533C34.9963 69.763 36.2513 70.7524 37.9511 71.3666C38.7878 71.7019 39.7406 71.8911 40.7599 71.9907C41.7758 72.077 42.878 72.0538 43.9969 71.8081L43.9803 71.911C42.6954 70.9881 41.5533 69.5771 40.9823 67.8042C40.6835 66.9244 40.5308 65.9649 40.5009 64.9822C40.4677 63.9962 40.554 62.9836 40.7897 61.971L40.7964 61.9378L40.8263 61.9245C42.5593 61.0912 44.3156 60.0852 46.032 58.8568C47.7518 57.635 49.4085 56.1576 50.8792 54.3914C51.0718 54.1789 51.2411 53.9432 51.4137 53.7108C51.5864 53.4751 51.769 53.2526 51.9317 53.007C52.2504 52.5156 52.589 52.0309 52.8679 51.503C53.1767 50.9917 53.4223 50.4373 53.6813 49.8895C53.8075 49.6139 53.9071 49.3218 54.0199 49.0362L54.1859 48.6046C54.2357 48.4586 54.2756 48.3092 54.3221 48.1598C54.7205 46.9845 54.923 45.7295 55.0292 44.458C55.1388 43.1831 55.0691 41.8783 54.8798 40.5802C54.5146 37.9773 53.5518 35.4209 52.1508 33.0969C51.4337 31.9449 50.607 30.8526 49.6674 29.8566C48.7245 28.8639 47.6854 27.941 46.5997 27.0778C44.4351 25.3514 41.9185 23.9636 39.1463 23.4025C36.3841 22.8248 33.4824 22.9045 30.6239 23.3361C27.7355 23.771 24.9334 24.538 22.2442 25.5041C19.555 26.4702 16.9754 27.6388 14.5518 29.0067C12.1348 30.3845 9.77098 31.7922 7.71258 33.5352C5.65086 35.2649 3.94438 37.383 2.87866 39.7834C2.33086 40.9753 1.89926 42.2037 1.57058 43.4454C1.25186 44.6904 1.03938 45.9486 0.923184 47.1936C0.797024 48.442 0.800344 49.6803 0.880024 50.8921C0.909904 51.4997 0.996224 52.0973 1.07258 52.6882C1.17882 53.2759 1.27178 53.8635 1.42118 54.4279C2.59978 58.9431 4.91382 62.9172 8.08442 65.1814C9.65478 66.3202 11.338 67.0937 12.9681 67.6714C13.3765 67.8175 13.7782 67.9569 14.1799 68.0798C14.5783 68.2225 14.9801 68.3088 15.3751 68.3951C15.7669 68.5047 16.1653 68.5213 16.5571 68.5678C16.9455 68.6209 17.3339 68.6209 17.7124 68.6242C19.2297 68.6342 20.6407 68.4781 21.9255 68.2657C23.2137 68.0665 24.379 67.8009 25.4215 67.5585C27.5064 67.0472 29.1033 66.5492 30.179 66.204C31.2149 65.8587 31.6929 65.696 31.8191 65.6562C31.8191 65.6562 31.683 65.7159 31.4107 65.8155C31.1385 65.9151 30.7301 66.0612 30.1923 66.2438C29.1166 66.6057 27.523 67.1136 25.4381 67.6382C24.3923 67.8872 23.2269 68.1594 21.9388 68.3653C20.6506 68.5844 19.2363 68.7504 17.7091 68.7438C17.3273 68.7438 16.9389 68.7438 16.5471 68.6906C16.1553 68.6475 15.7503 68.6309 15.3519 68.5213C14.9502 68.435 14.5418 68.3487 14.1467 68.2059C13.745 68.0831 13.34 67.9436 12.9283 67.7976C11.2915 67.2232 9.59502 66.4496 8.00474 65.3042C7.21126 64.7332 6.46758 64.046 5.76374 63.289C5.06986 62.5221 4.44902 61.6556 3.87134 60.7359C3.32354 59.7964 2.79566 58.817 2.36738 57.7645C2.13166 57.2499 1.94242 56.7054 1.7399 56.161C1.57058 55.6065 1.38466 55.0488 1.2585 54.4711C1.10578 53.9 1.01282 53.3091 0.903264 52.7148C0.826904 52.1172 0.740584 51.5163 0.707384 50.9021C0.624384 49.6803 0.621064 48.4287 0.743904 47.1737C0.860104 45.9154 1.07258 44.6505 1.39462 43.3922C1.72662 42.1406 2.16154 40.8989 2.71266 39.6938C3.78834 37.2668 5.51474 35.1155 7.59306 33.3725C9.66806 31.6129 12.0385 30.1986 14.4588 28.8174C16.8924 27.443 19.482 26.271 22.1778 25.2982C24.877 24.3288 27.689 23.5586 30.5907 23.1203C33.4658 22.6854 36.3874 22.6057 39.1829 23.19C41.9849 23.7578 44.5347 25.1654 46.7126 26.9051C47.8049 27.7783 48.8441 28.7012 49.8002 29.7072C50.7497 30.7165 51.5864 31.8187 52.3068 32.984C53.7178 35.328 54.6906 37.9142 55.0558 40.5437C55.245 41.8551 55.3147 43.1731 55.2019 44.4646C55.0923 45.7494 54.8831 47.021 54.4814 48.2096C54.4349 48.359 54.3951 48.5117 54.342 48.6578L54.1727 49.0927C54.0565 49.3815 53.9569 49.6737 53.8307 49.9526C53.5651 50.507 53.3194 51.0648 53.0073 51.5827C52.7251 52.1172 52.3832 52.6052 52.0578 53.0999C51.8951 53.3456 51.7059 53.5714 51.5333 53.8071C51.3573 54.0395 51.1847 54.2752 50.9921 54.491C49.5081 56.2672 47.8381 57.7512 46.1084 58.9763C44.382 60.208 42.6157 61.214 40.8761 62.044L40.9159 61.9975C40.6835 62.9836 40.5939 63.9928 40.6237 64.9656C40.6536 65.9384 40.7997 66.8846 41.0919 67.7511C41.6496 69.5007 42.7651 70.8918 44.0334 71.8048L44.1396 71.8811L44.0168 71.9077C42.878 72.1534 41.7725 72.17 40.7466 72.0804C39.7207 71.9741 38.7612 71.7782 37.9179 71.4363C36.2081 70.8055 34.9499 69.8028 34.0734 68.8832C33.8576 68.6475 33.6351 68.4416 33.4625 68.2159C33.2932 67.9868 33.1371 67.7743 32.9911 67.5751C32.8483 67.3759 32.7022 67.2 32.596 67.024C32.4931 66.8447 32.4001 66.682 32.3171 66.536C32.1544 66.2471 32.0283 66.0247 31.9419 65.8753C31.8589 65.7259 31.8158 65.6462 31.8158 65.6462L31.8125 65.6595Z" fill="#1A2E35"/>
<path d="M38.3063 32.848C38.3296 32.8978 32.1112 36.1481 24.4188 40.1022C16.723 44.0563 10.4681 47.2203 10.4449 47.1705C10.4216 47.1207 16.6367 43.8737 24.3324 39.9163C32.0249 35.9622 38.2798 32.7982 38.3063 32.848Z" fill="#1A2E35"/>
<path d="M40.8991 38.5484C40.9223 38.5982 34.704 41.8485 27.0115 45.8026C19.3158 49.7568 13.0609 52.9207 13.0377 52.8709C13.0144 52.8211 19.2295 49.5741 26.9252 45.6167C34.6177 41.6626 40.8725 38.4986 40.8991 38.5484Z" fill="#1A2E35"/>
<path d="M43.26 44.0529C43.26 44.0529 43.1736 44.1127 43.001 44.209C42.8118 44.3119 42.5594 44.448 42.2474 44.6206C41.5701 44.9825 40.6239 45.4938 39.4619 46.118C37.108 47.3796 33.871 49.1491 30.2954 51.1079C26.7197 53.0667 23.4661 54.8164 21.099 56.0448C19.9137 56.659 18.9509 57.1503 18.2836 57.4823C17.9616 57.6384 17.7059 57.7645 17.5134 57.8608C17.3374 57.9438 17.2411 57.987 17.2378 57.9803C17.2378 57.9737 17.3241 57.9206 17.4968 57.8243C17.686 57.7214 17.9383 57.5852 18.2504 57.4126C18.9277 57.0507 19.8739 56.5394 21.0359 55.9153C23.3898 54.6537 26.6268 52.8841 30.2057 50.9253C33.7814 48.9665 37.0316 47.2169 39.4021 45.9885C40.5874 45.3743 41.5502 44.8829 42.2175 44.5509C42.5395 44.3949 42.7952 44.2687 42.9877 44.1724C43.1637 44.0894 43.26 44.0463 43.2633 44.0529H43.26Z" fill="#1A2E35"/>
<path d="M41.7363 88.1857L43.3863 125.446L46.2913 128.723L49.9898 133.431C49.9898 133.431 46.2913 149.081 40.8764 150.466C35.4615 151.85 29.5983 149.755 27.8819 144.768C26.1655 139.782 27.0419 131.06 27.5698 125.469C28.0977 119.878 30.6043 89.3411 30.6043 89.3411L36.9156 86.6187L41.7363 88.1824V88.1857Z" fill="#FFBE9D"/>
<path d="M41.6897 88.5941C41.6897 88.5941 42.118 85.3338 41.6897 83.1957C41.2614 81.0577 38.4726 76.5591 38.4726 76.5591C38.4726 76.5591 38.9009 72.2862 38.4726 71.6089C38.0443 70.935 37.0782 68.4583 35.2555 70.935C35.2555 70.935 33.9674 68.0101 33.1108 67.7843C32.2542 67.5585 31.8226 67.7843 31.8226 67.7843L34.0736 64.6336C34.0736 64.6336 34.2031 64.0061 34.0802 63.3455C33.964 62.718 33.4328 62.2698 32.8253 62.2698C32.4534 62.2698 32.0982 62.4391 31.8558 62.7379L26.3513 69.4675C26.3513 69.4675 22.9184 75.9913 23.028 76.7782C23.1375 77.565 25.0664 80.1513 25.0664 80.1513C25.0664 80.1513 30 87.2362 30.4282 88.5874C30.8565 89.9387 30.644 91.5123 30.644 91.5123L41.6897 88.5874V88.5941Z" fill="#FFBE9D"/>
<path d="M27.9383 75.3139C27.9118 75.3073 27.9782 74.8159 28.1276 74.0291C28.2803 73.2456 28.5193 72.1533 29.014 71.0278C29.5087 69.9023 30.2125 69.0225 30.8267 68.5279C31.1322 68.2789 31.4011 68.1095 31.597 68.0133C31.7929 67.917 31.9057 67.8771 31.9091 67.8904C31.9257 67.9236 31.4874 68.1228 30.9164 68.6407C30.342 69.152 29.6747 70.0185 29.1933 71.1141C28.7086 72.2131 28.4529 73.2887 28.2637 74.059C28.0811 74.8359 27.9682 75.3173 27.9383 75.3106V75.3139Z" fill="#EB996E"/>
<path d="M32.7919 75.5331C32.7687 75.5265 32.7986 75.2377 32.9181 74.7861C33.0343 74.3346 33.2468 73.7204 33.5688 73.0863C33.8909 72.4522 34.2594 71.9276 34.5549 71.5724C34.847 71.2171 35.0595 71.0279 35.0761 71.0478C35.1226 71.091 34.3723 71.9376 33.7415 73.1826C33.104 74.4243 32.8517 75.5497 32.7919 75.5331Z" fill="#EB996E"/>
<path d="M38.31 76.3698C38.2635 76.3964 38.2037 76.3798 38.1805 76.3366C38.1573 76.2901 38.1805 76.2337 38.227 76.2071C38.2735 76.1806 38.3332 76.1972 38.3565 76.2403C38.3797 76.2868 38.3565 76.3432 38.31 76.3698Z" fill="#EB996E"/>
<path d="M38.2503 78.1859C38.1972 78.1793 38.2304 77.502 38.3267 76.672C38.3699 76.2902 38.4197 75.9449 38.4661 75.686L38.5989 75.7424C38.4031 75.9881 38.2703 76.1308 38.247 76.1109C38.2238 76.091 38.3134 75.915 38.4827 75.6494L38.6321 75.4104L38.6155 75.7059C38.5989 75.9682 38.5691 76.3168 38.5259 76.6986C38.4296 77.5286 38.3068 78.1959 38.2537 78.1859H38.2503Z" fill="#EB996E"/>
<path d="M42.231 100.427C42.231 100.427 42.2409 100.457 42.2476 100.52C42.2542 100.593 42.2642 100.686 42.2774 100.798C42.3007 101.061 42.3339 101.416 42.3737 101.868C42.4401 102.797 42.5264 104.142 42.6128 105.805C42.7887 109.132 42.978 113.73 43.1606 118.806C43.3398 123.886 43.4793 128.487 43.5689 131.817C43.6088 133.467 43.6386 134.812 43.6619 135.761C43.6685 136.213 43.6718 136.571 43.6752 136.834C43.6752 136.947 43.6752 137.036 43.6752 137.113C43.6752 137.176 43.6718 137.209 43.6685 137.209C43.6652 137.209 43.6619 137.176 43.6552 137.113C43.6519 137.036 43.6453 136.947 43.6386 136.834C43.6254 136.571 43.6088 136.213 43.5888 135.761C43.5523 134.812 43.4992 133.471 43.4328 131.821C43.3133 128.477 43.1506 123.886 42.968 118.813C42.7788 113.743 42.6061 109.155 42.48 105.808C42.4069 104.158 42.3438 102.817 42.3007 101.868C42.2774 101.416 42.2575 101.057 42.2409 100.798C42.2376 100.686 42.2343 100.596 42.231 100.52C42.231 100.457 42.231 100.423 42.231 100.423V100.427Z" fill="#EB996E"/>
<path d="M146.625 98.4543C146.625 98.4543 138.159 132.561 136.741 136.508C133.939 144.313 132.027 148.025 128.856 149.974C125.39 152.102 119.191 150.89 117.727 147.414C116.389 144.234 112.837 130.987 112.837 130.987L123.71 126.874L136.678 98.3713L146.621 98.451L146.625 98.4543Z" fill="#FFBE9D"/>
<path d="M165.984 82.4355C166.515 82.8405 155.091 93.3284 155.091 93.3284L146.628 98.4545L143.839 109.347L134.995 103.62C134.995 103.62 138.195 92.7573 139.686 92.007C142.282 90.7023 142.78 86.3265 143.71 86.4892C144.639 86.6519 145.044 86.6319 144.732 88.2554C144.423 89.8789 144.301 90.596 144.301 90.596L154.075 87.6246C154.075 87.6246 159.49 82.1068 161.193 82.4321C162.175 82.6181 162.292 82.7575 162.292 82.7575C162.292 82.7575 163.935 80.8751 165.99 82.4321L165.984 82.4355Z" fill="#FFBE9D"/>
<path d="M154.068 87.6279C154.068 87.6279 153.909 87.7076 153.607 87.8138C153.268 87.93 152.84 88.0761 152.332 88.2521C151.213 88.6173 149.739 89.102 148.109 89.6365C146.479 90.1677 145.005 90.6458 143.882 91.011C143.371 91.177 142.943 91.3198 142.604 91.4293C142.302 91.5289 142.133 91.5787 142.129 91.5654C142.126 91.5522 142.285 91.4791 142.581 91.353C142.876 91.2335 143.308 91.0641 143.843 90.8716C144.912 90.4831 146.402 89.9752 148.052 89.4406C149.702 88.9061 151.203 88.4413 152.292 88.116C152.836 87.9533 153.278 87.8271 153.583 87.7408C153.889 87.6578 154.062 87.618 154.065 87.6313L154.068 87.6279Z" fill="#EB996E"/>
<path d="M155.735 90.503C155.735 90.503 155.814 90.3768 155.984 90.1743C156.153 89.9718 156.402 89.6829 156.714 89.331C157.335 88.6238 158.205 87.6577 159.174 86.602C160.13 85.5694 160.994 84.6365 161.664 83.9094C161.963 83.5542 162.129 83.2089 162.156 82.95C162.189 82.691 162.116 82.5482 162.136 82.5449C162.142 82.5449 162.159 82.5748 162.186 82.6412C162.209 82.7109 162.235 82.8172 162.229 82.9566C162.229 83.2388 162.063 83.6272 161.767 84.0057C161.156 84.7361 160.277 85.6856 159.31 86.748C158.341 87.8071 157.455 88.7566 156.807 89.4372C156.482 89.7759 156.219 90.0514 156.034 90.234C155.848 90.42 155.741 90.5162 155.731 90.5063L155.735 90.503Z" fill="#EB996E"/>
<path d="M125.884 122.103C125.934 122.126 124.513 125.632 122.71 129.935C120.908 134.237 119.407 137.707 119.357 137.684C119.307 137.66 120.728 134.154 122.531 129.852C124.334 125.549 125.835 122.08 125.884 122.103Z" fill="#EB996E"/>
</g>
<defs>
<clipPath id="clip0_529_4744">
<rect width="166" height="166" fill="white"/>
</clipPath>
</defs>
</svg>
