<svg width="178" height="162" viewBox="0 0 178 162" fill="none" xmlns="http://www.w3.org/2000/svg">
<g clip-path="url(#clip0_529_5101)">
<path d="M130.111 135.51C131.243 135.51 139.99 157.84 141.877 173.988C143.764 190.136 125.234 312.265 125.234 312.265H104.483C104.483 312.265 104.935 258.575 104.44 243.402C103.895 226.738 102.93 192.582 102.93 192.582L60.5985 309.219L35.3652 304.006C35.3652 304.006 50.0716 244.432 56.1129 219.008C62.1542 193.58 71.9905 163.989 73.742 153.385C75.2586 144.206 76.8784 135.51 76.8784 135.51H130.111Z" fill="#1A2E35"/>
<path opacity="0.3" d="M65.1519 183.702L64.0483 187.467C64.0483 187.467 90.5775 193.124 95.4796 191.487C100.382 189.851 102.197 175.167 102.197 175.167C102.197 175.167 109.421 191.785 117.609 191.487C125.793 191.189 141.425 184.771 141.425 184.771L141.535 179.71L115.665 159.042L90.6665 160.529L65.1519 183.698V183.702Z" fill="black"/>
<path d="M134.846 87.8235C135.7 84.5025 128.267 80.8154 128.032 77.4166C127.797 74.0179 127.843 70.4668 129.627 67.4245C130.948 65.1727 133.24 63.0699 132.941 60.5621C132.599 57.698 129 55.7572 128.221 52.9449C127.662 50.9199 128.669 48.8722 129.264 46.8634C131.357 39.7905 127.156 26.4028 121.026 18.3968L112.151 29.7951L87.3162 12.9309C71.5525 23.4998 81.9157 41.9516 78.3272 51.9113C76.6433 56.5867 68.021 62.4316 68.6119 67.3175C69.1317 71.6429 71.8053 73.7327 71.5952 78.0808C71.4243 81.5898 68.4553 84.4053 67.0206 87.668C65.3083 91.5592 65.8387 95.93 65.2549 100.087C64.6675 104.244 62.2253 108.825 57.7041 109.629C61.0256 111.339 64.5713 112.691 68.2453 113.64C71.3247 114.437 74.6782 114.939 77.6828 113.935C79.7405 113.248 81.5205 111.638 82.1649 109.791C82.0972 111.874 82.026 113.954 81.9548 116.037C92.4711 116.653 105.803 112.354 114.718 107.241C114.682 102.536 114.411 97.9582 114.002 93.4384L138.377 106.084C142.254 105.089 133.995 91.1413 134.846 87.8235Z" fill="#1A2E35"/>
<path d="M121.026 18.3968C116.636 12.8142 110.453 9.38308 102.93 8.8258C98.6869 8.51152 96.8713 9.20812 93.7563 9.77836C90.6448 10.3486 87.7755 11.677 85.7819 13.9256C83.4145 16.5953 81.3675 19.6215 80.7124 22.9976C80.0396 26.4676 79.3668 29.9603 79.4059 33.4854C79.4451 37.0073 80.239 40.6005 82.3038 43.5813L92.0012 45.71C97.4053 46.1992 102.888 46.6852 108.245 45.872C113.603 45.0587 118.918 42.781 122.044 38.7407C126.391 33.129 125.408 23.976 121.019 18.3935L121.026 18.3968Z" fill="#1A2E35"/>
<path d="M82.1223 25.1068C82.578 19.4465 88.4342 12.0529 96.1238 12.4805L99.5663 12.3218L112.304 17.8233C114.187 18.0209 115.59 19.4984 115.533 21.2188L111.809 60.3839L95.2552 84.9917L92.6706 63.5915L92.2719 54.5357C92.2719 54.5357 83.5784 53.243 82.0369 43.7887C81.2715 39.0874 81.6168 31.3924 82.1223 25.1068Z" fill="#FFBE9D"/>
<path d="M97.569 42.5153C97.5334 42.0196 97.2628 41.566 96.9032 41.2452C96.1806 40.6037 95.0663 40.4806 94.2083 40.9439C93.3504 41.4105 92.8057 42.4376 92.8911 43.4258C93.3112 44.0284 93.9876 44.4593 94.7601 44.5662C94.8812 44.5824 95.0022 44.5954 95.1232 44.5986C95.7142 44.6181 96.3301 44.4723 96.8107 44.1029C97.2913 43.7336 97.6152 43.1212 97.569 42.5121V42.5153Z" fill="#EB996E"/>
<path d="M86.1556 33.1518C86.1235 33.7901 86.6931 34.3441 87.4265 34.3862C88.1599 34.4284 88.7793 33.9456 88.8113 33.3073C88.8434 32.669 88.2738 32.115 87.544 32.0729C86.8106 32.0308 86.1912 32.5135 86.1591 33.1518H86.1556Z" fill="#1A2E35"/>
<path d="M84.2403 28.3889C84.4041 28.5476 85.4187 27.8802 86.8534 27.8964C88.2845 27.8964 89.3276 28.5735 89.4842 28.4148C89.5625 28.3435 89.3952 28.0584 88.9431 27.7506C88.4945 27.446 87.7291 27.1447 86.8391 27.1382C85.9456 27.135 85.1944 27.4266 84.7565 27.7279C84.3115 28.0325 84.1585 28.3143 84.2403 28.3856V28.3889Z" fill="#1A2E35"/>
<path d="M92.6814 39.11C92.6885 39.0355 91.802 38.8897 90.3602 38.7083C89.9936 38.6694 89.6482 38.6013 89.5913 38.3745C89.5094 38.1348 89.666 37.7751 89.8476 37.3896C90.2 36.5893 90.5703 35.7469 90.9583 34.8656C92.4998 31.2725 93.6212 28.3176 93.4646 28.2625C93.3044 28.2074 91.9231 31.0748 90.3816 34.6647C90.0114 35.5493 89.6554 36.3949 89.3172 37.2017C89.1748 37.5775 88.9327 38.0052 89.1142 38.5041C89.2104 38.7536 89.4774 38.9351 89.7088 38.9966C89.9437 39.0647 90.1466 39.0679 90.3282 39.0809C91.7807 39.1651 92.6814 39.1781 92.6849 39.1068L92.6814 39.11Z" fill="#1A2E35"/>
<path d="M92.2541 54.5228C92.2541 54.5228 99.2316 54.9958 106.191 51.2795C106.191 51.2795 102.752 57.8665 92.3715 56.888L92.2505 54.5228H92.2541Z" fill="#EB996E"/>
<path d="M96.8857 40.0497C96.6543 40.0368 96.6329 41.4494 95.2908 42.4408C93.9522 43.4355 92.2968 43.2606 92.2826 43.4582C92.2612 43.5457 92.6493 43.7368 93.347 43.7595C94.0341 43.7887 95.038 43.5943 95.8568 42.9884C96.6756 42.3793 97.0352 41.5628 97.0921 40.9828C97.1598 40.3932 96.9889 40.04 96.8821 40.0465L96.8857 40.0497Z" fill="#1A2E35"/>
<path d="M84.5215 23.2178C84.76 23.5386 85.8565 23.3345 87.1381 23.4446C88.4232 23.5159 89.477 23.8691 89.7618 23.5872C89.89 23.4479 89.7511 23.1368 89.3132 22.8128C88.8789 22.4888 88.1278 22.1875 87.2449 22.126C86.362 22.0644 85.5717 22.2588 85.0911 22.518C84.6034 22.7772 84.4218 23.0656 84.5215 23.2211V23.2178Z" fill="#1A2E35"/>
<path d="M101.884 33.223C101.877 33.8613 101.272 34.383 100.538 34.3862C99.805 34.3894 99.2176 33.8775 99.2247 33.236C99.2318 32.5977 99.837 32.0761 100.57 32.0696C101.304 32.0664 101.895 32.5815 101.884 33.2198V33.223Z" fill="#1A2E35"/>
<path d="M103.593 29.0305C103.418 29.1795 102.446 28.4603 101.015 28.402C99.5875 28.3242 98.5017 28.9495 98.3558 28.7843C98.2846 28.7097 98.4661 28.4343 98.9396 28.1492C99.406 27.8673 100.189 27.6081 101.079 27.6503C101.969 27.6924 102.706 28.0229 103.119 28.3469C103.543 28.6741 103.678 28.9657 103.593 29.0305Z" fill="#1A2E35"/>
<path d="M104.005 24.8606C103.71 25.1425 102.621 24.7894 101.293 24.7181C99.9684 24.6079 98.8292 24.812 98.5871 24.4913C98.4803 24.3358 98.6725 24.0474 99.1816 23.7882C99.68 23.5322 100.502 23.3378 101.414 23.3994C102.325 23.461 103.101 23.7655 103.546 24.0863C103.998 24.4103 104.137 24.7213 104.005 24.8606Z" fill="#1A2E35"/>
<path d="M112.621 36.9199C112.632 36.2168 113.543 34.5677 114.308 34.4672C116.348 34.1983 120.022 34.3798 120.004 39.0875C119.979 45.5221 112.165 44.2618 112.165 44.2618C112.155 44.116 112.589 39.3467 112.624 36.9199H112.621Z" fill="#FFBE9D"/>
<path d="M114.828 41.6406C114.86 41.6212 114.952 41.7184 115.159 41.8058C115.362 41.8901 115.711 41.9516 116.081 41.8253C116.828 41.579 117.462 40.5001 117.501 39.3402C117.523 38.7538 117.391 38.1965 117.163 37.7332C116.949 37.2601 116.615 36.9329 116.238 36.8713C115.864 36.7903 115.597 36.9944 115.508 37.1759C115.412 37.3573 115.458 37.4837 115.419 37.4966C115.397 37.5128 115.266 37.3897 115.326 37.124C115.355 36.9977 115.44 36.8454 115.607 36.7223C115.778 36.5959 116.027 36.5344 116.291 36.5603C116.836 36.5959 117.327 37.056 117.576 37.5614C117.854 38.0701 118.018 38.6987 117.996 39.3564C117.946 40.6524 117.209 41.8642 116.188 42.1298C115.689 42.2465 115.276 42.1072 115.063 41.9549C114.846 41.7961 114.806 41.6503 114.831 41.6406H114.828Z" fill="#EB996E"/>
<path d="M114.593 34.4996L112.681 36.084C105.429 28.8944 91.524 11.1457 92.2965 12.2019C92.2965 12.2019 97.7362 10.5333 103.422 11.7645C109.107 12.9957 119.826 16.2584 119.217 22.4144C118.608 28.5737 114.589 34.4996 114.589 34.4996H114.593Z" fill="#1A2E35"/>
<path d="M91.677 58.4431C92.0401 58.6634 103.603 68.1501 103.603 68.1501L111.674 58.1094L118.053 74.0631L110.858 106.22C110.858 106.22 103.92 117.188 103.678 116.549C103.436 115.911 89.5481 99.1699 90.755 99.6073C91.9618 100.045 89.1494 70.5477 89.1494 70.5477V60.5394L91.6735 58.4431H91.677Z" fill="#E1E1E1"/>
<path d="M104.842 112.062C104.842 112.062 104.81 111.91 104.796 111.621C104.785 111.284 104.774 110.866 104.76 110.358C104.753 109.198 104.746 107.623 104.739 105.708C104.728 101.785 104.824 96.3575 104.657 90.3765C104.333 84.4213 104.041 79.03 103.824 75.0545C103.739 73.1397 103.671 71.5683 103.617 70.4083C103.603 69.8997 103.593 69.4817 103.585 69.1447C103.585 68.8564 103.589 68.7041 103.607 68.7041C103.625 68.7041 103.646 68.8531 103.682 69.1415C103.714 69.4785 103.753 69.8932 103.803 70.4019C103.892 71.5585 104.009 73.1299 104.155 75.0415C104.422 78.9619 104.81 84.3727 105.127 90.3635C105.294 96.3607 105.145 101.785 105.07 105.711C105.017 107.629 104.977 109.201 104.945 110.361C104.924 110.869 104.91 111.287 104.896 111.624C104.878 111.913 104.863 112.065 104.846 112.065L104.842 112.062Z" fill="#1A2E35"/>
<path d="M111.798 68.7009C111.83 68.7203 111.513 69.2128 110.926 70.0649C110.274 70.9883 109.431 72.1839 108.427 73.603L108.284 73.8039L108.117 73.616C106.757 72.0705 105.152 70.2529 103.418 68.2829L103.788 68.2765C103.567 68.5519 103.336 68.8467 103.098 69.1448C101.891 70.6773 100.719 72.1385 99.7333 73.4929C99.6336 73.6419 99.5339 73.7877 99.4343 73.9303H99.4272C99.4272 73.9303 99.4272 73.9303 99.4272 73.9367C99.4272 73.9594 99.42 73.9886 99.4093 74.0145C99.3844 74.0696 99.3381 74.1052 99.3025 74.1182C99.2634 74.1344 99.21 74.1409 99.1744 74.1376L99.1388 74.1311C99.1139 74.1247 99.0925 74.1182 99.0854 74.1117C99.0391 74.0923 99.0142 74.0761 98.9857 74.0599L98.8433 73.9627L98.5905 73.7715C98.263 73.5123 97.9604 73.2563 97.6685 73.0069C97.0953 72.5079 96.5613 72.0349 96.0629 71.6007C95.0911 70.7324 94.3185 70.0196 93.7917 69.5174C93.2648 69.0152 92.9871 68.7301 93.0085 68.7074C93.0298 68.6879 93.3538 68.9342 93.9163 69.3975C94.5464 69.9224 95.3403 70.5898 96.2908 71.3804C96.7999 71.8048 97.3481 72.2584 97.9319 72.7444C98.231 72.9842 98.5407 73.2304 98.8575 73.4831L99.0996 73.6613L99.2207 73.7391L99.2634 73.7618C99.2385 73.7974 99.1993 73.9205 99.2064 73.927C99.2136 73.94 99.2064 73.927 99.2029 73.927H99.1958C98.8326 73.927 99.0961 73.927 99.0142 73.9238L99.0213 73.8914C99.0783 73.6937 99.1424 73.6451 99.1958 73.5415L99.3738 73.2758C100.356 71.8891 101.51 70.4278 102.72 68.8888C102.959 68.5907 103.19 68.2959 103.411 68.0205L103.592 67.7937L103.781 68.014C105.49 70.0001 107.074 71.8372 108.413 73.3957L108.106 73.4054C109.164 72.0187 110.054 70.8523 110.741 69.9515C111.382 69.1318 111.759 68.6782 111.791 68.6977L111.798 68.7009Z" fill="#1A2E35"/>
<path d="M111.723 56.7324L116.248 61.9067L134.276 65.1759C134.276 65.1759 128.872 121.918 128.505 124.163C128.139 126.409 140.047 149.84 144.048 181.009C144.048 181.009 120.104 188.788 116.565 186.864C113.026 184.939 102.855 164.676 102.855 164.676L104.251 114.207C104.251 114.207 111.367 92.0549 112.122 80.9125C112.831 70.4571 111.716 56.7357 111.716 56.7357L111.723 56.7324Z" fill="#6F2277"/>
<path opacity="0.3" d="M106.256 108.699C106.256 108.699 116.807 131.392 115.437 136.42C114.102 141.313 108.683 164.427 106.875 172.306L102.617 164.287L104.258 114.2L106.259 108.696L106.256 108.699Z" fill="black"/>
<path d="M106.975 118.137C106.975 118.137 107.096 117.93 107.363 117.554C107.658 117.152 108.053 116.614 108.552 115.937C109.068 115.237 109.734 114.398 110.392 113.355C110.734 112.84 111.101 112.292 111.485 111.712C111.877 111.132 112.286 110.52 112.667 109.846C113.44 108.511 114.358 107.082 115.166 105.465C115.583 104.662 116.038 103.842 116.466 102.983C116.875 102.115 117.295 101.221 117.729 100.304C119.395 96.6136 121.005 92.4697 122.34 88.0309C123.675 83.5888 124.671 79.2829 125.212 75.3301C125.241 75.0871 125.284 74.8311 125.298 74.6011C125.326 74.3095 125.33 74.2641 125.131 74.1669C124.732 74.0049 124.173 74.0179 123.678 74.0406C123.173 74.073 122.671 74.1378 122.19 74.235C121.955 74.2836 121.702 74.3419 121.521 74.4196C121.489 74.4294 121.496 74.4358 121.489 74.4358C121.489 74.4358 121.482 74.4358 121.478 74.4358C121.489 74.4261 121.492 74.4099 121.496 74.397C121.606 74.3451 121.272 74.0956 121.304 74.1831C121.293 74.1831 121.282 74.1831 121.272 74.1831C121.24 74.1961 121.336 74.1442 121.368 74.1216L121.66 73.9272C122.432 73.3861 123.18 72.8612 123.902 72.359C124.088 72.2359 124.269 72.116 124.451 71.9929L124.593 71.9054L124.668 71.8633C124.668 71.8633 124.639 71.8698 124.646 71.8827C124.65 71.8698 124.639 71.7726 124.614 71.6916C124.493 71.3416 124.294 70.995 124.105 70.6645C122.493 68.0401 120.93 66.0345 119.915 64.6219C119.417 63.9447 119.022 63.4069 118.723 63.0051C118.452 62.6325 118.317 62.4349 118.327 62.4284C118.338 62.4219 118.502 62.6001 118.797 62.9565C119.111 63.3486 119.531 63.8702 120.061 64.5279C121.126 65.9179 122.72 67.8878 124.39 70.5219C124.589 70.8589 124.792 71.1991 124.938 71.6041C124.963 71.711 125.013 71.8179 124.963 71.9961C124.938 72.048 124.878 72.1128 124.846 72.1354L124.782 72.1743L124.65 72.2586C124.472 72.3784 124.294 72.4983 124.116 72.6214C123.4 73.1301 122.66 73.6615 121.891 74.209L121.592 74.4132C121.521 74.452 121.521 74.4715 121.375 74.5298C121.357 74.533 121.339 74.5363 121.321 74.5395C121.346 74.6302 121.005 74.3678 121.115 74.3127C121.126 74.2868 121.136 74.2609 121.154 74.2382C121.175 74.2155 121.193 74.2026 121.218 74.1831C121.261 74.1507 121.314 74.1151 121.343 74.1086C121.61 73.9952 121.848 73.9466 122.105 73.8883C122.61 73.7814 123.123 73.7101 123.657 73.6744C124.191 73.6582 124.732 73.6032 125.326 73.83C125.465 73.8883 125.643 74.0082 125.704 74.1864C125.779 74.397 125.725 74.4877 125.729 74.627C125.714 74.8894 125.675 75.126 125.647 75.3787C125.123 79.3671 124.134 83.686 122.795 88.1475C121.453 92.6058 119.826 96.7659 118.132 100.46C117.694 101.376 117.263 102.274 116.846 103.142C116.412 104.004 115.949 104.824 115.522 105.627C114.696 107.244 113.756 108.67 112.963 110.001C112.574 110.672 112.154 111.284 111.749 111.858C111.35 112.435 110.976 112.979 110.62 113.491C109.94 114.524 109.253 115.351 108.708 116.041C108.181 116.698 107.758 117.223 107.445 117.615C107.153 117.972 106.992 118.156 106.978 118.147L106.975 118.137Z" fill="#1A2E35"/>
<path d="M134.109 139.812C133.159 140.088 121.005 143.594 121.005 143.594C121.005 143.594 122.052 153.748 123.621 153.864C125.191 153.981 137.363 150.634 138.282 149.827C139.196 149.021 134.109 139.816 134.109 139.816V139.812Z" fill="#45164C"/>
<path d="M134.109 139.813C134.109 139.813 134.219 139.949 134.39 140.231C134.561 140.512 134.8 140.93 135.102 141.475C135.7 142.563 136.558 144.144 137.477 146.156C137.705 146.662 137.933 147.193 138.146 147.76C138.253 148.042 138.353 148.337 138.438 148.642C138.516 148.953 138.613 149.257 138.566 149.639C138.556 149.691 138.545 149.74 138.527 149.792C138.495 149.847 138.452 149.912 138.41 149.954L138.157 150.113C137.986 150.213 137.822 150.268 137.655 150.346C137.317 150.485 136.975 150.615 136.622 150.738C135.921 150.984 135.191 151.221 134.444 151.451C131.436 152.351 128.132 153.32 124.522 153.988C124.237 154.036 123.938 154.072 123.611 154.072C123.127 153.981 122.991 153.664 122.831 153.443C122.553 152.954 122.386 152.455 122.233 151.959C121.941 150.968 121.738 149.986 121.56 149.03C121.215 147.116 120.976 145.295 120.802 143.61L120.788 143.458L120.944 143.412C124.857 142.32 128.143 141.407 130.521 140.742C131.624 140.444 132.514 140.205 133.184 140.026C133.796 139.868 134.116 139.79 134.106 139.809C134.098 139.829 133.76 139.942 133.137 140.137C132.464 140.344 131.574 140.619 130.467 140.96C128.132 141.656 124.907 142.622 121.065 143.769L121.208 143.574C121.4 145.246 121.649 147.064 122.005 148.962C122.187 149.912 122.39 150.884 122.678 151.849C122.824 152.329 122.991 152.815 123.237 153.242C123.354 153.446 123.539 153.647 123.643 153.651C123.888 153.647 124.159 153.621 124.444 153.573C127.979 152.918 131.311 151.959 134.305 151.085C135.053 150.861 135.779 150.631 136.473 150.391C136.818 150.271 137.16 150.148 137.484 150.019C137.637 149.947 137.815 149.886 137.943 149.811L138.135 149.701C138.146 149.685 138.146 149.675 138.164 149.662L138.182 149.581C138.221 149.04 137.982 148.405 137.801 147.861C137.601 147.3 137.381 146.769 137.167 146.267C136.291 144.251 135.48 142.654 134.935 141.543C134.679 141.024 134.469 140.6 134.301 140.266C134.159 139.975 134.091 139.816 134.106 139.809L134.109 139.813Z" fill="#45164C"/>
<path d="M91.6772 58.4431C90.1642 59.3309 84.3471 63.841 84.3471 63.841L68.676 68.7107C68.676 68.7107 77.4621 127.079 76.7964 130.326C75.383 137.211 60.488 164.391 59.21 183.057C59.21 183.057 91.4992 189.572 93.7669 187.129C96.0346 184.686 111.798 142.064 111.798 135.179C111.798 128.294 99.1994 98.5252 96.9317 90.9727C94.664 83.4203 91.6807 58.4464 91.6807 58.4464L91.6772 58.4431Z" fill="#6F2277"/>
<path d="M102.133 166.957C102.133 166.957 102.14 166.905 102.172 166.805C102.211 166.688 102.258 166.546 102.318 166.368C102.461 165.959 102.663 165.396 102.92 164.67C103.457 163.163 104.233 160.999 105.212 158.264C106.191 155.51 107.377 152.17 108.662 148.337C109.306 146.422 109.972 144.381 110.599 142.217C110.755 141.676 110.912 141.128 111.037 140.571C111.183 140.01 111.282 139.456 111.325 138.886C111.346 137.739 111.14 136.547 110.823 135.38L110.848 135.432C108.545 132.095 106.07 128.511 103.475 124.75C102.165 122.877 100.88 120.927 99.4666 118.996C98.7653 118.027 98.0355 117.061 97.3377 116.067C96.6791 115.049 96.0134 114.022 95.3441 112.989C93.1547 109.389 91.1789 105.789 89.5556 102.203C88.6869 100.43 87.9856 98.6354 87.2273 96.902C86.5509 95.1394 85.8354 93.4352 85.2587 91.7309C84.0233 88.3516 83.0337 85.0857 82.1721 82.0142C81.3249 78.9427 80.6271 76.0591 80.1572 73.3925C80.1251 73.2305 80.1038 73.0523 80.086 72.8806C80.0468 72.7413 80.0682 72.4497 80.2711 72.3104C80.6413 72.0577 81.0294 72.0609 81.3889 72.0415C82.1152 72.035 82.8022 72.1257 83.4644 72.2683C83.6282 72.3071 83.7919 72.3428 83.9557 72.3979C84.034 72.4205 84.1195 72.4562 84.2013 72.4918C84.2369 72.5015 84.3046 72.5566 84.3473 72.5923C84.358 72.5955 84.3758 72.6279 84.3864 72.6538C84.4434 72.5761 84.3473 72.8774 84.2405 72.8353C84.2191 72.8353 84.2013 72.8288 84.18 72.8223C84.1301 72.8029 84.1194 72.7931 84.0981 72.7802C83.8168 72.5987 83.5819 72.4141 83.3362 72.2326C82.8521 71.8697 82.3857 71.5166 81.9336 71.1764C81.7058 71.0111 81.4815 70.8459 81.2608 70.6839L80.9297 70.4571C80.9083 70.4474 80.8692 70.4215 80.8229 70.3631C80.7766 70.3113 80.7837 70.2724 80.7695 70.2303C80.7517 70.1428 80.7695 70.0813 80.7766 70.01C80.8941 69.4916 81.1326 69.0671 81.3391 68.6427C81.7734 67.81 82.2184 67.0778 82.6207 66.4201C83.4324 65.1079 84.1016 64.1099 84.5609 63.436C84.7852 63.1153 84.9596 62.8658 85.0913 62.6746C85.2124 62.5061 85.28 62.4187 85.2871 62.4251C85.2943 62.4284 85.2409 62.5223 85.1305 62.6973C85.0095 62.8917 84.8457 63.1509 84.6392 63.4781C84.2084 64.165 83.5641 65.1759 82.7773 66.4978C82.3857 67.1588 81.955 67.8975 81.5384 68.7269C81.3426 69.1384 81.1113 69.5823 81.0151 70.0424C81.0151 70.0942 80.9973 70.159 81.0116 70.1947C81.0151 70.2109 81.0151 70.2433 81.0258 70.2368C81.0258 70.2368 81.0258 70.2368 81.0258 70.2465C81.0436 70.2465 81.0578 70.2627 81.0721 70.2724L81.4174 70.5025C81.6417 70.6612 81.8695 70.8265 82.1009 70.9917C82.5566 71.3287 83.0301 71.6753 83.5178 72.035C83.7599 72.2099 84.0126 72.4011 84.2618 72.5599C84.2725 72.5696 84.2974 72.5761 84.2832 72.5761C84.2618 72.6052 84.2476 72.6441 84.2476 72.6797C84.2405 72.6927 84.2476 72.6959 84.1907 72.7057C84.1444 72.7186 84.0981 72.7445 84.1194 72.7413C84.123 72.7478 84.1871 72.6992 84.123 72.7413C84.0874 72.7445 84.1088 72.7316 84.066 72.7186C84.002 72.6927 83.9379 72.6635 83.8596 72.6441C83.7136 72.5955 83.5534 72.5599 83.3968 72.5275C82.7631 72.3946 82.0831 72.3104 81.3996 72.3233C81.0721 72.3331 80.6947 72.3719 80.4847 72.5275C80.3174 72.6409 80.4491 73.0361 80.4847 73.3472C80.9724 75.991 81.6844 78.8681 82.5459 81.9267C83.4217 84.9853 84.4221 88.2382 85.6645 91.6078C86.2448 93.3056 86.9639 95.0033 87.6403 96.7594C88.3986 98.4864 89.1034 100.275 89.9721 102.041C91.5954 105.614 93.5677 109.198 95.7464 112.781C101.328 120.891 106.601 128.55 111.2 135.234L111.218 135.26L111.225 135.286C111.549 136.495 111.752 137.697 111.727 138.902C111.685 139.502 111.571 140.098 111.421 140.652C111.289 141.219 111.129 141.77 110.969 142.311C110.328 144.481 109.648 146.519 108.99 148.434C107.676 152.264 106.458 155.595 105.447 158.339C104.422 161.06 103.607 163.215 103.044 164.712C102.763 165.428 102.542 165.989 102.382 166.39C102.307 166.565 102.251 166.705 102.204 166.818C102.162 166.912 102.137 166.961 102.133 166.961V166.957Z" fill="#1A2E35"/>
<path d="M72.4142 141.073L84.8528 144.744C84.8528 144.744 83.8062 154.898 82.2362 155.014C80.6663 155.131 68.4946 151.784 67.5761 150.977C66.6612 150.171 72.4142 141.076 72.4142 141.076V141.073Z" fill="#45164C"/>
<path d="M72.4141 141.073C72.4141 141.073 72.35 141.232 72.1934 141.513C72.0083 141.834 71.7769 142.242 71.4921 142.745C70.8833 143.814 69.9826 145.353 68.9894 147.297C68.523 148.266 67.9143 149.357 67.6829 150.54C67.6686 150.67 67.6829 150.841 67.7185 150.851C67.8502 150.922 67.9606 151.003 68.1314 151.068C68.4412 151.211 68.7794 151.327 69.1211 151.454C69.8082 151.693 70.5237 151.924 71.2642 152.15C74.2261 153.032 77.5191 153.968 81.0222 154.661C81.3105 154.723 81.5989 154.752 81.8801 154.791C81.9976 154.791 82.1756 154.817 82.2433 154.797C82.2967 154.797 82.3857 154.716 82.4604 154.635C82.7595 154.256 82.9446 153.741 83.1083 153.252C83.4287 152.26 83.6388 151.253 83.831 150.274C84.2013 148.314 84.4612 146.445 84.657 144.731L84.7958 144.922C81.1432 143.804 78.0781 142.868 75.8638 142.191C74.8171 141.86 73.9734 141.594 73.3361 141.394C72.7487 141.202 72.4283 141.095 72.4212 141.076C72.4141 141.057 72.7167 141.131 73.297 141.287C73.9342 141.462 74.7779 141.695 75.821 141.98C78.0781 142.621 81.2002 143.512 84.9204 144.572L85.0735 144.617L85.0592 144.766C84.8777 146.493 84.6356 148.366 84.2725 150.346C84.0838 151.334 83.8773 152.348 83.5498 153.372C83.3754 153.884 83.2116 154.399 82.8235 154.898C82.7096 155.014 82.5957 155.157 82.3536 155.212C82.1365 155.254 82.0119 155.212 81.8339 155.219C81.5313 155.176 81.2251 155.144 80.9296 155.083C77.3768 154.379 74.098 153.433 71.1254 152.526C70.3849 152.293 69.6658 152.056 68.9716 151.807C68.6263 151.677 68.2845 151.554 67.9534 151.399C67.7897 151.337 67.6152 151.22 67.4479 151.117C67.2272 150.877 67.3055 150.686 67.2984 150.514C67.4052 149.837 67.6793 149.28 67.9178 148.726C68.167 148.178 68.4305 147.666 68.6903 147.18C69.7299 145.239 70.6733 143.72 71.3319 142.677C71.6629 142.155 71.9264 141.753 72.1115 141.484C72.2966 141.215 72.3999 141.079 72.4141 141.086V141.073Z" fill="#45164C"/>
<path d="M109.26 137.872C109.26 139.032 108.192 139.975 106.875 139.975C105.558 139.975 104.49 139.035 104.49 137.872C104.49 136.709 105.558 135.769 106.875 135.769C108.192 135.769 109.26 136.709 109.26 137.872Z" fill="#1A2E35"/>
<path d="M95.3295 139.404C96.6468 139.404 97.7147 138.463 97.7147 137.301C97.7147 136.14 96.6468 135.199 95.3295 135.199C94.0122 135.199 92.9443 136.14 92.9443 137.301C92.9443 138.463 94.0122 139.404 95.3295 139.404Z" fill="#1A2E35"/>
<path d="M93.7631 123.739C95.0804 123.739 96.1483 122.797 96.1483 121.636C96.1483 120.475 95.0804 119.533 93.7631 119.533C92.4458 119.533 91.3779 120.475 91.3779 121.636C91.3779 122.797 92.4458 123.739 93.7631 123.739Z" fill="#1A2E35"/>
<path d="M39.0174 104.143C39.0174 104.143 31.933 99.954 29.8646 99.1213C27.7963 98.2854 23.5812 98.8038 20.5695 98.6418C17.5577 98.4798 13.332 97.5953 12.3174 98.2141C11.1141 98.9496 12.6022 100.239 17.3156 101.483H15.9806L12.7731 101.995C12.7731 101.995 11.4132 100.492 10.395 100.592C8.93897 100.732 9.09205 101.82 9.09205 101.82C9.09205 101.82 6.64277 99.6365 6.17285 102.261C6.17285 102.261 3.48149 101.587 3.48861 103.392C3.48861 103.392 3.05785 104.876 8.66129 104.798C8.66129 104.798 13.8019 108.44 15.0052 108.754C16.2085 109.068 20.1708 108.161 20.1708 108.161C20.1708 108.161 21.5022 109.599 22.7446 109.557C25.1085 109.48 31.0928 108.602 31.0928 108.602L33.7308 110.98L39.0281 104.147L39.0174 104.143Z" fill="#FFBE9D"/>
<path d="M20.313 108.187C20.3379 108.168 20.0887 107.892 19.6544 107.383C19.245 106.875 18.5757 106.126 18.2945 105.038C18.0061 103.946 18.4226 102.575 19.3447 101.344C19.5689 101.03 19.8217 100.719 20.0851 100.404C20.3557 100.093 20.6085 99.7435 20.9146 99.5037C21.2208 99.251 21.6088 99.1895 21.9292 99.413C22.2532 99.6204 22.4027 100.003 22.4241 100.411C22.481 101.538 21.9257 102.637 21.0891 103.324L20.9004 103.479L21.1069 103.612C21.769 104.033 22.3386 104.523 22.8085 105.034L22.9296 105.167L23.072 105.06C24.8555 103.729 26.6889 103.032 27.9919 102.672C29.3055 102.313 30.103 102.238 30.0959 102.19C30.0959 102.174 29.8929 102.174 29.5191 102.206C29.1489 102.242 28.6042 102.316 27.9314 102.475C26.5893 102.783 24.6918 103.447 22.837 104.791L23.1005 104.817C22.6199 104.276 22.0325 103.758 21.3418 103.311L21.3596 103.596C22.2923 102.838 22.9047 101.649 22.8406 100.388C22.8192 99.9282 22.6341 99.4033 22.1713 99.1052C21.9506 98.9562 21.6551 98.872 21.3667 98.9044C21.0784 98.9368 20.8363 99.0728 20.6476 99.2186C20.2667 99.5264 20.0353 99.8731 19.7647 100.184C19.5013 100.505 19.2485 100.826 19.0207 101.153C18.0844 102.436 17.6537 103.926 18.0061 105.099C18.3514 106.262 19.0777 106.991 19.5262 107.481C19.9997 107.963 20.2881 108.206 20.3094 108.19L20.313 108.187Z" fill="#EB996E"/>
<path d="M12.3211 101.668C12.2393 101.742 13.3535 102.864 14.806 104.166C15.1763 104.49 15.5002 104.808 15.874 105.073C16.2549 105.342 16.6893 105.462 17.0524 105.475C17.4262 105.485 17.6932 105.381 17.8676 105.316C18.0421 105.245 18.1311 105.193 18.1239 105.167C18.1168 105.141 18.0065 105.148 17.8249 105.174C17.6398 105.196 17.3763 105.248 17.0809 105.209C16.7783 105.164 16.4258 105.044 16.1197 104.801C15.8064 104.558 15.4717 104.218 15.1051 103.897C13.6526 102.591 12.4066 101.593 12.3283 101.668H12.3211Z" fill="#EB996E"/>
<path d="M15.1941 108.174C15.276 108.086 13.6704 106.784 11.9438 104.96C10.2101 103.142 9.02104 101.509 8.9178 101.571C8.82524 101.619 9.86832 103.366 11.627 105.209C13.3785 107.059 15.1264 108.252 15.1941 108.174Z" fill="#EB996E"/>
<path d="M10.3026 105.932C10.3595 105.857 9.36629 105.038 8.19505 103.956C7.00957 102.886 6.05193 102.018 5.96649 102.086C5.87749 102.154 6.70697 103.149 7.89957 104.224C9.08149 105.313 10.2278 106.029 10.3026 105.929V105.932Z" fill="#EB996E"/>
<path d="M18.6614 101.551C18.665 101.448 17.9779 101.376 17.127 101.396C16.2762 101.415 15.5891 101.519 15.5962 101.623C15.6034 101.726 16.2904 101.798 17.1306 101.778C17.9708 101.759 18.6543 101.655 18.6614 101.551Z" fill="#EB996E"/>
<path d="M68.9713 68.6167C68.9713 68.6167 62.752 69.161 61.3957 83.9419C60.317 95.6675 60.1532 112.969 60.1532 112.969L38.7398 103.45L29.8647 113.763C29.8647 113.763 56.1803 135.639 67.7645 131.745C79.3488 127.847 77.3267 108.679 77.3267 108.679L72.6595 77.5818L68.9678 68.6167H68.9713Z" fill="#6F2277"/>
<path d="M67.3836 78.5115C67.3836 78.5115 67.4477 78.6606 67.5224 78.9522C67.6043 79.2891 67.7076 79.7136 67.8357 80.232C68.1063 81.4016 68.4765 82.9989 68.9251 84.9429C69.8329 88.9249 71.0753 94.4264 72.3676 100.518C73.6528 106.612 74.7279 112.149 75.3651 116.177C75.6891 118.189 75.9062 119.825 76.0308 120.956C76.0807 121.484 76.1198 121.915 76.1519 122.261C76.1732 122.559 76.1768 122.718 76.1626 122.718C76.1448 122.718 76.1127 122.566 76.0593 122.268C76.0059 121.924 75.9347 121.497 75.8528 120.972C75.6713 119.847 75.4043 118.221 75.0412 116.219C74.322 112.208 73.1971 106.687 71.9119 100.595C70.6268 94.5301 69.4626 89.0448 68.6047 84.998C68.1917 82.9989 67.8678 81.3822 67.6613 80.2579C67.5687 79.733 67.494 79.3053 67.4334 78.9651C67.3872 78.6671 67.3694 78.5115 67.3872 78.5083L67.3836 78.5115Z" fill="#1A2E35"/>
<path d="M66.1661 120.528C66.0379 120.583 65.0376 118.701 63.3893 116.624C61.7517 114.54 60.1105 113.079 60.2067 112.985C60.2814 112.901 62.097 114.249 63.7667 116.374C65.447 118.49 66.2729 120.489 66.1661 120.525V120.528Z" fill="#1A2E35"/>
<path d="M133.429 64.9976C133.429 64.9976 142.083 66.4199 144.6 74.0274C145.925 78.0256 156.074 113.005 156.534 114.084C156.993 115.162 164.946 130.805 152.71 133.235C140.471 135.662 128.609 120.314 128.609 120.314C128.609 120.314 132.212 79.827 132.365 79.2892C132.518 78.7514 133.429 65.0008 133.429 65.0008V64.9976Z" fill="#6F2277"/>
<path d="M132.45 78.5115C132.482 78.5115 132.5 78.8841 132.503 79.5581C132.51 80.232 132.485 81.204 132.443 82.406C132.354 84.8101 132.151 88.1311 131.827 91.7891C131.503 95.4503 131.111 98.7551 130.734 101.14C130.534 102.332 130.356 103.291 130.171 103.949C130.089 104.279 130.004 104.532 129.926 104.697C129.854 104.862 129.808 104.947 129.794 104.94C129.748 104.921 129.894 104.581 129.997 103.913C130.125 103.255 130.253 102.29 130.41 101.101C130.702 98.7162 131.04 95.4081 131.364 91.7534C131.688 88.0987 131.941 84.7874 132.115 82.3898C132.197 81.2558 132.268 80.3065 132.325 79.5483C132.379 78.8777 132.421 78.5083 132.453 78.5083L132.45 78.5115Z" fill="#1A2E35"/>
<path d="M148.367 91.5591L172.973 96.7139L175.537 101.869L149.769 100.994L148.367 91.5591Z" fill="#375A64"/>
<path d="M109.004 119.044C108.285 119.893 111.731 126.256 112.571 125.838L151.663 97.7702L148.367 91.5591L109.007 119.044H109.004Z" fill="#375A64"/>
<path d="M175.537 101.869L151.663 97.7668L112.571 125.835L137.914 128.317L175.537 101.869Z" fill="#375A64"/>
<path opacity="0.3" d="M175.537 101.869L151.663 97.7668L112.571 125.835L137.914 128.317L175.537 101.869Z" fill="black"/>
<path d="M132.909 124.989C132.909 124.989 130.41 120.586 135.255 116.513C140.1 112.444 143.354 112.843 144.643 113.309C145.928 113.776 151.457 117.045 151.457 117.045L156.661 115.435L156.231 121.633L151.457 131.411C151.457 131.411 140.805 133.251 132.909 124.986V124.989Z" fill="#6F2277"/>
<path d="M134.031 105.122C134.031 105.122 129.574 100.654 128.534 100.654C127.495 100.654 126.679 101.201 126.459 102.889C126.459 102.889 124.533 103.139 124.604 105.426C124.604 105.426 123.404 106.275 123.596 107.976C123.596 107.976 121.638 109.807 122.158 110.853C122.678 111.9 124.013 116.018 125.124 116.41C126.234 116.802 135.43 120.071 135.43 120.071L142.991 125.301C142.991 125.301 147.459 118.782 146.284 116.151C145.109 113.52 143.137 112.882 143.066 111.968C142.991 111.054 143.806 106.609 143.215 105.562C142.621 104.516 138.545 101.347 137.95 101.036C137.356 100.725 137.06 99.1569 135.579 99.7434C134.095 100.333 134.244 101.836 135.06 102.948C135.875 104.059 137.73 106.674 137.73 106.674L134.031 105.128V105.122Z" fill="#FFBE9D"/>
<path d="M173.262 97.2971C173.247 97.2712 148.719 92.2233 148.74 92.2686C148.765 92.314 151.659 97.2874 151.659 97.2874L175.312 101.428C175.312 101.428 173.272 97.3263 173.258 97.3003L173.262 97.2971Z" fill="white"/>
<path d="M111.175 117.528C111.175 117.528 114.048 123.188 115.494 123.739L117.142 122.556C117.142 122.556 113.276 117.103 112.863 116.348L111.175 117.528Z" fill="white"/>
<path d="M141.069 96.6784C141.069 96.6784 143.938 101.869 145.031 102.562L146.804 101.253C146.804 101.253 143.165 96.2539 142.752 95.499L141.065 96.6784H141.069Z" fill="white"/>
</g>
<defs>
<clipPath id="clip0_529_5101">
<rect width="178" height="162" fill="white"/>
</clipPath>
</defs>
</svg>
