<svg width="167" height="167" viewBox="0 0 167 167" fill="none" xmlns="http://www.w3.org/2000/svg">
<path d="M106.867 30.2271L114.522 26.3661C114.522 26.3661 119.385 27.5618 127.501 27.1009C139.508 26.4162 146.519 21.5297 144.732 14.6627C142.902 7.62865 134.872 4.86981 120.561 5.40755C102.652 6.08223 98.3095 17.7823 109.004 24.6961L106.863 30.2238L106.867 30.2271Z" fill="#FEE5A5"/>
<path opacity="0.7" d="M106.867 30.2271L114.522 26.3661C114.522 26.3661 119.385 27.5618 127.501 27.1009C139.508 26.4162 146.519 21.5297 144.732 14.6627C142.902 7.62865 134.872 4.86981 120.561 5.40755C102.652 6.08223 98.3095 17.7823 109.004 24.6961L106.863 30.2238L106.867 30.2271Z" fill="#FEE5A5"/>
<path d="M115.076 18.3467C116.132 18.3467 116.987 17.5227 116.987 16.5064C116.987 15.49 116.132 14.666 115.076 14.666C114.021 14.666 113.166 15.49 113.166 16.5064C113.166 17.5227 114.021 18.3467 115.076 18.3467Z" fill="white"/>
<path d="M124.058 18.3467C125.113 18.3467 125.968 17.5227 125.968 16.5064C125.968 15.49 125.113 14.666 124.058 14.666C123.003 14.666 122.147 15.49 122.147 16.5064C122.147 17.5227 123.003 18.3467 124.058 18.3467Z" fill="white"/>
<path d="M133.035 18.3467C134.091 18.3467 134.946 17.5227 134.946 16.5064C134.946 15.49 134.091 14.666 133.035 14.666C131.98 14.666 131.125 15.49 131.125 16.5064C131.125 17.5227 131.98 18.3467 133.035 18.3467Z" fill="white"/>
<path d="M19.6094 134.96C19.6094 136.219 20.588 137.027 21.7937 137.698L71.2725 165.233C72.4782 165.905 74.4355 165.905 75.6446 165.233L155.464 120.811C156.67 120.14 157.648 119.275 157.648 118.016C157.648 116.757 156.67 115.975 155.464 115.304L105.985 87.7686C104.779 87.0973 102.822 87.0973 101.613 87.7686L21.7937 132.191C20.588 132.862 19.6094 133.7 19.6094 134.96Z" fill="#2B454E"/>
<path d="M21.794 134.622L71.2727 162.157C72.4785 162.828 74.4357 162.828 75.6448 162.157L155.464 117.735C156.67 117.064 156.67 115.975 155.464 115.304L105.985 87.7686C104.78 87.0973 102.822 87.0973 101.613 87.7686L21.794 132.191C20.5882 132.862 20.5882 133.951 21.794 134.622Z" fill="#375A64"/>
<path d="M73.4603 162.668V165.738C72.6687 165.738 71.8738 165.571 71.2759 165.237L21.7972 137.698C20.5914 137.027 19.6128 136.219 19.6128 134.96C19.6128 133.777 20.4912 132.952 21.6268 132.284C20.6883 132.922 20.6716 133.998 21.7972 134.622L71.2759 162.16C71.8771 162.498 72.6687 162.665 73.4603 162.665V162.668Z" fill="#1A2E35"/>
<path d="M18.6573 132.515C17.6987 132.091 17.4382 131.356 17.348 130.063L13.0594 69.5759C12.9693 68.2833 13.8711 66.6901 15.0801 66.0188L94.8995 21.5968C96.1052 20.9254 96.9903 20.5614 98.1059 21.2928C99.2715 22.061 99.2448 22.4351 99.335 23.7277L103.624 84.2151C103.714 85.5077 102.812 87.1009 101.603 87.7722L21.7835 132.194C20.5778 132.866 19.8931 133.063 18.6573 132.515Z" fill="#2B454E"/>
<path d="M99.3351 23.7274C99.2449 22.4382 98.1894 21.9338 96.9837 22.6018L17.1644 67.0272C16.5598 67.3645 16.0321 67.9323 15.6681 68.5736L13.5839 67.5649H13.5806C13.948 66.9203 14.4757 66.3525 15.0802 66.0152L94.8962 21.5965C96.1019 20.9252 96.9937 20.5544 98.1026 21.2926C99.2749 22.0741 99.2449 22.4348 99.3351 23.7241V23.7274Z" fill="#375A64"/>
<path d="M21.6233 132.284C20.5244 132.909 19.8297 132.986 18.6607 132.515C17.7656 132.154 17.4416 131.356 17.3514 130.066L13.0629 69.5757C13.0161 68.9311 13.2165 68.2096 13.5872 67.5684L15.6681 68.5704C15.304 69.2217 15.0969 69.9364 15.1437 70.5844L19.4322 131.075C19.5157 132.274 20.5912 132.875 21.6233 132.288V132.284Z" fill="#1A2E35"/>
<path d="M18.5505 69.3386L95.3639 26.6033C96.0886 26.1991 96.7199 26.5031 96.7733 27.2779L100.775 83.7072C100.828 84.4821 100.287 85.4374 99.5622 85.8415L22.7489 128.577C22.0241 128.981 21.3929 128.677 21.3394 127.902L17.3381 71.4728C17.2847 70.6979 17.8258 69.7427 18.5505 69.3386Z" fill="black"/>
<path d="M18.5505 69.3385C17.8258 69.7426 17.2847 70.6979 17.3381 71.4727L21.2726 126.96L97.2075 84.7125C97.9323 84.3084 98.4734 83.3531 98.42 82.5782L94.4854 27.0908L18.5505 69.3385Z" fill="#D268CC"/>
<path opacity="0.8" d="M18.5505 69.3385C17.8258 69.7426 17.2847 70.6979 17.3381 71.4727L21.2726 126.96L97.2075 84.7125C97.9323 84.3084 98.4734 83.3531 98.42 82.5782L94.4854 27.0908L18.5505 69.3385Z" fill="white"/>
<path d="M28.5434 132.548L101.893 91.7265C102.461 91.4092 103.386 91.4092 103.954 91.7265L106.626 93.1727C107.194 93.49 107.194 94.0044 106.626 94.3183L33.2629 135.133C32.6951 135.45 31.7699 135.45 31.2021 135.133L28.5401 133.694C27.9723 133.376 27.9723 132.862 28.5401 132.548H28.5434Z" fill="#1A2E35"/>
<path d="M35.7478 136.643L109.098 95.8214C109.665 95.5041 110.51 95.4607 110.981 95.7212L130.073 106.346C130.544 106.606 130.463 107.077 129.896 107.394L56.6295 148.159C56.0617 148.476 55.2166 148.523 54.7423 148.263L35.5708 137.688C35.0998 137.428 35.1766 136.96 35.7478 136.643Z" fill="#1A2E35"/>
<path d="M99.3078 112.969L101.606 111.69C101.703 111.636 101.713 111.553 101.626 111.503L99.4281 110.28C99.3412 110.233 99.1909 110.237 99.0941 110.29L96.7962 111.569C96.6993 111.623 96.6893 111.706 96.7761 111.756L98.9738 112.979C99.0607 113.026 99.211 113.022 99.3078 112.969ZM95.9545 108.547L93.6566 109.826C93.5597 109.879 93.5497 109.963 93.6365 110.013L95.8342 111.235C95.9211 111.282 96.0714 111.279 96.1682 111.225L98.4662 109.946C98.563 109.893 98.573 109.809 98.4862 109.759L96.2885 108.537C96.2016 108.49 96.0513 108.493 95.9545 108.547ZM88.5363 112.675L84.6486 114.839C84.5517 114.893 84.5417 114.976 84.6285 115.026L86.8263 116.249C86.9131 116.295 87.0634 116.292 87.1603 116.239L91.048 114.074C91.1449 114.021 91.1549 113.937 91.0681 113.887L88.8703 112.665C88.7835 112.618 88.6332 112.621 88.5363 112.675ZM92.6011 110.414L90.3032 111.693C90.2063 111.746 90.1963 111.83 90.2832 111.88L92.4809 113.102C92.5677 113.149 92.718 113.146 92.8149 113.092L95.1128 111.813C95.2097 111.76 95.2197 111.676 95.1328 111.626L92.9351 110.404C92.8483 110.354 92.698 110.36 92.6011 110.414ZM83.5931 115.427L81.2952 116.706C81.1984 116.76 81.1883 116.843 81.2752 116.893L83.4729 118.116C83.5597 118.163 83.71 118.159 83.8069 118.106L86.1048 116.827C86.2017 116.773 86.2117 116.69 86.1249 116.639L83.9271 115.417C83.8403 115.37 83.69 115.374 83.5931 115.427ZM80.2364 117.294L77.9385 118.573C77.8417 118.627 77.8316 118.71 77.9185 118.76L80.1162 119.983C80.203 120.03 80.3533 120.026 80.4502 119.973L82.7481 118.694C82.845 118.64 82.855 118.557 82.7682 118.507L80.5704 117.284C80.4836 117.237 80.3333 117.241 80.2364 117.294ZM88.847 122.284L91.1449 121.005C91.2417 120.951 91.2518 120.868 91.1649 120.818L88.9672 119.595C88.8804 119.549 88.7301 119.552 88.6332 119.605L86.3353 120.885C86.2384 120.938 86.2284 121.022 86.3152 121.072L88.513 122.294C88.5998 122.341 88.7501 122.338 88.847 122.284ZM85.4903 124.151L87.7882 122.872C87.885 122.818 87.8951 122.735 87.8082 122.685L85.6105 121.462C85.5237 121.416 85.3734 121.419 85.2765 121.472L82.9786 122.752C82.8817 122.805 82.8717 122.889 82.9585 122.939L85.1563 124.161C85.2431 124.208 85.3934 124.205 85.4903 124.151ZM82.1336 126.018L84.4315 124.739C84.5283 124.686 84.5384 124.602 84.4515 124.552L82.2538 123.33C82.167 123.283 82.0167 123.286 81.9198 123.34L79.6219 124.619C79.525 124.672 79.515 124.756 79.6018 124.806L81.7996 126.028C81.8864 126.075 82.0367 126.072 82.1336 126.018ZM78.7769 127.885L81.0748 126.606C81.1716 126.553 81.1817 126.469 81.0948 126.419L78.8971 125.197C78.8103 125.15 78.66 125.153 78.5631 125.207L76.2652 126.486C76.1683 126.539 76.1583 126.623 76.2451 126.673L78.4429 127.895C78.5297 127.942 78.68 127.939 78.7769 127.885ZM95.9545 114.833L98.2524 113.553C98.3493 113.5 98.3593 113.416 98.2724 113.366L96.0747 112.144C95.9879 112.097 95.8376 112.1 95.7407 112.154L93.4428 113.433C93.3459 113.487 93.3359 113.57 93.4228 113.62L95.6205 114.843C95.7073 114.889 95.8576 114.886 95.9545 114.833ZM92.2037 120.414L97.3272 117.561C97.4241 117.508 97.4341 117.424 97.3473 117.374L92.0099 114.405C91.9231 114.358 91.7728 114.362 91.6759 114.415L89.0273 115.888C88.9305 115.941 88.9204 116.025 89.0073 116.075L91.8329 117.648C91.9198 117.695 91.9097 117.778 91.8129 117.835L89.692 119.014C89.5951 119.068 89.5851 119.151 89.6719 119.201L91.8697 120.424C91.9565 120.47 92.1068 120.467 92.2037 120.414ZM76.8797 119.161L74.5818 120.44C74.485 120.494 74.4749 120.577 74.5618 120.627L76.7595 121.85C76.8463 121.897 76.9966 121.893 77.0935 121.84L79.3914 120.561C79.4883 120.507 79.4983 120.424 79.4115 120.374L77.2137 119.151C77.1269 119.104 76.9766 119.108 76.8797 119.161ZM73.523 121.028L71.2251 122.307C71.1283 122.361 71.1182 122.444 71.2051 122.495L73.4028 123.717C73.4896 123.764 73.6399 123.76 73.7368 123.707L76.0347 122.428C76.1316 122.374 76.1416 122.291 76.0548 122.241L73.857 121.018C73.7702 120.971 73.6199 120.975 73.523 121.028ZM54.9493 140.971C55.0361 141.018 55.1864 141.015 55.2833 140.961L57.5812 139.682C57.6781 139.629 57.6881 139.545 57.6013 139.495L55.4035 138.273C55.3167 138.226 55.1664 138.229 55.0695 138.283L52.7716 139.562C52.6748 139.615 52.6647 139.699 52.7516 139.749L54.9493 140.971ZM46.6694 135.971L44.3715 137.251C44.2747 137.304 44.2646 137.388 44.3515 137.438L46.5492 138.66C46.636 138.707 46.7863 138.704 46.8832 138.65L49.1811 137.371C49.278 137.317 49.288 137.234 49.2012 137.184L47.0034 135.961C46.9166 135.915 46.7663 135.918 46.6694 135.971ZM50.9246 139.716C51.0114 139.762 51.1617 139.759 51.2586 139.706L53.5565 138.426C53.6534 138.373 53.6634 138.289 53.5766 138.239L51.3788 137.017C51.292 136.97 51.1417 136.973 51.0448 137.027L48.7469 138.306C48.6501 138.36 48.64 138.443 48.7269 138.493L50.9246 139.716ZM60.1864 141.723L62.4843 140.444C62.5812 140.39 62.5912 140.307 62.5044 140.257L60.3067 139.034C60.2198 138.987 60.0695 138.991 59.9727 139.044L57.6747 140.323C57.5779 140.377 57.5679 140.46 57.6547 140.51L59.8524 141.733C59.9393 141.78 60.0896 141.776 60.1864 141.723ZM56.4957 143.603C56.5826 143.65 56.7329 143.647 56.8297 143.593L59.1276 142.314C59.2245 142.261 59.2345 142.177 59.1477 142.127L56.95 140.905C56.8631 140.858 56.7128 140.861 56.616 140.915L54.318 142.194C54.2212 142.247 54.2112 142.331 54.298 142.381L56.4957 143.603ZM50.0261 134.104L47.7282 135.384C47.6314 135.437 47.6213 135.521 47.7082 135.571L49.9059 136.793C49.9927 136.84 50.143 136.836 50.2399 136.783L52.5378 135.504C52.6347 135.45 52.6447 135.367 52.5579 135.317L50.3601 134.094C50.2733 134.048 50.123 134.051 50.0261 134.104ZM66.8096 124.766L64.5117 126.045C64.4149 126.098 64.4048 126.182 64.4917 126.232L66.6894 127.454C66.7762 127.501 66.9265 127.498 67.0234 127.444L69.3213 126.165C69.4182 126.112 69.4282 126.028 69.3414 125.978L67.1436 124.756C67.0568 124.709 66.9065 124.712 66.8096 124.766ZM53.3828 132.237L51.0849 133.517C50.9881 133.57 50.978 133.653 51.0649 133.704L53.2626 134.926C53.3494 134.973 53.4997 134.969 53.5966 134.916L55.8945 133.637C55.9914 133.583 56.0014 133.5 55.9146 133.45L53.7168 132.227C53.63 132.181 53.4797 132.184 53.3828 132.237ZM70.1663 122.899L67.8684 124.178C67.7716 124.231 67.7615 124.315 67.8484 124.365L70.0461 125.587C70.1329 125.634 70.2832 125.631 70.3801 125.577L72.678 124.298C72.7749 124.245 72.7849 124.161 72.6981 124.111L70.5003 122.889C70.4135 122.842 70.2632 122.845 70.1663 122.899ZM63.4529 126.636L61.155 127.915C61.0582 127.969 61.0481 128.052 61.135 128.102L63.3327 129.325C63.4195 129.372 63.5698 129.368 63.6667 129.315L65.9646 128.036C66.0615 127.982 66.0715 127.899 65.9847 127.849L63.7869 126.626C63.7001 126.579 63.5498 126.583 63.4529 126.636ZM60.0962 128.503L57.7983 129.782C57.7015 129.836 57.6914 129.919 57.7783 129.969L59.976 131.192C60.0628 131.239 60.2131 131.235 60.31 131.182L62.6079 129.903C62.7048 129.849 62.7148 129.766 62.628 129.716L60.4302 128.493C60.3434 128.446 60.1931 128.45 60.0962 128.503ZM56.7395 130.37L54.4416 131.649C54.3448 131.703 54.3347 131.786 54.4216 131.836L56.6193 133.059C56.7061 133.106 56.8564 133.102 56.9533 133.049L59.2512 131.77C59.3481 131.716 59.3581 131.633 59.2713 131.583L57.0735 130.36C56.9867 130.313 56.8364 130.317 56.7395 130.37ZM72.0635 131.623L74.3614 130.344C74.4582 130.29 74.4683 130.207 74.3814 130.156L72.1837 128.934C72.0969 128.887 71.9466 128.891 71.8497 128.944L69.5518 130.223C69.4549 130.277 69.4449 130.36 69.5317 130.41L71.7295 131.633C71.8163 131.68 71.9666 131.676 72.0635 131.623ZM103.376 104.415L101.078 105.694C100.981 105.748 100.971 105.831 101.058 105.881L103.256 107.104C103.343 107.151 103.493 107.147 103.59 107.094L105.888 105.815C105.985 105.761 105.995 105.678 105.908 105.628L103.71 104.405C103.623 104.358 103.473 104.362 103.376 104.415ZM99.3112 106.676L97.0133 107.955C96.9164 108.009 96.9064 108.092 96.9932 108.143L99.1909 109.365C99.2778 109.412 99.4281 109.408 99.5249 109.355L101.823 108.076C101.92 108.022 101.93 107.939 101.843 107.889L99.6452 106.666C99.5583 106.619 99.408 106.623 99.3112 106.676ZM106.729 102.548L104.431 103.827C104.335 103.881 104.325 103.964 104.411 104.014L106.609 105.237C106.696 105.283 106.846 105.28 106.943 105.227L109.241 103.947C109.338 103.894 109.348 103.811 109.261 103.76L107.063 102.538C106.976 102.491 106.826 102.495 106.729 102.548ZM88.1756 119.161L90.4735 117.882C90.5704 117.829 90.5804 117.745 90.4936 117.695L88.2959 116.472C88.209 116.426 88.0587 116.429 87.9619 116.483L85.6639 117.762C85.5671 117.815 85.5571 117.899 85.6439 117.949L87.8416 119.171C87.9285 119.218 88.0788 119.215 88.1756 119.161ZM110.42 100.668C110.333 100.621 110.183 100.624 110.086 100.678L107.788 101.957C107.691 102.01 107.681 102.094 107.768 102.144L109.966 103.366C110.053 103.413 110.203 103.41 110.3 103.356L112.598 102.077C112.695 102.024 112.705 101.94 112.618 101.89L110.42 100.668ZM75.4168 129.756L77.7147 128.476C77.8116 128.423 77.8216 128.34 77.7348 128.289L75.5371 127.067C75.4502 127.02 75.2999 127.024 75.2031 127.077L72.9051 128.356C72.8083 128.41 72.7983 128.493 72.8851 128.543L75.0828 129.766C75.1697 129.812 75.32 129.809 75.4168 129.756ZM116.579 106.847L118.877 105.567C118.974 105.514 118.984 105.43 118.897 105.38L116.699 104.158C116.612 104.111 116.462 104.115 116.365 104.168L114.067 105.447C113.97 105.501 113.96 105.584 114.047 105.634L116.245 106.857C116.332 106.903 116.482 106.9 116.579 106.847ZM110.083 106.967L112.381 105.688C112.477 105.634 112.487 105.551 112.401 105.501L110.203 104.278C110.116 104.231 109.966 104.235 109.869 104.288L107.571 105.567C107.474 105.621 107.464 105.704 107.551 105.754L109.749 106.977C109.836 107.024 109.986 107.02 110.083 106.967ZM113.56 102.411C113.473 102.364 113.322 102.368 113.226 102.421L110.928 103.7C110.831 103.754 110.821 103.837 110.908 103.887L113.105 105.11C113.192 105.157 113.343 105.153 113.439 105.1L115.737 103.821C115.834 103.767 115.844 103.684 115.757 103.634L113.56 102.411ZM114.268 102.017L119.605 104.986C119.692 105.033 119.842 105.03 119.939 104.976L122.237 103.697C122.334 103.644 122.344 103.56 122.257 103.51L116.92 100.541C116.833 100.494 116.683 100.497 116.586 100.551L114.288 101.83C114.191 101.883 114.181 101.967 114.268 102.017ZM106.516 106.159L104.218 107.438C104.121 107.491 104.111 107.575 104.198 107.625L106.395 108.847C106.482 108.894 106.632 108.891 106.729 108.837L109.027 107.558C109.124 107.505 109.134 107.421 109.047 107.371L106.85 106.149C106.763 106.102 106.612 106.105 106.516 106.159ZM81.2518 120.217L78.9539 121.496C78.857 121.549 78.847 121.633 78.9338 121.683L81.1316 122.905C81.2184 122.952 81.3687 122.949 81.4656 122.895L83.7635 121.616C83.8603 121.563 83.8704 121.479 83.7835 121.429L81.5858 120.207C81.499 120.16 81.3487 120.163 81.2518 120.217ZM112.892 108.724C112.978 108.77 113.129 108.767 113.226 108.714L115.524 107.434C115.62 107.381 115.63 107.298 115.544 107.247L113.346 106.025C113.259 105.978 113.109 105.982 113.012 106.035L110.714 107.314C110.617 107.368 110.607 107.451 110.694 107.501L112.892 108.724ZM84.6085 118.35L82.3106 119.629C82.2137 119.682 82.2037 119.766 82.2905 119.816L84.4883 121.038C84.5751 121.085 84.7254 121.082 84.8223 121.028L87.1202 119.749C87.217 119.696 87.2271 119.612 87.1402 119.562L84.9425 118.34C84.8557 118.293 84.7054 118.296 84.6085 118.35ZM58.3027 139.104C58.3895 139.151 58.5398 139.148 58.6367 139.094L60.9346 137.815C61.0314 137.762 61.0415 137.678 60.9546 137.628L58.7569 136.406C58.6701 136.359 58.5198 136.362 58.4229 136.416L56.125 137.695C56.0281 137.748 56.0181 137.832 56.1049 137.882L58.3027 139.104ZM54.3982 135.163L52.1003 136.442C52.0034 136.496 51.9934 136.579 52.0802 136.629L54.278 137.852C54.3648 137.899 54.5151 137.895 54.612 137.842L56.9099 136.563C57.0067 136.509 57.0168 136.426 56.9299 136.376L54.7322 135.153C54.6454 135.106 54.4951 135.11 54.3982 135.163ZM61.99 137.227L64.2879 135.948C64.3848 135.895 64.3948 135.811 64.308 135.761L62.1103 134.539C62.0234 134.492 61.8731 134.495 61.7763 134.549L59.4783 135.828C59.3815 135.881 59.3715 135.965 59.4583 136.015L61.656 137.237C61.7429 137.284 61.8932 137.281 61.99 137.227ZM65.3467 135.36L67.6446 134.081C67.7415 134.028 67.7515 133.944 67.6647 133.894L65.467 132.671C65.3801 132.625 65.2298 132.628 65.133 132.682L62.835 133.961C62.7382 134.014 62.7282 134.098 62.815 134.148L65.0127 135.37C65.0996 135.417 65.2499 135.414 65.3467 135.36ZM68.7034 133.493L71.0013 132.214C71.0982 132.16 71.1082 132.077 71.0214 132.027L68.8237 130.804C68.7368 130.758 68.5865 130.761 68.4897 130.814L66.1917 132.094C66.0949 132.147 66.0849 132.231 66.1717 132.281L68.3694 133.503C68.4563 133.55 68.6066 133.547 68.7034 133.493ZM57.7549 133.299L55.457 134.579C55.3601 134.632 55.3501 134.716 55.4369 134.766L57.6347 135.988C57.7215 136.035 57.8718 136.032 57.9687 135.978L60.2666 134.699C60.3634 134.645 60.3735 134.562 60.2866 134.512L58.0889 133.289C58.0021 133.243 57.8518 133.246 57.7549 133.299ZM61.1116 131.432L58.8137 132.712C58.7168 132.765 58.7068 132.849 58.7936 132.899L60.9914 134.121C61.0782 134.168 61.2285 134.164 61.3254 134.111L63.6233 132.832C63.7201 132.778 63.7302 132.695 63.6433 132.645L61.4456 131.422C61.3588 131.376 61.2085 131.379 61.1116 131.432ZM74.5384 123.961L72.2405 125.24C72.1436 125.293 72.1336 125.377 72.2204 125.427L74.4182 126.649C74.505 126.696 74.6553 126.693 74.7522 126.639L77.0501 125.36C77.1469 125.307 77.157 125.223 77.0701 125.173L74.8724 123.951C74.7856 123.904 74.6353 123.907 74.5384 123.961ZM71.1817 125.828L68.8838 127.107C68.7869 127.16 68.7769 127.244 68.8637 127.294L71.0615 128.517C71.1483 128.563 71.2986 128.56 71.3955 128.507L73.6934 127.227C73.7902 127.174 73.8003 127.09 73.7134 127.04L71.5157 125.818C71.4289 125.771 71.2786 125.774 71.1817 125.828ZM77.8951 122.09L75.5972 123.37C75.5003 123.423 75.4903 123.507 75.5771 123.557L77.7749 124.779C77.8617 124.826 78.012 124.822 78.1089 124.769L80.4068 123.49C80.5036 123.436 80.5137 123.353 80.4268 123.303L78.2291 122.08C78.1423 122.034 77.992 122.037 77.8951 122.09ZM64.4683 129.562L62.1704 130.841C62.0735 130.895 62.0635 130.978 62.1503 131.028L64.3481 132.251C64.4349 132.297 64.5852 132.294 64.6821 132.241L66.98 130.961C67.0768 130.908 67.0869 130.824 67 130.774L64.8023 129.552C64.7155 129.505 64.5652 129.509 64.4683 129.562ZM67.825 127.695L65.5271 128.974C65.4302 129.028 65.4202 129.111 65.507 129.161L67.7048 130.384C67.7916 130.43 67.9419 130.427 68.0388 130.374L70.3367 129.094C70.4335 129.041 70.4436 128.957 70.3567 128.907L68.159 127.685C68.0722 127.638 67.9219 127.641 67.825 127.695ZM63.5398 139.863L65.8377 138.583C65.9346 138.53 65.9446 138.446 65.8577 138.396L63.66 137.174C63.5732 137.127 63.4229 137.13 63.326 137.184L61.0281 138.463C60.9312 138.516 60.9212 138.6 61.0081 138.65L63.2058 139.873C63.2926 139.919 63.4429 139.916 63.5398 139.863ZM45.8411 139.058L43.6434 137.835C43.5566 137.788 43.4063 137.792 43.3094 137.845L41.0115 139.124C40.9146 139.178 40.9046 139.261 40.9914 139.311L43.1892 140.534C43.276 140.581 43.4263 140.577 43.5232 140.524L45.8211 139.245C45.9179 139.191 45.928 139.108 45.8411 139.058ZM50.2165 140.116L48.0188 138.894C47.932 138.847 47.7817 138.85 47.6848 138.904L44.1511 140.871C44.0542 140.925 44.0442 141.008 44.131 141.058L46.3288 142.281C46.4156 142.327 46.5659 142.324 46.6628 142.271L50.1965 140.303C50.2933 140.25 50.3034 140.166 50.2165 140.116ZM42.5612 136.643L40.3635 135.42C40.2767 135.374 40.1264 135.377 40.0295 135.43L37.2039 137.003C37.107 137.057 37.097 137.14 37.1838 137.191L39.3816 138.413C39.4684 138.46 39.6187 138.456 39.7156 138.403L42.5412 136.83C42.6381 136.776 42.6481 136.693 42.5612 136.643ZM44.7289 135.437C44.8157 135.484 44.966 135.48 45.0629 135.427L47.3608 134.148C47.4577 134.094 47.4677 134.011 47.3809 133.961L45.1831 132.738C45.0963 132.692 44.946 132.695 44.8491 132.748L42.5512 134.028C42.4544 134.081 42.4443 134.164 42.5312 134.215L44.7289 135.437ZM54.2379 141.372L52.0402 140.15C51.9533 140.103 51.803 140.106 51.7062 140.16L47.2907 142.618C47.1938 142.671 47.1838 142.755 47.2706 142.805L49.4684 144.028C49.5552 144.074 49.7055 144.071 49.8024 144.017L54.2178 141.559C54.3147 141.506 54.3247 141.422 54.2379 141.372ZM55.7876 144.004L53.5899 142.782C53.5031 142.735 53.3528 142.738 53.2559 142.792L50.4303 144.365C50.3334 144.418 50.3234 144.502 50.4102 144.552L52.608 145.774C52.6948 145.821 52.8451 145.818 52.942 145.764L55.7676 144.191C55.8645 144.138 55.8745 144.054 55.7876 144.004ZM69.6854 121.549C69.7722 121.596 69.9225 121.593 70.0194 121.539L72.3173 120.26C72.4142 120.207 72.4242 120.123 72.3373 120.073L70.1396 118.851C70.0528 118.804 69.9025 118.807 69.8056 118.861L67.5077 120.14C67.4108 120.193 67.4008 120.277 67.4877 120.327L69.6854 121.549ZM62.972 125.287C63.0588 125.334 63.2091 125.33 63.306 125.277L65.6039 123.998C65.7008 123.944 65.7108 123.861 65.6239 123.81L63.4262 122.588C63.3394 122.541 63.1891 122.545 63.0922 122.598L60.7943 123.877C60.6974 123.931 60.6874 124.014 60.7743 124.064L62.972 125.287ZM48.0856 133.57C48.1724 133.617 48.3227 133.613 48.4196 133.56L50.7175 132.281C50.8144 132.227 50.8244 132.144 50.7376 132.094L48.5398 130.871C48.453 130.824 48.3027 130.828 48.2058 130.881L45.9079 132.16C45.8111 132.214 45.801 132.297 45.8879 132.348L48.0856 133.57ZM66.3287 123.416C66.4155 123.463 66.5658 123.46 66.6627 123.406L68.9606 122.127C69.0575 122.074 69.0675 121.99 68.9806 121.94L66.7829 120.718C66.6961 120.671 66.5458 120.674 66.4489 120.728L64.151 122.007C64.0541 122.06 64.0441 122.144 64.131 122.194L66.3287 123.416ZM59.6153 127.154C59.7021 127.201 59.8524 127.197 59.9493 127.144L62.2472 125.865C62.3441 125.811 62.3541 125.728 62.2672 125.678L60.0695 124.455C59.9827 124.408 59.8324 124.412 59.7355 124.465L57.4376 125.744C57.3407 125.798 57.3307 125.881 57.4176 125.931L59.6153 127.154ZM57.4343 144.134C57.3474 144.088 57.1971 144.091 57.1003 144.144L53.5665 146.112C53.4697 146.165 53.4597 146.249 53.5465 146.299L55.7442 147.521C55.8311 147.568 55.9814 147.565 56.0782 147.511L59.6119 145.544C59.7088 145.49 59.7188 145.407 59.632 145.357L57.4343 144.134ZM54.7957 129.832C54.8825 129.879 55.0328 129.876 55.1297 129.822L57.4276 128.543C57.5244 128.49 57.5345 128.406 57.4476 128.356L55.2499 127.134C55.1631 127.087 55.0128 127.09 54.9159 127.144L52.618 128.423C52.5211 128.476 52.5111 128.56 52.5979 128.61L54.7957 129.832ZM51.439 131.7C51.5258 131.746 51.6761 131.743 51.773 131.69L54.0709 130.41C54.1677 130.357 54.1778 130.273 54.0909 130.223L51.8932 129.001C51.8064 128.954 51.6561 128.957 51.5592 129.011L49.2613 130.29C49.1644 130.344 49.1544 130.427 49.2412 130.477L51.439 131.7ZM119.618 109.525C119.532 109.479 119.381 109.482 119.284 109.535L113.63 112.682C113.533 112.735 113.523 112.819 113.61 112.869L115.807 114.091C115.894 114.138 116.045 114.134 116.141 114.081L121.796 110.935C121.893 110.881 121.903 110.798 121.816 110.748L119.618 109.525ZM112.2 113.654C112.113 113.607 111.963 113.61 111.866 113.664L109.568 114.943C109.471 114.996 109.461 115.08 109.548 115.13L111.746 116.352C111.833 116.399 111.983 116.396 112.08 116.342L114.378 115.063C114.475 115.01 114.485 114.926 114.398 114.876L112.2 113.654ZM66.8965 137.992L69.1944 136.713C69.2913 136.659 69.3013 136.576 69.2144 136.526L67.0167 135.303C66.9299 135.257 66.7796 135.26 66.6827 135.313L64.3848 136.593C64.2879 136.646 64.2779 136.73 64.3648 136.78L66.5625 138.002C66.6493 138.049 66.7996 138.046 66.8965 137.992ZM105.487 117.388C105.4 117.341 105.25 117.344 105.153 117.398L102.855 118.677C102.758 118.73 102.748 118.814 102.835 118.864L105.033 120.086C105.119 120.133 105.27 120.13 105.367 120.076L107.665 118.797C107.761 118.744 107.771 118.66 107.685 118.61L105.487 117.388ZM122.975 107.655C122.888 107.608 122.738 107.611 122.641 107.665L120.343 108.944C120.246 108.998 120.236 109.081 120.323 109.131L122.521 110.354C122.608 110.4 122.758 110.397 122.855 110.344L125.153 109.064C125.25 109.011 125.26 108.927 125.173 108.877L122.975 107.655ZM128.53 107.01L123.192 104.041C123.105 103.994 122.955 103.998 122.858 104.051L120.56 105.33C120.463 105.384 120.453 105.467 120.54 105.517L125.878 108.487C125.964 108.533 126.115 108.53 126.212 108.477L128.509 107.197C128.606 107.144 128.616 107.06 128.53 107.01ZM92.9418 124.368C92.855 124.321 92.7047 124.325 92.6078 124.378L89.7822 125.951C89.6853 126.005 89.6753 126.088 89.7621 126.138L91.9598 127.361C92.0467 127.408 92.197 127.404 92.2938 127.351L95.1195 125.778C95.2163 125.724 95.2264 125.641 95.1395 125.591L92.9418 124.368ZM101.422 119.649C101.335 119.602 101.185 119.605 101.088 119.659L97.5543 121.626C97.4575 121.68 97.4475 121.763 97.5343 121.813L99.732 123.036C99.8189 123.082 99.9692 123.079 100.066 123.026L103.6 121.058C103.697 121.005 103.707 120.921 103.62 120.871L101.422 119.649ZM85.1696 128.694C85.0828 128.647 84.9325 128.65 84.8356 128.704L65.9312 139.225C65.8344 139.278 65.8243 139.362 65.9112 139.412L68.1089 140.634C68.1957 140.681 68.346 140.677 68.4429 140.624L87.344 130.103C87.4408 130.05 87.4508 129.966 87.364 129.916L85.1663 128.694H85.1696ZM65.2064 139.802C65.1196 139.756 64.9693 139.759 64.8724 139.812L62.0468 141.386C61.9499 141.439 61.9399 141.522 62.0268 141.573L64.2245 142.795C64.3113 142.842 64.4616 142.838 64.5585 142.785L67.3841 141.212C67.481 141.158 67.491 141.075 67.4042 141.025L65.2064 139.802ZM89.054 126.529C88.9672 126.482 88.8169 126.486 88.72 126.539L85.8944 128.112C85.7975 128.166 85.7875 128.249 85.8744 128.299L88.0721 129.522C88.1589 129.572 88.3092 129.565 88.4061 129.512L91.2317 127.939C91.3286 127.885 91.3386 127.802 91.2518 127.752L89.054 126.529ZM61.3187 141.963C61.2318 141.917 61.0815 141.92 60.9847 141.973L58.159 143.547C58.0622 143.6 58.0522 143.683 58.139 143.734L60.3367 144.956C60.4236 145.003 60.5739 144.999 60.6707 144.946L63.4964 143.373C63.5932 143.319 63.6032 143.236 63.5164 143.186L61.3187 141.963ZM96.8262 122.201C96.7394 122.154 96.5891 122.157 96.4922 122.211L93.6666 123.784C93.5697 123.837 93.5597 123.921 93.6465 123.971L95.8443 125.193C95.9311 125.24 96.0814 125.237 96.1783 125.183L99.0039 123.61C99.1008 123.557 99.1108 123.473 99.0239 123.423L96.8262 122.201ZM108.84 115.514C108.753 115.467 108.603 115.47 108.506 115.524L106.208 116.803C106.111 116.857 106.101 116.94 106.188 116.99L108.386 118.213C108.473 118.259 108.623 118.256 108.72 118.203L111.018 116.923C111.115 116.87 111.125 116.786 111.038 116.736L108.84 115.514ZM116.359 110.457L118.656 109.178C118.753 109.124 118.763 109.041 118.677 108.991L116.479 107.768C116.392 107.722 116.242 107.725 116.145 107.778L113.847 109.058C113.75 109.111 113.74 109.195 113.827 109.245L116.025 110.467C116.111 110.514 116.262 110.511 116.359 110.457ZM102.661 111.092L104.959 109.813C105.056 109.759 105.066 109.676 104.979 109.625L102.781 108.403C102.695 108.356 102.544 108.36 102.447 108.413L100.15 109.692C100.053 109.746 100.043 109.829 100.129 109.879L102.327 111.102C102.414 111.149 102.564 111.145 102.661 111.092ZM93.7467 123.042L100.46 119.305C100.557 119.251 100.567 119.168 100.48 119.118L98.2825 117.895C98.1956 117.849 98.0453 117.852 97.9485 117.905L91.2351 121.643C91.1382 121.696 91.1282 121.78 91.215 121.83L93.4127 123.052C93.4996 123.099 93.6499 123.096 93.7467 123.042ZM112.668 112.338C112.755 112.384 112.905 112.381 113.002 112.328L115.3 111.048C115.397 110.995 115.407 110.911 115.32 110.861L113.122 109.639C113.035 109.592 112.885 109.595 112.788 109.649L110.49 110.928C110.393 110.982 110.383 111.065 110.47 111.115L112.668 112.338ZM109.862 110.581L112.16 109.302C112.257 109.248 112.267 109.165 112.18 109.114L109.982 107.892C109.896 107.845 109.745 107.849 109.648 107.902L107.351 109.181C107.254 109.235 107.244 109.318 107.331 109.368L109.528 110.591C109.615 110.638 109.765 110.634 109.862 110.581ZM90.3867 124.913L92.6846 123.633C92.7815 123.58 92.7915 123.497 92.7047 123.446L90.5069 122.224C90.4201 122.177 90.2698 122.181 90.1729 122.234L87.875 123.513C87.7782 123.567 87.7681 123.65 87.855 123.7L90.0527 124.923C90.1395 124.969 90.2898 124.966 90.3867 124.913ZM105.246 116.469C105.333 116.516 105.483 116.513 105.58 116.459L107.878 115.18C107.975 115.126 107.985 115.043 107.898 114.993L105.701 113.77C105.614 113.724 105.463 113.727 105.367 113.78L103.069 115.06C102.972 115.113 102.962 115.197 103.049 115.247L105.246 116.469ZM73.6032 134.255L75.9011 132.975C75.998 132.922 76.008 132.839 75.9212 132.788L73.7234 131.566C73.6366 131.519 73.4863 131.523 73.3894 131.576L71.0915 132.855C70.9947 132.909 70.9846 132.992 71.0715 133.042L73.2692 134.265C73.356 134.311 73.5063 134.308 73.6032 134.255ZM76.9599 132.388L79.2578 131.108C79.3547 131.055 79.3647 130.971 79.2779 130.921L77.0801 129.699C76.9933 129.652 76.843 129.655 76.7461 129.709L74.4482 130.988C74.3514 131.042 74.3413 131.125 74.4282 131.175L76.6259 132.398C76.7127 132.444 76.863 132.441 76.9599 132.388ZM70.2465 136.125L72.5444 134.846C72.6413 134.792 72.6513 134.709 72.5645 134.659L70.3667 133.436C70.2799 133.39 70.1296 133.393 70.0327 133.446L67.7348 134.726C67.638 134.779 67.6279 134.863 67.7148 134.913L69.9125 136.135C69.9993 136.182 70.1496 136.178 70.2465 136.125ZM83.6733 128.653L85.9712 127.374C86.0681 127.321 86.0781 127.237 85.9913 127.187L83.7935 125.965C83.7067 125.918 83.5564 125.921 83.4595 125.975L81.1616 127.254C81.0648 127.307 81.0547 127.391 81.1416 127.441L83.3393 128.663C83.4261 128.71 83.5764 128.707 83.6733 128.653ZM80.3166 130.521L82.6145 129.241C82.7114 129.188 82.7214 129.104 82.6346 129.054L80.4368 127.832C80.35 127.785 80.1997 127.788 80.1028 127.842L77.8049 129.121C77.7081 129.175 77.698 129.258 77.7849 129.308L79.9826 130.531C80.0694 130.577 80.2197 130.574 80.3166 130.521ZM87.03 126.783L89.3279 125.504C89.4248 125.45 89.4348 125.367 89.348 125.317L87.1502 124.094C87.0634 124.048 86.9131 124.051 86.8162 124.104L84.5183 125.384C84.4215 125.437 84.4114 125.521 84.4983 125.571L86.696 126.793C86.7828 126.84 86.9331 126.837 87.03 126.783ZM105.347 100.798C105.433 100.845 105.584 100.841 105.681 100.788L107.978 99.5086C108.075 99.4552 108.085 99.3717 107.999 99.3216L107.414 98.9976C107.327 98.9509 107.177 98.9542 107.08 99.0076L104.782 100.287C104.685 100.34 104.675 100.424 104.762 100.474L105.347 100.798ZM88.6633 110.978C88.7501 111.025 88.9004 111.022 88.9973 110.968L91.2952 109.689C91.392 109.636 91.4021 109.552 91.3152 109.502L89.1175 108.279C89.0307 108.229 88.8804 108.236 88.7835 108.289L86.4856 109.569C86.3887 109.622 86.3787 109.706 86.4655 109.756L88.6633 110.978ZM95.3767 107.241C95.4635 107.287 95.6138 107.284 95.7107 107.231L98.0086 105.951C98.1054 105.898 98.1155 105.815 98.0286 105.764L95.8309 104.542C95.7441 104.495 95.5938 104.499 95.4969 104.552L93.199 105.831C93.1021 105.885 93.0921 105.968 93.1789 106.018L95.3767 107.241ZM84.5651 113.256C84.6519 113.303 84.8022 113.299 84.8991 113.246L87.197 111.967C87.2939 111.913 87.3039 111.83 87.217 111.78L85.0193 110.557C84.9325 110.511 84.7822 110.514 84.6853 110.567L82.3874 111.847C82.2905 111.9 82.2805 111.984 82.3674 112.034L84.5651 113.256ZM92.02 109.108C92.1068 109.155 92.2571 109.151 92.354 109.098L94.6519 107.819C94.7487 107.765 94.7588 107.682 94.6719 107.632L92.4742 106.409C92.3874 106.362 92.2371 106.366 92.1402 106.419L89.8423 107.698C89.7454 107.752 89.7354 107.835 89.8222 107.885L92.02 109.108ZM77.8517 116.994C77.9385 117.04 78.0888 117.037 78.1857 116.984L80.4836 115.704C80.5805 115.651 80.5905 115.567 80.5036 115.517L78.3059 114.295C78.2191 114.248 78.0688 114.251 77.9719 114.305L75.674 115.584C75.5771 115.637 75.5671 115.721 75.654 115.771L77.8517 116.994ZM81.2084 115.126C81.2952 115.173 81.4455 115.17 81.5424 115.116L83.8403 113.837C83.9372 113.784 83.9472 113.7 83.8603 113.65L81.6626 112.428C81.5758 112.381 81.4255 112.384 81.3286 112.438L79.0307 113.717C78.9338 113.77 78.9238 113.854 79.0107 113.904L81.2084 115.126ZM98.6332 104.532C98.72 104.579 98.8703 104.575 98.9672 104.522L101.265 103.243C101.362 103.189 101.372 103.106 101.285 103.056L100.701 102.732C100.614 102.685 100.463 102.688 100.367 102.742L98.0687 104.021C97.9718 104.074 97.9618 104.158 98.0487 104.208L98.6332 104.532ZM108.703 98.9275C108.79 98.9742 108.94 98.9709 109.037 98.9175L111.335 97.6382C111.432 97.5848 111.442 97.5013 111.355 97.4512L110.771 97.1272C110.684 97.0805 110.534 97.0838 110.437 97.1372L108.139 98.4165C108.042 98.4699 108.032 98.5534 108.119 98.6035L108.703 98.9275ZM113.319 101.496C113.406 101.543 113.556 101.539 113.653 101.486L115.951 100.207C116.048 100.153 116.058 100.07 115.971 100.02L113.773 98.7972C113.687 98.7505 113.536 98.7538 113.439 98.8072L111.141 100.086C111.045 100.14 111.035 100.223 111.121 100.273L113.319 101.496ZM119.712 108.593L122.01 107.314C122.107 107.261 122.117 107.177 122.03 107.127L119.832 105.905C119.745 105.858 119.595 105.861 119.498 105.915L117.2 107.194C117.103 107.247 117.093 107.331 117.18 107.381L119.378 108.603C119.465 108.65 119.615 108.647 119.712 108.593ZM101.99 102.662C102.077 102.708 102.227 102.705 102.324 102.652L104.622 101.372C104.719 101.319 104.729 101.235 104.642 101.185L104.057 100.861C103.97 100.815 103.82 100.818 103.723 100.871L101.425 102.151C101.329 102.204 101.319 102.288 101.405 102.338L101.99 102.662ZM74.495 118.861C74.5818 118.907 74.7321 118.904 74.829 118.851L77.1269 117.571C77.2238 117.518 77.2338 117.434 77.1469 117.384L74.9492 116.162C74.8624 116.115 74.7121 116.118 74.6152 116.172L72.3173 117.451C72.2204 117.505 72.2104 117.588 72.2973 117.638L74.495 118.861Z" fill="#375A64"/>
<path d="M84.1143 137.277L84.6119 137.555L97.8751 144.936L121.465 131.806L121.956 131.539L108.192 123.881L84.1143 137.277Z" fill="#1A2E35"/>
<path d="M121.162 131.977L108.192 124.762L84.916 137.722L97.8752 144.936L121.162 131.977Z" fill="#2B454E"/>
<path d="M53.7274 5.08344C49.5791 2.46488 44.2351 2.93248 41.346 5.04002C37.2812 8.00594 35.8751 11.2658 35.147 17.732C34.1249 26.8168 33.0728 29.422 31.9539 31.4928C30.7381 33.744 28.9011 34.7961 27.2812 35.3238C28.32 35.9584 30.3941 36.603 32.6386 35.5376C31.6867 39.9196 30.3607 43.6037 31.5398 48.2362C32.3347 51.3558 34.0247 54.8929 36.5164 57.1273C38.6406 59.0311 41.6766 59.6156 44.2317 60.6911C42.5083 57.1273 41.5831 53.7606 42.7722 49.7559C44.0848 45.3371 47.1609 41.5729 48.5236 37.1174C50.4107 30.9551 52.5751 24.5723 53.1095 18.1462C53.5604 12.7087 53.7708 8.80086 53.7274 5.0801V5.08344Z" fill="#1A2E35"/>
<path d="M51.6566 5.89502C50.9952 5.29716 48.0661 5.68126 46.2992 7.71532C44.5323 9.74604 43.4769 12.7053 45.6245 14.2884C47.6385 15.7747 55.4608 7.86562 51.6566 5.89502Z" fill="#D268CC"/>
<path d="M75.671 14.8129C77.1272 14.2952 77.7485 12.4882 77.3109 11.0487C76.8767 9.60915 75.6576 8.51697 74.3584 7.69533C71.4225 5.84163 67.7986 5.04671 64.3183 5.44417C61.2255 4.47557 57.7085 4.25847 54.2315 4.95987C50.5943 5.69467 46.4861 9.01463 46.1487 14.058C40.9517 15.2404 38.6805 21.386 41.8902 27.9491C44.2182 32.7119 49.4921 36.0018 50.1267 38.3666L69.816 23.6171C70.5842 24.7727 72.9589 24.8228 73.9342 24.3653C74.9095 23.9077 75.5107 22.2143 74.8627 21.376C76.6262 21.543 78.3964 20.1736 78.6069 18.4768C78.8173 16.7801 77.4312 15.0467 75.6743 14.8129H75.671Z" fill="#1A2E35"/>
<path d="M54.2313 4.96322C52.077 5.49094 50.1599 6.72006 48.7537 8.32994C48.049 9.13488 47.4779 10.0467 47.0771 11.022C46.6729 11.9973 46.4525 13.0327 46.3757 14.0747L46.3623 14.2384L46.1986 14.2751C44.9829 14.5557 43.8506 15.1536 42.9789 16.0086C42.1005 16.8603 41.4759 17.9425 41.1085 19.0948C40.3904 21.4194 40.6175 23.9611 41.4458 26.2657C42.2341 28.6037 43.7037 30.6612 45.3937 32.5216C46.2354 33.4568 47.1238 34.3552 47.9822 35.2837C48.4064 35.7513 48.8406 36.2156 49.2213 36.7199C49.5988 37.2209 49.9695 37.7553 50.1231 38.3632C49.9328 37.762 49.5286 37.2644 49.1378 36.7834C48.737 36.2991 48.2861 35.8549 47.8419 35.4073C46.9401 34.5222 46.0183 33.6505 45.1499 32.7253C44.2781 31.8035 43.4431 30.8415 42.7184 29.7928C41.9769 28.754 41.4325 27.5917 40.9916 26.4094C40.534 25.227 40.2802 23.9745 40.1866 22.712C40.1031 21.4495 40.1967 20.1569 40.6041 18.9378C41.0016 17.722 41.6796 16.5731 42.6282 15.6646C43.5734 14.7528 44.7958 14.1215 46.0918 13.8376L45.9147 14.038C46.0817 11.8536 47.0236 9.74944 48.5266 8.13622C49.2714 7.3246 50.1565 6.6399 51.1185 6.09548C52.0804 5.55106 53.1325 5.15026 54.2247 4.95654L54.2313 4.96322Z" fill="black"/>
<path d="M126.382 46.0253C127.464 45.1402 127.661 44.9131 129.121 43.7841C130.203 42.9491 131.065 42.2745 131.345 41.7868C131.893 40.8249 131.382 39.873 130.928 40.0266C130.013 40.3373 128.931 41.0854 126.82 42.4849C124.502 44.0213 122.862 45.5343 122.738 45.2905C122.738 45.2905 123.243 44.5223 125.217 42.4648C128.056 39.5056 128.61 38.9679 129.134 38.0193C130.233 36.0387 128.69 35.7114 128.009 36.1222C127.237 36.5864 126.396 37.4849 124.365 39.4254C122.157 41.5397 120.237 43.6873 120.063 43.5604C119.889 43.4334 122.935 40.2137 124.766 37.8556C126.466 35.6646 125.357 34.7394 124.876 34.6659C124.361 34.5891 123.767 35.2271 122.949 36.0754C121.469 37.6085 117.16 42.6786 116.259 43.7006C115.357 44.7227 114.675 45.0266 114.559 43.4501C114.448 41.9705 114.522 40.4007 113.854 39.382C112.738 37.682 111.506 38.0961 111.499 39.2351C111.492 40.8416 111.098 42.6485 110.801 45.217C110.647 46.5563 110.671 48.1562 110.644 49.0881C110.47 52.3479 107.635 54.0313 105.273 55.6011C102.909 57.1742 96.4825 60.7046 96.4825 60.7046C96.4825 60.7046 84.4886 48.8008 80.9883 45.8817C76.83 42.4147 75.6443 42.1676 69.7759 42.2177L78.0791 62.7988C78.0791 62.7988 89.3616 72.8622 93.196 75.0131C97.0303 77.1641 98.5834 75.9817 103.243 72.0038C106.82 68.951 112.705 61.9437 114.128 60.3873C115.551 58.8308 116.162 57.8288 117.812 57.2477C120.053 56.4561 121.205 55.3706 122.695 53.724C123.406 52.9357 124.585 51.3593 125.677 50.2971C127.451 48.567 129.692 47.034 130.32 46.5263C131.302 45.7347 131.456 44.1048 130.076 44.6158C127.471 45.5877 124.852 47.7187 124.769 47.575C124.685 47.4348 125.641 46.6298 126.386 46.0219L126.382 46.0253Z" fill="#FFBEA7"/>
<path d="M115.467 46.1255C116.666 47.8222 116.934 51.8436 115.771 54.2383C118.183 51.9605 117.926 47.869 115.467 46.1255Z" fill="#FF9A79"/>
<path d="M96.4824 60.7046C94.4951 61.9605 92.1237 65.5777 92.7984 69.3018C91.9367 66.5563 91.1852 63.1195 95.5472 59.7026L96.4824 60.7046Z" fill="#FF9A79"/>
<path d="M39.1648 48.2362L43.7873 46.4493C43.7873 46.4493 50.6911 44.7225 56.4459 43.5335C62.4847 42.7987 67.7251 42.2509 67.7251 42.2509L69.7759 42.2175C69.7759 42.2175 74.325 46.0719 77.6583 49.639C80.9916 53.2028 83.9208 56.1787 84.1045 60.6744C84.355 66.7532 80.3036 68.9709 80.3036 68.9709L80.5541 76.7164L85.8146 91.0717L34.9497 119.372C36.4961 101.897 40.5242 99.0176 42.7787 86.9034C42.3445 80.5674 39.0746 71.8734 38.5168 67.4612C36.5863 52.1874 39.1681 48.2395 39.1681 48.2395L39.1648 48.2362Z" fill="#6F2277"/>
<path d="M49.9396 40.6211C50.13 38.4835 50.4339 34.225 50.4339 34.225C49.8795 34.9364 46.9002 35.9151 44.8595 33.1429C42.5081 29.9532 42.8789 27.6653 44.5188 26.1389C46.3925 24.3921 49.6691 24.8396 51.0318 27.6085C51.8902 29.5624 53.5735 27.2611 51.8768 24.1917C51.3157 18.8009 58.4533 22.378 62.8921 11.1389C67.3778 10.8918 70.0832 12.1209 72.2642 15.7114C73.2528 17.338 74.4519 19.6793 74.2081 26.4695C73.8974 35.1168 72.5447 37.8356 69.4085 39.2851C67.9623 39.9531 66.4726 40.207 63.6871 40.0032L63.6603 40.8315C63.667 41.0052 63.657 41.209 63.6904 41.406C63.7539 41.7534 63.9543 42.2911 64.6423 42.3279C66.0818 42.408 67.7218 42.2444 67.7218 42.2444C67.7218 42.2444 70.0397 47.7754 62.4446 49.3519C51.78 51.5663 43.784 46.4494 43.784 46.4494C43.784 46.4494 45.5175 45.6111 47.0372 44.5523C49.3752 42.9224 49.816 41.9638 49.9363 40.6211H49.9396Z" fill="#FFBEA7"/>
<path d="M47.0304 32.7353C47.0504 33.3164 47.5548 33.774 48.1593 33.7573C48.7639 33.7373 49.2381 33.2496 49.2181 32.6685C49.1981 32.0873 48.6937 31.6297 48.0892 31.6464C47.4846 31.6665 47.0104 32.1541 47.0304 32.7353Z" fill="#FAFAFA"/>
<path d="M61.3557 31.5796L66.2321 33.0392C65.8379 34.3852 64.4285 35.1467 63.0824 34.7459C61.7364 34.3418 60.9615 32.9256 61.3557 31.5796Z" fill="#C76668"/>
<path d="M61.6728 32.6617C63.0355 32.6182 64.2012 33.52 64.4985 34.7525C64.0509 34.8794 63.5633 34.8894 63.0823 34.7458C62.117 34.4552 61.4524 33.6436 61.2954 32.7118C61.419 32.6917 61.5426 32.6683 61.6728 32.665V32.6617Z" fill="#FF9090"/>
<path d="M72.3479 19.8329L69.2817 19.1248C69.4554 18.2965 70.2804 17.7822 71.1254 17.9759C71.9704 18.1729 72.5182 19.0013 72.3445 19.8329H72.3479Z" fill="#1A2E35"/>
<path d="M57.3878 19.6859L60.3738 18.5937C60.0899 17.7821 59.1914 17.368 58.3664 17.6686C57.5414 17.9692 57.1039 18.8743 57.3878 19.6859Z" fill="#1A2E35"/>
<path d="M69.3381 23.6671C69.288 24.3585 69.8358 24.973 70.5606 25.0398C71.2854 25.1066 71.9099 24.6023 71.96 23.9109C72.0101 23.2195 71.4624 22.605 70.7409 22.5382C70.0162 22.4714 69.3882 22.9757 69.3415 23.6671H69.3381Z" fill="#1A2E35"/>
<path d="M58.6404 23.734C58.5903 24.4254 59.138 25.0399 59.8628 25.1067C60.5876 25.1735 61.2122 24.6692 61.2623 23.9778C61.3124 23.2864 60.7646 22.6719 60.0432 22.6051C59.3184 22.5383 58.6905 23.0426 58.6437 23.734H58.6404Z" fill="#1A2E35"/>
<path d="M63.6905 39.9998C60.9617 39.7527 57.5482 38.891 55.3338 37.742C53.4901 36.7834 52.5917 35.2537 52.074 34.2617C52.074 34.2617 52.0038 36.7968 54.3218 38.6672C56.8635 40.7179 63.6938 41.406 63.6938 41.406C63.6604 41.2323 63.6638 41.0553 63.6604 40.8315L63.6871 40.0032L63.6905 39.9998Z" fill="#FF9A79"/>
<path d="M60.0732 70.0099C62.5415 67.9925 63.7973 67.1909 64.983 66.7901C66.1687 66.386 70.2936 64.4321 71.8935 63.9411C72.9089 63.6305 73.4266 65.1836 72.1874 66.3493C71.2322 67.2477 68.6771 68.5036 67.5649 69.1816C66.4526 69.8596 64.3651 72.6452 64.3651 72.6452L60.0732 70.0066V70.0099Z" fill="#FF9A79"/>
<path d="M54.482 87.7619C46.4126 92.1874 39.3051 97.7017 31.4694 98.834C23.8208 99.9395 23.5837 93.8373 23.7206 89.2883C23.8943 83.5468 27.2343 65.5442 28.9644 59.5456C30.8048 53.1762 32.0072 50.8315 39.1648 48.2363C45.0766 51.9738 43.7406 64.3218 42.4547 69.0345C41.1153 73.951 38.9477 83.136 38.9477 83.136C38.9477 83.136 48.2696 80.307 50.5108 79.1647C52.7519 78.0224 56.5027 73.1694 57.9823 71.6163C59.9997 69.5021 61.0785 69.7025 62.1807 69.7927C65.7846 70.0933 66.5895 70.3338 67.3744 70.7513C68.1593 71.1688 68.156 72.0505 68.156 72.0505C69.1112 72.1073 70.5307 71.9937 70.8113 73.4834C70.995 74.4687 70.9449 74.6824 70.9449 74.6824C70.9449 74.6824 71.2889 74.6958 71.5828 74.9864C72.4312 75.818 71.2755 78.951 70.4639 79.7492C69.8928 80.307 69.0377 80.4272 67.8988 80.3471C66.9302 80.2803 67.3143 79.3117 67.3143 79.3117L65.975 79.4687C63.1994 81.633 63.0658 84.8294 59.2849 85.9316C58.4867 86.1654 56.4125 86.5895 54.4753 87.7686L54.482 87.7619Z" fill="#FFBEA7"/>
<path d="M68.1561 72.0473L63.8608 71.4795L68.0292 71.4862C68.106 71.6732 68.1494 71.8603 68.1561 72.0473Z" fill="#FF9A79"/>
<path d="M70.9481 74.6791L66.0283 74.3651L70.9181 74.1313C70.9481 74.3017 70.9582 74.4854 70.9481 74.6791Z" fill="#FF9A79"/>
<path d="M70.4406 76.7901C70.307 77.0406 70.0732 77.2377 69.8193 77.378C69.5655 77.5283 69.2916 77.6251 69.001 77.7019L69.0645 77.6518C68.9509 77.9057 68.8274 78.1562 68.7004 78.4033L68.5902 78.2831C68.8708 78.2163 69.1513 78.2764 69.3785 78.42C69.6022 78.5637 69.7492 78.7841 69.8427 79.0079C69.7024 78.8041 69.5187 78.6371 69.3117 78.5269C69.1012 78.4267 68.8507 78.3967 68.6437 78.4501L68.46 78.5002L68.5368 78.3332C68.6503 78.0794 68.7706 77.8289 68.8975 77.5784L68.9175 77.5383L68.961 77.5283C69.2315 77.4648 69.502 77.3713 69.7559 77.2611C70.0064 77.1442 70.2602 77.0072 70.4372 76.7834L70.4406 76.7901Z" fill="#FF9A79"/>
<path d="M69.1816 77.4749C68.7006 77.6018 67.4214 77.702 67.4214 77.702C67.4214 77.702 67.4047 78.0393 66.8736 78.6439C66.5897 78.9678 65.9785 79.4622 65.9785 79.4622L67.3179 79.3052C67.3179 79.3052 67.6084 78.7073 68.8042 78.41L69.1816 77.4749Z" fill="#FF9A79"/>
<path d="M39.3517 81.436L38.9476 83.1361C35.504 84.2183 31.8768 86.8001 31.1587 88.6972C31.6196 85.7313 33.2963 83.3966 39.3551 81.436H39.3517Z" fill="#FF9A79"/>
<path d="M75.4704 20.4608C75.3034 20.4408 75.133 20.4207 74.9527 20.4007C73.2593 20.227 71.0048 20.1903 69.6421 20.6245C67.8852 21.1889 67.274 21.8135 66.252 21.8369C65.1397 21.8536 64.4049 21.2357 62.3308 20.6979C60.6441 20.2637 57.7784 20.3439 55.5038 20.5744C55.2567 20.6011 55.0129 20.6278 54.7824 20.6545C54.3816 20.7046 53.9374 21.1889 53.9541 21.7567C53.9708 22.3245 54.435 22.7721 54.6321 23.0293C54.7189 23.1428 54.7991 23.3065 54.8626 23.5436C55.0997 24.4421 55.23 26.1889 55.7076 27.1542C55.9013 27.5416 56.1785 28.0192 56.6361 28.4401C56.7864 28.577 56.94 28.6972 57.1137 28.8075C57.2039 28.8642 57.2941 28.9177 57.3876 28.9678C57.6281 29.0947 57.8986 29.2049 58.2026 29.2918C58.2493 29.3051 58.2927 29.3185 58.3395 29.3252C58.4096 29.3419 58.4831 29.3586 58.5566 29.3719C58.6301 29.3853 58.7036 29.3986 58.7804 29.412C59.0008 29.4454 59.238 29.4688 59.4918 29.4721C59.5887 29.4788 59.6889 29.4788 59.7924 29.4755C59.9126 29.4755 60.0396 29.4688 60.1698 29.4588C63.0155 29.2784 64.1277 27.889 64.7523 26.5196C65.3635 25.1836 65.1197 23.3766 66.3221 23.3466C66.3622 23.3466 66.3989 23.3466 66.4357 23.3466C66.4724 23.3466 66.5091 23.3532 66.5425 23.3599C67.4243 23.5369 67.4076 25.1802 68.0255 26.3526C68.2626 26.8035 68.5566 27.251 68.9407 27.6251C69.0075 27.6919 69.0776 27.7554 69.1511 27.8188C69.1878 27.8522 69.2246 27.8789 69.2646 27.909C69.3047 27.9391 69.3415 27.9658 69.3815 27.9958C69.4183 28.0226 69.4517 28.0459 69.4884 28.0693C69.5485 28.1094 69.5753 28.1261 69.602 28.1395C69.632 28.1595 69.6621 28.1762 69.6922 28.1896C69.7122 28.2029 69.7322 28.2129 69.7556 28.2263C70.0596 28.3866 70.4002 28.5102 70.7877 28.5837C70.8177 28.5904 70.8511 28.5937 70.8812 28.6004C71.2453 28.6638 71.6494 28.6805 72.1003 28.6471C74.3682 28.4835 75.0028 27.0373 75.2766 26.1488C75.5472 25.2704 75.5271 23.7474 75.6207 22.9558C75.6407 22.7821 75.7008 22.6452 75.771 22.545C75.9046 22.3512 76.1517 21.8937 76.1283 21.406C76.1049 20.9217 75.7543 20.4842 75.4704 20.4474V20.4608ZM64.0108 25.3205C63.9139 25.8282 63.6868 26.573 63.1224 27.2109C62.5446 27.8622 61.6027 28.4033 60.0696 28.4735C58.4865 28.5469 57.5513 27.9558 56.9901 27.231C56.9534 27.1876 56.92 27.1408 56.8899 27.0974C56.8565 27.0506 56.8265 27.0072 56.7998 26.9638C56.773 26.9237 56.7463 26.8803 56.7229 26.8369C56.6996 26.8001 56.6795 26.76 56.6595 26.7233C56.6428 26.6932 56.6261 26.6632 56.6127 26.6331C56.596 26.6064 56.5827 26.5797 56.5726 26.553C56.5526 26.5095 56.5292 26.4628 56.5092 26.416C56.4491 26.2791 56.399 26.1455 56.3555 26.0152C56.3555 26.0152 56.3555 26.0085 56.3522 26.0052C56.3255 25.9217 56.2988 25.8415 56.2787 25.7647C56.2386 25.6244 56.2052 25.4942 56.1785 25.3806C56.1718 25.3539 56.1685 25.3305 56.1618 25.3071C56.1551 25.2838 56.1518 25.2604 56.1451 25.237C55.9247 24.2884 55.6742 22.4448 56.1852 22.0239C56.6728 21.6231 57.9955 21.1689 60.0897 21.3325C60.1598 21.3325 60.2333 21.3426 60.3101 21.3492C60.6241 21.3793 60.938 21.4261 61.2486 21.4862C61.3722 21.5096 61.4925 21.5363 61.6094 21.563C61.9267 21.6398 62.2373 21.7267 62.5145 21.8269C62.6114 21.8603 62.7015 21.897 62.7917 21.9304C62.8953 21.9705 62.9955 22.0139 63.089 22.0607C63.109 22.0707 63.1291 22.0774 63.1491 22.0907C63.1858 22.1074 63.2226 22.1275 63.2593 22.1475C63.5399 22.2911 63.7536 22.4481 63.8672 22.5984C64.2814 23.1328 64.2045 24.2985 64.0142 25.3172L64.0108 25.3205ZM74.8257 24.5156C74.7556 25.1802 74.5986 26.6365 73.4163 27.3479C73.0756 27.555 72.6414 27.6986 72.1003 27.7387C70.6441 27.8556 69.759 27.2644 69.2346 26.5563C69.2346 26.553 69.2279 26.5463 69.2246 26.5429C69.2045 26.5162 69.1845 26.4895 69.1678 26.4628C69.1444 26.4327 69.1244 26.3993 69.1043 26.3693C69.0943 26.3526 69.0843 26.3359 69.0743 26.3192C69.0475 26.2724 69.0175 26.2256 68.9941 26.1822C68.964 26.1288 68.9373 26.0753 68.9073 26.0219C68.8939 25.9952 68.8805 25.9685 68.8672 25.9451C68.8605 25.9284 68.8538 25.915 68.8471 25.9017C68.8371 25.8783 68.8271 25.8582 68.8171 25.8349C68.8104 25.8182 68.8004 25.7981 68.7937 25.7848C68.6935 25.5476 68.6234 25.3238 68.5733 25.1301C68.3228 24.1582 68.1558 23.0326 68.4764 22.4949C68.7937 21.9605 70.103 21.3693 71.3588 21.1923C71.646 21.1522 71.9133 21.1288 72.1638 21.1188C72.1972 21.1188 72.2272 21.1188 72.2573 21.1188C72.2907 21.1188 72.3274 21.1188 72.3608 21.1188C72.4543 21.1188 72.5479 21.1188 72.638 21.1221C72.6714 21.1221 72.7048 21.1221 72.7382 21.1255C72.785 21.1255 72.8284 21.1321 72.8685 21.1355C72.942 21.1388 73.0155 21.1488 73.0856 21.1589C73.2292 21.1756 73.3628 21.1989 73.4897 21.2257C73.5231 21.2323 73.5532 21.239 73.5866 21.249C73.5933 21.249 73.6033 21.249 73.61 21.2557C73.63 21.2624 73.6534 21.2657 73.6734 21.2724C73.7068 21.2791 73.7402 21.2891 73.7703 21.2991C73.8104 21.3092 73.8505 21.3225 73.8872 21.3359C73.9573 21.3593 74.0208 21.3826 74.0809 21.4094C74.0943 21.4127 74.1043 21.4194 74.1143 21.4227C74.308 21.5062 74.455 21.5997 74.5585 21.6899C74.956 22.044 74.9059 23.6705 74.819 24.5156H74.8257Z" fill="#2B454E"/>
<path d="M54.4185 21.082L47.9355 25.1735C48.5468 25.257 49.2415 25.5308 49.7826 25.9951L54.7558 22.7252L54.4185 21.0786V21.082Z" fill="#2B454E"/>
<path d="M70.2269 28.7873L66.279 30.6911L65.2637 24.6491C65.3372 24.088 65.6545 23.5569 65.8883 23.4634L70.2236 28.784L70.2269 28.7873Z" fill="#FF9A79"/>
<path opacity="0.8" d="M99.5255 77.695C99.5222 77.6483 99.5155 77.6082 99.5021 77.5648C99.5055 77.5547 99.5021 77.5447 99.4988 77.538C99.4954 77.4913 99.4787 77.4512 99.4654 77.4145C99.4453 77.351 99.4186 77.2909 99.3785 77.2341C99.3685 77.2074 99.3485 77.184 99.3318 77.1606C99.3184 77.1406 99.3084 77.1239 99.2884 77.1105C99.2583 77.0738 99.2316 77.0471 99.1915 77.017C99.1915 77.017 99.1882 77.0137 99.1815 77.007C99.1447 76.9803 99.1013 76.9569 99.0579 76.9369C98.794 76.8166 98.4567 76.85 98.0759 77.0571L24.7062 117.748C23.9012 118.196 23.2466 118.877 23.2466 120.855V122.975C23.2466 123.717 24.0782 124.181 24.7462 123.814L98.0759 83.1192C98.8809 82.6716 99.5355 81.5828 99.5355 80.6843V77.872C99.5355 77.8119 99.5322 77.7518 99.5255 77.6984V77.695Z" fill="#375A64"/>
<path opacity="0.9" d="M23.7509 123.814L23.6974 123.787L22.161 122.929C21.7435 122.702 21.463 122.294 21.3962 121.843C21.3862 121.776 21.3828 121.706 21.3828 121.639V119.171C21.3828 118.673 21.5832 118.116 21.8972 117.645L21.9172 117.658L23.7175 118.657C23.4369 119.131 23.2699 119.692 23.2465 120.708V122.979C23.2465 123.112 23.2766 123.226 23.3133 123.326C23.4336 123.627 23.6774 123.78 23.7475 123.817L23.7509 123.814Z" fill="#1A2E35"/>
<path opacity="0.6" d="M99.0544 76.9402C98.7939 76.8166 98.4565 76.85 98.0724 77.0604L24.706 117.748C24.5624 117.825 24.4321 117.919 24.3019 118.022C24.2117 118.092 24.1349 118.169 24.058 118.249C23.9345 118.37 23.8276 118.506 23.734 118.66L21.9004 117.645C21.9939 117.504 22.1008 117.368 22.211 117.244C22.2511 117.201 22.2912 117.164 22.3279 117.124C22.368 117.084 22.4081 117.047 22.4515 117.014C22.4916 116.973 22.5316 116.94 22.5751 116.91C22.6586 116.843 22.7488 116.786 22.8356 116.733L96.2087 76.0417C96.6262 75.8079 96.9969 75.8012 97.2641 75.9616C97.5313 76.1152 98.7371 76.7832 99.0477 76.9402H99.0544Z" fill="#375A64"/>
<path d="M28.7642 119.412V117.681C28.7642 117.558 28.8477 117.424 28.9245 117.424L30.5043 117.411C30.6078 117.411 30.6078 117.628 30.5043 117.745L28.9245 119.488C28.8477 119.575 28.7642 119.535 28.7642 119.412Z" fill="white"/>
<path d="M32.4448 117.361V115.631C32.4448 115.507 32.5283 115.374 32.6051 115.374L34.185 115.36C34.2885 115.36 34.2885 115.577 34.185 115.694L32.6051 117.438C32.5283 117.525 32.4448 117.485 32.4448 117.361Z" fill="white"/>
<path d="M34.3854 116.459C34.3186 116.496 34.2651 116.459 34.2651 116.372V114.595C34.2651 114.509 34.3186 114.412 34.3854 114.372C34.4522 114.335 34.5056 114.372 34.5056 114.458V116.235C34.5056 116.322 34.4522 116.419 34.3854 116.459Z" fill="white"/>
<path d="M26.9037 120.447V118.717C26.9037 118.593 26.8202 118.553 26.7434 118.64L25.1636 120.384C25.0601 120.501 25.0601 120.718 25.1636 120.718L26.7434 120.704C26.8202 120.704 26.9037 120.571 26.9037 120.447Z" fill="white"/>
<path d="M24.9601 121.703C25.0269 121.666 25.0803 121.566 25.0803 121.479V119.702C25.0803 119.615 25.0269 119.579 24.9601 119.615C24.8933 119.652 24.8398 119.752 24.8398 119.839V121.616C24.8398 121.703 24.8933 121.74 24.9601 121.703Z" fill="white"/>
<path d="M95.9816 80.9516C95.9048 80.9516 95.8413 80.8915 95.8413 80.818V80.0264C95.8413 79.9797 95.868 79.9329 95.9114 79.9095L96.5694 79.5421C96.6362 79.5054 96.7197 79.5288 96.7598 79.5922C96.7965 79.6557 96.7765 79.7392 96.7097 79.7759L96.1219 80.1032V80.818C96.1219 80.8915 96.0584 80.9516 95.9816 80.9516Z" fill="white"/>
<path d="M97.772 79.9529C97.6952 79.9529 97.6317 79.8928 97.6317 79.8193V79.2615L97.1842 79.512C97.1174 79.5488 97.0339 79.5254 96.9938 79.4619C96.9537 79.3985 96.9771 79.315 97.0439 79.2782L97.7019 78.9108C97.7453 78.8875 97.7987 78.8875 97.8422 78.9108C97.8856 78.9342 97.9123 78.9776 97.9123 79.0277V79.8193C97.9123 79.8928 97.8488 79.9529 97.772 79.9529Z" fill="white"/>
<path d="M97.114 81.8166C97.0673 81.8166 97.0205 81.7932 96.9938 81.7498C96.957 81.6863 96.9771 81.6028 97.0439 81.5661L97.6317 81.2387V80.524C97.6317 80.4505 97.6952 80.3904 97.772 80.3904C97.8488 80.3904 97.9123 80.4505 97.9123 80.524V81.3156C97.9123 81.3623 97.8856 81.4091 97.8421 81.4325L97.1842 81.7999C97.1608 81.8132 97.1374 81.8166 97.114 81.8166Z" fill="white"/>
<path d="M95.9816 82.4479C95.9582 82.4479 95.9348 82.4413 95.9114 82.4312C95.868 82.4079 95.8413 82.3644 95.8413 82.3143V81.5228C95.8413 81.4493 95.9048 81.3892 95.9816 81.3892C96.0584 81.3892 96.1219 81.4493 96.1219 81.5228V82.0805L96.5694 81.83C96.6362 81.7933 96.7197 81.8167 96.7598 81.8801C96.7965 81.9436 96.7765 82.0271 96.7097 82.0638L96.0517 82.4312C96.0317 82.4446 96.005 82.4479 95.9816 82.4479Z" fill="white"/>
<path d="M94.9629 81.3924L94.6957 81.4993C94.6957 81.4993 94.6656 81.4993 94.659 81.4826C94.6423 81.4191 94.6189 81.3623 94.5922 81.3156C94.5821 81.3022 94.5922 81.2655 94.6055 81.2354L94.7558 80.9114C94.7692 80.8814 94.7725 80.848 94.7658 80.838L94.5521 80.6843C94.5521 80.6843 94.5153 80.6977 94.4986 80.7277L94.3116 81.0217C94.2949 81.0517 94.2682 81.0718 94.2548 81.0684C94.2047 81.0651 94.1513 81.0651 94.0945 81.0718C94.0811 81.0751 94.0678 81.0617 94.0644 81.0417L94.0377 80.7177C94.0344 80.701 94.021 80.691 94.001 80.701L93.7137 80.8647C93.697 80.8747 93.677 80.8981 93.677 80.9248L93.6469 81.2722C93.6469 81.2989 93.6302 81.3323 93.6102 81.349C93.5601 81.3957 93.5133 81.4458 93.4666 81.5026C93.4499 81.5227 93.4232 81.5427 93.4098 81.536L93.196 81.4325C93.196 81.4325 93.1593 81.4492 93.1459 81.4826L92.9589 81.8233C92.9422 81.8533 92.9322 81.8867 92.9422 81.8967L93.1159 82.0771C93.1159 82.0771 93.1192 82.1205 93.1125 82.1539C93.0892 82.2207 93.0691 82.2942 93.0558 82.3643C93.0524 82.3944 93.029 82.4245 93.0123 82.4378L92.7552 82.6215C92.7385 82.6315 92.7251 82.6616 92.7251 82.6816V83.0524C92.7251 83.0791 92.7385 83.0925 92.7518 83.0824L93.019 82.9722C93.0357 82.9689 93.0491 82.9756 93.0558 82.9889C93.0725 83.0524 93.0958 83.1092 93.1259 83.1593C93.1292 83.1726 93.1259 83.206 93.1092 83.2394L92.9622 83.5601C92.9455 83.5935 92.9389 83.6302 92.9522 83.6335L93.166 83.7905C93.166 83.7905 93.196 83.7772 93.2161 83.7471L93.4031 83.4532C93.4265 83.4231 93.4465 83.4031 93.4599 83.4031C93.5133 83.4131 93.5668 83.4131 93.6202 83.3997C93.6369 83.3997 93.6503 83.4131 93.6503 83.4331L93.6803 83.7538C93.6803 83.7738 93.697 83.7838 93.7171 83.7738L94.0043 83.6102C94.021 83.6001 94.0344 83.5701 94.0411 83.55L94.0678 83.1993C94.0711 83.1793 94.0845 83.1426 94.1079 83.1259C94.158 83.0791 94.2014 83.029 94.2448 82.9722C94.2682 82.9455 94.2882 82.9288 94.3016 82.9388L94.5153 83.0357C94.5153 83.0357 94.5521 83.0223 94.5688 82.9889L94.7558 82.6482C94.7725 82.6148 94.7792 82.5814 94.7692 82.5714L94.5988 82.3911C94.5988 82.3911 94.5888 82.3476 94.5988 82.3176C94.6256 82.2474 94.6423 82.1773 94.6556 82.1072C94.6656 82.0771 94.6823 82.0437 94.699 82.0303L94.9562 81.85C94.9729 81.8366 94.993 81.8099 94.993 81.7865V81.4158C94.993 81.3957 94.9796 81.3824 94.9629 81.3891V81.3924ZM93.8574 82.8687C93.5868 83.019 93.3697 82.8553 93.3697 82.508C93.3697 82.1606 93.5868 81.7565 93.8574 81.6062C94.1279 81.4559 94.3483 81.6162 94.3483 81.9669C94.3483 82.3176 94.1279 82.715 93.8574 82.8687Z" fill="white"/>
<path d="M51.0085 106.463V105.601L37.1074 113.336C36.8436 113.483 36.6265 113.797 36.6265 114.034C36.6265 114.271 36.8402 114.345 37.1074 114.198L51.0085 106.463Z" fill="#D268CC"/>
<path opacity="0.5" d="M90.404 83.7104C90.3472 83.7205 90.2838 83.7438 90.217 83.7806L51.0054 105.601V106.463L90.217 84.639C90.3506 84.5655 90.4708 84.4486 90.5577 84.325C90.6011 84.2615 90.6378 84.1947 90.6612 84.1313C90.6846 84.0678 90.6979 84.001 90.6979 83.9442C90.6979 83.7672 90.5777 83.6804 90.404 83.7104Z" fill="white"/>
<path d="M51.7034 105.704C51.7034 106.195 51.3894 106.767 51.0053 106.984C50.6212 107.197 50.314 106.967 50.314 106.473C50.314 105.978 50.6212 105.404 51.0053 105.193C51.3894 104.98 51.7034 105.207 51.7034 105.701V105.704Z" fill="#D268CC"/>
<path opacity="0.5" d="M51.7034 105.704C51.7034 106.195 51.3894 106.767 51.0053 106.984C50.6212 107.197 50.314 106.967 50.314 106.473C50.314 105.978 50.6212 105.404 51.0053 105.193C51.3894 104.98 51.7034 105.207 51.7034 105.701V105.704Z" fill="white"/>
<path d="M51.4561 105.841C51.4561 106.159 51.2523 106.526 51.0052 106.666C50.758 106.803 50.5576 106.653 50.5576 106.339C50.5576 106.025 50.758 105.651 51.0052 105.514C51.2523 105.377 51.4561 105.521 51.4561 105.841Z" fill="#D268CC"/>
</svg>
