<svg width="162" height="162" viewBox="0 0 162 162" fill="none" xmlns="http://www.w3.org/2000/svg">
<g clip-path="url(#clip0_529_5362)">
<path d="M120.8 29.7756C120.897 29.7756 120.975 35.6692 120.975 42.9398C120.975 50.2103 120.897 56.1039 120.8 56.1039C120.703 56.1039 120.625 50.2103 120.625 42.9398C120.625 35.6692 120.703 29.7756 120.8 29.7756Z" fill="#ECECEC"/>
<path d="M117.369 32.6689C117.466 32.6689 117.544 37.1693 117.544 42.7194C117.544 48.2695 117.466 52.7699 117.369 52.7699C117.272 52.7699 117.194 48.2695 117.194 42.7194C117.194 37.1693 117.272 32.6689 117.369 32.6689Z" fill="#ECECEC"/>
<path d="M113.507 35.5396C113.604 35.5396 113.682 38.799 113.682 42.8166C113.682 46.8342 113.604 50.0936 113.507 50.0936C113.41 50.0936 113.332 46.8342 113.332 42.8166C113.332 38.799 113.41 35.5396 113.507 35.5396Z" fill="#ECECEC"/>
<path d="M110.141 38.0149C110.238 38.0149 110.316 39.8325 110.316 42.0746C110.316 44.3167 110.238 46.1343 110.141 46.1343C110.044 46.1343 109.966 44.3167 109.966 42.0746C109.966 39.8325 110.044 38.0149 110.141 38.0149Z" fill="#ECECEC"/>
<path d="M107.17 39.9946C107.267 39.9946 107.345 40.9926 107.345 42.2238C107.345 43.455 107.267 44.4529 107.17 44.4529C107.072 44.4529 106.995 43.455 106.995 42.2238C106.995 40.9926 107.072 39.9946 107.17 39.9946Z" fill="#ECECEC"/>
<path d="M103.803 37.6196C103.901 37.6196 103.978 39.4373 103.978 41.6793C103.978 43.9214 103.901 45.7391 103.803 45.7391C103.706 45.7391 103.628 43.9214 103.628 41.6793C103.628 39.4373 103.706 37.6196 103.803 37.6196Z" fill="#ECECEC"/>
<path d="M100.634 34.3506C100.732 34.3506 100.809 37.7655 100.809 41.9743C100.809 46.1831 100.732 49.598 100.634 49.598C100.537 49.598 100.459 46.1863 100.459 41.9743C100.459 37.7623 100.537 34.3506 100.634 34.3506Z" fill="#ECECEC"/>
<path d="M140.817 35.5396C140.914 35.5396 140.992 38.799 140.992 42.8166C140.992 46.8342 140.914 50.0936 140.817 50.0936C140.72 50.0936 140.642 46.8342 140.642 42.8166C140.642 38.799 140.72 35.5396 140.817 35.5396Z" fill="#ECECEC"/>
<path d="M137.45 38.0149C137.548 38.0149 137.625 39.8325 137.625 42.0746C137.625 44.3167 137.548 46.1343 137.45 46.1343C137.353 46.1343 137.275 44.3167 137.275 42.0746C137.275 39.8325 137.353 38.0149 137.45 38.0149Z" fill="#ECECEC"/>
<path d="M134.48 39.9946C134.577 39.9946 134.655 40.9926 134.655 42.2238C134.655 43.455 134.577 44.4529 134.48 44.4529C134.382 44.4529 134.305 43.455 134.305 42.2238C134.305 40.9926 134.382 39.9946 134.48 39.9946Z" fill="#ECECEC"/>
<path d="M131.113 36.4307C131.21 36.4307 131.288 38.7797 131.288 41.6795C131.288 44.5793 131.21 46.9283 131.113 46.9283C131.016 46.9283 130.938 44.5793 130.938 41.6795C130.938 38.7797 131.016 36.4307 131.113 36.4307Z" fill="#ECECEC"/>
<path d="M127.944 34.3506C128.042 34.3506 128.119 37.7655 128.119 41.9743C128.119 46.1831 128.042 49.598 127.944 49.598C127.847 49.598 127.77 46.1863 127.77 41.9743C127.77 37.7623 127.847 34.3506 127.944 34.3506Z" fill="#ECECEC"/>
<path d="M124.082 32.7661C124.179 32.7661 124.257 37.111 124.257 42.4699C124.257 47.8289 124.179 52.1737 124.082 52.1737C123.985 52.1737 123.907 47.8289 123.907 42.4699C123.907 37.111 123.985 32.7661 124.082 32.7661Z" fill="#ECECEC"/>
<path d="M144.417 45.7391C144.319 45.7391 144.242 43.9214 144.242 41.6793C144.242 39.4373 144.319 37.6196 144.417 37.6196C144.514 37.6196 144.592 39.4373 144.592 41.6793C144.592 43.9214 144.514 45.7391 144.417 45.7391Z" fill="#ECECEC"/>
<path d="M147.388 43.7595C147.291 43.7595 147.213 42.7616 147.213 41.5304C147.213 40.2992 147.291 39.3013 147.388 39.3013C147.485 39.3013 147.563 40.2992 147.563 41.5304C147.563 42.7616 147.485 43.7595 147.388 43.7595Z" fill="#ECECEC"/>
<path d="M97.5338 37.6196C97.631 37.6196 97.7088 39.4373 97.7088 41.6793C97.7088 43.9214 97.631 45.7391 97.5338 45.7391C97.4366 45.7391 97.3589 43.9214 97.3589 41.6793C97.3589 39.4373 97.4366 37.6196 97.5338 37.6196Z" fill="#ECECEC"/>
<path d="M94.5626 39.5994C94.6598 39.5994 94.7376 40.5973 94.7376 41.8285C94.7376 43.0597 94.6598 44.0576 94.5626 44.0576C94.4654 44.0576 94.3877 43.0597 94.3877 41.8285C94.3877 40.5973 94.4654 39.5994 94.5626 39.5994Z" fill="#ECECEC"/>
<path d="M91.5983 37.6196C91.6955 37.6196 91.7733 39.4373 91.7733 41.6793C91.7733 43.9214 91.6955 45.7391 91.5983 45.7391C91.5011 45.7391 91.4233 43.9214 91.4233 41.6793C91.4233 39.4373 91.5011 37.6196 91.5983 37.6196Z" fill="#ECECEC"/>
<path d="M88.4293 34.3506C88.5265 34.3506 88.6043 37.7655 88.6043 41.9743C88.6043 46.1831 88.5265 49.598 88.4293 49.598C88.3321 49.598 88.2544 46.1863 88.2544 41.9743C88.2544 37.7623 88.3321 34.3506 88.4293 34.3506Z" fill="#ECECEC"/>
<path d="M85.3288 37.6196C85.426 37.6196 85.5037 39.4373 85.5037 41.6793C85.5037 43.9214 85.426 45.7391 85.3288 45.7391C85.2316 45.7391 85.1538 43.9214 85.1538 41.6793C85.1538 39.4373 85.2316 37.6196 85.3288 37.6196Z" fill="#ECECEC"/>
<path d="M82.3576 39.5994C82.4548 39.5994 82.5325 40.5973 82.5325 41.8285C82.5325 43.0597 82.4548 44.0576 82.3576 44.0576C82.2604 44.0576 82.1826 43.0597 82.1826 41.8285C82.1826 40.5973 82.2604 39.5994 82.3576 39.5994Z" fill="#ECECEC"/>
<path d="M156.806 37.6196C156.904 37.6196 156.981 39.4373 156.981 41.6793C156.981 43.9214 156.904 45.7391 156.806 45.7391C156.709 45.7391 156.631 43.9214 156.631 41.6793C156.631 39.4373 156.709 37.6196 156.806 37.6196Z" fill="#ECECEC"/>
<path d="M153.634 34.3506C153.732 34.3506 153.809 37.7655 153.809 41.9743C153.809 46.1831 153.732 49.598 153.634 49.598C153.537 49.598 153.459 46.1863 153.459 41.9743C153.459 37.7623 153.537 34.3506 153.634 34.3506Z" fill="#ECECEC"/>
<path d="M150.534 37.6196C150.631 37.6196 150.709 39.4373 150.709 41.6793C150.709 43.9214 150.631 45.7391 150.534 45.7391C150.437 45.7391 150.359 43.9214 150.359 41.6793C150.359 39.4373 150.437 37.6196 150.534 37.6196Z" fill="#ECECEC"/>
<path d="M147.563 39.5994C147.66 39.5994 147.738 40.5973 147.738 41.8285C147.738 43.0597 147.66 44.0576 147.563 44.0576C147.465 44.0576 147.388 43.0597 147.388 41.8285C147.388 40.5973 147.465 39.5994 147.563 39.5994Z" fill="#ECECEC"/>
<path d="M160.675 39.5994C160.772 39.5994 160.85 40.5973 160.85 41.8285C160.85 43.0597 160.772 44.0576 160.675 44.0576C160.578 44.0576 160.5 43.0597 160.5 41.8285C160.5 40.5973 160.578 39.5994 160.675 39.5994Z" fill="#ECECEC"/>
<path d="M161.345 161.942C161.345 161.994 125.696 162.039 81.7288 162.039C37.762 162.039 2.10254 161.997 2.10254 161.942C2.10254 161.887 37.7458 161.844 81.7288 161.844C125.712 161.844 161.345 161.887 161.345 161.942Z" fill="#1A2E35"/>
<path d="M141.089 100.932C141.588 100.255 141.798 99.4096 141.682 98.5802C141.312 95.9979 140.496 90.3117 140.204 88.5686C139.822 86.2876 136.896 86.1191 136.896 86.1191L131.839 92.7255C131.162 93.61 129.869 93.7202 129.052 92.962L128.592 91.9738L129.817 90.2242C132.409 90.7135 132.678 87.6193 132.678 87.6193L128.673 87.5059L125.556 90.8755L124.957 103.761L107.856 123.233C107.856 123.233 91.666 97.2291 91.248 96.6783L81.5701 96.5746L80.002 119.229L91.559 134.11C94.9837 139.038 100.605 143.973 106.602 144.242C113.996 144.572 117.434 140.622 121.83 133.624L137.143 106.632L132.402 105.485L136.968 106.541L141.086 100.936L141.089 100.932Z" fill="#FFBE9D"/>
<path d="M107.762 133.984C107.714 133.99 107.578 133.397 107.464 132.425C107.348 131.453 107.27 130.096 107.312 128.602C107.354 127.108 107.484 125.764 107.597 124.792C107.71 123.823 107.811 123.227 107.863 123.23C107.915 123.233 107.911 123.839 107.869 124.814C107.827 125.79 107.743 127.131 107.697 128.612C107.6 131.573 107.879 133.967 107.762 133.984Z" fill="#EB996E"/>
<path d="M34.2822 61.6377C33.2616 64.5407 30.8316 69.1351 28.191 71.497C25.5504 73.8557 23.9401 76.7037 23.1625 80.1608C22.7348 82.0659 23.0362 84.0876 22.5016 85.9668C21.5425 89.33 18.0595 91.6693 17.5897 95.1393C17.1556 98.3566 22.1516 99.0694 22.265 102.316C22.4821 108.42 25.9133 108.025 28.6187 107.374C30.5238 106.917 31.7744 105.131 32.7626 103.44C37.8916 94.6727 40.9112 84.6838 41.5042 74.5426" fill="#1A2E35"/>
<path d="M63.4422 21.6529C67.6186 20.3731 72.7766 19.9908 76.3309 22.7221C79.5191 25.1715 80.9382 30.4527 82.1726 34.2792C83.0896 37.1174 84.013 39.9816 84.337 42.9462C84.6188 45.509 84.4471 48.0945 84.3888 50.6703C84.2722 55.6891 84.6707 61.0027 87.496 65.1499C89.1419 67.5637 91.5524 69.4883 92.6476 72.1937C93.7232 74.8537 96.4805 94.6566 89.9357 94.6566L65.3538 79.2666L63.439 21.6529H63.4422Z" fill="#1A2E35"/>
<path d="M46.5814 78.0355C46.2639 78.0258 45.9496 78.055 45.6418 78.1198C43.2118 78.6349 32.2153 81.1168 29.8339 84.4507C27.1544 88.2026 24.8896 103.567 26.3185 107.853C27.5205 111.463 35.8343 142.045 38.4361 151.639C38.8961 153.336 40.4254 154.525 42.1847 154.558L87.71 155.381C89.8225 155.42 91.5915 153.793 91.7308 151.684C92.3367 142.528 93.7688 119.443 93.2083 114.045C92.8162 110.261 86.239 95.1751 82.5033 86.8418C80.9222 83.3135 78.3107 80.1934 74.5459 79.3088C73.7359 79.1177 68.8759 78.7159 68.0464 78.69L46.5847 78.0388L46.5814 78.0355Z" fill="#E98586"/>
<g opacity="0.3">
<path d="M29.2373 113.345C31.1262 118.94 33.5692 124.345 36.5208 129.457C38.9379 133.644 41.7599 137.703 45.5961 140.645C49.429 143.587 54.4218 145.304 59.1619 144.352C62.5899 143.662 65.7132 141.562 67.654 138.653C69.5915 135.74 70.3237 132.049 69.6369 128.618C69.2319 126.58 68.1821 124.481 66.2673 123.677C64.0122 122.728 61.4915 123.868 59.1652 124.627C53.1809 126.58 46.3834 125.897 40.9078 122.79C36.6148 120.353 33.2484 116.608 29.9631 112.927" fill="#E98586"/>
</g>
<path d="M74.5425 79.3057C74.5425 79.3057 87.334 80.6794 90.3926 87.5806C93.4511 94.4818 100.874 106.389 100.874 106.389L86.4333 111.547L74.5457 79.3057H74.5425Z" fill="#E98586"/>
<path d="M26.7913 114.437C26.7913 114.437 34.8557 109.486 41.394 106.68C47.7962 103.933 50.1258 102.462 50.1258 102.462L43.756 87.2856C41.543 81.3499 34.4798 78.6931 29.0334 81.9299C28.907 82.0044 28.7839 82.0822 28.664 82.1599C25.667 84.1234 22.4076 90.4446 23.4152 96.8371C24.0503 100.864 26.7848 114.437 26.7848 114.437H26.7913Z" fill="#E98586"/>
<path d="M83.3359 94.6373C83.3359 94.6373 83.4105 94.715 83.5368 94.8706C83.6729 95.0423 83.8543 95.2723 84.0811 95.5639C84.5477 96.1666 85.2184 97.0478 86.0154 98.1592C87.5965 100.379 89.7414 103.541 91.2642 107.445C92.0224 109.392 92.5829 111.317 92.881 113.102C92.9231 113.326 92.9652 113.543 93.0073 113.76C93.0365 113.98 93.0657 114.194 93.0916 114.408C93.1467 114.832 93.2017 115.247 93.2536 115.645C93.3151 116.449 93.367 117.197 93.4026 117.881C93.4059 118.561 93.4091 119.18 93.4123 119.728C93.4123 120.272 93.367 120.739 93.3508 121.121C93.3281 121.487 93.3087 121.782 93.2957 121.999C93.2795 122.2 93.2698 122.304 93.2633 122.304C93.2568 122.304 93.2536 122.197 93.2568 121.996C93.2633 121.779 93.2698 121.484 93.2763 121.118C93.2795 120.735 93.3151 120.269 93.3054 119.728C93.2925 119.184 93.2795 118.568 93.2665 117.888C93.2212 117.207 93.1629 116.462 93.0948 115.665C93.0397 115.266 92.9847 114.858 92.9263 114.434C92.8972 114.223 92.868 114.009 92.8389 113.789C92.7967 113.575 92.7546 113.355 92.7093 113.134C92.4015 111.359 91.8377 109.451 91.086 107.513C89.5729 103.632 87.454 100.473 85.9053 98.2337C85.1277 97.1126 84.4732 96.2216 84.0228 95.6028C83.809 95.3047 83.6373 95.065 83.5077 94.89C83.391 94.7248 83.3327 94.6373 83.3392 94.634L83.3359 94.6373Z" fill="#E98586"/>
<path d="M50.8775 154.619C50.8775 154.619 50.7706 154.587 50.5924 154.496C50.4142 154.409 50.1647 154.263 49.8699 154.065C49.2737 153.676 48.4994 153.061 47.7671 152.251C47.0381 151.441 46.5035 150.605 46.1763 149.973C46.0111 149.659 45.8944 149.396 45.8231 149.208C45.7519 149.024 45.7162 148.92 45.7292 148.914C45.7583 148.901 45.9398 149.299 46.2962 149.908C46.6493 150.517 47.1904 151.324 47.9097 152.121C48.629 152.915 49.3774 153.54 49.9477 153.952C50.5179 154.367 50.8937 154.59 50.8775 154.616V154.619Z" fill="#E98586"/>
<path d="M53.8259 154.82C53.8064 154.833 53.5667 154.548 53.2362 154.039C52.9057 153.534 52.5007 152.799 52.154 151.94C51.8106 151.081 51.5935 150.268 51.4801 149.675C51.3667 149.082 51.3408 148.706 51.3635 148.703C51.3926 148.7 51.4639 149.063 51.6129 149.646C51.7587 150.226 51.992 151.02 52.3322 151.869C52.6724 152.714 53.0547 153.45 53.3528 153.968C53.6477 154.49 53.8485 154.801 53.8259 154.82Z" fill="#E98586"/>
<path d="M90.1461 105.397C90.1526 105.449 84.745 106.149 78.0706 106.956C71.393 107.763 65.9757 108.375 65.9692 108.323C65.9628 108.271 71.3703 107.571 78.048 106.765C84.7224 105.958 90.1429 105.346 90.1494 105.397H90.1461Z" fill="white"/>
<path d="M89.7184 89.6962C89.7281 89.748 83.6596 91.044 76.1623 92.5895C68.6617 94.135 62.5737 95.3467 62.564 95.2949C62.5543 95.2431 68.6228 93.9471 76.1234 92.4016C83.6207 90.8561 89.7087 89.6443 89.7184 89.6962Z" fill="white"/>
<path d="M95.6251 98.6809C95.6251 98.6809 95.557 98.7684 95.4112 98.9045C95.2654 99.0405 95.0419 99.222 94.7567 99.4326C94.1865 99.857 93.3473 100.382 92.3527 100.816C91.3547 101.247 90.3989 101.503 89.6991 101.629C89.3492 101.694 89.0641 101.73 88.8664 101.746C88.6688 101.762 88.5586 101.765 88.5586 101.752C88.5554 101.72 88.9863 101.658 89.6732 101.496C90.3568 101.338 91.2932 101.066 92.2781 100.641C93.2599 100.213 94.099 99.7177 94.6822 99.3257C95.2654 98.9336 95.6089 98.6615 95.6283 98.6841L95.6251 98.6809Z" fill="white"/>
<path d="M80.8734 81.6902C80.8766 81.7421 78.249 81.9656 75.0025 82.1859C71.756 82.4063 69.1219 82.5423 69.1187 82.4873C69.1154 82.4354 71.7431 82.2119 74.9895 81.9915C78.236 81.7712 80.8701 81.6351 80.8734 81.6902Z" fill="white"/>
<path d="M44.2191 94.9776C44.2385 95.0262 40.0524 96.8373 34.8684 99.0178C29.6812 101.202 25.4627 102.932 25.44 102.88C25.4174 102.828 29.6067 101.023 34.7939 98.8396C39.9779 96.6559 44.1996 94.929 44.2223 94.9776H44.2191Z" fill="white"/>
<path d="M41.5299 86.4595C41.5299 86.4595 41.4684 86.4919 41.3485 86.5372C41.2059 86.5858 41.031 86.6474 40.8171 86.7219C40.3246 86.8839 39.6604 87.1075 38.8504 87.3764C37.1916 87.9304 34.9041 88.7113 32.3996 89.6314C29.8951 90.5516 27.6465 91.4361 26.0233 92.0906C25.2327 92.4081 24.5815 92.6705 24.102 92.8649C23.8914 92.9459 23.7164 93.014 23.5771 93.0691C23.4572 93.1144 23.3924 93.1339 23.3892 93.1274C23.3892 93.1209 23.4475 93.0885 23.5609 93.0334C23.697 92.9686 23.8654 92.8909 24.0728 92.7937C24.5167 92.5895 25.1647 92.3044 25.9714 91.9642C27.5817 91.2773 29.8238 90.3734 32.3316 89.45C34.8393 88.5298 37.1332 87.7652 38.8051 87.2468C39.641 86.9876 40.3182 86.7835 40.7912 86.6506C41.0115 86.5891 41.1897 86.5405 41.3355 86.5016C41.4619 86.4692 41.5267 86.4562 41.5299 86.4627V86.4595Z" fill="white"/>
<path d="M34.7294 125.268C34.7294 125.32 33.8125 125.314 32.6882 125.252C31.5639 125.19 30.6535 125.096 30.6567 125.045C30.6567 124.993 31.5737 124.999 32.6979 125.061C33.8222 125.122 34.7327 125.216 34.7294 125.268Z" fill="#E98586"/>
<path d="M45.3498 136.252C45.3498 136.252 45.1651 136.258 44.8314 136.236C44.4977 136.213 44.0182 136.168 43.4285 136.1C42.2459 135.963 40.6162 135.72 38.8374 135.345C37.0586 134.966 35.4678 134.528 34.3338 134.172C33.7668 133.993 33.3067 133.841 32.9957 133.728C32.6814 133.614 32.5129 133.546 32.5162 133.533C32.5194 133.52 32.7008 133.566 33.0184 133.657C33.3748 133.757 33.8284 133.887 34.3727 134.042C35.5164 134.363 37.104 134.781 38.8795 135.157C40.6518 135.533 42.2718 135.795 43.4479 135.963C44.0084 136.041 44.475 136.109 44.8411 136.158C45.1716 136.203 45.353 136.236 45.3498 136.249V136.252Z" fill="#E98586"/>
<path d="M92.6444 136.064C92.6444 136.064 92.5537 136.083 92.3788 136.103C92.1844 136.122 91.9316 136.145 91.6174 136.174C90.9564 136.232 89.9974 136.304 88.8115 136.378C86.4398 136.527 83.1577 136.667 79.5322 136.689C75.9034 136.709 72.6212 136.608 70.2463 136.488C69.0605 136.427 68.0982 136.368 67.4372 136.317C67.1197 136.291 66.867 136.268 66.6758 136.255C66.5009 136.239 66.4102 136.226 66.4102 136.219C66.4102 136.213 66.5041 136.213 66.6791 136.216C66.8735 136.223 67.1262 136.232 67.4437 136.242C68.1306 136.268 69.0832 136.307 70.256 136.352C72.631 136.44 75.9098 136.517 79.5354 136.498C83.1577 136.475 86.4366 136.359 88.8115 136.245C89.9812 136.187 90.937 136.135 91.6206 136.103C91.9381 136.087 92.1908 136.077 92.3852 136.067C92.5602 136.061 92.6509 136.061 92.6542 136.067L92.6444 136.064Z" fill="white"/>
<path d="M92.8227 120.415C92.8227 120.415 92.7417 120.45 92.5862 120.496C92.408 120.548 92.1812 120.612 91.896 120.697C91.2966 120.868 90.4218 121.095 89.3364 121.351C87.1656 121.866 84.133 122.456 80.7472 122.858C77.3614 123.256 74.2737 123.386 72.0413 123.392C70.9268 123.396 70.0228 123.379 69.3975 123.35C69.1026 123.337 68.8629 123.324 68.6782 123.315C68.513 123.305 68.4287 123.295 68.4287 123.289C68.4287 123.282 68.5162 123.279 68.6782 123.276C68.8629 123.276 69.0994 123.276 69.3975 123.276C70.0196 123.282 70.9235 123.276 72.0381 123.256C74.2672 123.217 77.3452 123.065 80.7213 122.667C84.0974 122.265 87.1268 121.698 89.3008 121.218C90.3894 120.979 91.2675 120.774 91.8734 120.622C92.1617 120.554 92.3918 120.499 92.5732 120.457C92.7352 120.421 92.8194 120.405 92.8194 120.412L92.8227 120.415Z" fill="white"/>
<path d="M91.4908 148.399C91.4908 148.399 91.4422 148.405 91.3482 148.412C91.2446 148.418 91.1085 148.425 90.9335 148.434C90.5577 148.451 90.0198 148.473 89.333 148.502C87.943 148.561 85.9277 148.619 83.4394 148.668C78.4628 148.765 71.581 148.765 63.9929 148.467C56.3984 148.162 49.5393 147.611 44.5886 147.119C42.1132 146.873 40.1109 146.656 38.7274 146.487C38.0438 146.403 37.5124 146.338 37.1366 146.293C36.9616 146.27 36.8255 146.251 36.7218 146.238C36.6279 146.225 36.5825 146.215 36.5825 146.212C36.5825 146.208 36.6311 146.212 36.7251 146.218C36.8288 146.228 36.9648 146.241 37.1398 146.254C37.5156 146.293 38.0502 146.345 38.7339 146.413C40.1174 146.558 42.1229 146.756 44.5983 146.986C49.5522 147.443 56.4113 147.971 63.9994 148.276C71.5842 148.574 78.4628 148.593 83.4362 148.532C85.9245 148.499 87.9365 148.464 89.3297 148.428C90.0166 148.415 90.5544 148.402 90.9335 148.395C91.1085 148.395 91.2478 148.395 91.3515 148.392C91.4454 148.392 91.494 148.392 91.494 148.399H91.4908Z" fill="white"/>
<path d="M79.1434 39.2074C78.8583 32.8797 70.1524 25.6221 63.8409 26.1761L45.3502 30.521L45.3567 33.923L45.1817 80.2355C45.1558 86.871 50.612 92.217 57.2475 92.055C63.6562 91.8995 68.7625 86.6475 68.7398 80.2387C68.7236 75.6541 68.6879 71.7629 68.6879 71.7629C68.6879 71.7629 76.7879 70.5641 78.6477 60.0568C79.5743 54.8307 79.4609 46.235 79.1434 39.2042V39.2074Z" fill="#FFBE9D"/>
<path d="M76.83 45.9237C76.8429 46.6365 76.2468 47.2359 75.5016 47.2651C74.7564 47.291 74.144 46.737 74.1311 46.0209C74.1181 45.3081 74.7143 44.7055 75.4562 44.6796C76.2014 44.6537 76.817 45.2109 76.83 45.9237Z" fill="#1A2E35"/>
<path d="M77.1994 43.6429C77.0277 43.8146 76.0168 43.0403 74.5653 43.0176C73.1138 42.9755 72.0316 43.7045 71.8793 43.523C71.8048 43.442 71.9798 43.1277 72.4496 42.7973C72.9129 42.47 73.7002 42.1557 74.6042 42.1752C75.5114 42.1979 76.2663 42.5445 76.6972 42.8912C77.1379 43.2411 77.2837 43.5651 77.1994 43.6397V43.6429Z" fill="#1A2E35"/>
<path d="M62.623 45.924C62.6359 46.6368 62.0398 47.2362 61.2946 47.2653C60.5494 47.2913 59.937 46.7372 59.924 46.0212C59.9111 45.3084 60.5072 44.7057 61.2492 44.6798C61.9944 44.6539 62.61 45.2112 62.623 45.924Z" fill="#1A2E35"/>
<path d="M62.9014 43.6624C62.7297 43.8342 61.7188 43.0598 60.2673 43.0371C58.8157 42.995 57.7336 43.724 57.5781 43.5426C57.5035 43.4616 57.6785 43.1473 58.1483 42.8168C58.6116 42.4863 59.3989 42.1753 60.3029 42.1947C61.2101 42.2174 61.965 42.5641 62.3959 42.9108C62.8366 43.2607 62.9824 43.5847 62.8981 43.6592L62.9014 43.6624Z" fill="#1A2E35"/>
<path d="M67.9879 54.5391C67.9815 54.4548 68.8887 54.3155 70.3564 54.1535C70.729 54.1211 71.0821 54.0531 71.1469 53.8003C71.2377 53.5347 71.0919 53.1297 70.9201 52.6955C70.5864 51.7915 70.2397 50.8422 69.8736 49.8475C68.4189 45.7943 67.3756 42.4636 67.5376 42.4085C67.7028 42.3502 69.0118 45.5902 70.4665 49.6434C70.8165 50.6413 71.1502 51.5939 71.4677 52.5076C71.6005 52.932 71.8338 53.4148 71.6362 53.9688C71.5325 54.2442 71.2539 54.4419 71.0173 54.5002C70.7776 54.5682 70.5702 54.5682 70.3855 54.5779C68.9113 54.6298 67.9944 54.6201 67.9912 54.5391H67.9879Z" fill="#1A2E35"/>
<path d="M68.688 71.7661C68.688 71.7661 61.5924 72.0965 54.6426 67.7517C54.6426 67.7517 58.1612 75.0514 68.7236 74.2511L68.688 71.7661Z" fill="#EB996E"/>
<path d="M63.1023 39.8715C62.9532 40.2636 61.5049 40.0562 59.7942 40.2344C58.0803 40.3802 56.6968 40.8565 56.4765 40.5001C56.3793 40.3284 56.6223 39.9623 57.186 39.5864C57.7433 39.2138 58.6278 38.8639 59.6549 38.7635C60.682 38.6663 61.6151 38.8445 62.2339 39.1069C62.856 39.3693 63.1671 39.6836 63.1023 39.8715Z" fill="#1A2E35"/>
<path d="M77.2287 37.7236C76.95 38.0703 75.7545 37.8013 74.3386 37.8759C72.9227 37.905 71.7433 38.2582 71.4485 37.9309C71.3189 37.7722 71.4841 37.4287 71.9896 37.0853C72.4853 36.7419 73.3309 36.4341 74.3029 36.3984C75.2749 36.3628 76.1335 36.6123 76.6455 36.9168C77.1671 37.2246 77.3518 37.5551 77.2287 37.7236Z" fill="#1A2E35"/>
<path d="M64.042 24.8672C66.2387 27.9808 68.5521 31.2014 71.899 33.0223C73.0006 33.6217 74.1832 34.0526 75.2913 34.6423C76.3994 35.2319 78.4179 36.4826 79.0302 37.5777C79.6653 38.7117 79.5227 41.6569 79.5227 41.6569C80.1254 37.4351 79.0043 31.8461 76.0462 28.7681C73.0913 25.6934 68.6849 24.0734 64.4405 24.5075" fill="#1A2E35"/>
<path d="M82.772 34.8981C82.6846 34.937 82.5161 33.5924 81.1585 32.0696C80.4911 31.3114 79.5515 30.5435 78.3916 29.8761C77.2284 29.2054 75.8579 28.6255 74.4226 27.9872C71.5098 26.7463 69.1608 25.0129 67.6704 23.584C66.9187 22.8712 66.3614 22.2427 65.9986 21.7955C65.6357 21.3484 65.4607 21.0795 65.4834 21.0601C65.545 21.0082 66.355 21.9932 67.894 23.341C69.4265 24.6921 71.7398 26.3348 74.6137 27.5627C76.0393 28.1978 77.426 28.7972 78.6086 29.5067C79.7945 30.2131 80.7503 31.0425 81.4112 31.859C82.0787 32.6722 82.4416 33.4563 82.6133 34.0136C82.785 34.5741 82.7947 34.8981 82.772 34.9013V34.8981Z" fill="#375A64"/>
<path d="M68.5162 58.5305C68.3056 59.0619 68.0918 59.5997 67.7418 60.0501C67.3919 60.5004 66.8768 60.8568 66.3065 60.8827C65.7006 60.9119 65.1142 60.5523 64.774 60.0468C64.4338 59.5414 64.3204 58.9128 64.3463 58.3069C64.3722 57.7594 64.6217 57.1017 65.1693 57.0369C65.3961 57.0109 65.6196 57.0984 65.8335 57.1827C66.7893 57.5715 67.7451 57.957 68.7009 58.3458" fill="#EB996E"/>
<path d="M67.3726 60.8925C67.3564 60.8018 66.7279 61.0578 65.8434 60.7046C65.4157 60.5329 64.9459 60.1895 64.6867 59.6549C64.4275 59.1235 64.3756 58.4075 64.6478 57.7789C64.7094 57.6234 64.8066 57.4776 64.8973 57.3512C65.0107 57.2313 64.9912 57.2378 65.1144 57.254C65.231 57.2864 65.4189 57.3739 65.5744 57.4355C65.7332 57.5003 65.892 57.5651 66.0442 57.6266C66.6598 57.8761 67.2139 58.0932 67.6837 58.2681C68.6233 58.6181 69.2162 58.8027 69.2454 58.7379C69.2745 58.6731 68.7302 58.3718 67.8262 57.9344C67.3759 57.7173 66.8348 57.4646 66.2289 57.1925C66.0766 57.1244 65.9211 57.0564 65.7656 56.9851C65.5971 56.9171 65.4708 56.8425 65.2407 56.768C65.1273 56.7356 64.9686 56.7194 64.8163 56.781C64.664 56.8425 64.57 56.9462 64.4988 57.0305C64.3692 57.2022 64.259 57.3771 64.1748 57.5748C63.8378 58.3589 63.9188 59.2272 64.2622 59.8687C64.6122 60.5264 65.2116 60.8958 65.717 61.0448C66.2322 61.2036 66.676 61.1647 66.9612 61.0934C67.2463 61.0189 67.3791 60.9217 67.3694 60.8925H67.3726Z" fill="#1A2E35"/>
<path d="M60.6624 77.4069C59.2984 74.0989 54.6522 72.4076 54.6296 68.8306C54.6166 66.8478 56.1329 65.1792 56.5088 63.2319C57.5391 57.9021 52.2968 53.9947 51.2178 48.6714C50.288 44.0803 53.8293 41.0185 57.0401 37.6068C60.251 34.195 67.7516 26.3251 64.9004 22.612C61.5534 18.3741 48.7295 21.8895 44.6763 25.46C40.623 29.0305 39.0192 34.6227 38.3421 39.9817C37.6649 45.3406 37.7103 50.8422 36.0935 55.997C34.2435 61.8938 32.387 67.823 29.3414 73.2014C24.5267 81.6934 26.798 82.5002 26.798 82.5002C32.199 83.0769 36.1875 84.684 37.7654 88.0179C38.0375 88.5914 38.4296 89.9004 38.6758 90.4868C42.2916 99.2089 48.2889 105.514 53.8325 106.862C59.3729 108.21 59.4572 105.274 59.2304 99.575C59.1202 96.7918 57.5164 94.2128 57.5326 91.4296C57.5618 86.5275 62.5352 81.9397 60.6657 77.4102L60.6624 77.4069Z" fill="#1A2E35"/>
<path d="M50.5927 107.403C50.5927 107.403 50.3076 107.221 49.854 106.771C49.4004 106.324 48.7718 105.608 48.1756 104.542C47.5957 103.479 47.0449 102.053 46.9218 100.314C46.8051 98.5867 47.155 96.552 48.234 94.6371C48.775 93.6846 49.4878 92.7644 50.3918 91.9738C51.2828 91.1833 52.3293 90.5191 53.1134 89.5698C53.5022 89.1 53.7938 88.5459 53.9137 87.9368C54.0303 87.3277 53.9817 86.6829 53.8197 86.0479C53.4892 84.7746 52.7894 83.566 52.2094 82.2474C51.0528 79.5906 50.7838 76.3732 51.7008 73.3406C52.1155 71.8016 53.0259 70.4376 53.6221 68.999C53.9137 68.2765 54.1016 67.5118 54.0498 66.7407C54.0012 65.9696 53.742 65.2114 53.3791 64.4986C52.6371 63.073 51.5971 61.7997 50.6802 60.4875C49.7438 59.185 48.8334 57.8793 48.0817 56.4991C47.3332 55.1253 46.7403 53.6641 46.4973 52.1575C46.2446 50.6509 46.345 49.1216 46.75 47.7252C47.5503 44.9128 49.2319 42.6416 50.9523 40.7786C52.6954 38.9124 54.4969 37.3766 56.0391 35.8765C57.5878 34.3861 58.8936 32.9378 59.8234 31.5122C60.763 30.0931 61.3722 28.7452 61.7026 27.595C62.3668 25.2784 62.0623 23.9047 62.1433 23.9112C62.1433 23.9112 62.2178 24.2416 62.234 24.8799C62.2502 25.515 62.1951 26.4675 61.8776 27.6436C61.5698 28.8198 60.9736 30.2032 60.0438 31.6548C59.1171 33.116 57.8114 34.5999 56.2692 36.113C54.7334 37.6358 52.9449 39.1878 51.2342 41.041C49.5462 42.8878 47.9197 45.1299 47.1615 47.8386C46.7792 49.1864 46.6885 50.6412 46.9347 52.083C47.168 53.528 47.7447 54.9342 48.4802 56.2788C49.2189 57.6266 50.1164 58.9161 51.0528 60.2154C51.9697 61.5276 53.0065 62.7879 53.7906 64.288C54.1696 65.0365 54.458 65.8562 54.5098 66.7148C54.5682 67.5734 54.3576 68.4158 54.0498 69.174C53.4147 70.6935 52.5367 71.9928 52.1349 73.4734C51.2472 76.3959 51.4966 79.5096 52.6015 82.0756C53.1588 83.3652 53.8683 84.5931 54.215 85.9474C54.3835 86.6214 54.4353 87.3342 54.3025 88.0146C54.1664 88.695 53.8294 89.3138 53.4115 89.816C52.5626 90.8269 51.4999 91.4846 50.6283 92.2492C49.7503 93.0042 49.0537 93.8854 48.5223 94.8024C47.4596 96.6492 47.0967 98.6191 47.1842 100.301C47.2749 101.995 47.7901 103.401 48.3344 104.458C49.4781 106.58 50.6542 107.354 50.5894 107.403H50.5927Z" fill="#375A64"/>
<path d="M42.6481 47.7932C42.6481 47.7932 39.502 23.1368 54.2861 20.5967L56.593 20.817C56.593 20.817 44.8869 25.6154 46.4615 46.0534" fill="#A2C8A3"/>
<path d="M42.1392 57.5752C46.7487 57.5752 50.4855 53.5745 50.4855 48.6393C50.4855 43.7041 46.7487 39.7034 42.1392 39.7034C37.5297 39.7034 33.793 43.7041 33.793 48.6393C33.793 53.5745 37.5297 57.5752 42.1392 57.5752Z" fill="#A2C8A3"/>
<path d="M42.8004 39.7031C42.8004 39.7031 42.8944 39.7096 43.0629 39.7614C43.2346 39.81 43.4808 39.8942 43.7886 40.0303C44.3977 40.3025 45.2855 40.7723 46.1214 41.66C46.9638 42.5381 47.6863 43.8438 48.0784 45.3958C48.5028 46.9283 48.5968 48.7686 48.0881 50.5538C47.5989 52.3456 46.6269 53.8943 45.4669 55.0024C44.3135 56.1299 42.9592 56.7844 41.7766 57.0436C40.5843 57.319 39.5701 57.1764 38.9319 56.9658C38.6111 56.8589 38.3713 56.7487 38.2191 56.6548C38.0668 56.564 37.989 56.5122 37.9955 56.4992C38.0149 56.4636 38.3357 56.6515 38.9707 56.8168C39.6025 56.9755 40.5713 57.0662 41.7053 56.7714C42.8361 56.4895 44.1159 55.8383 45.2077 54.7399C46.3093 53.661 47.2295 52.1674 47.7025 50.4469C48.1918 48.7232 48.114 46.9866 47.722 45.48C47.3623 43.9702 46.6949 42.7098 45.9108 41.8415C45.1332 40.9634 44.2973 40.4677 43.7206 40.1599C43.1374 39.8521 42.7842 39.7322 42.8004 39.6934V39.7031Z" fill="#A2C8A3"/>
<path d="M49.3804 53.2721C49.2735 53.2753 49.2379 52.6079 48.6903 52.1446C48.1428 51.678 47.4786 51.7493 47.4656 51.6424C47.4526 51.5938 47.6082 51.4933 47.8965 51.4771C48.1784 51.4577 48.5996 51.5484 48.9463 51.8432C49.293 52.1413 49.4485 52.5398 49.4744 52.8217C49.5036 53.1101 49.429 53.2786 49.3804 53.2753V53.2721Z" fill="#A2C8A3"/>
<path d="M49.0341 50.5214C48.9984 50.6251 48.7392 50.6283 48.4412 50.6218C48.1463 50.6121 47.8871 50.5927 47.8547 50.4857C47.8223 50.3821 48.088 50.2136 48.4509 50.2265C48.817 50.2363 49.0697 50.4209 49.0308 50.5214H49.0341Z" fill="#A2C8A3"/>
<path d="M49.0308 43.1439C48.9952 43.2508 48.5837 43.2087 48.1398 43.3901C47.6894 43.5586 47.414 43.8664 47.3168 43.8114C47.2131 43.7757 47.4043 43.2476 47.9972 43.0208C48.5869 42.7875 49.0826 43.0467 49.034 43.1407L49.0308 43.1439Z" fill="#A2C8A3"/>
<path d="M47.3232 37.9113C47.3232 37.9113 47.3783 37.8627 47.495 37.7849C47.631 37.6975 47.7995 37.5873 48.0069 37.4545C48.2304 37.3151 48.5026 37.1402 48.8104 36.9263C49.1182 36.7125 49.4778 36.4825 49.8569 36.1973C50.6248 35.6498 51.5093 34.9532 52.4554 34.1399C53.3918 33.317 54.3864 32.3709 55.3649 31.3147C56.3369 30.2519 57.1955 29.1795 57.9407 28.1783C58.673 27.1675 59.2918 26.2279 59.7746 25.4179C60.0273 25.0193 60.2282 24.6403 60.4128 24.3163C60.6008 23.9923 60.753 23.7071 60.8729 23.4706C60.9896 23.2535 61.0835 23.0753 61.1613 22.9328C61.2293 22.8097 61.2682 22.7481 61.2747 22.7513C61.2812 22.7546 61.2552 22.8226 61.1969 22.949C61.1289 23.0948 61.0446 23.2795 60.941 23.503C60.8308 23.7428 60.6882 24.0344 60.5068 24.3649C60.3286 24.6953 60.1374 25.0809 59.8912 25.4859C59.4214 26.3089 58.8123 27.2614 58.0833 28.282C57.3446 29.2961 56.4827 30.3751 55.5075 31.4443C54.5225 32.507 53.5181 33.4531 52.572 34.276C51.6162 35.086 50.7188 35.7729 49.9347 36.3107C49.5524 36.5894 49.1862 36.8129 48.8687 37.0203C48.5544 37.2277 48.2758 37.3929 48.0458 37.5225C47.8319 37.6456 47.6537 37.7461 47.5144 37.8238C47.3913 37.8919 47.3265 37.9243 47.3232 37.9178V37.9113Z" fill="#375A64"/>
<path d="M84.0227 40.8888C83.9968 40.8888 84.013 40.4838 83.8736 39.7678C83.7311 39.0582 83.3779 38.0506 82.7008 36.9425C82.0139 35.8474 81.0062 34.6356 79.6195 33.628C78.9294 33.1258 78.1226 32.711 77.29 32.2801C76.454 31.8524 75.576 31.441 74.6785 31.0068C72.8836 30.1417 71.1858 29.2637 69.7861 28.2301C68.3897 27.1998 67.301 26.0431 66.585 24.9415C65.8625 23.8399 65.4996 22.8226 65.3441 22.1065C65.2728 21.7469 65.2242 21.465 65.2145 21.2738C65.1983 21.0827 65.1918 20.9822 65.1983 20.979C65.2048 20.979 65.2242 21.0794 65.2534 21.2674C65.276 21.4585 65.3344 21.7339 65.4154 22.0871C65.5903 22.7902 65.9694 23.7881 66.6952 24.8638C67.4177 25.9427 68.4998 27.0734 69.8866 28.0876C71.2765 29.1017 72.9646 29.97 74.7563 30.8351C75.6538 31.2692 76.5318 31.684 77.3677 32.1149C78.2004 32.549 79.0104 32.967 79.7167 33.4854C81.1229 34.5157 82.1305 35.7534 82.8109 36.8712C83.4816 38.002 83.8186 39.029 83.9417 39.7516C83.9935 40.1144 84.0292 40.3996 84.0227 40.5907C84.0259 40.7851 84.0227 40.8856 84.0194 40.8856L84.0227 40.8888Z" fill="#375A64"/>
<path d="M42.1846 154.555C42.1846 154.555 39.5505 158.232 38.896 161.942H93.3345L90.4768 154.295L42.1846 154.555Z" fill="#1A2E35"/>
<path d="M69.3877 123.979L68.0463 116.647L55.6403 76.0202L55.3066 69.1676L51.8074 58.7153C51.8074 58.7153 47.9 47.5697 46.8243 47.2943C45.7486 47.0189 45.1557 46.8116 45.1233 47.5762C45.0909 48.3409 47.6732 58.3071 47.6732 58.3071L43.7398 52.2677C43.7398 52.2677 44.4235 44.7995 43.6945 44.3492C42.9655 43.8988 41.7148 44.1451 41.2321 46.507C40.7493 48.869 40.4771 53.4212 40.4771 53.4212L42.1069 57.293L39.7481 53.6642L39.8453 48.0719L40.1531 45.71L38.9025 45.6063L36.9974 47.8678L36.6896 54.2247L38.9543 59.4314L35.6139 56.0326L35.3677 53.392L35.818 50.233C35.818 50.233 35.6042 49.0861 34.8071 49.4684C34.0101 49.8507 32.6558 52.2159 32.6558 52.2159L32.2508 57.3934L37.6745 63.7406L37.7426 64.2557C38.0212 64.9167 41.9935 72.3136 41.9935 72.3136C42.0356 72.3525 42.0939 72.3979 42.1587 72.4497L46.348 104.565L46.0013 103.806L28.6738 113.095C29.3315 113.828 32.9182 119.601 36.6961 126.911C38.9414 131.256 42.7387 134.781 46.6169 137.758C50.6961 140.891 56.1296 141.637 60.9021 139.722C61.0576 139.66 61.2164 139.592 61.3719 139.524C67.3141 136.874 70.5541 130.381 69.3844 123.982L69.3877 123.979Z" fill="#FFBE9D"/>
<path d="M49.4587 127.837C49.4587 127.837 49.436 127.743 49.4068 127.568C49.3777 127.371 49.342 127.112 49.2967 126.788C49.2059 126.088 49.0796 125.113 48.9241 123.914C48.613 121.471 48.1853 118.127 47.7155 114.434C47.2393 110.73 46.7954 107.383 46.4584 104.96C46.2932 103.764 46.1571 102.789 46.0599 102.092C46.0178 101.768 45.9821 101.509 45.9562 101.312C45.9335 101.133 45.9271 101.039 45.9335 101.036C45.94 101.036 45.9595 101.127 45.9951 101.305C46.0307 101.499 46.0761 101.759 46.1344 102.079C46.2543 102.753 46.4066 103.732 46.5945 104.94C46.9639 107.357 47.4304 110.704 47.9067 114.408C48.383 118.108 48.7847 121.464 49.0601 123.894C49.1897 125.093 49.2967 126.072 49.3712 126.775C49.4003 127.102 49.4263 127.361 49.4457 127.559C49.4619 127.737 49.4651 127.834 49.4587 127.834V127.837Z" fill="#EB996E"/>
<path d="M145.013 80.2613C145.013 80.2613 145.006 80.1997 145.006 80.0766C145.006 79.947 145.006 79.7656 145.006 79.5355C145.013 79.0495 145.023 78.3497 145.032 77.4522C145.049 75.6443 145.071 73.0231 144.919 69.7929C144.763 66.5658 144.456 62.7134 143.629 58.5209C143.215 56.4246 142.67 54.2473 141.906 52.0506C141.141 49.8604 140.156 47.6507 138.837 45.5738C137.522 43.497 135.912 41.6664 134.049 40.2829C132.199 38.8832 130.132 37.9436 128.084 37.3734C126.026 36.8161 124.011 36.4889 122.113 36.4792C121.163 36.45 120.25 36.531 119.378 36.6282C118.506 36.7481 117.677 36.9166 116.899 37.1304C113.779 38.0084 111.589 39.5636 110.248 40.7527C109.574 41.3554 109.097 41.8738 108.79 42.2334C108.637 42.4149 108.521 42.5574 108.446 42.6514C108.372 42.7486 108.33 42.7972 108.33 42.7972C108.33 42.7972 108.359 42.7421 108.43 42.6416C108.498 42.5412 108.608 42.3954 108.757 42.2107C109.059 41.8414 109.525 41.3132 110.196 40.6976C111.527 39.4859 113.721 37.9015 116.861 37.0008C117.641 36.7805 118.477 36.6055 119.355 36.4824C120.237 36.3787 121.157 36.2945 122.113 36.3204C124.024 36.3204 126.056 36.6444 128.129 37.2017C130.2 37.7719 132.289 38.7212 134.162 40.1306C136.045 41.5271 137.674 43.3739 138.999 45.4669C140.331 47.56 141.319 49.7826 142.084 51.9858C142.849 54.1922 143.393 56.3792 143.801 58.482C144.618 62.6908 144.916 66.5496 145.052 69.7831C145.185 73.0199 145.142 75.641 145.104 77.449C145.078 78.3464 145.055 79.0463 145.042 79.5323C145.032 79.7656 145.026 79.9438 145.019 80.0734C145.013 80.1965 145.006 80.258 145.006 80.258L145.013 80.2613Z" fill="#1A2E35"/>
<path d="M109.783 57.7187C112.23 49.4464 110.785 41.726 106.555 40.4747C102.326 39.2234 96.913 44.9151 94.4658 53.1874C92.0185 61.4597 93.4635 69.1801 97.6932 70.4314C101.923 71.6827 107.336 65.991 109.783 57.7187Z" fill="#375A64"/>
<path d="M101.639 66.702C101.587 66.702 101.37 63.0667 101.16 58.5761C100.949 54.0854 100.819 50.4437 100.871 50.4404C100.923 50.4404 101.14 54.0757 101.351 58.5664C101.561 63.057 101.691 66.6988 101.639 66.702Z" fill="#1A2E35"/>
<path d="M103.956 62.8722C103.956 62.8722 103.939 62.8139 103.927 62.6973C103.914 62.5612 103.901 62.396 103.881 62.1983C103.846 61.7642 103.803 61.1356 103.761 60.358C103.674 58.8028 103.59 56.6514 103.56 54.2765C103.531 51.8984 103.56 49.747 103.612 48.1918C103.638 47.4142 103.664 46.7824 103.69 46.3482C103.703 46.1506 103.713 45.9854 103.722 45.8493C103.732 45.7359 103.742 45.6743 103.748 45.6743C103.755 45.6743 103.758 45.7359 103.761 45.8493C103.761 45.9854 103.761 46.1506 103.761 46.3515C103.758 46.818 103.752 47.4401 103.745 48.195C103.729 49.7502 103.719 51.9016 103.748 54.2765C103.777 56.6514 103.839 58.7996 103.891 60.3548C103.917 61.1097 103.936 61.7318 103.952 62.1983C103.956 62.396 103.959 62.5612 103.962 62.7005C103.962 62.8139 103.962 62.8755 103.952 62.8755L103.956 62.8722Z" fill="#1A2E35"/>
<path d="M105.618 58.3848C105.566 58.3848 105.54 55.4137 105.566 51.7493C105.592 48.0848 105.653 45.1138 105.705 45.1138C105.757 45.1138 105.783 48.0848 105.757 51.7525C105.731 55.417 105.67 58.3881 105.618 58.3881V58.3848Z" fill="#1A2E35"/>
<path d="M108.653 41.8413C108.634 41.8737 108.274 41.4363 107.37 41.1285C106.92 40.986 106.334 40.8952 105.663 40.9665C104.995 41.0346 104.241 41.2452 103.495 41.6502C102.002 42.4602 100.434 43.8339 99.1797 45.7067C97.929 47.5859 96.7432 49.7858 95.8522 52.2352C94.9612 54.6879 94.5205 57.1503 94.4266 59.4086C94.3035 61.6636 94.4849 63.7048 94.851 65.3702C95.2398 67.0323 95.8295 68.3024 96.3803 69.08C96.5229 69.2679 96.6492 69.4364 96.7626 69.5854C96.8728 69.7312 96.9894 69.8349 97.0704 69.9321C97.1482 70.0196 97.213 70.0877 97.2616 70.1427C97.3037 70.1913 97.3264 70.2172 97.3231 70.2205C97.3231 70.2205 97.2972 70.201 97.2486 70.1589C97.1935 70.1071 97.1255 70.039 97.0413 69.958C96.9538 69.8673 96.8307 69.7669 96.7173 69.6211C96.6006 69.4753 96.4678 69.3068 96.3187 69.1221C95.742 68.351 95.1264 67.0712 94.7182 65.3994C94.3294 63.7243 94.135 61.6669 94.2484 59.3957C94.3326 57.1276 94.7733 54.6328 95.6707 52.1672C96.5682 49.7016 97.767 47.4886 99.0339 45.6062C100.314 43.7173 101.908 42.3338 103.431 41.527C104.195 41.122 104.966 40.9147 105.653 40.8564C106.34 40.7948 106.936 40.8985 107.393 41.0572C107.853 41.216 108.164 41.4331 108.368 41.5821C108.466 41.6631 108.537 41.7279 108.585 41.7733C108.634 41.8186 108.657 41.8413 108.653 41.8446V41.8413Z" fill="#1A2E35"/>
<path d="M132.011 83.7831C132.011 83.7831 132.092 83.7766 132.25 83.7799C132.406 83.7799 132.639 83.7993 132.934 83.8447C133.52 83.9321 134.379 84.1363 135.322 84.6514C136.265 85.1536 137.276 86.0057 138.04 87.2013C138.435 87.7877 138.802 88.426 139.265 89.0222C139.719 89.6248 140.305 90.1594 141.047 90.451C141.413 90.5936 141.799 90.6778 142.178 90.6681C142.557 90.6551 142.92 90.5417 143.221 90.3376C143.83 89.9164 144.102 89.1907 144.232 88.5232C144.361 87.8428 144.381 87.1754 144.413 86.5533C144.442 85.9312 144.452 85.3513 144.452 84.8199C144.452 83.7604 144.413 82.9018 144.381 82.3089C144.365 82.0303 144.352 81.8035 144.342 81.6253C144.332 81.4697 144.332 81.3855 144.342 81.3855C144.348 81.3855 144.361 81.4665 144.384 81.622C144.404 81.7775 144.429 82.0076 144.459 82.3024C144.514 82.8953 144.575 83.7539 144.588 84.8167C144.595 85.348 144.591 85.9312 144.572 86.5565C144.546 87.1819 144.533 87.8525 144.404 88.5524C144.274 89.2393 143.995 90.0169 143.325 90.4867C142.994 90.7135 142.589 90.8398 142.181 90.856C141.769 90.869 141.358 90.7783 140.972 90.626C140.195 90.3214 139.573 89.7512 139.113 89.1356C138.643 88.5232 138.277 87.8785 137.888 87.2985C137.143 86.1159 136.171 85.28 135.251 84.7681C134.334 84.2464 133.494 84.0261 132.918 83.9159C132.338 83.809 132.007 83.8025 132.007 83.7831H132.011Z" fill="#1A2E35"/>
<path d="M118.169 83.1772H111.168C110.584 83.1772 110.111 83.6501 110.111 84.2335V84.6644C110.111 85.2478 110.584 85.7206 111.168 85.7206H118.169C118.753 85.7206 119.225 85.2478 119.225 84.6644V84.2335C119.225 83.6501 118.753 83.1772 118.169 83.1772Z" fill="#1A2E35"/>
<path d="M114.79 84.4475H114.343C113.74 84.4475 113.251 84.9364 113.251 85.5394V89.7028C113.251 90.3058 113.74 90.7947 114.343 90.7947H114.79C115.393 90.7947 115.882 90.3058 115.882 89.7028V85.5394C115.882 84.9364 115.393 84.4475 114.79 84.4475Z" fill="#1A2E35"/>
<path d="M117.262 49.0051H112.324C109.941 49.0051 108.009 50.9373 108.009 53.3208V66.7506C108.009 69.1341 109.941 71.0663 112.324 71.0663H117.262C119.646 71.0663 121.578 69.1341 121.578 66.7506V53.3208C121.578 50.9373 119.646 49.0051 117.262 49.0051Z" fill="#B78AFF"/>
<path d="M121.445 59.5869C121.477 59.629 118.707 61.9294 115.26 64.7256C111.809 67.5217 108.984 69.7573 108.951 69.7152C108.919 69.673 111.686 67.3726 115.14 64.5765C118.59 61.7804 121.416 59.548 121.448 59.5869H121.445Z" fill="#1A2E35"/>
<path d="M120.531 50.5086C120.564 50.5507 117.836 52.7992 114.437 55.5306C111.038 58.2619 108.255 60.4456 108.222 60.4035C108.19 60.3614 110.918 58.1128 114.317 55.3815C117.716 52.6502 120.496 50.4697 120.531 50.5086Z" fill="#1A2E35"/>
<path d="M116.634 49.0214C116.666 49.0635 114.819 50.6478 112.503 52.5659C110.186 54.484 108.284 56.0036 108.248 55.9614C108.216 55.9193 110.063 54.335 112.379 52.4169C114.693 50.502 116.598 48.9792 116.634 49.0214Z" fill="#1A2E35"/>
<path d="M121.668 55.1416C121.668 55.1416 121.629 55.187 121.542 55.2615C121.435 55.349 121.309 55.4494 121.156 55.5758C120.793 55.8609 120.307 56.2432 119.718 56.7033C118.48 57.6688 116.812 58.9713 114.965 60.4131C113.128 61.8614 111.462 63.1703 110.228 64.1456C109.638 64.6056 109.152 64.988 108.789 65.2731C108.634 65.393 108.501 65.4902 108.394 65.5712C108.303 65.6392 108.251 65.6716 108.248 65.6651C108.245 65.6586 108.287 65.6165 108.371 65.542C108.475 65.4513 108.598 65.3444 108.744 65.2148C109.071 64.9329 109.551 64.5311 110.144 64.0419C111.333 63.0602 112.992 61.7188 114.845 60.264C116.698 58.8125 118.396 57.5198 119.634 56.5996C120.252 56.1395 120.758 55.7702 121.108 55.5207C121.27 55.4073 121.403 55.3133 121.516 55.2356C121.61 55.1708 121.662 55.1416 121.665 55.1481L121.668 55.1416Z" fill="#1A2E35"/>
<path d="M121.516 64.3046C121.516 64.3046 121.429 64.4115 121.244 64.5767C121.059 64.742 120.79 64.9752 120.453 65.2604C119.776 65.8306 118.827 66.5952 117.754 67.415C116.682 68.2314 115.691 68.9475 114.962 69.4464C114.599 69.6959 114.301 69.8968 114.093 70.0296C113.886 70.1625 113.766 70.2305 113.76 70.2208C113.753 70.2111 113.857 70.1204 114.051 69.9681C114.281 69.7931 114.56 69.5825 114.884 69.3363C115.629 68.7758 116.582 68.0565 117.638 67.2594C118.684 66.4527 119.63 65.7204 120.369 65.1534C120.693 64.904 120.969 64.6934 121.199 64.5184C121.396 64.3694 121.51 64.2948 121.519 64.3046H121.516Z" fill="#1A2E35"/>
<path d="M112.551 70.1074C112.502 70.1301 111.417 68.0889 110.128 65.5487C108.835 63.0053 107.827 60.9252 107.876 60.9025C107.924 60.8799 109.006 62.921 110.299 65.4612C111.589 68.0046 112.6 70.0847 112.551 70.1074Z" fill="#1A2E35"/>
<path d="M117.133 69.7769C117.087 69.8028 115.091 66.43 112.674 62.2439C110.257 58.0546 108.339 54.6396 108.385 54.6137C108.43 54.5878 110.426 57.9606 112.843 62.1467C115.257 66.3328 117.178 69.751 117.133 69.7769Z" fill="#1A2E35"/>
<path d="M120.463 68.4355C120.418 68.4614 118.182 64.4017 115.477 59.37C112.768 54.3383 110.61 50.2364 110.659 50.2137C110.704 50.1878 112.94 54.2476 115.649 59.2793C118.357 64.311 120.515 68.4096 120.466 68.4355H120.463Z" fill="#1A2E35"/>
<path d="M121.451 60.8311C121.406 60.857 119.896 58.3557 118.079 55.2421C116.261 52.1284 114.826 49.5818 114.874 49.5559C114.92 49.5299 116.429 52.0312 118.247 55.1449C120.061 58.2585 121.497 60.8019 121.451 60.8311Z" fill="#1A2E35"/>
<path d="M117.181 83.1774H112.208C109.499 83.1774 107.302 80.9807 107.302 78.2721V69.8643H122.083V78.2721C122.083 80.9807 119.886 83.1774 117.178 83.1774H117.181Z" fill="#6F2277"/>
<path d="M117.181 83.1774H112.208C109.499 83.1774 107.302 80.9807 107.302 78.2721V69.8643H122.083V78.2721C122.083 80.9807 119.886 83.1774 117.178 83.1774H117.181Z" fill="#6F2277"/>
<path opacity="0.4" d="M117.181 83.1774H112.208C109.499 83.1774 107.302 80.9807 107.302 78.2721V69.8643H122.083V78.2721C122.083 80.9807 119.886 83.1774 117.178 83.1774H117.181Z" fill="#6F2277"/>
<path d="M121.613 69.9258C121.613 69.9777 118.457 70.023 114.563 70.023C110.668 70.023 107.513 69.9809 107.513 69.9258C107.513 69.8707 110.668 69.8286 114.563 69.8286C118.457 69.8286 121.613 69.8707 121.613 69.9258Z" fill="#1A2E35"/>
<path d="M114.89 47.7415H114.495C113.958 47.7415 113.523 48.1766 113.523 48.7135V69.7249C113.523 70.2617 113.958 70.6969 114.495 70.6969H114.89C115.427 70.6969 115.862 70.2617 115.862 69.7249V48.7135C115.862 48.1766 115.427 47.7415 114.89 47.7415Z" fill="#E8505B"/>
<path opacity="0.4" d="M114.89 47.7415H114.495C113.958 47.7415 113.523 48.1766 113.523 48.7135V69.7249C113.523 70.2617 113.958 70.6969 114.495 70.6969H114.89C115.427 70.6969 115.862 70.2617 115.862 69.7249V48.7135C115.862 48.1766 115.427 47.7415 114.89 47.7415Z" fill="black"/>
<path d="M114.89 47.7415H114.495C113.958 47.7415 113.523 48.1766 113.523 48.7135V69.7249C113.523 70.2617 113.958 70.6969 114.495 70.6969H114.89C115.427 70.6969 115.862 70.2617 115.862 69.7249V48.7135C115.862 48.1766 115.427 47.7415 114.89 47.7415Z" fill="#6F2277"/>
<path opacity="0.4" d="M114.89 47.7415H114.495C113.958 47.7415 113.523 48.1766 113.523 48.7135V69.7249C113.523 70.2617 113.958 70.6969 114.495 70.6969H114.89C115.427 70.6969 115.862 70.2617 115.862 69.7249V48.7135C115.862 48.1766 115.427 47.7415 114.89 47.7415Z" fill="#6F2277"/>
<path d="M121.613 69.9258C121.613 69.9777 118.457 70.023 114.563 70.023C110.668 70.023 107.513 69.9809 107.513 69.9258C107.513 69.8707 110.668 69.8286 114.563 69.8286C118.457 69.8286 121.613 69.8707 121.613 69.9258Z" fill="#1A2E35"/>
<path d="M131.463 74.2996C131.463 74.3223 131.129 74.1538 130.471 74.2024C129.83 74.2543 128.838 74.6009 128.045 75.5762C127.653 76.0589 127.329 76.681 127.079 77.3971C126.83 78.1131 126.651 78.9231 126.473 79.7947C126.11 81.5345 125.754 83.5304 125.459 85.7465C124.86 90.1789 124.532 95.5249 124.882 101.431C125.051 104.386 125.423 107.474 125.647 110.691C125.864 113.902 125.926 117.278 125.284 120.658C124.993 122.342 124.435 124.001 123.444 125.372C122.948 126.049 122.352 126.671 121.607 127.063C120.868 127.458 120.009 127.624 119.19 127.497C118.367 127.377 117.622 126.972 117.016 126.447C116.407 125.919 115.924 125.268 115.577 124.565C114.887 123.139 114.741 121.574 114.706 120.097C114.738 114.168 114.829 108.838 114.877 104.357C114.939 99.8827 114.987 96.2603 115.023 93.7493C115.046 92.5019 115.062 91.5299 115.072 90.8657C115.078 90.5417 115.085 90.2923 115.088 90.1173C115.094 89.9488 115.101 89.8613 115.101 89.8613C115.101 89.8613 115.107 89.9488 115.107 90.1173C115.107 90.2923 115.107 90.5417 115.107 90.869C115.107 91.5364 115.101 92.5052 115.094 93.7526C115.075 96.2636 115.046 99.8859 115.01 104.36C114.978 108.838 114.9 114.178 114.877 120.094C114.913 121.558 115.062 123.1 115.736 124.484C116.073 125.168 116.543 125.799 117.132 126.308C117.719 126.81 118.435 127.199 119.216 127.312C119.993 127.432 120.81 127.277 121.513 126.898C122.226 126.522 122.806 125.923 123.285 125.262C124.251 123.92 124.801 122.297 125.09 120.622C125.728 117.272 125.67 113.912 125.456 110.704C125.236 107.493 124.866 104.402 124.701 101.441C124.361 95.5184 124.701 90.1659 125.32 85.7271C125.624 83.5077 125.99 81.5119 126.366 79.7687C126.548 78.8972 126.732 78.0872 126.992 77.3647C127.248 76.6421 127.585 76.0168 127.986 75.5276C128.803 74.5426 129.817 74.2057 130.468 74.1635C130.802 74.1409 131.051 74.1895 131.217 74.2219C131.379 74.2705 131.46 74.2996 131.46 74.2996H131.463Z" fill="#1A2E35"/>
<path d="M134.473 161.942H129.817V70.3987C129.817 69.1124 130.861 68.0691 132.147 68.0691C133.433 68.0691 134.476 69.1124 134.476 70.3987V161.945L134.473 161.942Z" fill="#1A2E35"/>
<path d="M133.265 70.6967C133.265 71.3156 132.762 71.8178 132.143 71.8178C131.525 71.8178 131.022 71.3156 131.022 70.6967C131.022 70.0779 131.525 69.5757 132.143 69.5757C132.762 69.5757 133.265 70.0779 133.265 70.6967Z" fill="#375A64"/>
<path d="M150.466 80.2612H134.473V82.2052H150.466V80.2612Z" fill="#1A2E35"/>
<path d="M102.076 72.0835H130.507V74.1474H102.076C101.603 74.1474 101.218 73.7618 101.218 73.2888V72.9421C101.218 72.4691 101.603 72.0835 102.076 72.0835Z" fill="#1A2E35"/>
<path d="M140.227 95.9105C140.419 94.9969 139.486 94.1609 138.552 94.0897C137.623 94.0184 136.741 94.4752 135.922 94.9256C134.583 95.6611 133.245 96.4289 132.111 97.4528C131.735 97.7897 131.376 98.1688 131.211 98.6451C131.045 99.1214 131.123 99.7143 131.515 100.029C131.995 100.411 132.694 100.252 133.271 100.051C134.826 99.5069 136.32 98.7812 137.707 97.8934" fill="#FFBE9D"/>
<path d="M137.71 97.8901C137.749 97.9452 136.864 98.6548 135.231 99.4713C134.823 99.6721 134.369 99.8795 133.87 100.08C133.375 100.262 132.84 100.534 132.137 100.518C131.79 100.505 131.389 100.356 131.142 100.025C130.896 99.7045 130.822 99.2995 130.864 98.9205C130.964 98.1202 131.544 97.5661 132.059 97.1158C133.128 96.1891 134.288 95.5185 135.338 94.945C136.368 94.3812 137.405 93.8239 138.406 93.879C139.424 93.9309 140.052 94.6015 140.234 95.1005C140.425 95.6286 140.247 95.9299 140.227 95.9105C140.172 95.9073 140.253 95.6092 140.03 95.1912C139.822 94.7927 139.226 94.2711 138.397 94.284C137.548 94.2808 136.621 94.8057 135.594 95.4051C134.567 95.998 133.446 96.6654 132.432 97.5467C131.926 97.9776 131.479 98.4571 131.418 98.9853C131.343 99.5361 131.667 99.9799 132.169 99.9897C132.675 100.025 133.209 99.8017 133.702 99.6365C134.198 99.4615 134.651 99.2801 135.063 99.1051C136.705 98.3988 137.661 97.8156 137.71 97.8901Z" fill="#EB996E"/>
<path d="M138.189 89.7253C136.135 90.6747 134.771 91.4847 132.717 92.434C132.046 92.7418 131.334 93.0917 130.98 93.7397C130.627 94.3877 130.89 95.4018 131.619 95.5152C131.878 95.5541 132.137 95.4763 132.387 95.3986C134.632 94.7052 136.88 94.0086 139.126 93.3153" fill="#FFBE9D"/>
<path d="M139.129 93.3186C139.148 93.3866 138.189 93.7495 136.618 94.2809C135.779 94.5563 134.849 94.8641 133.851 95.1913C133.316 95.3598 132.765 95.5315 132.198 95.7129C131.9 95.8037 131.45 95.8231 131.116 95.5704C130.792 95.3274 130.633 94.9548 130.588 94.5919C130.546 94.229 130.614 93.8402 130.815 93.5324C131 93.2311 131.252 92.9978 131.515 92.8131C132.043 92.4438 132.594 92.2429 133.083 92.0096C134.029 91.556 134.907 91.1348 135.704 90.7525C137.201 90.03 138.166 89.6639 138.192 89.7254C138.222 89.7902 137.314 90.2665 135.866 91.07C135.14 91.4685 134.272 91.9448 133.281 92.4276C132.785 92.6771 132.25 92.8909 131.803 93.2149C131.349 93.5357 131.013 93.9957 131.09 94.5336C131.123 94.7928 131.239 95.039 131.414 95.1686C131.589 95.2982 131.81 95.3079 132.078 95.2367C132.642 95.0682 133.187 94.9094 133.715 94.7507C134.726 94.4591 135.665 94.1869 136.514 93.9407C138.111 93.4935 139.113 93.2505 139.132 93.3186H139.129Z" fill="#EB996E"/>
<path d="M137.156 86.1582C135.166 87.2371 133.822 87.9532 131.836 89.0321C131.188 89.3852 130.498 89.7773 130.187 90.448C129.876 91.1186 130.203 92.1133 130.938 92.1781C131.197 92.2008 131.453 92.1068 131.696 92.0129C133.893 91.177 136.09 90.3378 138.29 89.5019" fill="#FFBE9D"/>
<path d="M138.29 89.5018C138.316 89.5666 137.383 89.9911 135.853 90.6196C135.034 90.9501 134.133 91.313 133.158 91.705C132.639 91.9059 132.101 92.1133 131.547 92.3304C131.259 92.4373 130.818 92.5053 130.465 92.2818C130.118 92.0712 129.924 91.7148 129.853 91.3551C129.778 90.9955 129.814 90.6099 129.986 90.2827C130.141 89.9684 130.378 89.7157 130.624 89.5116C131.123 89.1066 131.657 88.8636 132.134 88.6044C133.067 88.1216 133.932 87.6777 134.716 87.2727C136.193 86.5275 137.123 86.0966 137.156 86.1582C137.188 86.2197 136.32 86.7608 134.888 87.587C134.12 88.0212 133.271 88.4974 132.357 89.0158C131.881 89.2848 131.366 89.5375 130.941 89.8906C130.517 90.2438 130.219 90.7266 130.345 91.2547C130.575 92.5831 132.024 91.5333 132.989 91.2741C133.977 90.9177 134.891 90.5905 135.72 90.2892C137.282 89.7416 138.261 89.437 138.283 89.5018H138.29Z" fill="#EB996E"/>
<path d="M140.574 99.2866C140.243 98.2272 139.177 98.2045 138.085 98.4021C136.994 98.5998 136.07 99.2996 135.195 99.9832C134.324 100.66 133.452 101.338 132.581 102.015C132.26 102.264 131.936 102.517 131.709 102.851C131.482 103.184 131.362 103.619 131.495 104.001C131.67 104.493 132.224 104.772 132.749 104.778C133.274 104.785 133.773 104.578 134.249 104.364C136.164 103.512 141.066 101.509 140.574 99.2866Z" fill="#FFBE9D"/>
<path d="M136.654 98.9561C136.686 98.9982 135.957 99.6073 134.752 100.553C134.139 101.03 133.423 101.587 132.63 102.199C132.254 102.51 131.871 102.876 131.671 103.333C131.619 103.447 131.593 103.563 131.58 103.677C131.57 103.784 131.586 103.92 131.622 103.972C131.748 104.176 131.952 104.341 132.189 104.451C132.668 104.678 133.222 104.642 133.725 104.496C134.23 104.351 134.706 104.114 135.157 103.897C136.054 103.45 136.819 102.964 137.438 102.527C138.675 101.642 139.336 100.955 139.382 101.004C139.398 101.02 139.255 101.211 138.957 101.525C138.659 101.836 138.209 102.271 137.6 102.747C136.991 103.223 136.226 103.742 135.316 104.218C134.859 104.448 134.382 104.697 133.828 104.863C133.284 105.028 132.62 105.083 132.027 104.804C131.732 104.668 131.47 104.458 131.295 104.176C131.185 103.981 131.191 103.816 131.201 103.648C131.217 103.486 131.259 103.327 131.324 103.191C131.58 102.63 132.004 102.254 132.406 101.927C133.222 101.318 133.961 100.787 134.587 100.34C135.834 99.4485 136.621 98.9172 136.654 98.9593V98.9561Z" fill="#EB996E"/>
<path d="M141.131 97.7477C141.105 97.7996 140.82 97.6959 140.354 97.6214C139.89 97.5436 139.226 97.5209 138.546 97.7218C137.862 97.9195 137.318 98.2921 136.965 98.6063C136.608 98.9206 136.424 99.1604 136.375 99.1312C136.333 99.1085 136.44 98.8072 136.77 98.4152C137.094 98.0296 137.677 97.5728 138.439 97.3525C139.2 97.1321 139.936 97.2067 140.415 97.3589C140.904 97.5112 141.154 97.7089 141.131 97.751V97.7477Z" fill="#EB996E"/>
<path d="M97.8153 20.9853C97.8153 21.8082 97.1478 22.4757 96.3249 22.4757C95.5019 22.4757 94.8345 21.8082 94.8345 20.9853C94.8345 20.1623 95.5019 19.4949 96.3249 19.4949C97.1478 19.4949 97.8153 20.1623 97.8153 20.9853Z" fill="#1A2E35"/>
<path d="M102.29 22.4757C103.113 22.4757 103.78 21.8084 103.78 20.9853C103.78 20.1621 103.113 19.4949 102.29 19.4949C101.467 19.4949 100.799 20.1621 100.799 20.9853C100.799 21.8084 101.467 22.4757 102.29 22.4757Z" fill="#1A2E35"/>
<path d="M109.732 20.2401C110.144 20.9529 109.901 21.8666 109.188 22.2781C108.475 22.6895 107.561 22.4465 107.15 21.7337C106.738 21.0209 106.981 20.1073 107.694 19.6958C108.407 19.2843 109.321 19.5273 109.732 20.2401Z" fill="#1A2E35"/>
<path d="M102.384 3.57037C102.384 3.57037 102.484 3.56065 102.685 3.56389C102.906 3.57037 103.197 3.57685 103.57 3.58981C103.764 3.59953 103.984 3.59953 104.224 3.61897C104.464 3.65137 104.723 3.69025 105.005 3.72913C105.287 3.77125 105.591 3.81337 105.915 3.85873C106.236 3.93649 106.576 4.02073 106.933 4.11145C108.365 4.48081 110.098 5.10937 111.871 6.26605C113.643 7.40329 115.483 9.02977 116.977 11.2395C118.445 13.4524 119.575 16.2388 119.873 19.3654C119.903 20.1495 119.997 20.9433 119.922 21.7533C119.893 22.1583 119.903 22.5665 119.844 22.9747C119.783 23.383 119.721 23.7912 119.66 24.2059C119.326 25.8389 118.84 27.5075 118.001 29.0659C117.181 30.6276 116.121 32.1115 114.825 33.4335C113.507 34.7295 111.968 35.8537 110.254 36.7188C108.543 37.5936 106.651 38.1963 104.678 38.4295C104.189 38.5267 103.69 38.5267 103.191 38.5559C102.692 38.5883 102.189 38.6077 101.687 38.5818C100.683 38.5397 99.672 38.4133 98.6773 38.2027C96.513 37.7427 94.4751 36.8614 92.6833 35.682L92.8648 35.7015C90.7879 36.5341 88.75 37.3539 86.7606 38.1509L86.3977 38.2967L86.5014 37.9209C87.117 35.682 87.7164 33.5015 88.2964 31.3955L88.3288 31.5575C86.6148 29.2798 85.5229 26.6813 85.0726 24.099C84.8458 22.8095 84.7486 21.5232 84.8361 20.2791C84.862 19.657 84.8911 19.0414 85.0078 18.4452C85.0531 18.1439 85.1017 17.8491 85.1471 17.551C85.2022 17.2561 85.2896 16.9743 85.3609 16.6859C86.5403 12.0916 89.3688 8.69929 92.1714 6.75529C93.5743 5.76709 94.9578 5.05753 96.2247 4.61689C96.5389 4.50349 96.8435 4.39333 97.1383 4.28965C97.4397 4.21189 97.728 4.14061 98.0067 4.06933C98.2821 4.00129 98.5477 3.93649 98.8005 3.87169C99.0564 3.82309 99.2994 3.79717 99.5295 3.76153C99.9895 3.70321 100.398 3.62221 100.751 3.60601C101.101 3.59305 101.399 3.58333 101.648 3.57685C101.875 3.57037 102.057 3.56713 102.196 3.56389C102.319 3.56389 102.381 3.56389 102.381 3.57037C102.381 3.57685 102.319 3.58333 102.196 3.59629C102.057 3.60601 101.875 3.62221 101.652 3.63841C101.405 3.65461 101.107 3.67405 100.761 3.69997C100.407 3.72589 100.006 3.81661 99.5489 3.88465C97.7507 4.21513 95.0583 4.93117 92.3075 6.94321C89.56 8.88721 86.8027 12.2471 85.6687 16.7637C85.6007 17.0455 85.5165 17.3242 85.4646 17.6125C85.4225 17.9041 85.3771 18.1957 85.3318 18.4906C85.2184 19.077 85.1925 19.6797 85.1698 20.292C85.092 21.5135 85.1892 22.7739 85.416 24.0375C85.8696 26.5647 86.9453 29.1081 88.6301 31.3339L88.6852 31.4052L88.6625 31.4927C88.0858 33.6019 87.4929 35.7825 86.8805 38.0213L86.6213 37.7913C88.6107 36.991 90.6454 36.1713 92.7222 35.3353L92.8194 35.2965L92.9069 35.3548C94.6597 36.5082 96.6491 37.3668 98.7648 37.8172C99.74 38.0245 100.725 38.1477 101.707 38.1898C102.199 38.2125 102.688 38.1963 103.178 38.1639C103.664 38.1347 104.153 38.1347 104.632 38.0407C106.56 37.8139 108.41 37.2243 110.085 36.3721C111.764 35.5265 113.27 34.4314 114.566 33.1678C115.833 31.875 116.876 30.4235 117.683 28.9007C118.513 27.3779 118.992 25.7417 119.326 24.1444C119.387 23.7394 119.449 23.3376 119.514 22.9391C119.572 22.5406 119.566 22.1388 119.595 21.7403C119.673 20.9465 119.582 20.1657 119.559 19.3978C119.28 16.3263 118.185 13.5852 116.757 11.3982C115.302 9.21445 113.5 7.59445 111.76 6.45397C110.021 5.29405 108.313 4.65253 106.9 4.26373C106.547 4.16977 106.21 4.07905 105.893 3.99481C105.572 3.94297 105.271 3.89437 104.989 3.84577C104.71 3.80041 104.451 3.75829 104.214 3.71941C103.978 3.69349 103.761 3.68701 103.566 3.67081C103.194 3.64489 102.902 3.62221 102.685 3.60601C102.488 3.58981 102.384 3.57685 102.384 3.57037Z" fill="#1A2E35"/>
</g>
<defs>
<clipPath id="clip0_529_5362">
<rect width="162" height="162" fill="white"/>
</clipPath>
</defs>
</svg>
