<?xml version="1.0" encoding="UTF-8"?>
<svg id="_Слой_1" data-name="Слой 1" xmlns="http://www.w3.org/2000/svg" viewBox="0 0 300 300">
  <defs>
    <style>
      .cls-1 {
        fill: none;
        stroke: #000;
        stroke-miterlimit: 10;
      }
    </style>
  </defs>
  <path class="cls-1" d="m264.11,146.86c-9.85,19.14-49.17,37.54-97.91,44.18-3.91,3.02-7.99,6.01-12.23,8.94-41.14,28.53-81.15,41.29-89.37,28.53-5.09-7.93,3.23-23.8,20.1-41.51-2.65-.75-5.16-1.59-7.51-2.5-.93.51-1.88,1-2.85,1.48-14.64,7.15-28.75,8.03-31.5,1.95-2.2-4.83,3.46-12.61,13.24-19.19-.92-1.81-1.52-3.71-1.76-5.68-.05-.35-.08-.7-.1-1.05h-.03c-1.46-.47-2.94-.98-4.43-1.52-1.83-.66-3.63-1.34-5.41-2.06-23.64-9.51-32.58-26.22-27.85-32.24,6.26-7.96,15.51-12.23,41.56-2.84,6.95,2.5,13.63,5.47,19.69,8.68,8.26-4.99,18.4-9.57,29.92-13.49,14.14-4.83,30.38-8.65,47.81-10.96,3.73-.49,7.42-.9,11.06-1.22,6.27-4.83,13.16-9.61,20.52-14.16,37.37-23.16,72.64-31.94,78.77-19.63,4.17,8.4-6.26,24.42-25.16,41.1,6.71,2.27,12.29,5.06,16.45,8.3,5.55,3.75,9.16,8.05,9.75,12.81.5,4-.49,8.06-2.76,12.08Z"/>
</svg>