<?xml version="1.0" encoding="UTF-8"?>
<svg id="_Слой_1" data-name="Слой 1" xmlns="http://www.w3.org/2000/svg" viewBox="0 0 300 300">
  <defs>
    <style>
      .cls-1 {
        fill: none;
        stroke: #000;
        stroke-miterlimit: 10;
      }
    </style>
  </defs>
  <path class="cls-1" d="m281,178.05c0,27.8-23.77,50.33-53.11,50.33s-53.11-22.53-53.11-50.33c0-8.4,2.17-16.31,6.01-23.27l-31.72,19.1c-.52,8.36-7.18,14.97-15.33,14.97-1.53,0-3.01-.23-4.4-.67l-7.8,10.15h7.6c1.38,0,2.5,1.13,2.5,2.5v2.3c0,1.37-1.12,2.5-2.5,2.5h-20.95c-9.5,13.63-25.81,22.61-44.34,22.61-29.34,0-53.11-22.52-53.11-50.33s23.77-50.33,53.11-50.33c6.71,0,13.12,1.18,19.03,3.32l7.77-14.05c.26-.47.57-.89.9-1.26-.22-1.68.23-3.38,1.23-4.72-17.72,3.68-24.59-12.47-24.04-16.11,1.04-6.85,51.67-7.33,53.12,0,.66,3.38-9.82,6.73-15.38,10.21-2.51,1.57-4.87,2.81-7.1,3.76,1.39.46,2.62,1.45,3.41,2.87l4.81,8.69h90.26l-9.7-24.3c-.22-.56-.35-1.11-.4-1.67-11.41-19.4,26.33-6.53,33.33-9.77.74-11-5.04-12.9-12.49-12.97-3.48.02-7.28.37-10.91.33-5.66.04-11.03-.7-14.34-4.86,5.68-5.97,12.68-8.21,19.65-8.04h.05c.86,0,1.72.03,2.57.1,5.16.4,10.23,2.08,14.68,4.5.99-1.58,2.71-2.54,3.21-2.82,1.15-.64,2.4-.99,3.68-1.09,4-.72,9.12,1.53,11.18,5.73.9,1.86,1.96,5.64.29,7.29-.06.06-.13.12-.2.17-.25,1.45-.82,2.79-1.88,3.6-.88.67-2.06.93-3.39.86,3.79,8.92-1.81,17.7-26.07,17.41-8.39-1.46-2.17,2.88-2.53,4.42.12.22.23.45.33.7l3.34,8.98c2.26-7.1,6.17-11.51,9.58-11.5,6.55.02,13.87,16.48,8.96,22.16-2.44,2.82-8.12,3.26-14.33.67l3.28,8.85c3.9-.86,7.96-1.32,12.14-1.32,29.34,0,53.11,22.53,53.11,50.33Z"/>
</svg>