<svg data-name="Слой 1" xmlns="http://www.w3.org/2000/svg" viewBox="0 0 300 300"><path d="M282.74 175.76c.23-2.72-.06-5.56-.97-8.32l-.16-.57c-.17-.5-.07-1.47.1-2.77-.04.58-.04 1.03.06 1.32l.18.57c1.07 3.25 1.3 6.62.79 9.77Z" style="fill:#f2f2f2"/><path d="M277.75 166.09c-.5 5.82-3.78 11.02-8.87 13.11l-78.27 32.22c-2.85 1.16-5.86 1.19-8.63.3-1.41.05-2.88-.14-4.33-.65l-14.26-5c-.14-.72-.31-1.48-.52-2.28 0 0 0 .01-.01.01.2.79.38 1.54.52 2.26l-2.07-.72c-.58.5-1.19.97-1.83 1.39h-.01c-.14.08-2.32.92-4.7 2-.52.24-1.07.47-1.64.68-1.65 1.27-3.54 2.28-5.68 2.89-9.25 2.68-19.18-2.71-22.18-12.06-.85-2.63-1.05-5.3-.71-7.84l-3.2-1.13c.1-.65.22-1.3.37-1.92-.16.63-.27 1.27-.38 1.92l-36.44-12.81-4.68-1.66c-.33.14-.68.3-1.02.46-.52.24-1.07.47-1.62.68a16.72 16.72 0 0 1-5.69 2.89c-9.25 2.7-19.18-2.71-22.18-12.05-.31-.98-.54-1.96-.68-2.94l-6.58-2.32-11.3-3.98c-7.23-2.53-11.68-11.58-9.91-20.11l.1-.51c.01-.1.03-.22.08-.31.16-.77.38-1.5.67-2.21a18.141 18.141 0 0 1-2.22-6.02l-.09-.54c-.69-3.81-.21-7.55 1.12-10.68 1.39-3.18 3.66-5.74 6.54-7.11.82-.41 1.7-.71 2.62-.9l85.26-17.56c2.24-.86 4.72-1.03 7.25-.31l32.03 9.16 24.3-6.15c3.15-.8 6.47.5 8.15 3.17l9.38 14.94 24.32 6.96 36.09 10.32c.2.07.37.12.56.2.17.07.34.09.48.16 2 .22 3.81.55 5.43.96.09-.01.18-.03.27-.03 6.79-.38 12.54 4.07 12.88 9.96.01.1.01.22.01.33 1.56 4.5.71 9.28.3 12.22 0 .05 0 .09-.01.14-.03.46-.01.82.07 1.07l.18.51c1.01 2.96 1.23 6.02.75 8.89Z" style="fill:none;stroke:#000;stroke-miterlimit:10;stroke-width:.75px"/></svg>