<svg data-name="Слой 1" xmlns="http://www.w3.org/2000/svg" viewBox="0 0 300 300"><path d="M230.08 220.74c-2.48 6.65-6.81 13.82-12.12 19.69 3.6-.57 6.93.39 9.17 2.85.75.83 1.8 2.3 2.48 4.75l.15.92c0 .21-.01.55-.11.94-.53 2.04-2.92 2.84-4.37 3.24-1.14.32-2.25.59-3.31.82-2.07 2.93-6.49 3.86-10.34 2.72-.18.26-.39.5-.62.72a13.88 13.88 0 0 1-4.17 4.78c-.18.3-.4.59-.64.86-1.74 1.98-4.65 3.33-6.77 3.23-.59-.03-1.18-.14-1.75-.34-1.76 1.76-4.43 2.93-6.4 2.84-3.05-.14-5.93-2.62-7.26-6.14l.06-.12h-.01c-2.1-.46-4.21-.94-6.33-1.4-1.26-.28-2.59-.59-3.67-1.31-1.58-1.06-2.36-2.77-2.75-4.65-.87.04-1.75.06-2.63.06-.24 2.05-.9 3.98-2.51 5.21-1.04.79-2.33 1.17-3.58 1.54-2.08.6-4.16 1.2-6.23 1.8l.06.1c-1.1 3.6-3.82 6.26-6.86 6.59-1.96.21-4.7-.79-6.56-2.44-.56.24-1.14.39-1.73.45-2.1.23-5.1-.94-6.96-2.8-.27-.27-.51-.55-.72-.84a13.82 13.82 0 0 1-3.88-3.66c-1.02-.43-1.93-1.07-2.63-1.93-3.77 1.41-8.23.73-10.48-2.16-1.08-.16-2.2-.37-3.36-.62-1.47-.33-3.91-1-4.57-3.06a3.2 3.2 0 0 1-.16-.97c.02-.31.05-.63.08-.95.52-2.56 1.48-4.14 2.18-5.04 2.14-2.76 5.54-3.95 9.31-3.48-6.97-5.88-12.97-14.06-16.37-21.68-2.38-5.32-1.56-13.83 2.49-21.2-10.23-11.05-20.13-24.8-27.09-41.37-3-7.15-5.47-14.83-7.17-23.03-1.34-6.46-2.27-13.48-2.7-20.72-.64-10.56-.26-21.61 1.29-32.08.82-5.39 1.93-10.63 3.4-15.55C78.2 52.87 85.36 40.96 96 35.13c5.55-3.05 20.84-9.24 27.13-3.12 4.35 4.22 2.84 12.77 2.7 13.53-.94 4.98-3.66 8.77-5.86 11.17 6.55 1.82 14.15 5.42 20.32 9.54 3.47-1.48 7.22-2.69 11.13-3.61.63-.16 1.27-.3 1.9-.44 1.76-.36 3.56-.68 5.36-.94.03.12.07.24.1.36 3.54-.52 7.14-.81 10.72-.87.01-.11.03-.22.05-.34 1.44-.01 2.89 0 4.33.06 3.56.15 7.08.54 10.42 1.17 3.6.69 7.03 1.67 10.16 2.95 13.16-9.56 32.4-16.65 33.31-7.11.01.02.02.05.01.07.96 4.57-3.33 13.95-15.51 27.98.07.62.11 1.27.12 1.92.07 4.38-7.09 21.57-11.1 27.03-.03.05-.07.11-.11.16-1.21 1.6-1.98 2.79-3.43 4.19-.95.91-2.18 1.9-4.02 3.15-.62.42-1.31.86-2.08 1.35-.05.03-.11.07-.16.1.12.21.24.42.36.65 2.71 5.02 9.78 15.94 11.91 18.81.62.63 1.47 1.52 2.48 2.66 1.8-.04 2.98.92 3.48 2.79.19.71-.13.97.23 1.64.44.84 1.4 1.21 2.22 1.55.8.33 2.01.33 2.4 1.13.47.97-.73 1.98-.58 2.85.22 1.34 1.92 1.37 2.95 1.76 1.26.49 3.56 1.88 1.35 3.05.71 1.69 4.49 2.46 5.73 3.83-.83 1.92-4.82.93-3.43 4.04.43.95 1.63 1.36 2.31 2.05.95.97 1.72 2.15 2.74 3.13.57.54 1.58.96 1.28 1.88-.4 1.18-1.52.37-2.09 1.17-.93 1.29 1.93 4.11 2.33 5.53.12.43.44.6.4 1.11-.03.44-.65.3-.72.55-.72 2.7 1.02 5.2 2.02 7.62-.51.24-1.12.32-1.72.23-1.07 2.01.15 4.86-.15 7.07-.79.16-1.26-.2-1.84-.79-.07.03-.14.05-.21.09 5.54 7.45 7.36 16.95 5.14 22.91Z" style="fill:none;stroke:#000;stroke-miterlimit:10"/></svg>