<?xml version="1.0" encoding="UTF-8"?>
<svg id="_Слой_1" data-name="Слой 1" xmlns="http://www.w3.org/2000/svg" viewBox="0 0 300 300">
  <defs>
    <style>
      .cls-1 {
        fill: none;
        stroke: #000;
        stroke-miterlimit: 10;
      }
    </style>
  </defs>
  <path class="cls-1" d="m258.82,156.66c-.84-.28,3.49-7.69,5.41-22.96.92-7.36,1.83-14.62,1.68-21.33-1.64-5.43-5.02-11.66-11.97-15.37-7.9-4.22-16.62-3.15-25.09-1.05.01,0,.02.03.03.04,8.65-.21,17.36,1.48,23.57,6.82,9.41,8.1,10.83,22.62,4.45,36.05.04-1.22.34-18.58-13.5-25.97-2.58-1.38-5.25-2.2-7.97-2.59.32,2.72.01,5.47-1.29,8.08-1.53,3.09-4.18,5.45-11.39,9.22-1.7.89-3.94,2.06-6.53,3.36,4.69.44,7.9,1.34,7.99,2.05.17,1.29-9.77,2.46-15.03,3.08-.85.1-1.64.18-2.38.25-2.52,2.54-10.52,7.03-19.32,6.06.27.36.51.69.73,1,3.44,2.92,6.01,6.18,6.74,9.74.16.76.23,1.53.22,2.29,7.67,17.1,6.46,33.25,5.63,35.47.28,2.74.31,4.92.3,6.33-1.32-3.87-4.44-11.22-11.72-16.45.93,8.42-.28,14.67-1.17,14.78-1.05.14-1.19-8.2-6.36-18.79-.46-.18-.91-.34-1.36-.48-1.61,1.27-3.21,2.44-4.68,3.47,1.75,1.88,4,4.49,5.76,8.18,2.48,5.21,2.88,10.29,2.79,13.93-4.89-4.84-8.87-8.8-12.07-12.03,3.12,5.63,4.87,12.36,3.7,12.96-.89.46-3.14-2.84-5.58-5.57-3.63-4.07-7.09-6.31-11.22-8.27-1.45.59-2.9,1.12-4.34,1.6-.02.02-.04.02-.06.03-2.57,1.1-5.5,1.98-8.52,2.69.11.67.11,1.36-.04,2.06-.54,2.55-2.59,2.67-3.27,5.24-1.1,4.16,3.11,8.03,1.96,9.18-.88.9-3.25-1.59-5.24-.65-2.33,1.1-2.67,6.19-2.67,9.09,0,1.22.06,2.05.06,2.05-.01.01-.68,1.8-1.83,3.44v29.47c1.45.19,14.55,1.93,13.31,7.34-7.59-3.35-15.61-1.46-23.67.19,4.07.72,12.21,2.7,11.23,7.02-10.93-4.81-22.76,1.21-34.29,1.77-.49,1.88-2.21,3.55-3.59,3.42-.77.78-1.53,1.56-2.29,2.34-.05-.4-.14-1.38.19-2.44.16-.53.38-.95.6-1.27-.02-.03-.03-.06-.04-.09,1.77-5.27,5.95-6.85,9.89-7.19-4.33-.16-7.65-.7-10.3,3.76-.74.12-1.34.14-1.81.08-1.12.5-2.24,1.02-3.36,1.53.03-.4.16-1.37.69-2.24.38-.62.83-.97,1.22-1.15.51-2.34,4.45-5.96,6.72-5.47-2.03-1.68-3.42-1.32-5.13.81-.94-.02-1.63-.17-2.11-.42h-.02c-1.49-.12-3-.25-4.5-.38.14-.36.49-1.19,1.21-1.73,1.09-.83,2.17-.3,2.36-.2l.1.25c.49-1.73,2.89-3.72,4.87-3.66,3.49,1.62,6.38,2.85,8.75,3.69.07-.05.14-.08.2-.11.52-2.34,4.44-5.96,6.71-5.47-2.03-1.67-3.42-1.31-5.13.82-.93-.02-1.62-.17-2.1-.42h-.01c-1.51-.13-3.01-.25-4.51-.38.13-.36.49-1.2,1.2-1.73,1.09-.83,2.17-.31,2.36-.21l.1.25c.5-1.73,2.89-3.71,4.87-3.65,2.68,1.24,4.99,2.25,7,3.03-.12-5.15-.82-12.37-.53-21.48-3.81-3.54-2.84-8.52-4.75-15.3-3.36-11.9-11.16-13.65-10.59-18.99-13.71-1.68-29.24-6.63-38.33-20.54-3.79-5.8-5.66-11.93-6.49-17.45-.08-.07-.15-.15-.23-.23-6.1-6.34-11.19-16.69-11.05-26.62-2.98-11.32-.83-23.87,1.22-31.89-3.98-.33-5.87-7.81-6.22-11.86-.11-1.25-.11-2.65,0-4.09-.76-.85-1.4-1.86-1.79-2.74-.08-.17-1.44-3.29-.63-6.24-1.36-.22-2.94-.47-4.78-.71-6.19-.81-8.8-.72-9.02-1.78-.31-1.46,4.34-3.63,6.49-4.48,2.88-1.13,5.56-1.56,7.72-1.7v-.15h0c-1.81-2.22-1.69-8.44-1.05-12.19.11-.61.45-2.44,1.27-4.61,1.02-2.71,2.22-4.42,3.37-6.04,1.37-1.93,2.8-3.95,3.29-3.56.88.7-2.16,8.69-1.6,9.05.38.25,2.34-3.07,3.81-6.44.96-2.21,1.31-3.5,1.68-3.45.95.13.05,8.44,1.29,8.75.88.22,2.41-3.66,3.16-5.56,1.34-3.39,1.76-5.74,2.03-5.69.56.1-1.27,10.7.03,11.24.62.25,1.44-3.36,4.46-7.76,2.75-3.99,6.26-7.13,6.84-6.7.92.67-5.39,9.76-4.2,10.71,1.22.97,9.04-7.42,9.84-6.71.86.75-7.14,10.96-6.19,11.79.86.76,7.36-8.05,11.94-6.45,2.78.97,4.19,5.56,3.5,9.02-.78,3.9-4.31,6.79-8.14,8.14,2.03.57,4.23,1.52,6.27,3.16,1.7,1.37,2.55,2.6,6.41,9.77,5.24,9.74,6.89,13.45,7.35,14.9,1.01,1.56,2.21,3.23,3.66,4.99,6.81,8.25,13.79,12.14,12.97,13.57-.47.83-3.17.05-6.15-.91,1.78,1.24,3.6,2.38,5.43,3.45,9.28-.63,17.24,2.74,24.79,5.94,4.85.46,12.43,1.74,20.69,5.75,1.06.18,2.09.4,3.1.66.13-2.73,1.08-5.35,2.62-7.48.64-.89,1.39-1.7,2.19-2.42,1.13-7.48,3.91-16.18,9.01-24.19,3.29-5.15,19.54-30.67,51.3-30.84,26.15-.14,48.95,16.97,56.66,34.65,13.57,31.1-17.85,67.78-19.79,67.12Z"/>
</svg>