<svg data-name="Слой 1" xmlns="http://www.w3.org/2000/svg" viewBox="0 0 300 300"><path d="m271.92 182.67-.17.09 4.04 14.24-7.13-12.53-1.06.58-1.33 10.4-2.65-14.55-2.11-10.24-17.37-20.48c-1.71 3.85-4.34 7.5-7.75 10.88l-1.13 46.67v7.75c0 .14-.02.69-.04 1.49-.02.85-.47 1.63-1.21 2.06.7.43 1.16 1.2 1.15 2.07-.02 1.9-.02 3.89.01 5.26.02.95-.52 1.82-1.4 2.25-3.71 1.8-12.29 5.3-26.53.32-1.79-.62-2.28-2.87-.88-4.13 1.7-1.53 3.21-2.9 4.54-4.1.25-.22.54-.39.85-.49-.08-.03-.15-.05-.22-.08.08-.07.21-.18.36-.32l.34-.31c2.77-2.51 4.71-6.64 5.34-8.12.16-.36.22-.72.19-1.11l-1.41-20.19c-.41.66-.88 1.29-1.39 1.9.33.99.54 2.18.54 3.47 0 3.43-1.43 6.2-3.18 6.2-1.54 0-2.82-2.14-3.11-4.99-1.93 1.12-4.09 1.98-6.42 2.56-.15 2.63-1.14 4.77-2.44 5.36v1.6c0 .22-.03 1.39-.07 2.96-.04 3.3-.09 8.33.07 9.44-2.42 1.08-11.24 6.8-27.7 1.16-1.94-.66-2.46-3.11-.95-4.46 1.87-1.7 3.52-3.18 4.93-4.45.08-.07.2-.19.35-.32l.35-.32c2.83-2.57 4.79-6.83 5.38-8.21-.33-.98-.53-2.16-.53-3.43 0-.6.04-1.21.12-1.77-5.38-2.98-9.03-7.7-9.57-13.11-2.14.1-4.31.15-6.49.15-9.79 0-19.17-.96-27.84-2.74l-.65 26.77v7.76c0 .15-.02.77-.04 1.68-.02.71-.31 1.36-.8 1.86.46.35.76.9.75 1.52-.03 2.21-.04 4.64.01 6.13.03.75-.39 1.43-1.07 1.77-3.6 1.77-12.53 5.77-27.76.17a1.923 1.923 0 0 1-.63-3.24c2.02-1.82 3.8-3.43 5.32-4.8.18-.16.39-.29.62-.36a.834.834 0 0 0-.12-.08c.08-.08.2-.19.35-.33.12-.1.23-.21.34-.31 2.73-2.47 4.65-6.52 5.32-8.05.17-.4.24-.81.21-1.24-.24-3.39-1.39-19.88-2.46-35.49-.8-.33-1.58-.67-2.35-1.01l-.54 22.55v7.75c0 .16-.01.82-.04 1.77-.01.78-.35 1.53-.93 2.07.52.29.87.84.87 1.5 0 1.31.02 3.1.08 5.96.01.67-.36 1.29-.97 1.59-3.51 1.74-12.58 5.99-28.2.14-1.24-.46-1.54-2.05-.57-2.92 2.05-1.86 3.86-3.49 5.41-4.89.24-.22.53-.35.83-.41-.08-.06-.14-.12-.2-.16.08-.07.2-.18.36-.32.11-.11.23-.21.34-.31 2.7-2.45 4.61-6.45 5.29-8.01.19-.43.26-.87.23-1.33-.27-3.87-1.66-23.68-2.82-40.53-2.34-3.39-4.7-6.79-7.05-10.17-7.06-10.17-14.12-20.34-21.2-30.51l-14.54 3.04c-1.82 3.85-9.85 5.45-15.59 5.04-5.63-.41-16.63-3.31-17.46-10.85-.6-5.51 4.45-11.32 10.02-12.65a9.64 9.64 0 0 1 2.17-.28 75.4 75.4 0 0 1 6.85-5.68c.3-2.86 2.16-8.63 6.35-13.95.14-.18.28-.36.42-.53-1.17-1.18-2.05-2.21-2.36-2.78-4.77-8.72-4.56-14.7-3.69-15.78.92-1.16 1.92 3.4 9.34 11.02.56.58 1.42 1.3 2.44 2.08 4.29-2.58 9.53-4.09 15.19-4.09 7.47 0 14.22 2.64 19.04 6.88.22-.06.43-.14.62-.21 10.42-4.05 13.23-7.76 13.69-6.37.4 1.18-1.39 5.84-8.03 11.25 5.9 3.35 13.43 6.84 22.47 9.38.2.06.4.11.6.16l1.17-.02c.92.23 1.82.43 2.71.64a99.717 99.717 0 0 0 31.02 1.93c.4-.04.79-.07 1.17-.12 5-.54 10.17-.82 15.44-.82 17.52 0 33.72 3.08 46.91 8.34-.01.07-.02.14-.04.21 4.56 1.76 8.78 3.77 12.57 6.01 8.28 4.86 14.57 10.77 18.18 17.33 1.24 2.25 2.16 4.59 2.73 6.98 0 0 14.2 26.03 15.79 27.58l5.93 5.98 10.08 10.18 1.33 1.34-.16.09L291 193.86l-14.99-13.45-.8.44 11.69 19.25-14.98-17.43Z" style="fill:none;stroke:#000;stroke-miterlimit:10"/></svg>