<?xml version="1.0" encoding="UTF-8"?>
<svg id="_Слой_1" data-name="Слой 1" xmlns="http://www.w3.org/2000/svg" viewBox="0 0 300 300">
  <defs>
    <style>
      .cls-1 {
        fill: none;
        stroke: #000;
        stroke-miterlimit: 10;
      }
    </style>
  </defs>
  <path class="cls-1" d="m278.66,257.36c-2.74,3.15-22.25-9.31-58.53-37.39-9.83-7.4-19.67-14.79-29.51-22.2-1.46.62-3.12,1.31-6.84,3.03-2.66,1.22-4.41,2.07-5.71,2.71.2,3.08.35,6.89.53,11.48.13,3.41-1.11,5.53-1.9,7.38-.3.69-4.76,10.71-10.47,10.33-.38-.02-1.24-.11-2.4-.82-1.47,2.01-3.37,4.58-5.53,7.93-1.24,1.92-2.41,3.72-3.38,5.33.01.15.01.27.01.33-.03,2.06-1.31,3.6-2.43,4.56-.27.93-.28,1.64.08,2.08,2.02,2.52,13.26-6.12,17.43-2.2,1.5,1.41,1.47,3.84,1.46,4.25-.06,4.37-4.59,6.87-4.86,7.01,2.19-3.24,3.09-6.12,2.15-7.09-.83-.87-3.21-.29-4.75.99-2.54,2.09-1.3,4.89-3.34,6.39-3.19,2.36-10.46-1.47-10.46-1.47,0,0-4.46,3.17-7.62,4.43-.31.12-.6.23-.92.31-1.09,2.19-3.31,3.04-3.97,3.26-1.24.41-1.46.05-3.44.54-1.93.48-1.85.85-3.58,1.24-.48.1-2.78.59-4.63-.28-.83-.39-1.01-.78-1.06-.96-.19-.59.23-1.1,0-1.37-.28-.32-1.2.09-1.32.14-1.62.73-2.09,2.33-2.52,2.19-.27-.09-.34-.8-.27-1.37.3-2.23,3.03-3.36,3.18-3.42.35-.14,2.22-.88,3.98-.14.64.28.95.62,1.72.69.65.06,1.32-.11,2.12-.55.28-.16.54-.33.77-.52-2.13-.3-4.78-.71-8.14-1.24-5.1-.8-8.44.91-9.52-.98-.76-1.35.33-2.97-.33-3.56-.63-.56-2.65-.02-9.18,5.52,2.54-4.37,5.08-6.53,7.26-7.58.53-1.49,2.42-2.25,2.54-2.3.29-.12,1.85-.72,3.32-.11.54.22.8.5,1.44.55.55.05,1.11-.08,1.77-.44.24-.13.45-.27.65-.42-1.78-.25-4-.58-6.81-1.01-4.26-.65-7.06.74-7.96-.8-.63-1.1.28-2.41-.27-2.89-.53-.45-2.22-.02-7.69,4.49,2.91-4.86,5.82-6.35,7.96-6.8,3.05-.64,4.39.88,9.56,1.2,2.41.15,6.36.4,9.95-1.2,2.56-1.14,4.28-2.94,9.55-11.6,2.01-3.31,4.55-7.63,7.35-12.81-3.96-6.19-4.23-15.78-3.88-22.35-.35-.14-.74-.32-1.17-.53-8.76-4.34-11.23-13.53-13.32-12.79-.73.25-1.41,1.71-.95,7.38-2.71-2.99-6.74-7.54-11.42-13.29-12.7-15.57-19.05-23.35-23.8-34.44-5.43-12.69-2.37-14.24-8.56-26.08-.1-.19-.2-.38-.3-.56.31,4.03,3.53,10.97,2.77,11.36-1.13.57-8.52-14.43-10.73-13.49-1.63.68.33,8.47-.45,8.66-.66.16-3.16-4.95-4.05-11.41-.18-1.31-.28-2.55-.33-3.68-.84-1.72-1.84-4.57-2.46-7.93-1.22.68-2.5,2.27-3.4,1.77-.99-.55-.38-3.04.48-10.82.13-1.25.33-3.06.48-4.5-1.4.31-2.98,2.59-4.03,2.01-1-.55-.38-3.03.48-10.82.09-.92.23-2.14.35-3.3-1.93-.27-4.16-.58-6.75-.91-14.72-1.89-20.5-1.83-20.5-2.55,0-.18.36-.3,1.54-.44-3.44.1-6.51.22-9.15.36,1.71-3.75,4.99-9.18,10.94-12.79,4.16-2.52,7.75-3.01,14.93-3.99,1.65-.22,3.12-.43,4.46-.59,1.16-4.98,6-8.03,10.97-11.17,2.4-1.52,6.9-4.67,13.32-5.41,14.02-1.62,25.11,5.54,27.12,6.89,4.29,2.86,3.74,3.59,15.71,16.23,7.39,7.82,13.2,13.47,18.08,18.21,7.98,7.76,10.12,9.41,19.51,18.2,1.2,1.12,2.2,2.06,3.1,2.93,3.34,1.47,6.91,3.34,11.12,5.55,8.82,4.64,13.51,7.15,18.87,12.55,3.51,3.52,9.49,10.48,10.33,14.21,13.16,10.78,20.38,20.89,19.97,21.35-.23.25-2.8-2.45-5.19-3.05,5.62,1.92,9.17,10.41,23.01,31.05,6.19,9.24,8.39,11.88,7.61,12.79-.72.84-3.48-.36-7.2-2.69,9.66,10.84,22.25,25.66,25.43,32.72,1.03,1.24,2.05,2.55,3.06,3.95,2.93,4.08,4.92,7.77,6.18,10.34-3.49-1.97-6.98-3.94-10.47-5.91,10.2,12.89,14.48,20.27,12.85,22.14Z"/>
</svg>