<svg data-name="Слой 1" xmlns="http://www.w3.org/2000/svg" viewBox="0 0 300 300"><path d="M246.16 147.46c2.79 11.49.79 20.03-.58 35.84-1.34 15.31-3.78 30.17-7.11 42.39-1.77 7.26-3.68 14.69-3.68 14.69.08.23.14.47.19.71 1.05 1.57 1.67 3.5 1.67 5.59 0 5.22-3.87 9.46-8.64 9.46-1.3 0-2.53-.31-3.63-.87-1.54 1.52-3.57 2.45-5.8 2.45-2.52 0-4.78-1.18-6.37-3.06a8.025 8.025 0 0 1-4.63 1.48c-4.77 0-8.64-4.24-8.64-9.46s3.87-9.47 8.64-9.47c.71 0 1.4.09 2.06.27 2.48-2.99 3.25-11.09 3.44-30.24h.02c-.22-5.62-.64-10.79-1.46-14.85-.06-.32-.65-2.81-1.47-6.17-.15-.3-.33-.59-.53-.88-1.1-1.62-5.86-3.37-12.6-5.17-1.31 12.04-3.67 24.29-6.52 35.05-.68 3.25-1.74 7.56-2.58 10.95-.77 3.1-.91 5.65-.87 8.64 0-.02.02 0 .02 0 .61 1.02 2.13 2.42 2.13 2.42.08.23.14.47.19.71 1.05 1.56 1.67 3.49 1.67 5.58 0 5.23-3.87 9.47-8.64 9.47-2.14 0-4.11-.86-5.62-2.28-1.57 2.34-4.1 3.85-6.95 3.85-2.01 0-3.85-.75-5.31-2-.8.28-1.66.43-2.55.43-1.1 0-2.15-.23-3.12-.63-.07.45-.11.9-.1 1.37.01 0 .01.01.01.01.62 1.01 2.14 2.42 2.14 2.42.08.23.14.47.19.71 1.05 1.56 1.67 3.49 1.67 5.58 0 5.23-3.87 9.46-8.65 9.46-1.71 0-3.3-.54-4.63-1.48-1.58 1.88-3.84 3.06-6.36 3.06-2.24 0-4.27-.93-5.81-2.45-1.1.56-2.33.87-3.62.87-4.78 0-8.65-4.23-8.65-9.46s3.87-9.46 8.65-9.46c.09 0 .18 0 .27.01 1.01-2.06 2.66-5.6 2.91-8.42.07-.7-3.61-10.2-3.56-13.5.01-.45.08-.9.22-1.35-3.03-16.51-5.03-32.23-5.03-34.9 0-6.76-3.42-13.35-4.62-19.74-2.82 2.32-6.01 3.88-9.51 4.53-2.23.41-4.48.43-6.71.08.11 4.96.79 10.32.79 16.71 0 4.04.88 20.3-3.83 36.07-.03-.06-.08-.01-.14.12l-.08 3.87c-.29 3.57-.49 4.12-.6 7.98-.08 3.21-.09 6.3-.05 9.28h.02c.61 1.02 2.14 2.43 2.14 2.43.07.25.14.49.2.74 1.04 1.56 1.65 3.47 1.65 5.55 0 5.22-3.87 9.46-8.64 9.46-2.14 0-4.1-.85-5.61-2.27-1.58 2.33-4.11 3.85-6.96 3.85-2.01 0-3.85-.75-5.32-2-.8.27-1.65.42-2.54.42-4.78 0-8.64-4.24-8.64-9.46s3.86-9.46 8.64-9.46h.09c.93-1.98 2.56-5.57 2.93-8.52-.35-1.29-1.37-4.11-2.24-6.75-.66-1.18-1.18-2.24-1.16-3.49 0-.14.01-.28.02-.42-.03-.12-.05-.23-.07-.33-2.86-14.47-9-27.02-13.71-47.53-4.56-19.83-.47-37.59-.47-38.68 0-7.68 2.17-14.92 5.97-21.18l-1.51-18.22c-8.76-4.39-14.9-10.15-17.14-16.63-1.12-2.35-1.71-4.81-1.71-7.34 0-6.18 3.53-11.94 9.62-16.76 1.97-1.57 3.5-3.73 4.39-6.19-2.63-4.04-5.97-10.91-5.59-19.59.21-4.59 1.63-13.69 5.54-14.92.33-.1.67-.15 1.02-.13 1.15-.12 2.2-.04 3.14.13 5.1.93 8.93 5.24 11.62 9.77 16.5-6.76 43.01-6.74 59.46.05 2.7-4.64 6.59-9.12 11.81-10.07.94-.18 1.98-.25 3.13-.13.36-.02.7.03 1.03.13 3.91 1.23 5.33 10.32 5.54 14.92.39 8.79-3.05 15.73-5.7 19.75.11.55.25 1.08.43 1.61.9 1.83 2.19 3.43 3.75 4.67 4.22 3.35 7.21 7.16 8.65 11.24 1.14 2.38 1.75 4.88 1.75 7.44 0 4.96-2.28 9.65-6.31 13.8 5.81.59 11.65 1.48 17.39 2.61 1.18-3.49 3.09-7.1 5.81-10.82 0-.02.02-.02.02-.02 3-4.12 13.94-9.88 19.55-12.66-.07-.13-.14-.27-.21-.4 3.02-1.55 5.17-2.54 5.17-2.54.03-.02.08-.03.11-.05 10.31-4.48 27.07-5.56 37.82-4.68-.31 13.45-4.02 20.43-10.69 25.65-4.51 4.07-10.63 6.98-18.2 10.62 8.14-2.39 21.03 4.77 23.94 7.64 10.1 9.88 13.45 23.52 2.44 32.49Z" style="fill:none;stroke:#000;stroke-miterlimit:10"/></svg>