<?xml version="1.0" encoding="UTF-8"?>
<svg id="_Слой_1" data-name="Слой 1" xmlns="http://www.w3.org/2000/svg" viewBox="0 0 300 300">
  <defs>
    <style>
      .cls-1 {
        fill: none;
        stroke: #000;
        stroke-miterlimit: 10;
      }
    </style>
  </defs>
  <path class="cls-1" d="m255,93.42v94.28c0,10.02-11.96,19-30.85,25.06h0c-10.45,3.37-23.03,5.84-36.87,7.08-6.75.61-13.8.94-21.05.94-1.77,0-3.53-.02-5.28-.06l1.32,2.17,46.51-2.64c2.16-.13,4.08,1.61,4.26,3.85l.52,6.21c.18,2.26-1.46,4.14-3.63,4.17l-40.23.57,10.22,16.74c1.12,1.83.46,4.31-1.46,5.52l-5.33,3.35c-1.93,1.21-4.38.66-5.42-1.23l-13.36-24.17-91.03,1.28c-.25,0-.49-.02-.72-.07-1.17,3.13-4.37,5.43-8.31,5.59-5.23.2-9.78-3.44-10.17-8.14s3.53-8.67,8.76-8.88c3.45-.14,6.61,1.4,8.47,3.82.41-.19.86-.3,1.34-.33l85.27-4.83-2.1-3.8c-.23-.02-.46-.04-.68-.06-12.18-1.1-23.37-3.15-33-5.91-19.61-5.61-32.75-14.21-34.52-23.96v-.02c-.13-.75-.2-1.49-.2-2.25v-94.28h.12c2.31-17.5,41.12-31.42,88.65-31.42s86.34,13.92,88.65,31.42h.12Z"/>
</svg>