<svg data-name="Слой 1" xmlns="http://www.w3.org/2000/svg" viewBox="0 0 300 300"><path d="M255 93.42v94.28c0 10.02-11.96 19-30.85 25.06-10.45 3.37-23.03 5.84-36.87 7.08a234.334 234.334 0 0 1-26.33.88l1.32 2.17 46.51-2.64c2.16-.13 4.08 1.61 4.26 3.85l.52 6.21c.18 2.26-1.46 4.14-3.63 4.17l-40.23.57 10.22 16.74c1.12 1.83.46 4.31-1.46 5.52l-5.33 3.35c-1.93 1.21-4.38.66-5.42-1.23l-13.36-24.17-91.03 1.28c-.25 0-.49-.02-.72-.07-1.17 3.13-4.37 5.43-8.31 5.59-5.23.2-9.78-3.44-10.17-8.14s3.53-8.67 8.76-8.88c3.45-.14 6.61 1.4 8.47 3.82.41-.19.86-.3 1.34-.33l85.27-4.83-2.1-3.8-.68-.06c-12.18-1.1-23.37-3.15-33-5.91-19.61-5.61-32.75-14.21-34.52-23.96v-.02c-.13-.75-.2-1.49-.2-2.25V93.42h.12C79.89 75.92 118.7 62 166.23 62s86.34 13.92 88.65 31.42h.12Z" style="fill:none;stroke:#000;stroke-miterlimit:10"/></svg>