<?xml version="1.0" encoding="UTF-8"?>
<svg id="_Слой_1" data-name="Слой 1" xmlns="http://www.w3.org/2000/svg" viewBox="0 0 300 300">
  <defs>
    <style>
      .cls-1 {
        fill: none;
        stroke: #000;
        stroke-miterlimit: 10;
      }
    </style>
  </defs>
  <path class="cls-1" d="m286.99,186.02c-.86,3.72-47.14-9.43-49.86-10.21-6.02-1.72-11.59-3.43-16.63-5.06-1.8,1.79-3.66,3.44-5.55,4.95l.68-.17c3.71.99,6.46,1.92,6.37,2.51-.17,1.16-11.32.17-11.47,1.25-.14,1.05,10.31,3.21,10.2,3.75-.11.54-10.97-1.57-11.47,0-.33,1.04,4.13,2.98,3.82,3.75-.48,1.22-12.13-2.65-12.74-1.25-.45,1.03,5.52,3.92,5.1,5-.5,1.24-9.04-.86-13.66-1.94-.25.09-.5.18-.75.27,4.47,1.49,14.61,4.52,14.41,5.42-.11.49-3.16.2-5.1,0-7.61-.77-14.23-1.76-18.98-2.53-.88.22-1.74.42-2.57.6,3.63,1.03,8.94,2.3,15.18,3.18,6.85.98,10.18.83,10.19,1.25.02.81-12.2,3.14-26.55,1.75,7.18,2.26,13.93,5.55,20.18,10.76,3.49,2.91,13.87,11.8,15.29,25.01.52,4.8.03,11.82-2.55,12.51-3.96,1.05-8.21-14.08-17.84-25.01-12.39-14.09-26.73-13.26-50.38-18.39-1.7.82-4.49.01-6.14-1.03-.02-.01-.03-.02-.05-.03-.07.02-.13.04-.2.05-1.25.27-2.58-.37-3.67-1.3-.79.01-1.59-.3-2.33-.78-1.14-.33-2.31-.67-3.49-1.03-.43-.13-.86-.26-1.3-.39-.08.56-.48,1.14-.93,1.5-1.6,1.27-4.8.4-6.62-.74-.02-.01-.03-.02-.05-.03-.07.02-.13.04-.2.05-1.25.27-2.58-.37-3.67-1.3-1.94,0-3.97-1.87-4.89-3.47-.28-.49-.49-1.01-.63-1.56-7.4-2.67-15.05-5.88-22.31-10-2.93,3.44-9.01,9.18-18.66,11.56-12.06,2.97-21.69-1.29-24.21-2.5,3.62-3.08,11.39-8.82,22.93-11.26,5.57-1.18,10.59-1.29,14.69-.99-8.29-5.39-15.86-12.16-21.7-20.89-4.94-7.39-8-15.23-9.84-22.77-3.96.31-10.65.07-16.28-4.12-9.21-6.85-12.07-21.62-5.1-35.02,4.26,3.55,10.13,9.24,15.3,17.51,1.51,2.41,2.78,4.78,3.86,7.05-.97-14.39,1.67-25.17,1.87-25.18.3-.02-3.12,24.02,10.19,47.52.71,1.26,2.66,4.6,6.19,9.01-.61-6.24-.3-15.46,4.65-24.64,1.94-3.61,4.22-6.5,6.37-8.76,1.05,3.28,5.09,17.19-2.55,30.02-1.68,2.82-3.62,5.08-5.51,6.88,5.09,5.7,12.47,12.5,22.71,18.75,7.32,4.47,14.52,7.69,21.57,10.09,1.08-.47,2.27-.72,3.45-.71,1.92.02,3.36.71,4.04,1.09l.31.39c1.27.2,2.23.66,2.76.95l.03.02,1.3.58c-.15.04-.38.11-.66.22l.44.54c-.25-.04-.75-.11-1.38-.11h0s-.02.01-.03.01c1.99.5,3.97.94,5.93,1.35.39-.39.83-.73,1.3-1.02-22.48-8.01-38.56-23.14-42.87-33.4-3.54-8.45-3.47-15.09-3.47-15.09.07-6.64,2.28-14.68,3.09-17.62,1.48-5.36,2.7-8.06,1.55-11.74-1.01-3.24-3.19-5.16-4.99-6.83-.4-.37-.8-.74-1.19-1.09-.02.01-.05.03-.07.04-2.6-1.17-4.94-2.6-6.89-4.22-.91-.75-1.74-1.55-2.48-2.38-1.64-.38-3.69-1.08-6.31-1.99-3.94-1.37-7.18-2.83-9.62-4.05-1.98.08-3.96.16-5.94.24,2.56-2.25,6.52-5.46,11.79-8.69,4.32-2.65,7.17-4.37,9.36-4.69.89-1.02,1.92-2,3.07-2.92.75-.73,1.59-1.44,2.54-2.14.03.05.07.12.12.2.03-.02.07-.04.1-.06,3.24-2.1,7.03-3.84,11-5.11.06.11.11.21.16.32.17-.06.33-.11.5-.16-.19-.07-.37-.13-.55-.2,2.37-.76,4.79-1.35,7.19-1.75h.01c1.48-.25,2.93-.41,4.36-.51,10.55-.69,18.5,3,20.07,3.75.07.02.12.06.18.1h.01c8.95,4.35,11.93,10.21,19.25,19.22-.1.12-.2.25-.3.38.05.06.11.13.17.2.11-.1.22-.21.33-.32,1.68,2.05,3.59,4.28,5.85,6.68,5.75,6.1,10.63,9.9,20.39,17.51,8,6.23,15.6,11.2,22.57,15.29,5.86,2.63,10.01,4.63,12.21,5.74,33.94,17.18,66.4,11.84,66.26,15.01,0,.07-.02.13-.05.2.01.04.01.07.01.11-.03.84-2.32,1.44-7.13,2.12-.01,0-.03,0-.04.01-6.16,1.02-16.31,2.09-30.71,3.52.19.65.29,1.34.32,2.05,3.65,2.02,7.68,4.28,12.11,6.66,30.41,16.4,45.73,20.57,45.24,22.7Z"/>
</svg>