<svg data-name="Слой 1" xmlns="http://www.w3.org/2000/svg" viewBox="0 0 300 300"><path d="M251.44 41.37c1.16 1.29 1.63 2.44 1.16 3.14-.47.71-1.8.85-3.58.51l-6.79 10.22c.38.71.45 1.32.16 1.76-.3.44-.92.66-1.78.68l-6.16 9.26c.45.77.55 1.42.24 1.89-.31.47-1 .69-1.95.68l-3.05 4.59c-2.89 4.34-8.71 6.07-13.72 4.32l-24.37 37.39c9.67 6.23 16.36 16.26 16.32 29.9 0 14.24-8.85 26.67-21.98 33.23-1.61.43-7.14 4.4-12.06 12.8-7.86 15.96-.48 19.13-1.7 33.55-.21 46.82-53.51 62.5-89.25 47.01l-.07-.03-7.25-3.75L72 266.3c-19.41-7.31-34.42-23.38-34.53-48.2 4.86-55.67 47.11-41.01 64.67-66.3 5.03-7.72 5.49-15.09 5.48-18.29 3.69-25.94 30.57-36.01 53.39-31.49l27.33-40.19c-3.18-3.33-3.79-8.29-1.14-12.27l2.16-3.25c-3.6-2.4-5.71-5.02-4.88-6.27.82-1.25 4.33-.72 8.31 1.11l4.39-6.59c-3.68-2.43-5.85-5.09-5.01-6.36.84-1.26 4.41-.71 8.45 1.17l5.47-8.21c-2.87-2.15-4.45-4.34-3.71-5.44.74-1.11 3.59-.82 7.01.54 2.9-3.63 7.97-5.09 12.52-3.79l.22-.32 6.23 3.54 14.38 8.04c.5.28.96.59 1.39.92l.07.04.05-.06.02.1.83.47-.12.18c.29.26.56.55.8.84l1.77.99c5.3 2.96 7.02 9.27 3.89 14.16Z" style="fill:none;stroke:#000;stroke-miterlimit:10"/></svg>