<svg data-name="Слой 1" xmlns="http://www.w3.org/2000/svg" viewBox="0 0 300 300"><path d="M279.99 176.31c-.22.8-3.54 1.07-21.03-1.34-6.82-.94-15.5-2.25-24.57-3.74-22.02 4.75-36.6 7.89-39 8.4-2.65.94-5.82 1.63-9.62 2.03-.01.01-.03.01-.04.01-1.73.21-3.6.36-5.59.41-4.97.13-9.36-.37-13-1.07-3.36 6.4-8.25 14.04-14 16.43-.21 1.53-.15 2.79-.02 3.73.36 2.82 1.4 4.05 1.4 6.72 0 2.33-.79 4.21-1.4 5.38-1.41 7.16 1.4 14.33 0 21.5a64.29 64.29 0 0 1-14.02 9.4c-2.04.03-5.04.26-8.41 1.35-4.44 1.42-6.35 3.29-7.01 2.68-.92-.84 1.37-5.78 5.6-8.06 2.16-1.16 4.21-1.29 4.21-1.34-.01-.04-5.14.23-11.22 2.69-4.19 1.69-6.22 3.37-7 2.68-.73-.64.03-2.92 1.4-4.68-.98.62-1.57.96-1.86.62-.67-.78.89-4.41 3.53-6.21 1.6-1.1 3.19-1.24 3.43-1.28-.37 0-4.44.33-9.21 2.56-3.46 1.61-5.13 3.21-5.78 2.56-.65-.66.15-3.17 1.45-4.87 1.92-2.52 4.83-3.1 8.45-3.52 11.32-1.3 14.23.81 16.68-1.84 1.44-1.57 1.73-4.46 2.31-10.23.42-4.22.63-6.32 0-8.96-.57-2.38-1.46-3.84-1.16-6.39.21-1.75.77-2.18 1.16-3.84.28-1.17.42-2.77 0-4.86-1.88-1.6-4.19-4.69-7.79-9.53-2.2-2.96-3.8-5.11-4.72-6.66-11.1-4.56-21.29-2.24-35.02-12.62-3.26-2.47-8.24-6.3-12.25-12.91-9.37-15.47-6.52-34.76-5.49-41.72 1.86-12.56 5.92-21.06 1.01-25.65-2.62-2.46-6.27-2.36-9.42-6.6-.03-.04-.2-.28-.45-.67-4.81-.52-10.31-.82-16.37-.67-5.71.14-10.88.66-15.42 1.34.76-4.83 2.99-7.09 4.2-8.06 3.34-2.68 6.24-.97 14.02-2.69 7.5-1.65 10.05-4.3 12.62-2.68.06.04.11.07.17.12 4.25-6.66 15.86-11.94 26.47-12.22 10.46-.27 22.77 4.3 28.04 13.44 3.13 5.44.84 7.43 2.53 19.56 1.52 10.91 3.51 25.26 14 32.94 3.41 2.51 7.7 3.98 16.27 6.93 6.19 2.14 11.51 3.46 15.29 4.28h.01c.11.04.63.2 1.5.48.25.09.49.16.72.23.02 0 .05.02.07.03 2.52 1.11 5.04 2.19 7.56 3.25 9.68 3.32 19.22 7.03 27.77 10.32 7.88 1.77 16.11 4.53 22.92 7.71.4.19.83.39 1.26.6.48.14.96.28 1.43.42h.04c14.89 4.39 29.86 8.04 44.92 10.97h.02c-1.78.39-3.54.77-5.27 1.15 5.83 2.09 9.69 3.95 9.46 4.79-.15.56-2.17.8-11.53-.28 9.32 3.18 16.07 6.25 15.75 7.47Z" style="fill:none;stroke:#000;stroke-miterlimit:10"/></svg>