<?xml version="1.0" encoding="UTF-8"?>
<svg id="_Слой_1" data-name="Слой 1" xmlns="http://www.w3.org/2000/svg" viewBox="0 0 300 300">
  <defs>
    <style>
      .cls-1 {
        fill: none;
        stroke: #000;
        stroke-miterlimit: 10;
      }
    </style>
  </defs>
  <path class="cls-1" d="m280.97,170.05c-.52,13.19-8.78,22.9-12.13,26.84-4.28,5.03-8.76,8.27-12.08,10.3-.04-12.48-.5-23.55-1.06-32.76-2.14-35.04-5.83-43.36-10.98-46.94-1.74-1.21-3.53-1.79-5.2-2.09,3,4.57,5.11,9.75,5.86,15.18,1.26,9.09-3.67,17.08-10.12,23.4.3,7.65,4.87,17.3,9.4,33.04.27.95.4,1.93.37,2.91-.3,13.18,1.99,44.53,1.48,56.26-.19.14-.37.28-.56.44-1.32,1.02-2.8,2.33-4.26,3.97-.31.35-.59.69-.87,1.04-.96,1.19-1.73,2.36-2.34,3.37-9.89,2.48-17.83.59-19.29-2.94-.87-2.1.54-4.83,2.6-7.23.34-.38.68-.76,1.05-1.13,1.07-1.1,2.25-2.07,3.31-2.82.73-.51,1.47-.95,2.2-1.33,4.07-2.11,6.53-6.11,6.11-10.38l-3.45-35.13c-.25-2.62-1.56-5.06-3.66-6.86l-19.72-16.86c.31,1.04.61,2.1.92,3.19.04.14.07.28.07.42.01.1,0,.16,0,.17-.01.27,2.03,56.98,1.45,57.39-.01,0-.13.09-.28.21-.14.11-.24.2-.29.23-1.31,1.01-2.79,2.32-4.26,3.97-.3.35-.59.69-.86,1.04-.97,1.19-1.74,2.35-2.35,3.37-9.89,2.48-17.83.58-19.29-2.94-.87-2.1.55-4.84,2.61-7.23.33-.38.67-.77,1.04-1.13,1.08-1.1,2.25-2.07,3.31-2.82,2.56-1.79,5.18-2.69,7.24-3.17,1.08-.24,1.79-1.17,1.7-2.18l-4.12-41.96c-.22-2.32-1.38-4.48-3.24-6.07-4.26-3.65-8.53-7.29-12.79-10.93-2.51-.24-5.26-.4-8.28-.47-6.77-.14-23.43,6.26-40.69,7.81-2.72,10.7-6.84,23.62-8.23,42.44-1.42,12.12-2.86,24.25-4.29,36.37-.2.12-.39.26-.59.41-1.39.93-2.97,2.14-4.55,3.7-.33.33-.64.65-.94.98-1.05,1.13-1.9,2.24-2.59,3.22-10.04,1.87-17.83-.51-19.03-4.12-.71-2.15.91-4.79,3.13-7.05.37-.36.73-.73,1.13-1.07.35-.31,1.3-1.04,2.17-1.67-5.17-.26-8.81-1.94-9.71-4.25-.82-2.11.66-4.82,2.77-7.17.35-.38.69-.75,1.07-1.11,1.11-1.08,2.3-2.03,3.38-2.76,2.06-1.37,4.15-2.19,5.96-2.69,1.89-.52,3.09-2.21,2.93-4.01l-2.76-30.16c-.01-.08-.02-.16-.03-.24l-4.74-29.5c-.21-.18-.43-.37-.64-.57-7.24-6.67-11.82-13.55-14.55-18.37-3.31-6.63-10.37-6.03-16.23-22.96-2.3-6.65-1.76-37.18-.66-42.06-8.54,2.34-15.38,4.63-20.21,6.35-1.68.6-3.19,1.15-4.56,1.64-.88.56-1.69.7-2.23.76h-.01c-4.06,1.34-6.86,1.8-9.7.55-2.91-1.25-5.77-4.33-6.61-8.14-.84-3.75,10.69-16.74,19.36-25.87.14-1.46.8-3.34,2.5-5.6,2.47-3.31,10-12.5,19.5-13.65.69-4.99,1.5-8.66,2.17-9.49,2.22,1.57,5.55,5.63,6.75,7.6,14.77-5.7,46.81,27.04,49.87,55.15.24,2.15.4,5.19-.02,8.76.78.57,1.55,1.03,2.31,1.34,12.51,5.13,23.82,6.34,31.59,6.46.35-.01.69,0,1.03-.01,0,0,3.73-.48,11.16-1.44,7.44-.97,43.34-4.43,48.08-3.15h.01c7.03.78,14.33,4.68,20.19,10.44,2.07-2.45,5.59-4.6,9.54-4.39,14.21.74,38.67,32.32,37.73,56.15Z"/>
</svg>