<?xml version="1.0" encoding="UTF-8"?>
<svg id="_Слой_1" data-name="Слой 1" xmlns="http://www.w3.org/2000/svg" viewBox="0 0 300 300">
  <defs>
    <style>
      .cls-1 {
        fill: none;
        stroke: #000;
        stroke-miterlimit: 10;
      }
    </style>
  </defs>
  <path class="cls-1" d="m279,236.52c0,9.47-5.25,11.48-7.88,11.48h-19.69c-8.67,0-15.76-7.75-15.76-17.22v-6.14h-2.62c0,12.9-11.47,23.36-25.6,23.36s-25.61-10.46-25.61-23.36h-2.62c0,12.9-11.47,23.36-25.61,23.36s-25.1-10.01-25.58-22.53l-6.92,2.75c-6.27,11.76-18.76,19.78-33.14,19.78-20.67,0-37.42-16.56-37.42-36.98,0-6.34,1.61-12.3,4.46-17.52h-12.9c-3.3,0-6-2.7-6-6v-3.57c0-3.3,2.7-6,6-6h1.87v-9.87c0-1.51.49-2.93,1.32-4.07v-82.08h-3.96c-5.05,0-9.17-2.96-9.17-6.57,0,0,35.63-22.62,40.68-22.62l61.75.94c5.04,0,45.93,21.68,45.93,21.68,0,3.61-4.13,6.57-9.17,6.57h-1.33v19.5c.2-.02.4-.03.61-.03h28.31c-.03-.3-.04-.61-.04-.92v-28.01c0-.39.02-.77.07-1.14-4.76-4.6-16.58-20-16.58-20-.08-3.61,1.46-6.61,3.42-6.65l50.56-1.09c1.97-.04,3.64,2.89,3.72,6.5,0,0-12,20.59-14.93,22.77v27.47c.56-.15,1.15-.23,1.75-.23h4.38c2.27,0,4.3,1.1,5.57,2.79,12.95,4.7,22.44,19.97,22.44,38.08,0,16.88-8.24,31.3-19.85,36.98h1.34c2.81-2.81,6.55-4.54,10.63-4.54h2.62c8.67,0,6.57,17.22,11.82,27.26l13.13,35.87Z"/>
</svg>