<svg data-name="Слой 1" xmlns="http://www.w3.org/2000/svg" viewBox="0 0 300 300"><path d="m283.62 65.5-.22.64c-.99 2.84-3.6 4.46-6.22 4.08l-42.62 95.69c-.02.07-.04.15-.07.22-6.42 31.34-22.37 61-109.92 61-7.68 0-29.72-2.34-52.27 1.68-24.82 4.43-52.27 21.93-52.27 21.93-16.91 3.37 17.51-136.23 37.92-123.91 12.06 26.27 34.24 46.53 58.47 58.17-7.46-11.38-11.83-25.2-11.83-40.1 0-38.9 29.77-70.43 66.49-70.43 28.15 0 52.21 18.52 61.91 44.69l25.02-57.01c-2.01-1.68-2.86-4.66-1.92-7.38l.22-.63c1.14-3.31 4.51-4.98 7.53-3.72l16.39 6.82c3.02 1.25 4.53 4.95 3.39 8.26Z" style="fill:none;stroke:#000;stroke-miterlimit:10"/></svg>