<svg viewBox="0 0 310 244" fill="none" xmlns="http://www.w3.org/2000/svg">
<path d="M204.91 80.0996L271.851 157.107C279.098 165.443 278.215 178.075 269.878 185.322L230.991 219.127C222.655 226.373 210.022 225.49 202.775 217.154L135.834 140.146L204.91 80.0996Z" fill="#E3186D"/>
<path d="M201.294 154.072C204.187 157.52 205.409 161.076 204.96 164.742C204.512 168.408 202.656 171.61 199.393 174.348C196.083 177.125 192.585 178.416 188.896 178.221C185.254 177.988 181.987 176.148 179.094 172.7C176.24 169.299 175.015 165.785 175.417 162.157C175.866 158.491 177.745 155.27 181.054 152.493C184.317 149.755 187.793 148.483 191.481 148.678C195.169 148.873 198.44 150.671 201.294 154.072ZM187.437 165.7C188.594 167.079 189.714 167.901 190.798 168.166C191.89 168.347 192.826 168.11 193.608 167.454C194.389 166.798 194.762 165.937 194.728 164.869C194.701 163.717 194.109 162.451 192.952 161.072C191.834 159.739 190.729 158.983 189.637 158.802C188.592 158.583 187.678 158.801 186.897 159.456C186.115 160.112 185.719 160.993 185.707 162.099C185.742 163.167 186.318 164.367 187.437 165.7ZM205.954 131.482C207.709 130.401 209.478 129.661 211.259 129.263C213.047 128.781 214.385 129.068 215.272 130.125C215.85 130.815 216.264 131.682 216.513 132.725C216.763 133.769 216.994 135.025 217.206 136.491L225.637 196.384C223.775 197.712 221.976 198.555 220.241 198.915C218.514 199.189 217.206 198.798 216.319 197.741C215.702 197.006 215.269 196.116 215.02 195.072C214.816 193.99 214.624 192.78 214.443 191.444L205.954 131.482ZM251.934 155.756C254.826 159.203 256.048 162.76 255.6 166.425C255.151 170.091 253.295 173.294 250.032 176.032C246.723 178.809 243.224 180.1 239.536 179.905C235.894 179.671 232.626 177.831 229.734 174.384C226.88 170.982 225.654 167.468 226.057 163.841C226.505 160.175 228.384 156.953 231.693 154.177C234.957 151.438 238.432 150.167 242.121 150.362C245.809 150.556 249.08 152.355 251.934 155.756ZM238.076 167.384C239.233 168.763 240.354 169.585 241.438 169.85C242.529 170.031 243.466 169.793 244.247 169.137C245.028 168.482 245.402 167.62 245.368 166.552C245.341 165.4 244.749 164.135 243.592 162.756C242.473 161.423 241.368 160.666 240.277 160.485C239.231 160.266 238.318 160.484 237.536 161.14C236.755 161.796 236.358 162.677 236.347 163.783C236.381 164.851 236.958 166.051 238.076 167.384Z" fill="white"/>
<path d="M152.241 66.5895C158.354 61.221 167.11 60.0905 174.386 63.7303L202.909 77.9988L133.833 138.046L125.383 104.677C123.539 97.3957 125.93 89.6955 131.574 84.7393L152.241 66.5895Z" fill="#E3186D"/>
<circle cx="157.484" cy="89.1935" r="13.0752" transform="rotate(12 157.484 89.1935)" fill="white"/>
<line x1="205.348" y1="83.0929" x2="138.461" y2="142.985" stroke="#E3186D" stroke-width="14" stroke-dasharray="10 10"/>
<path d="M144.421 77.2814L120.057 40.1875C115.019 32.5171 105.925 28.5488 96.8752 30.0723V30.0723C84.3824 32.1756 75.9035 43.934 77.8533 56.4517L78.4055 59.9965C79.1931 65.053 81.4136 69.7779 84.8038 73.6113L97.8268 88.3368C103.768 95.0551 106.173 104.192 104.308 112.965L103.983 114.493C102.503 121.459 98.1019 127.455 91.8994 130.955V130.955C83.3591 135.776 72.7819 135.118 64.9041 129.278L55.5322 122.33L45.1839 112.568C40.7162 108.354 36.7681 103.621 33.4235 98.4704V98.4704" stroke="#E3186D" stroke-width="7"/>
</svg>
