<?xml version="1.0" encoding="UTF-8"?>
<svg id="_Слой_1" data-name="Слой 1" xmlns="http://www.w3.org/2000/svg" viewBox="0 0 481.63 463.81">
  <defs>
    <style>
      .cls-1 {
        fill: #00c23f;
      }

      .cls-2 {
        fill: #fff;
      }

      .cls-3 {
        fill: #ecd798;
      }

      .cls-4 {
        fill: #f8df8d;
      }

      .cls-5 {
        fill: #eaa55e;
      }

      .cls-6 {
        fill: #f18a00;
      }

      .cls-7 {
        fill: #348f41;
      }

      .cls-8 {
        fill: #6f2277;
      }

      .cls-9 {
        fill: #8f4899;
      }

      .cls-10 {
        fill: #706f6f;
      }

      .cls-11 {
        fill: #2d8552;
      }

      .cls-12 {
        fill: #cf8a00;
      }

      .cls-13 {
        fill: #0dda51;
      }

      .cls-14 {
        fill: #1d1d1b;
      }
    </style>
  </defs>
  <g>
    <path class="cls-14" d="m356.91,165.71c-.85-13.98-7.38-27.29-15.59-39,.07-5.16-1.08-9.62-2.2-12.72-1.53-4.22-2.52-8.5-2.94-12.69-.49-4.9-1.23-9.43-2.2-13.46-2.26-9.38-9.14-12.61-11.76-13.52-.68-.92-1.9-2.17-3.87-4.15-2.67-2.67-2.84-6.77-3.03-11.11-.1-2.28-.2-4.64-.66-6.91-1.13-5.56-5.88-8.09-9.81-8.09-2.05,0-3.83.65-5.02,1.84-2.51,2.51-1.72,5.27-1.14,7.28.16.55.31,1.08.41,1.61-.15.04-.32.06-.48.06-.52,0-1.48-.2-2.06-1.52-.94-2.14-5.06-8.39-11.75-14.03-8.92-7.51-19.46-11.48-30.48-11.48-2.5,0-5.07.2-7.63.6-9.89,1.54-18.42,2.32-25.36,2.32-5.78,0-9.05-.55-10.58-.92-.34-1.89-1.36-5.02-4.45-6.85-1.51-.91-3.25-1.4-5.03-1.4-4.49,0-9.03,3.29-9.03,9.58,0,5.96,4.91,9.18,9.54,9.18,1.95,0,3.76-.54,5.23-1.55,5.77,2.46,16.23,3.96,27.92,3.96,3.13,0,6.22-.11,9.19-.33,1.45-.11,2.89-.16,4.27-.16,5.78,0,18.83,1.09,21.76,10.65-5.57.08-11.45.37-13.5.48-1.46-1.02-5.47-3.61-13.65-7.56-3.88-1.87-9.59-2.75-17.96-2.75-7.85,0-16.84.76-26.36,1.56-4.99.42-10.14.85-15.09,1.16-1.36.09-2.73.13-4.06.13-15.13,0-24.12-5.53-27.04-7.69.71-2.7.47-6.93-3.8-10.5-1.8-1.51-4.01-2.3-6.39-2.3-3.16,0-6.18,1.44-8.08,3.85-1.92,2.43-2.54,5.61-1.75,8.96,1.17,4.93,4.74,7.76,9.79,7.76,1.11,0,2.09-.13,2.81-.27,2.96,2.71,13.07,11.29,24.81,13.42,5.62,1.02,10.24,1.47,14.99,1.47,6.33,0,12.55-.79,22.52-2.35,2.01-.32,3.87-.47,5.52-.47,7.26,0,8.96,3.02,9.3,4.99-2.39-.02-7.36-1.48-11-2.55-1.84-.54-3.79-.81-5.8-.81-6.13,0-13.08,2.67-14.8,8.62-.67,2.32-.24,4.66,1.21,6.58,1.47,1.96,3.68,3.17,5.79,3.73-12.51,6.28-21.69,16.09-32,27.08-3.31,3.53-6.73,7.19-10.4,10.85-7.28,7.28-15.3,13.29-23.06,19.1-10.97,8.21-21.32,15.97-28.04,26.2-19.3,29.5-7.99,42.22-7.5,42.75l1.73,1.85,1.49-2.05c.08-.11,8.85-11.86,27.12-14.87,13.07-2.15,21.05-4.65,24.99-6.12v9l2.85-1.13c15.31-6.07,23.83-14.18,32.6-25.3,5.44-6.89,11.34-19.1,14.72-26.61.52,1.92,2.53,5.1,2.7,5.54.53,1.31,1.22,2.56,3.55,3.46,1.71,7.11,8.25,13.15,14.44,17.45-10.35,1.83-31.44,13.6-37.38,17.67-6.74,4.61-61.52,31.22-90.46,25.55-9.24-1.42-12.97-3.79-12.97-3.79,0,0,9.23,5.39,10.11,20.82.89,15.43,11.18,23.24,22.71,26.26,11.53,3.02,22.18,18.63,45.06,20.22,18.66,1.3,28.53,1.43,33.88,3.77-1.58,3.76-2.88,6.89-3.63,8.86-2.28,5.93-4.1,10.68-6.71,16.39-8.25,2.34-9.84,7.09-10.04,9.78-1.01,5.25,9.12,6.6,11.48,6.6,3.22,0,5.84-.78,7.2-1.28,1.02.44,2.72.98,4.99.98.87,0,1.76-.08,2.65-.24,4.95-.87,6.96-2.64,7.16-6.44,6.78-9.56,29.24-24.82,42.31-24.82.48,0,2.91-.02,3.47-.02,7.56,0,14.33,5.04,15.05,8.47-1,2.5-4.94,12.77-3.14,16.01,1.37,2.46,4.98,3.56,7.96,3.56.47,0,1.97-.13,2.34-.13,1.05,0,2.33.15,3.68.31,1.7.2,3.62.42,5.68.43.79.08,1.58.13,2.36.13,2.9,0,4.97-.57,5.9-.89.42.03,1.06.06,1.77.06,2.19,0,4.82-.25,5.79-2.18l.22-.93c0-3.63-3.72-9.5-8.87-10.17-.37-.05-4.17.23-5.53.5-1.1.22-3.06.41-3.06.41,0-2.91,5.5-14.81,17.79-34.84,9.2-14.99,11.76-27.07,12.33-34.41l.92,1.46c1.69,11,4.48,12.07,6.36,11.71,3.72,0,5.18-3.91,5.74-7.16.23.36.5.84.74,1.26,1.11,1.95,2.63,4.63,5.23,5.74.61.26,1.2.39,1.76.39.98,0,1.85-.38,2.53-1.09,1.38-1.45,1.69-3.96,1.58-7.92.49.13.94.19,1.35.19,1.35,0,2.45-.69,2.95-1.85.81-1.9.9-5.74-7.4-10.45-6.06-14.5-12.83-24.64-17.79-32.07-2.53-3.78-4.55-6.82-5.88-9.47.61-7.83-2.26-12.83-4.67-15.59.97-.35,2.13-.82,3.4-1.39,3.95,6.11,7.31,10.61,7.31,10.61l1.22-11.1s9.34,8.24,15.98,12.81c6.64,4.57,10.51,22.97,10.51,22.97,0,0,13.62-11.27,12.14-35.59Z"/>
    <g>
      <path class="cls-9" d="m313.11,166.62l1.05-2.86c-.74.41-1.46.8-2.14,1.14.68,1.07,1.1,1.71,1.1,1.71Z"/>
      <path class="cls-9" d="m340.34,158.12l-3.41,7.63s-2.65-7.31-7.01-14.38c-3.59,3.81-7.2,6.79-10.57,9.13,2.74,2.87,6.97,7.04,10.51,9.48,5.78,3.98,13.56,13.72,14.94,20,6.12-5.19.7-28.29-4.47-31.86Z"/>
    </g>
    <ellipse class="cls-14" cx="249.55" cy="312.6" rx="105.76" ry="11.09"/>
    <g>
      <path class="cls-7" d="m204.14,233.77c.28.15.02-.54.41-.19-.1-.18-.18-.63-.4-.69.39.48-.21.49,0,.88Z"/>
      <path class="cls-7" d="m191.83,233.96c-.13.06-.02.25.21.51.13-.06.02-.25-.21-.51Z"/>
      <path class="cls-7" d="m204.62,234.23c-.32-.1-.66-.53-.81-.51.3.33.6.46.27.46.29.34.41.16.55.04Z"/>
      <path class="cls-7" d="m195.81,233.15s.02.03.03.05c.06-.02.1-.11.21,0-.04.07.13.17.21.17-.04-.13-.1-.23-.17-.32-.09.04-.19.07-.28.11Z"/>
      <path class="cls-7" d="m204.84,237.18c-.13.07-.15.19.09.44.13-.07.15-.19-.09-.44Z"/>
      <path class="cls-7" d="m203.88,232.97s.08.07.11.06c-.04-.04-.05-.07-.07-.1-.01.01-.03.02-.04.04Z"/>
      <path class="cls-7" d="m193.58,235.58c.08-.02.21.11.29.1-.1-.15-.1-.24-.29-.44-.04.26-.26.14-.32.44.38.33.16.07.42.51.23.13.03-.17.24-.2-.1-.26-.11-.13-.33-.41Z"/>
      <path class="cls-7" d="m194.21,236.25c.02.07.06.14.1.2.11-.11.22-.22.33-.33,0-.01,0-.02-.02-.04-.06.02-.16-.06-.25-.13-.14.08.17.49-.16.3Z"/>
      <path class="cls-7" d="m193.76,236.62c.12-.05.13-.15,0-.34-.11.02-.31-.23-.37-.03.15.2.23.19.37.37Z"/>
      <path class="cls-7" d="m205.64,231.48c-.08.07-.16.14-.25.21.04.04.09.07.17.11-.28-.36.4.03.08-.32Z"/>
      <path class="cls-7" d="m196.45,234.24s0-.01,0-.02c-.05,0-.12-.04-.21-.17,0,.06.03.18.08.32.04-.04.09-.09.13-.13Z"/>
      <path class="cls-7" d="m209.52,239.53s.02.02.03.03c.01-.03.02-.06.04-.08-.01.02-.02.03-.06.06Z"/>
      <path class="cls-7" d="m208.81,236.83c-.05-.18.06-.56-.23-.67.09.12.09.19.09.27-.04.04-.12-.04-.17-.02.12.12.19.49.31.43Z"/>
      <path class="cls-7" d="m209.5,238.84c-.21-.29-.26-.11-.39-.18.04.13.31.37.14.4.17.22.34.3.35.36.02-.04.03-.08.05-.11-.24-.3-.44-.57-.15-.47Z"/>
      <path class="cls-7" d="m208.51,240.59l.26.3c.14-.03.15-.41-.09-.44.21.26-.19-.07-.17.15Z"/>
      <path class="cls-7" d="m191.99,236.38c-.16.06.05.32.29.61.23-.03-.32-.47-.29-.61Z"/>
      <path class="cls-7" d="m206.42,239.64c-.26.1.45.72.56.56-.24-.33-.33-.23-.56-.56Z"/>
      <path class="cls-7" d="m193.38,236.08c-.19-.16-.16-.44-.33-.41.08.12.08.19.08.27-.06.04-.16-.08-.21,0,.23.29.34.21.45.14Z"/>
      <path class="cls-7" d="m208.83,237.68c-.28.28.25.52.53.58-.26-.32-.43-.3-.53-.58Z"/>
      <path class="cls-7" d="m209.79,237.01c.41.46.5.04.8.18,0-.01.01-.02.02-.04-.11-.12-.19-.24-.23-.33-.15.17-.31.35-.58.19Z"/>
      <path class="cls-7" d="m209.24,240.26c.03-.07.07-.15.1-.23-.19.15-.26.21-.1.23Z"/>
      <path class="cls-7" d="m209.08,237.29c-.08.03-.21-.1-.3-.08.24.42.69.84.96.9-.19-.37-.52-.34-.66-.82Z"/>
      <path class="cls-7" d="m194.43,234.7c-.29-.27-.47-.45-.59-.54.26.42-.25-.29-.25-.13.2.24.18.35.46.64-.19-.11-.28.04,0,.34.12-.31-.11-.56.37-.3Z"/>
      <path class="cls-7" d="m207.21,241.56c.06-.43.83.14.5-.44-.4-.19-.39.3-.63.21-.09-.14-.12-.25-.05-.31-.14-.14-.3-.38-.39-.36.1.13,0,.1-.08.07.12.13.17.23.22.33.22-.16.08.24.43.49Z"/>
      <path class="cls-7" d="m206.35,240.4c-.22.06.08.38.14.58.16-.09.1-.29-.14-.58Z"/>
      <path class="cls-7" d="m195.52,233.29s.02-.05.03-.07c-.03,0-.06.02-.09.03.02.02.05.03.07.05Z"/>
      <path class="cls-7" d="m180.68,259.84c-.04-.21-.27-.52-.38-.37.04.25.24.33.38.37Z"/>
      <path class="cls-7" d="m205.42,233c-.27.02.09.53.27.46-.11-.16-.16-.3-.27-.46Z"/>
      <path class="cls-7" d="m205.66,232.79c-.13.07.08.3.23.5.19-.12.06-.26-.23-.5Z"/>
      <path class="cls-7" d="m207.39,239.48l-.13.11c.3.17.29.46.56.55-.05-.18-.38-.49-.44-.66Z"/>
      <path class="cls-7" d="m192.21,238.59c-.15-.15-.29-.29-.41-.34-.07-.12.36-.05.53.07.03.03.05.06.07.08.02-.02.04-.04.06-.06-.25-.26-.52-.42-.75-.86.31.07.8.84.86.65.03.01.04.03.06.05.06-.06.13-.13.19-.19-.08-.15-.14-.3-.05-.36-.35-.19-.48-.32-.7-.78-.07-.08-.12-.07-.21-.17-.06.08-.08.18,0,.34-.11.02-.38-.46-.41-.17-.17-.41-.43-.53-.66-.98.47.3.06-.02,0-.17-.18-.42.23-.31-.05-.81.24.12.52.35.82.68.09-.03,0-.15.04-.2-.21-.19-.39-.26-.66-.64.08-.29.54,0,.19-.67.1.04.21.13.33.24.46-.65.63-1.16,1-1.61-.24-.12-.48-.24-.7-.37-.06.08-.11.17-.13.31-.23-.15-.1-.13-.34-.4-.11.12-.36.43-.69.06.15-.16.29-.33.44-.5-1.15-1.03-1.77-2.56-2.04-4.98-.51.41-1.03.85-1.55,1.31-2.98,2.53-6.05,5.15-9.57,5.15-.51,0-1.01-.06-1.49-.17-1.08-.2-1.95-.84-2.46-1.8-.76-1.42-.59-3.44-.14-5.33-1.02-.05-1.9-.48-2.48-1.24-.34-.44-.54-.94-.65-1.45-22.07,9.46-47.91,19.91-47.91,19.91,0,0,28.83-14.01,48.71-25.09.54-1.41,1.24-2.74,2.01-3.96-26.36,11.56-64.56,25.64-64.56,25.64,0,0,40.25-17.31,73.34-38.83,1.36-1.99,3.17-4.13,5.55-6.1.21-.17.44-.36.69-.55l-17.54,2.13c-28.26,10.04-62.33,20.14-79.77,13.49,6.12,9.02,5.32,14.98,9.31,24.24,3.99,9.26,11.18,12.45,15.43,12.45s10.17.69,17.56,10.64c7.4,9.96,19.16,13.84,27.41,11.44,0,0,.04-.03.1-.08,3.63-3.27,16.08-14.67,31.18-29.99Zm.2-1.19c.14.15.1.21.21.34-.09.08-.26-.07-.33.1-.02-.48-.25-.13-.29-.61.08-.12.35.37.41.17Zm-2.63.1c-.41-.51-.06-.59,0-.83.07.21.23.47.37.71-.12.04-.29-.04-.37.12Zm.31,1.75c-.31-.44-.05-.3.09-.4.07.19.01.31-.09.4Zm.43-1.16l-.25-.31c.11-.07.29.09.09-.23.05,0,.12.07.17.04.14.16.1.21.2.34-.04.03-.13-.1-.21-.17-.08.06.17.32,0,.33Zm.69,1.12c-.17-.1-.27.14-.37-.21-.06.26-.05.48-.13.6-.28-.31-.07-1.22.59-.62.19.39-.48-.27-.09.23Zm-.29-2.8s-.07-.15-.12-.24c.27-.06.11.63.7.95-.39-.27-.77-.51-1.23-1.02.15-.09.02-.32.24-.37.11.21-.01.29.17.54.09.08.18.15.25.14Zm-.22-3.74s-.07,0-.12-.07c.18.2-.02.16.21.5-.14.02-.49-.25-.58-.54.22.21.2-.32.49.11Zm-.39,3.56c.18.25.29.46.41.68-.35-.13-.29.08-.53.27-.19-.22-.23-.35-.12-.41-.06-.09-.09-.08-.12-.07.2.02.25-.38.36-.47Zm-.51-5.88c.37.46-.06.48-.18.66-.2-.37,0-.52.18-.66Zm-.16,1.67c.09.12.16.17.21.17.09.12,0,.09-.04.03.01.1.15.27.05.3-.23-.15-.1-.13-.33-.41l.12-.1Zm.06,5.54c-.36-.15-.12.03-.29.23.08.1.11.04.16.04.31.42-.19.02,0,.33-.21-.09-.17-.27-.45-.48l-.08.06c-.04.05.11.21.2.34-.26.16-.33-.41-.57-.72.37.25.13-.4.33-.42.24.06.34.38.7.62Zm-.49-5.18l.25.3c-.24.22-.26.77-.76.63-.16-.53.34-.6.51-.93Zm-.4,3.39l.16.2c-.05,0,0,.07.04.13-.04.03-.13-.1-.2-.17-.12.08.05.23-.17.13-.18-.23.14-.18.17-.29Zm-.63-2.19l.33.41-.16.13c-.04-.17-.29-.46-.17-.54Zm.41,4.02c.06.15.16.32.36.55-.02.62-.42.48-.79.78-.03-.14.06-.48.21-.33,0-.11-.1-.28-.24-.48.48.33-.11-.69.46-.52Zm-.52-3.42c.03.66-.17.97-.82.97.04-.44.27-.99.82-.97Zm-.94,1.06c.14.16.1.21.2.34-.54-.08-.28,1-.98.43.24-.23.21-1.09.78-.77Zm-.74.9c.16.18.13.24.04.14-.04.03.07.15.12.24-.09.18-.43-.25-.49-.45.08-.06.27.24.33.08Zm-1.01-2.37c.27.34.19.48.08.6-.08-.23-.35-.74-.08-.6Zm-1.21,4.08c.34.39-.13.3-.17.46-.18-.3-.1-.61.17-.46Zm-1.18.25c.24.31.08.5-.09.4-.2-.27-.02-.31.09-.4Zm-.72-.27c.22.38.05.52-.05.7l-.32-.42c.23-.04.18-.39.37-.28Zm-.25.69s.02-.02.01-.04c.15.35-.25.63-.63.34.16-.14.13-.68.61-.3Zm-2.05,2.63c-.23.02.27.51-.02.5-.07-.12.03-.13-.07-.27-.12-.08-.24-.15-.36-.23-.19-.24.04-.21-.11-.41.2.2.31.05.55.41Zm-1.05-1.18c.19.27.01.31-.1.39-.05-.2-.11-.52.1-.39Zm-5.63,4.93c-.12.13-.34.81-.84.24.43.17.3-.37.84-.24Zm-.52,4.76c-.2-.3.03-.4.19-.28.12.31-.02.29-.19.28Zm-.79,2.26l-.18.12c-.31-.4-.06-.56.18-.12Zm-.57-7.66c.3.37-.07.26-.11.39-.18-.28,0-.31.11-.39Zm.19,1.77c0,.25-.08.59-.42.12.15,0,.3.03.42-.12Zm-1.47-.91c.29.34-.02.26-.07.36-.13-.32-.14-.4.07-.36Zm.02.78c0,.19-.1.45-.27.34,0-.19.1-.45.27-.34Zm-1.49-1.05l.22.33c-.2,0-.02.26.04.44-.2-.11-.4-.71-.26-.77Zm-1.38,4.03c.34.52-.04-.24.22-.14.26.56-.15.49-.11.99-.32-.52-.14.17-.36-.09-.1-.5.35-.25.25-.77Zm-.12-1.16c-.46-.68.53-.53.71-.61.03.45-.67.09-.71.61Zm-.3-1.99c.2.51.52.78.4,1,.04-.05-.38-.71-.21-.33-.27-.09,0-.26-.31-.58l.13-.09Zm-3.28,4.04c-.13-.18-.1-.23-.05-.28.28.31.08.69-.15.25.05-.08.14.06.2.03Zm-2.72,1.98c-.1-.68.65-.26.68-.88.33.99-.48.41-.68.88Zm.51.15l.22-.14c.03.1.06.21.16.36l.13-.08c.28.57-.35.08-.51-.15Zm.5-2.46c-.36-.65.08-.09.19-.27.14.25-.16.16-.19.27Zm.31,4.12c.07-.34.37-.55.71-.74-.12.4-.28.65-.71.74Zm.67,1.13c-.07-.15.02-.17.09-.05,0-.07.02-.15-.05-.28.1.04.23.19.36.4-.09.27-.29-.16-.4-.06Zm.1-4.06c.28-.03.59-.18.95-.43.06.12-.46,1.1-.95.43Zm.43,2.2c-.15-.54.31-.62.48-.91.31.66-.42.53-.48.91Zm1.14.37c-.29-.66.21-.12.22-.44l.2.33c-.15,0-.24.34-.42.11Zm.49-.3c-.17-.29.01-.31.13-.39.3.4.04.52-.13.39Zm.12-4.54c.08-.18.25.09.36.09.08.22.02.33-.12.38-.03-.12-.11-.28-.23-.47Zm.48,1.25c-.09-.13-.14-.05-.2-.03-.01-.29-.01-.67.23-.6.33.48-.22.31.15.83-.05.02-.12-.12-.18-.2Zm.57-1.43c0-.12.03-.22.15-.25.08.23-.18.22.17.66.05-.76.73.17.49-.76.07.11.11.05.16.06.03.12.11.28.24.47-.27.38-.49.11-.79.49l-.42-.66Zm.91,2.52c-.38-.58.12-.37.31-.19.14.38-.25.03-.31.19Zm.24-.3c0-.19.11-.45.28-.33.01.19-.07.48-.28.33Zm.2-1.82c.06-.12.2.17.27.14.05-.18-.25-.26-.24-.47.41.09.44,1.06-.04.33Zm.74,2.62l-.14-.22c0-.08,0-.16.06-.19.26.48.08-.21.36.08.02.2-.18.4-.29.33Zm.25-4.52c-.31-.39.11-.27.16-.42.05.21-.02.34-.16.42Zm.3,5.57c-.19-.3.04-.39.2-.28.15.25-.16.16-.2.28Zm1.14-6.85c-.03.56-.56.51-.83.71.22-.42.47-.6.83-.71Zm-.35,2.29c-.13-.03-.05-.14.01-.17-.19-.3-.22-.17-.29-.44.13.05.24.07.42.35,0,.21-.09.04-.14.25Zm.24,7.78c.05-.37.37-.54.68-.72l.21.33c-.38-.02-.59.41-.89.39Zm.67-8.39c-.36-.64.24-.25.14-.72.1.07.21.21.33.41-.26.08-.3.11-.47.32Zm.8,4.67c.17-.07.19.3.3.27-.03.16-.26.32-.5.49-.13-.49.44-.16.2-.76Zm.08,1.68c.36.06.34-.32.66-.44.14.46-.27.62-.66.44Zm1.05-2.28c0,.1.12.28.01.31-.19-.27-.15-.39-.27-.61.1-.09.25.08.36.07.17.34.01.17-.1.23Zm.14-.56c.09-.03.22.12.38.38-.08.1-.18.1-.29.04-.13-.21.1-.17-.08-.42Zm.24,2.21c-.17-.52.25-.53.47-.63.1.39-.26.46-.47.63Zm.18-1.86c-.32-.63-.16-.83.24-.79l.22.33c-.1.38-.15.43-.45.46Zm.54-.52c-.22-.5.14-.37.29-.51.15.47-.23.25-.29.51Zm0-2.84c.13-.12.28-.43.61-.41.1.47-.22.78-.61.41Zm.89-5.49c-.19-.37-.21-.27-.33-.57.17-.05.44.35.62.36.03.08-.07.33-.29.21Zm.34,7.04l.44-.29c.12.28-.15.82-.44.29Zm.32-7.35c.07-.1.17-.1.28-.04.13.26,0,.5-.28.04Zm.41,7.02c-.2-.3.03-.4.19-.28.16.24-.16.17-.19.28Zm.03-2.38c-.22-.4-.04-.51.2-.45,0,.24.09.55-.2.45Zm-.11-4.71c-.07-.65.52-.27.56-.73l.23.32c-.46-.03-.28.61-.79.4Zm.81,4.25c-.16-.3-.12-.47.08-.53.33.41.05.42-.08.53Zm-.04-5.29c.07-.17.29.24.36.06.34.48-.19.26-.36-.06Zm1.36,2.09c-.14-.06-.35-.64-.17-.69.46.49-.12.31.17.69Zm.15-1.57c-.15-.25.17-.19.22-.32.2.38-.13.27-.22.32Zm.51,3.68c-.32-.4.14-.29.19-.46.15.35-.04.24-.19.46Zm.01-3.57c.1-.07.26.09.33-.07.32.38-.13.49-.33.07Zm.49,3.2c-.24-.59.19-.44.41-.78.14.19.11.26.26.46-.31.09-.48.34-.67.32Zm.69-.66c-.32-.38.1-.28.14-.43.34.36.05.61-.14.43Zm.19-.46l.21-.15c.14.16.09.21.19.35-.11.01-.21.09-.4-.2Zm.33-.08c-.07-.44.15-.59.52-.53-.01.3-.06.87-.52.53Zm.98-2.64c-.5-.45.08-.33.22-.49.15.04-.27.5-.22.49Zm.5,5.78c.22.37.39.72.56,1.05-.09-.06-.8-1.01-.56-1.05Zm.49-6.98c-.03-.19.03-.44.21-.32.03.19-.02.44-.21.32Zm.24.15c.1-.05.29.2.48.46-.09.18-.43-.26-.48-.46Zm.76,6.89c-.07-.13-.12-.32,0-.17.04-.05-.1-.22-.19-.35.08.03.15.06.21.01.28.36.12.59-.03.51Zm-.11-6.72c-.08-.31-.32-.4-.55-.73.05-.1-.07-.3.05-.37.16.09.4.48.55.57.25-.22.07-.58.57-.28-.1.46-.43.43-.62.81Zm.63-1.32l.25-.19c.33.41.18.86-.25.19Zm.63,5.92c-.14-.16-.09-.21-.19-.35l-.09.06c-.21-.34.17.03.17-.12l.23.31-.13.09Zm.26-.19c-.22-.27-.32-.46-.18-.51.21.12.29.42.18.51Zm-.52-3.86c.12-.23.35-.05.49-.22.34.46-.1.65-.49.22Zm.95-2.89c.03.19-.02.44-.21.33-.07-.2-.01-.46.21-.33Zm-.13,2.58c-.15-.86.34-.63.55-1.09l.24.31c-.37.28-.47.72-.79.78Zm.57,1.88c.18-.04-.02-.3.21-.16.06.21.19.69-.21.16Zm.22.99c-.18-.21-.18-.3-.27-.45.09-.11.21-.1.4.19-.13.03.05.26-.13.27Zm.17-3.78l-.32-.42c.46-.05.22-.47.66-.51.32.77-.49.3-.34.93Zm.51,1.27s-.12-.07-.16-.04c-.06-.09-.09-.09-.12-.07,0-.22.09-.58.38-.46.4.53-.53-.02-.09.57Zm.26-.7c-.26-.4.19-.38.3-.56.11.34-.04.76-.3.56Z"/>
      <path class="cls-7" d="m206.52,246.45s.02-.04.03-.06c-.04-.04-.1-.13-.18-.29-.17,0,0,.19.15.35Z"/>
      <path class="cls-7" d="m208.87,241.09s-.02-.05-.05-.08c-.13.23-.47-.04-.46.23.15.12.27.12.39.13.04-.09.08-.19.12-.29Z"/>
      <path class="cls-7" d="m207.64,236.28c.04.21.08.71.28.8-.02-.23.12-.39-.28-.8Z"/>
      <path class="cls-7" d="m206.4,241.05c-.1-.05-.34-.66-.52-.94-.14.2.19.62.18.89.08-.01.56.43.34.05Z"/>
      <path class="cls-7" d="m196.26,233.02s0-.04,0-.06c-.01,0-.03.01-.04.02.02.02.02.02.04.04Z"/>
      <path class="cls-7" d="m204.56,236.03c-.26-.33.21-.31.07-.58-.31.04-.55.34-.75.31.15.17.28.3.39.36-.03-.35-.03-.18.29-.08Z"/>
      <path class="cls-7" d="m204.14,239.37c-.38-.34-.16-.48-.47-.63,0,.17,0,.34.01.52.27.12.19.08.46.12Z"/>
      <path class="cls-7" d="m196.34,240.27c-.13.06-.15.19.08.44.13-.06.15-.19-.08-.44Z"/>
      <path class="cls-7" d="m205.55,234.28c-.04.18-.23-.05-.29.08.12.15.08.22.18.36,0-.24.3-.06.11-.45Z"/>
      <path class="cls-7" d="m196.21,239.44s-.09.07-.13.11c.08.1.18.16.3.18-.02-.08-.09-.19-.17-.29Z"/>
      <path class="cls-7" d="m205.23,234.74c-.13.07-.65-.33-.33.12.08-.29.45.28.64.31-.11-.14-.11-.24-.31-.43Z"/>
      <path class="cls-7" d="m204.64,239.28l-.12.11c-.14-.15-.29-.35-.34-.22l.34.4c.01-.11.31-.07.12-.28Z"/>
      <path class="cls-7" d="m205.21,238.43c-.32-.35-.34-.54-.61-.86-.2.06.39.79.61.86Z"/>
      <path class="cls-7" d="m204.74,240.07c.07.2-.02.33.14.58.18,0,.38.07.5-.09-.33-.44-.44-.47-.9-.95-.12.05-.15.15-.12.28-.09-.11-.24-.24-.13-.06.23.26.33.15.51.25Z"/>
      <path class="cls-7" d="m192.32,233.73c-.16,0-.38.02-.07.4.11-.09.28-.14.07-.4Z"/>
      <path class="cls-7" d="m208.2,237.89c.16-.12.72-.26.32-.81-.21.2-.12.28-.42.2.4.5-.21.22.1.61Z"/>
      <path class="cls-7" d="m200.85,246.13s-.05,0-.07,0c.05.04.07.03.07,0Z"/>
      <path class="cls-7" d="m200.53,245.83c-.11-.38.32.2.32.31.07.01.15.04.19-.04-.09-.13-.24-.28-.21-.34.15.21.22.15.34.23-.04.25-.37.35-.1.76-.13-.14-.21-.11-.33-.23.08-.05.11-.13.09-.24-.37-.54-.98-.94-.88-.46.17.11.29.02.46.13.11.14.2.21.29.27-.08.33-.28.59.19,1.2.03-.12.14-.2.05-.38-.06.03-.13.05-.25-.13.26.2.07-.24.25-.04.25.29.14.52.41.51-.53-.63.09-.19.26-.04-.14-.17.07-.15-.04-.31-.06.04-.29-.24-.25-.3.22-.09.48-.08.72-.09-.36-.35-.99-.6-.79-.88-.51-.25-.89-.47-.72.09Z"/>
      <path class="cls-7" d="m200.61,242.53c.45-.13-.08.21.13.24.38-.02.3.58.71.94l.13-.11c-.64-.59-.07-.19-.17-.54-.09.05-.2.05-.34-.06.25-.12-.16-.3-.38-.71-.05.07-.19.09-.09.24Z"/>
      <path class="cls-7" d="m202.2,244.96c-.08-.21,0-.59-.37-.88.14.24.13.41,0,.51.13.14.29.39.38.37Z"/>
      <path class="cls-7" d="m199.25,244c-.19.09-.51-.31-.71-.26.37.3.92.85.71.26Z"/>
      <path class="cls-7" d="m198.26,245.66c-.09.05-.2.05-.34-.06.01-.05.08-.07,0-.17-.14.08,0,.31.03.48-.17.03-.11.06-.42-.17.3.23.04.44-.09.24.22-.06-.27-.47-.29-.27.26.33.27.53.44.82-.22.04-.63-.59-.8-.38.21.36.27.2.41.34-.06.09-.19-.04-.26.03.51.58.74.32.8.21.17.47-.22.81-.53.58-.11.16.29.92-.23.51.05.06.09.13.04.14.08.1.06.15.12.24.53.02.33-.64.83-.48-.25-.32.18-.14-.11-.58.62.57.46-.62.98-.29-.09-.13-.24-.28-.2-.34.36.19.27-.14.63-.01-.39-.52.18,0,.21-.18-.1-.15-.1-.25-.29-.44-.14.33-1-.91-.92-.43.17.06.34.6.45.82-.26-.42-.31-.08-.5-.27.07-.08.09-.19,0-.34Zm.23,1c-.14-.07-.31-.23-.38-.03-.13-.25-.12-.42,0-.52.22.23.1.29.37.55Z"/>
      <path class="cls-7" d="m203.82,252.64c-.08-.1,0-.12,0-.17-.22-.21-.28.18-.55-.23.12.04.23.04.3-.08-.31-.46-.53-.34-.75-.74.08.02.16.05.21,0,.24.57.36.16.71.6-.2.03.06.3.14.48.31-.71.61-1.4.91-2.09-.03,0-.06,0-.1-.02-.11-.41.05-.54.32-.49.04-.08.07-.16.11-.25-.27-.37-.04-.37.16-.37.11-.26.23-.52.34-.78-.05-.13-.01-.32-.02-.4-.06-.09-.1-.08-.13-.06,0-.25.14.03.22.29.27-.61.53-1.2.78-1.79-.55-.15-.39.81-.9.56-.03.08.18.28.29.44-.14-.04-.24.06-.47-.29.12.59-.53-.09-.61.5.37.21.47.63.71.94-.09.07-.28-.23-.34-.06.04-.3-.16-.44-.54-.74.02.2.33.56.07.62-.1-.38-.17-.28-.5-.61.66-.02.52-1.38,1.35-.94-.09-.63.32-1.22,1.04-.86.05-.19-.08-.19-.3-.44.56.2.41-.39.72-.32.01-.02.02-.05.03-.07-.11-.27.1-.38.07-.48.05.03.08.06.1.1.04-.09.08-.19.12-.28-.08-.13-.16-.19-.31-.08-.15-.27.23-.27.29-.43.11.15-.1.15.04.31.02.01.03.02.05.03.06-.13.11-.25.17-.38-.28-.14-.53-.47-.48-.64.19.23.34.41.52.55.17-.38.33-.75.49-1.11-.02-.02-.05-.04-.07-.08.02-.04.05,0,.09.03.05-.12.11-.24.16-.36-.23-.33-.08-.4.16-.36.06-.13.11-.26.17-.39-.04-.07-.08-.14-.09-.22-.75-.18-.46.81-1.18.52-.03.1.13.11.26.3-.22-.04-.01.4-.21.19-.2-.34.05-.2-.39-.7-.21.05.3.45.05.48-.39-.24-.6-.74-.64-.31-.24-.31.03-.37-.09-.62-.11.17-.49-.27-.72-.07-.12-.53.82-.4-.41-1.57-.1-.1-.14,0-.26-.13-.11.1.33.18.09.27.18.17.27.07.51.42-.22.33,0,1.22-.88.42.52.23-.6-.48-.18-.54-.51-.57-1.05-.68-1.15-1.08-.16-.06-.51.28-.15.83-.41.04-.26-.36-.5.09.3,0,.38.3.81.69-.18.22-.45-.42-.64-.49-.03.14.04.43-.16.31-.02.06.14.22.09.27.43.3-.02-.47.29-.25.24.27.23.4.05.31.17.27.6.28.43.5.13.12.17,0,.25-.05.34.64-.35.34,0,.86-.24-.26-.57-.79-.64-.49-.19-.21-.24-.35-.13-.41-.21-.17-.35-.08-.47.05-.22-.2-.42-.32-.68-.63-.29-.01.37.45.08.44-.26-.57-.27-.01-.64-.5-.11.16-.27.16-.42.18-.24-.37-.17-.35.08-.24,0-.31-.31-.21-.47-.47.5.15.37-.3.63-.52-.02.32.34.62.34.23-.17-.37-.17-.4.17-.48.02-.19-.46-.37-.22-.5.16.37.48.15.85.65.16.12.26.03.38.02,0-.08,0-.15-.09-.27-.15-.21-.31.02-.04.21-.23-.12-.42-.11-.76-.55l.16-.14c.15.15.11.21.21.33.21,0-.12-.29-.26-.47-.01-.22.5.38.25-.04.32.15.46.68.72.59.17-.07-.19-.44.12-.28-.17-.38-.64-1.04-.91-1.3-.1,0-.18-.03-.38-.02l-.43-.5c.19-.45.52.09.53-.29.42.45.26.47,0,.34.19.33.55.41.51.59.19.25.14-.22.38.19.02-.23-.34-.3-.51-.59.44.2-.51-.63-.23-.68-.08-.07-.13-.06-.21-.16-.29-.26.14.28-.08.24-.47-1.03,1.06.18.86-.58-.19-.14-.38-.18-.47-.46-.28,0,.38.45.1.44-.24-.43-.47-.67-.63-1.09-.07.06-.14.11-.2.17,0,.11.06.23.23.39-.11-.08-.24-.19-.36-.29-.55.47-1.11.94-1.67,1.41l.07.08-.12.1s-.04-.07-.05-.1c-.17.15-.35.29-.52.44,0,.05,0,.11-.01.14-.02-.03-.04-.05-.06-.07-.05.04-.1.09-.15.13.01.03.04.06.05.08-.04-.02-.07-.03-.1-.04-.14.12-.29.24-.43.36.11.25.06.61.37.49.03.3-.41.24-.79-.14-.2.17-.41.34-.61.51.09.07.17.15.23.25-.07.07-.2-.05-.32-.17-.11.09-.21.18-.32.27,0,.03,0,.05.02.08.26.15.16-.39.63.16-.38-.1.09.35.25.47.09.12,0,.09-.04.03-.05.01,0,.07.04.14-.24-.13-.33-.68-.63-.5.37.56.69,1.34,1.13,1.45-.06.02-.06.08,0,.17-.13.1-.64-.58-.71-.77-.6-.46-.27.57-.96-.06.25.23.16.46.42.85.09-.01.4.05.58-.14l-.17-.2c.18.01.26.44.58.71-.63-.73-.24.34-.71-.26-.24.08-.08.37.04.65.43.28.13-.25.38-.14.3.43.45.51.54.74.13.14.16-.07.29.1.04-.06-.12-.21-.21-.34.15-.04.36.15.5.1-.35-.69.45-.08.17-.82.86.51.05-.78.8.02-.09-.62.39-.41.72-.59.03-.2-.29-.22-.3-.44.15-.01.39.24.55.23.38.99-.38.57-.55,1.13.67.61.61-1.18,1.48-.54.13.1.06.47.34.4.25.39-.39.33.04.82-.59-.22-.33.24-.72.26-.04.04.07.15.13.24.2-.09.42-.13.76-.12.1.27.15.38.46.64-.48-.2-.36-.03-.55.29l-.42-.5c0,.34-.02.71-.43.7.51.59.5-.12.55-.29.08.08.06.11.04.14-.04.19.29.14.42.33-.19-.48.18-.31.47-.39.1.14.06.22.17.37.08-.17-.11-1.02.47-.56-.04-.27.28-.36.17-.65.3.21.51-.08.64-.36.1.14.06.22.17.37-.15-.84.47-.65.67-1.27-.07.12.33.57.17.2.27.03.12.32.39.53-.21.09-.49-.08-.72-.07-.05.19.27.2.43.5-.27.21-.49.21-.25.73-.41-.24-.27.21-.64.02-.04.06.12.21.21.33-.5-.26-.24.31-.56.46l-.25-.3c-.05.06-.11.12-.21,0,.35.42-.13.77-.27,1.24l-.25-.3c-.35.23.27.79-.1,1.1.26.21.24.33.38.37-.02.17-.24.48-.47.22.02.15.23.39.2.51-.49-.4-.66-.82-.96-1.25-.23.06.41.56.12.58.2.24.32.24.54.57-.34,0-.14.22-.05.55-.38-.27-.12.18-.3.08.05,0-.23-.29-.59-.36-.06.19.2-.03.38.37-.04.13-.39,0-.13.11.21.3-.13.12-.25-.13.09.4.37.89.36,1.24.32-.17.77-.19.79-.82.31.24.26.42.5.44.18-.07-.09-.36-.16-.55.2-.05.32.3.29.44.28.22.35.03.39-.15-.73-.64-.1-.66-.07-.79.35.13.18.48,0,.52.4.31.37.67.7,1.12-.23-.09-.53.16-.35.46-.2,0-.41-.04-.6-.02-.03.09.14.18.21.17.2.53-.39-.12-.51-.09-.08.17.22.18.33.41-.19.04-.14,0-.22.18-.32-.38-.81-1.04-.41-.86-.12-.17-.18-.14-.29-.27-.06.33.12.85.52,1.27-.1.21-.43-.37-.59-.36.05.12.5.6.19.69-.06-.18-.11-.17-.25-.31.02.15.13.34.2.52-.34.1-.53.35-.74.61-.09-.06-.18-.13-.29-.27-.2.03.14.35-.06.38-.4-.34-.67-.3-.85-.34-.06-.17-.26-.41-.32-.58.59.26.15-1.1.92-.57-.1-.72.19-1.01.66-.89.08-.06.05-.17-.04-.31-.29-.31-.35.15-.71-.43.04-.03.13.1.21.17.1-.08-.02-.28.18-.32-1.09-.23-.79.39-1.29.73-.3-.41.15-.43.06-.73-.28-.07-.31-.41-.58-.54-.18-.25-.05-.34-.16-.55.16,0,.55.6.33.58.21.21.36-.07.46.3.36.01.02-.37.39-.32-.33-.76-1.13-1.61-1.5-1.31.14.98-1.27.36-1.01,1.67-.82-.45-.62.32-1.04.3.23.34.35.26.46.14.26.53-.33-.05-.15.44-.45-.62-.85-1.24-1.23-1.2-.04.03.07.15.12.24-.24-.23-.31.15-.59-.21.27-.14.14-.57.64-.17-.04-.16-.15-.35.06-.37-.64-.42-.72.29-1.15.23.04.15.34.53-.06.55.24.29.33.03.58.38-.18.16-.07.14-.39.13.02.15.15.16.16.38-.43-.3-1.14-.77-1.18-.25.1.05.32.07.55.07,0,.19-.03.37-.06.55-.19-.26-.38-.51-.49-.45-.07.21.13.21.36.55-.23-.11-.7-.52-.47.03-.23-.22-.35,0-.58-.21-.05.19.31.13.32.42-.53-.44-.71-.65-1.03-.53-.04.07.18.36.24.31-.32-.07-.35.54-.54.75-.14-.16-.1-.21-.19-.35-.04.06-.1.04-.17-.04-.03.06.06.12.08.1-.32.51-.58,1.23-1.33,1.36-.09.03.02.27-.13.1-.03.19.43.4.18.52-.23-.15-.1-.14-.31-.42-.21-.06.04.44-.22.16-.26-.33.31-.16.12-.58-.12-.19-.18-.17-.24-.14-.25-.39.13-.36.27-.37.14.2-.1.18-.02.34.24.07.49.19.51-.06-.11-.09-.18-.03-.32-.25-.1-.41.26-.03.42,0,.05-.19-.32-.33-.44-.49-.02.11-.32.05-.14.27-.36-.35.36-.54.49-.54.2.27-.04.29.02.48.3.28.04-.39.38.04,0-.16-.29-.48-.39-.7.28-.34.68-.9.89-1.19.2.37.18.24.48.62.08-.09-.11-.34-.31-.59.34.19-.1-.35.1-.41.21.24.09.29.36.55.13-.15-.1-.36-.31-.59.73-.51,1.48-1.52,2.32-2.46l.24.31c-.23-.34.02-.41-.02-.65-.28-.27,0,.22-.22.17-.09-.17-.13-.3-.11-.41-.15-.17-.26-.18-.34-.07-.49-.52-.17-.95.19-.64.16.22-.24-.06.03.31.18.21,0-.24.25-.03.08.18-.02.26-.05.37.22.17.39.15.62.35-.41-.66.52-.25.07-.88.32.12.2.27.42.17-.3-.79.44-.67.6-1.17.21.71.35.01.42-.18.06.09.04.14.12.24-.07-.26.13,0,.21-.17-.48-.44.23-.27-.16-.55-.19-.37.29.06.42.17.04-.06-.12-.21-.21-.34.34.28.17-.05.38-.14.07.19.16.29.29.27.25-.21-.49-.59-.41-.85-.18-.2-.21.13-.38-.03-.02.09.02.2.17.37-.67-.32-.6.06-.8.49-.18-.15-.37-.19-.45-.47-.16-.06-.15.1-.29.24.05-.46.17-1.2.84-.69-.02-.16-.31-.47-.41-.68-.19.03.15.35-.04.38-.06-.58-.67-.71-1.04-1.36l-.08.07c.05.21.4.4.41.68l.08-.07c-.18.19-.53.54-.83.69-.16-.09-.36-.33-.41-.51l-.12.1c.23.36.32.26.49.44.17.26-.29-.17-.37-.2-.07.15-.1.33-.17.48-.4-.71-.34-.04-.66-.14-.05-.09-.06-.14-.05-.18-.08.07-.16.13-.23.2.04.04.07.07.11.12-.07.11-.03.29-.22.33-.08-.13-.08-.21-.08-.3-.16.13-.32.27-.48.4.17,0,.49.61.55.57.08.08.06.11.04.14-.05.08-.15-.04-.21,0-.1-.27-.14-.38-.44-.65-2.51,2.1-5,4.18-7.43,6.19.03.02.14.14.4.44l-.22.16c-.04-.26-.19-.54-.19-.59-12.54,10.43-23.21,19.16-24.28,20.04-.03.03-.05.05-.08.08,8.25-2.39,24.8-3.72,24.8-3.72l1,.31c-.09-.05-.19-.12-.3-.26-.06-.35.54-.02.21-.61.15.19.78.66.56.73.26.22.36-.18.43-.29.33.62-.19.43-.45.46-.09-.12-.12-.2-.1-.25-.15-.13-.28-.15-.38-.06.21.46.23-.12.44.34-.05,0-.11.02-.16.01l1.09.34s0,0-.01-.02c.02.02.04.02.07.03l.17.05c.12,0,.24-.06.34-.16.06.1.06.19.03.27l8.33,2.56c2.19-5.11,4.59-10.64,6.82-15.76,0,0,0,0-.01,0Zm-6.18-13.09c-.11-.21-.21-.41-.04-.47.35.35.26.59.04.47Zm.87-1.91c.43.63-.54.13,0,0h0Zm-.24,2.41c-.08-.1-.12-.04-.17-.03-.07-.19-.03-.36.12-.27.1.17.15.3.25.47-.08,0-.25-.09-.21-.17Zm.59,1.22c.02-.23-.72-.46-.54-.74.1.11.14.19.13.24.14.13.27.19.38.2.06.09.04.13.12.24l-.08.07Zm.29-.41c-.23-.09-.11-.47.04-.54.23.31-.18.28-.04.54Zm-.21-1.19c-.17-.28.28,0,.29-.24.19.36-.08.31-.29.24Zm2.62-2.2c.26.55-.18.13.14.75-.23-.42-.24-.22-.55-.56,0-.24.14-.35.41-.19Zm-.37.32c.21.22.32.39.39.53-.09.16-.34-.17-.46-.12-.17-.31-.13-.42.07-.41Zm-1.63-.33c-.01-.21.09-.36.08-.57.34.37.1.64-.08.57Zm.42.5c-.1-.14-.06-.22-.17-.37.12.1.38.36.55.23.05-.01,0-.07-.04-.13.15.01.2.43.3.6.21.27.23-.06.47.3-.19.02.01.23-.12.27-.43-.37-.65-.78-.98-.89Zm2.84,4.8c.06-.39-.25-.28-.09.07-.61.28-.25-.55-.12-.75.11.01.33.38.42.33.04.12-.06.2-.21.35Zm.75-2.87c-.05.2.08.46-.25.39-.36-.44.3-.05-.09-.44.17-.03.48-.1.63.32-.06.03-.19-.15-.3-.26Zm.09.44c.25.11.42-.02.72.24-.18.12-.39.1-.72-.24Zm1.03,1.37c-.5-.38-.42-.46-.85-1,.22-.19.68.35.97.37.15.35-.34.07-.12.63Zm1.7.6c.29.35.34-.05.6.17.02-.1-.13-.11-.26-.3.12-.13.36.13.6.35-.37,0-.34.27-.42.54-.21-.2-.04-.21-.17-.37-.58-.3-.2.63-.63.73-.35-.78.1-.84.29-1.12Zm-.8.87c.25.33.42.31.51.6-.07.27-.44-.35-.59-.35-.1-.15.03-.17.08-.25Zm-.51.44c.11-.07.38.41.55.56-.09.27-.23.22-.3.42l-.25-.3c.12.34.03.41-.05.55.11.08.19.02.34.23-.14.32-.64-.44-.72-.42-.09-.12,0-.09.04-.04.18-.12-.05-.1-.21-.34.38.12.3-.55.6-.67Zm-.61,1.53c.19.32-.29.16-.3-.09l-.09.07c-.18-.33.28-.02.38.02Zm-.96,1.3c-.53-.94.5-.43.19-1.18.09-.16.43.48.51.26-.05.66-.5.36-.7.92Zm.8.7c.24.28.14.38.03.48-.37-.36-.18-.56-.03-.48Zm-.12,3.5c.26.39-.04.49-.19.67-.1-.31.04-.49.19-.67Zm-2.68-1.86c-.09.16.08.63-.22.35-.05-.26.05-.34.22-.35Zm-5.16-6.28c.29.29-.04.24.33.58-.2.24-.34-.12-.58.14-.43-.66.47-.18.26-.72Zm-.12-1.09c.12.21-.07.08-.13.1-.03.1.22.35,0,.34-.31-.28-.24-.25-.37-.54.22.21.32.03.5.1Zm-3.86,1.41c.21.06.25.42.37.38-.04.14-.16.55-.5.06-.03.1.22.35,0,.34-.33-.47.17-.48.15-.77Zm-.72,4.2c.15.01-.06.49-.22.34-.26-.43.11-.21.22-.34Zm8.32,2.01l.25.31c-.25-.12.04.41-.31.42-.09-.13.01-.15.05-.21-.06-.09-.09-.08-.13-.07.03-.08,0-.28.14-.45Zm.73,2.09s-.07,0-.13-.07c-.1-.15-.28.16.07.45-.07.01-.19-.18-.25-.14-.08.17.22.19.33.41-.08.22-.4-.41-.54-.41,0,.34-.23-.06-.39.14-.03-.33.32-.98.92-.38Zm-.18,3.62c-.41-.42-.03-.41-.05-.62.31.37.08.44.05.62Zm-.99-3.38c.55.27.32.91.73.93.14.27-.25.26-.32.42-.13-.36.07-.17.11-.41-.27-.22-.25.12-.39-.03-.31-.43.12-.09.06-.38-.12-.11-.22-.17-.3-.1-.06-.19,0-.31.11-.41Zm-.16,2.45c-.1-.38-.39-.55-.56-.9-.16-.12-.29-.13-.38-.03-.05-.4.48-.2.79-.28.06.15.16.32.36.55-.61-.2.27.82-.21.66Zm-.94.73c.14.16-.13.44-.3.07.3.6-.26.36-.34.76-.38-.37-.15-.41-.39-.69.16.09.27,0,.1-.24.1,0,.08.15.24.31.18-.02-.08-.28-.11-.42.07-.01.19.18.25.14-.22-.22.32-.72.57-.28.24-.08-.18-.54.12-.59.25.42-.1.23.39.69-.21.24-.51.11-.78.11-.1.08.23.27.25.14Zm-.21-3.49c0-.4.37.27.55.24.18.25-.15.21-.22.17-.08-.1,0-.12,0-.17-.11-.08-.19-.03-.33-.24Zm.07.28c.08.16.05.27-.02.34-.09-.13-.15-.18-.21-.17-.18-.25.15-.21.22-.17Zm.63,2.83c-.28-.37.32.11.05-.21.08-.03.26.3.33.24.29.18-.27.04-.39-.03Zm.61-1.8c-.05.1-.15-.01-.25-.14-.05.01-.01.07.04.14-.12.14-.12-.39-.29-.27-.17-.38.31-.05.5.27Zm-.37-2.2c.14.16.1.21.2.34-.41-.13-.09.34-.36.45-.21-.25-.18-.37-.32-.58.31,0,.31-.07.48-.21Zm-.09,1.06c-.2.1-.23-.4-.38-.21-.27-.31-.17-.4-.02-.48.04.18.36.51.4.69Zm-.58-1.37c.21.26.07.15,0,.17-.04.04.07.15.12.24-.08.09-.21.03-.38-.21-.08-.3.17-.05.27-.21Zm-.47.03c.16.2-.02.22.24.48-.09.12-.41-.61-.46-.31-.18-.25.15-.21.22-.17Zm.14.72c-.17.11-.55-.59-.71-.45-.26-.43.38-.09.71.45Zm-.44.34l-.18.14c-.28-.29-.03-.29-.31-.58.13.04.32.28.49.45Zm-.81,4.77c-.26-.28-.28-.76.19-.31-.07-.2.05-.29-.01-.49.1-.01.29.3.34.07.21.27.46.68.53.42.12.15.06.48.24.31.05.26-.07.34-.24.35-.09-.13.01-.15.06-.21-.76-.64-.57.28-.73.73-.24-.26-.06-.27-.1-.42-.2-.13-.5.2-.12.59-.12.07-.29-.09-.1.24-.56-.43-1.07-.56-1.12.03-.15-.35.09-.47.09-.73.13.18.24.25.33.24-.09-.51.41-.84.65-.83Zm-.26,2.02c.29-.03.27-.18.49-.21.35.73-.35.28-.51.56-.39-.23.44,0,.02-.35Zm-1.48-3c.32.46-.3.39-.38.62-.4-.68.45-.07.38-.62Zm.26-2.35c.34.38-.21.08-.23.34-.26-.43.12-.21.23-.34Zm-.13,3.08c.21.23.44.43.31.59-.13-.21-.54-.58-.31-.59Zm.58,1.71c.07.08.06.11.03.14-.14.06-.04.26.18.52-.38-.08-.39.04-.58.27-.17-.27-.25-.17-.44-.49.55.13.53-.08.81-.44Zm.06-2.37c.1.33.11.27.43.66-.57-.64-.42.3-1-.39.33.07.41-.05.57-.28Zm-.54-4.39c.04.1.08.2.2.35-.17.09-.3.36-.52.24-.34-.37.12-.29-.22-.66.34.21.32.07.55.07Zm-.46.69c-.02.23.21.59-.03.69-.24-.44-.27-.11-.49-.45.29-.01-.32-.54-.1-.59.33.58.42.26.62.35Zm-.45-1.31c.12.41-.18.28-.32.58l-.4-.52c.23-.06.47-.08.72-.06Zm-1.51,2.33c.15-.15.08.07.28.28-.02-.11-.08-.24-.15-.38.42.64.35-.13.83.36.02-.05-.03-.14,0-.17-.37-.27.02-.45-.47-.8.37.11.5.47.97.91-.2.09-.82.12-.58.62.36.53.89.02.53-.41.31.01.35.29.6.7-.23-.19-.76.27-.51.72-.4-.35-.72-.9-.83-1.19-.32.41-.92.75-1.42,1.08-.1.07-.05.59-.47.02.27-.87,1.43-.45,1.21-1.73Zm-.51,5.42c0,.26-.12.43-.34.4-.18-.44.19-.18.34-.4Zm-.71-3.53c.17.39-.18.47-.5.36-.19-.44.31-.2.5-.36Zm-1.59-2.89c.15.36.45.93.68.64.01.12-.09,1.04-.63.45.53-.04-.78-1.35-.05-1.09Zm-.79,6.07c-.2,0-.22-.36-.38-.53.02-.05.07.01.12.07,0-.08.01-.15-.06-.28.19,0,.2.51.37.22.15.21-.03.23.22.49-.01.22-.44-.32-.26.02Zm.52.43l.15.21c0,.08,0,.16-.06.2l-.31-.43-.09.07c-.19-.4.27.14.3-.06Zm-.06-5.29c.37.13.16.72-.18.13,0-.22.37.15.18-.13Zm0,4.05c.04.1.08.21.18.35-.09-.05-.24-.08-.14.1-.02.05-.07-.01-.12-.07l-.15-.21c.19-.04,0-.3.23-.16Zm-.63-.68c.07.16.05.27-.03.34-.07-.08-.05-.11-.03-.14-.12-.15-.16.06-.29-.12-.32-.35.14-.24-.13-.56.09-.14.38.6.47.47Zm-1.15-2.73c.17.37-.26.05-.31.23-.26-.43.16-.27.31-.23Zm-.86-1c-.18-.09-.35-.16-.56-.4.27-.09.27-.35.45-.49.08.18.14.31.22.49-.2-.03-.26.08-.11.4Zm-.3-3.18c.24.26.07.28.22.49-.15.09-.26.35-.54-.09.21-.07.08-.34.32-.39Zm-.37.59c.15.25-.19.2-.23.33-.19-.38.14-.27.23-.33Zm-.36.42c.08.21-.1.25-.11.4-.43-.43-.03-.49.11-.4Zm-.02,2.76l.23.32c-.18-.01-.29.25-.54-.1.24.15.25-.1.31-.22Zm1.12.81c.42.8-.27.56-.21,1.12-.72-.72-.76,1.05-1.56.48.79-.6,1.4-.95,1.77-1.6Zm-.35,4.29c-.32-.14-.14-.49-.08-.59.09.08.17.16.24.15.28.6-.46-.08-.17.44Zm-1.7-8.8c.06.29.48.48.25.63-.19-.12-.33-.5-.25-.63Zm.42,9.88c-.2-.01-.45-.3-.71-.63.16-.18.47.42.71.63Zm-.76-1.39c.21.27.18.4.04.45-.21-.27-.18-.39-.04-.45Zm-.49,3.02c.3.52-.12.41-.23.47-.08-.15-.03-.22-.13-.39.09-.17.26.1.35-.08Zm-.29-3.75c.12.26-.06.51-.35.08.1-.09.21-.16.35-.08Zm-.46,3.15c.41.29-.19.27-.32.22-.26-.57.41.03.32-.22Zm-.45-2.23c-.44-.74.31-.5.45-.62-.02.4-.38.35-.45.62Zm.81-3.76c.05.4-.51,0-.71.03-.11-.62.41-.04.71-.03Zm-.77,1.68c.11.29-.29.25-.38.41-.08-.39.23-.44.38-.41Zm-.39-1.33c.09.08.17.16.24.15.04.26-.07.34-.24.33-.02-.17-.11-.39,0-.48Zm.16,3.22c-.03.43-.33.59-.66.6.16-.41.39-.55.66-.6Zm-1.07-1.65c-.22.14-.3-.25-.54-.59.21.03.38.23.54.59Zm-.58-.56c.31.36-.14.23.11.55-.94.04-.41-.1-.11-.55Zm-.61.56c.31.36-.08.27-.13.4-.18-.4-.08-.34.13-.4Zm-.21,2.03l.22.33-.27.18c-.1-.5-.28.15-.55-.42.15-.42.58.27.6-.09Zm0,1.1c.52-.31,1.08-.78,1.75-.86.16.37-.48.44-.73.8-.18.26-.07.29-.34.39-.05.02-.13.5.17.36-.1.43-.86.18-.8.69-.18-.38-.21-.28-.32-.58l-.18.12c-.04.05.09.23.17.36-.52-.58-.68,0-1.01-.12.24-.5.7-.82,1.28-1.17Zm.86,2.58c-.11.24-.32-.03-.5-.14-.16.12.34.3.17.36-.11.13-.33-.29-.5-.45.34-.18.23-.99.93-.62.04-.09-.11-.13-.22-.33.05-.13.48.37.33.09.14-.05.06.23.29.44l.09-.06c0-.15-.14-.17-.13-.39.41.31.4.91-.1.85-.03-.1-.07-.21-.17-.36-.19-.16-.3.08-.47,0-.03.22,0,.32.27.61Zm-2.29-3.04c.29-.08.25-.25.53-.2.05.17-.29.6-.53.2Zm.28-3.5c.2.27.3.48.16.53-.21-.13-.28-.44-.16-.53Zm-.4,1.06l.23-.15c.07.37.02.62-.23.63-.24-.44.31-.08,0-.48Zm.09,3.1c.33.48.03.39-.16.26-.13-.14,0-.39-.17-.36-.07-.13.04-.14-.05-.28.25.03.14.67.38.38Zm-.81-.72c.13.17-.16.37-.27.18-.33-.5.19-.18.27-.18Zm.69,1.75c.13.29.26.59.37.86-.19.15-.17-.27-.41-.52-.5.63-.97.92-1.52,1.01.13-.82,1.09-.78,1.56-1.36Zm-4.08,2.64c.29.3-.09.53-.24.14l.24-.14Zm-3.47-1.1c-.05-.28.05-.29.21-.28.3.38-.12.35-.21.28Zm3.05,3.36c.14-.14.54.47.58.72-.17-.08-.4-.56-.58-.72Zm.76-1.09l.56.89c-.12.26-.66-.76-.56-.89Zm.81,1.81c-.2-.38.08-.27.22-.29.21.42-.11.08-.22.29Zm1.02-4.19c.31.52-.12.24-.16.26-.5.3-.42.08.16-.26Zm-.2,1.53l.19-.12c.31.4.04.56-.19.12Zm.5-.15c.15-.04.59.44.35.55-.25-.32-.17-.19-.35-.55Zm.82,2.11l-.42-.66c.08-.02.65.61.42.66Zm.07-1.76c-.21-.02-.4.1-.7-.48.19-.1.33-.23.27-.5.19.11.41.38.59.4.28-.06.09-.8.56-.37.04-.09-.11-.13-.21-.33.59.17.49-.64,1.09-.57.04.35-.22.4.09,1.05-.41.57-1.32-.18-1.14.92-.1-.48-.37-.14-.59-.4-.03.06.11.24.05.28Zm1.16,1.91c-.2.09-.14.5-.52.34-.33-.42.01-.55.19-.44.11-.09-.14-.43-.33-.72.38-.06.35.67.78.9-.03.05-.07-.01-.12-.08Zm.09-.06c-.47-.68.05-.3.04-.66.2.23.36.3.54.43-.04.15-.32.08-.59.23Zm.84-2.92c-.21-.53-.38-.66-.46-1.11.23.08.44.29.47,0,.25.36-.14.16-.06.51.2.13.34-.03.54.11.07.45-.51.15-.48.48Zm.07,2.16c-.19-1.03.57-.27.98-.97.18.71-.69.72-.98.97Zm1.39-1.56c.12.22.43.21.28-.19.1.12.32.34.14-.09.42.27.4-.23.75-.19-.17.82-.94.79-1.4,1.25-.47-.68.52-.14.22-.78Zm.93.8c-.23-.4.16-.36.3-.36.24.47-.2.11-.3.36Zm1.98-2.46s-.05,0-.07.01c.04.17.05.32.21.56-.41.09-1.29.32-1.34.74-.28-.14-.32-.06-.53-.28.26.19.14-.53.52-.03.2-.45.68-.92,1.13-.99,0-.02-.01-.05-.02-.07.03.03.06.04.08.06.03,0,.06-.02.08-.02,0-.14.04-.26-.16-.53.23.27.39.18.63.53,0,.13-.31.21-.56.02Zm.53-.16c-.29-.37-.09-.42.06-.51.28.49-.03.26-.06.51Zm.37,1.33c-.02-.26.12-.42.32-.53.1.26.02.42.14.7-.13.08-.34-.27-.46-.17Zm.7-.47c-.17-.51.4-.46.63-.58.13.17.08.22.18.35-.32.08-.51.06-.81.22Zm.97-2.26c.12.85-1.26,0-1.09,1.08-.33-.25-.41-.03-.42.28-.43-.23-.05-.64-.31-.74-.21-.3.3.17-.06-.28.85.43.98-.8,1.62-.32-.18-.82.4-.64.76-.87.28-.18.04-1.12.71-.35-.19-.43-.05-.34.02-.66-.14-.24-.21-.16-.29-.12.02-.21-.15-.54.01-.66-.42-.33-.31.58-.45.81.05-.19-.28-.67-.39-.36-.1-.15-.21-.31-.27-.29-.12-.33.14-.44.22-.65.12.2.1.3-.03.34.43.38-.07-.64.36-.26.05-.19-.31-.14-.3-.43.75.35.89.1,1.31-.46.3.49.49.48.69.47.28.31.17.38.29.6-.83-.78-.39.27-1.03-.39-.12.11-.05.33-.16.44.08.09.4.14.26-.02.21.1.19.52-.07.38.26.36.11-.1.44.33.11-.05.08-.19-.09-.42.41.29.46.88.46,1.12-.07.17-.24-.15-.33-.08.15.38-.67,1.12-1.12.65-.12.16.15.7-.27.2-.07.1.11.35.17.53-.2.03-.41.04-.61.11Zm.51,5.22c-.1-.16-.2-.31-.27-.29-.18-.46.12-.3.14-.41.26.12.23.42,0,.31.11.09.19.04.32.26.13-.06.03-.27.09-.37-.34-.08-.37-.56-.3-.74-.02.25.39.39.32.57.34.29.54.1.58-.07.42.51-.43.81-.88.74Zm.99-3.87c-.22-.34-.52-.73-.39-.85.25.35.55.75.39.85Zm.86,2.61c-.2-.44.52-.7.76-.71-.08.28-.66.59-.76.71Zm.86-4.5c-.29-.1-.11.43-.47.02-.13.18-.02.52.26.95-.28-.05-.16.21-.44.16-.47-.83-.5.25-.98-.11-.04-.1-.07-.21-.18-.35.21-.35.45-.22.52-.53.01-.16.46.59.24.15.3.06.03.25.14.39.31.21.19-.35-.12-.56.39-.09.57-1.01,1.21-.54-.18-.1-.52.04-.17.44Zm.79-1.22c.12.48-.4.41-.61.6-.1-.32.41-.47.61-.6Zm-.52,4.74c-.14-.57.27-.49.54-.71.12.6-.46.29-.54.71Zm1.64.43c.09-.18.3.23.39.05.13.22-.19.43-.39-.05Zm-.03-1.43c-.09,0-.21-.14-.29-.11-.07-.15-.1-.26-.01-.31-.23-.18-.06.16-.31.06-.04.08.15.29.26.46-.19.08-.49-.03-.59.26-.07-.11,0-.12.02-.17-.19-.39-.21.03-.4-.36.4-.26,1.12-.38.76-1.19.1-.1.21-.18.35-.09.19.37.17.24.46.64.17-.02.14-.16-.09-.42.03-.05.07,0,.12.07l.09-.07c.44.86-.45.69-.37,1.24Zm.3-1.83c-.04-.45.3-.57.63-.78.14.6-.38.69-.63.78Zm.92-3.25c.08.18.05.31-.07.38-.3-.34-.12-.49.07-.38Zm-.04,2.13c-.15-.38.35.19.18-.13.14-.06.07.23.31.42-.1.18-.3-.06-.5-.29Zm.54-4.95l.32.42c-.08.18-.24.02-.35.1-.17-.27,0-.36.03-.52Zm-.03,7.98c.01-.5.55-.39.48-.99.05.2.23.46.33.25.23.39-.65.65-.81.74Zm.76-1.68c-.24-.14-.19.09-.28.2-.39-.54.12-.7.32-.72.22.45-.59-.06-.05.52Zm1.21-.39c-.24-.31-.9-1.1-1.37-.79-.34-.63.09-.63.05-1.17.39.03.15.14.73.6-.07.04-.14.08-.06.2-.07.01-.19-.19-.25-.14-.03.06.12.23.06.28.31.05.38.51.62.36.11.15.21.3.28.28.32.45-.26,0-.08.38Zm-.11-.73c0-.22.38.14.19-.13.3.08.13.71-.19.13Zm.39,1.01c-.13-.27.25-.45.43-.47.23.48-.36.45-.43.47Zm.32-1.2c.33.22-.04.17-.12.41-.16-.24-.05-.31.07-.38-.18-.16-.38-.2-.44-.49.16.08.46.47.22,0,.49.44.52-.42.94.1-.2.03-.08.24-.19.31-.12-.06-.3-.38-.37-.21-.06.14.18.12.19.35-.09,0-.21-.13-.29-.11Zm.41.84c-.08-.34-.1-.41.16-.45.33.37-.11.3-.16.45Zm1.05-.8c-.6-.61-.11.25-.41.32-.27-.65-.04-1.26.6-.63-.2.03-.09.24-.19.32Zm.33-.42c-.13-.31.02-.31.19-.31.22.29-.03.41-.19.31Zm.32-.25c-.2-.76.48-.49.41-.98.29.66-.04.8-.41.98Zm-.06-1.12c-.08.1-.21.03-.37-.21,0,.6-.58.67-.93,1.05.16-.6.79-1.75,1.73-1.5.07-.2-.1-.53-.33-.9.72.79.5-.31,1.14-.39.23.49-.44.17-.16.63.29.35-.03-.39.26-.04,0,1.07-1.2.58-1.33,1.36Zm1.18-3.23l-.16-.21c0-.08-.01-.16.05-.21.11.15.22.3.29.27.21.33-.17-.02-.18.14Zm.4,2.84c-.3-.72.49-1.16-.15-1.87.07-.28.53.42.99.89-.17.44-.75.69-.84.98Zm.55-2.09c0-.18.06-.64.4-.14-.27-.01-.16.14-.4.14Zm1.34-.7c-.14.01-.22-.09-.29-.27.03.64-.32.57-.69.7.1-.36.28-.7.65-.83-.09-.13-.15-.17-.21-.17-.05-.13.4-.12.64.17-.12.09-.31.15-.11.42Zm1-.95c-.34-.49,0,.26-.33-.23.1-.17.3.06.39-.15.21.02-.07.27-.06.39Z"/>
      <path class="cls-7" d="m198.92,243.08c-.11,0-.23-.06-.34-.06.28.44.6.42.34.06Z"/>
      <path class="cls-7" d="m200.21,244.56c-.12-.14-.16-.24-.21-.34-.08.02-.2-.08-.25.04.18.18.37.42.46.3Z"/>
      <path class="cls-7" d="m199.98,242.37c-.3-.23-.56-.33-.8-.36.46.34.42.64.12.58.26.44.21-.14.46.3.16-.02-.25-.62.04-.38-.02.08.02.2.17.37.18-.08-.3-.5,0-.51Z"/>
      <path class="cls-7" d="m201.46,241.32c-.33-.06-.01.34-.34.28.27.39.57-.04.34-.28Z"/>
      <path class="cls-7" d="m201.1,250.8c.48.58.34-.1.1-.42-.28,0,.18.41-.1.42Z"/>
      <path class="cls-7" d="m202.18,240.38c-.17-.07-.39-.33-.55-.39.02.33-.41.12-.38.31.11-.02.1.14.25.3l.3-.24c.22.13.25.37.51.43-.21-.22.03-.21-.13-.4Z"/>
      <path class="cls-7" d="m203.54,248.61c-.14.04-.76.09-.44.53.12.11.11-.39.51.26.03-.25.49.1.31-.25-.16-.07-.27.07-.51-.26.04-.04-.02-.12,0-.17.25.39.29.06.13-.11Z"/>
      <path class="cls-7" d="m204.92,250.02s0,.04.01.07c0-.01.01-.03.02-.04,0,0-.02-.01-.03-.02Z"/>
      <path class="cls-7" d="m191.25,236.14c.18.26.25.16.45.48.23-.13-.35-.65-.45-.48Z"/>
      <path class="cls-7" d="m193.34,248.68c.13-.03.43.05.18-.31-.03.12-.35.07-.18.31Z"/>
      <path class="cls-7" d="m198.1,245.29c0-.14.01-.26-.2-.51-.08.02-.2-.08-.25.04.19.3.25.14.41.34-.05.03-.07.14.04.14Z"/>
      <path class="cls-7" d="m199.04,243.66c.26.34.84.37.59-.15-.06.04-.05.12-.04.21-.22-.15-.44-.3-.55-.06Z"/>
      <path class="cls-7" d="m199.92,243.95c.4.31.14.25.33.58.08-.02.2.08.25-.04-.21-.22-.31-.4-.37-.54-.05.05-.13.03-.21,0Z"/>
      <path class="cls-7" d="m201.76,250.09c.19.14,1.07.99.67.29-.11.32-.58-.66-.67-.29Z"/>
      <path class="cls-7" d="m200.6,243.9c.17.09.4-.04.17-.31-.03.12-.35.08-.17.31Z"/>
      <path class="cls-7" d="m194.76,235.99s-.01,0-.02-.01c0,0,0,.01,0,.02,0,0,0,0,0,0Z"/>
      <path class="cls-7" d="m194.45,233.66c-.06.14-.08.08.13.4-.27-.29-.32.07-.58-.2.45.54.66.34.91.27-.28-.2-.25-.39-.46-.47Z"/>
      <path class="cls-7" d="m195.17,240.9c.33.25.1-.28.33-.28l-.25-.3c-.19.19-.25.32-.08.58Z"/>
      <path class="cls-7" d="m195.48,233.49c-.08-.02-.18-.12-.28-.21-.08,0-.17.02-.25.02.02.16-.11.25,0,.46-.17-.11-.26-.21-.34-.4-.15.16.3.64.47.97.13-.09.38.21.54.23-.39-.54.05-.64-.15-1.07Zm-.32.6c-.08-.26.13-.37-.14-.74.39.04.37.86.14.74Z"/>
      <path class="cls-7" d="m208.08,235.37c.29.14.2-.19.19-.36-.14-.14-.31-.37-.39-.35l.27.29c.04.26-.33.02-.06.42Z"/>
      <path class="cls-7" d="m193.18,236.76c-.42-.49-.36-.27-.13-.41-.26-.28-.84-.72-.7-.27.05-.04.28.24.25.3-.32-.29-.27.05-.28.24.28.27.34.31.37.54.08,0,.19.06.33.24.26-.13-.23-.75.16-.64Z"/>
      <path class="cls-7" d="m194.03,236.73s.08-.08.12-.12c-.08,0-.13.03-.12.12Z"/>
      <path class="cls-7" d="m195.35,235.31l-.2.17s.03.04.05.07c.06-.06.13-.13.19-.2-.01-.01-.02-.02-.04-.04Z"/>
      <path class="cls-7" d="m192.03,236.01c-.08,0,.1.41.21.34-.15-.27-.3-.54-.34-.74-.06.26-.52-.02-.24.37.17.16.19-.17.37.04Z"/>
      <path class="cls-7" d="m193.27,237.2c.1.06.15-.02.25.06.07-.07.13-.13.2-.2-.02-.07-.06-.15-.16-.26-.03.19-.33.1-.29.4Z"/>
      <path class="cls-7" d="m193.85,236.91c-.19-.26-.38-.49-.59-.56.12.23.34.44.5.65.03-.03.06-.06.09-.09Z"/>
      <path class="cls-7" d="m193.52,234.43c-.21.17.28.37.26.64-.23-.27-.1-.26-.34-.4-.26.2.57.69.63,1.01.17-.06-.17-.39.08-.4-.35-.35-.35-.52-.63-.84Z"/>
      <path class="cls-7" d="m203.25,233.73c.06-.01.12-.03.18-.03-.1-.04-.15-.01-.18.03Z"/>
      <path class="cls-7" d="m203.27,236.64c-.04.06-.44-.2-.25.05.18-.04.15.25.35.4.21-.03,0-.27-.1-.44Z"/>
      <path class="cls-7" d="m195.8,240.38c.1.03.27-.28.08-.58-.24.08-.16.33-.08.58Z"/>
      <path class="cls-7" d="m203.69,236.45c.02-.06-.15-.22-.09-.27.04-.1.14,0,.25.12-.06-.31-.46-.31-.69-.62.16-.11.56-.06.32-.46.11-.08.4.33.51.25-.23-.28-.3-1.07.27-.76.2-.18-.47-.66-.62-.86.08.33-.37.08-.11.45.13.12.17,0,.25-.04.35.68-.56.33-.39.87-.24-.29-.59-.62-.65-.82,0-.24.44.09.24-.21.15-.06.28.31.09.27.44.16.08-.46.18-.63-.16.03-.31.08-.46.16-.16.13-.32.27-.48.4-.02.03-.06.06-.08.1,0,0-.02-.01-.03-.02-.21.17-.41.35-.62.52.08.06.11.18.04.2.19.14.33.15.6.52.26-.06-.09-.41.02-.55.34.48.43.24.64.31.17-.03-.44-.44-.27-.47.09-.14.37.25.56.38.04.24-.21.12-.2.35.27.23.47.41.48.63.08.07.13.06.21.16Z"/>
      <path class="cls-7" d="m203.14,237.98c.13-.22-.1-.61-.02-.86-.19.02-.25-.34-.43-.49,0,.24-.6-.12-.2.35.28.27,0-.17.16-.14.15.2.24.18.39.36-.03.23-.16.41.1.78Z"/>
      <path class="cls-7" d="m206.83,241.89c.09-.15.06-.35-.09-.62-.03.02-.06.03-.13-.06-.04.06-.13.09-.04.21.37.08-.07.23.26.47Z"/>
      <path class="cls-7" d="m197.23,233.44s.08-.08.11-.12c0,0,0-.01-.01-.02-.19.02-.16-.3-.43-.5-.18.07.37.53.27.64.02,0,.03-.01.06,0Z"/>
      <path class="cls-7" d="m196.15,233.79c-.24-.04-.02-.36-.51-.6,0,0,0,0,0,0,.26.34-.05.38.3.77-.08-.34.31.07.2-.17Z"/>
      <path class="cls-7" d="m196.63,239.35s-.11-.04-.17-.12c-.07.06-.13.11-.2.17.06.08.12.16.21.26.23,0-.03-.24,0-.34.12.17.28.23.17.03Z"/>
    </g>
    <path class="cls-1" d="m204.77,114.98s-.18,12.55,1.42,16.99c0,2.66-.84,7.27,1.8,7.27,4.06-5.32,14.53-9.93,26.59-11.18s19.3-1.18,28.7-5.08,12.54-8.68,25.23-9.64c7.93-.6,19.7,6.56,25.37,8.69,5.68,2.13,11.89-.73,19.16-3.93-.91-1.5-1.8-3.14-2.54-4.55-1.09-2.08-1.55-4.44-1.27-6.78.4-3.3.7-8.67-.52-13.97,2.43-11.28-4.73-12.11-7.93-12.11-2,0-6.51,1.8-9.61,3.14-.71.31-1.33-.57-.8-1.13l3.33-3.27s-20.17,11.8-54.04,2.59c6.92,4.97-4.55-.35-4.55-.35,0,0-7.37-3.79-19.31-.62-8.65,2.3-16.08,18.36-16.08,18.36l1.1-4.23s-16.07,9.34-16.07,19.8Z"/>
    <path class="cls-5" d="m214.88,141.42c3.47-5.04,7.79-6.52,17.81-8.12,11.09-1.77,27.05-4.26,33.71-7.89,6.65-3.64,13.98-7.61,23.24-8.16,11.27-.67,16.2,5.47,26.31,8.87,6.72,2.26,13.94-1.97,17.09-3.22,0,0,2.68,12.84-9.34,24.86-12.02,12.02-27.94,15.26-42.31,16.32-14.37,1.06-46.54.13-57.27-7.58-10.11-7.72-9.61-14.54-9.24-15.07Z"/>
    <path class="cls-4" d="m241.33,133.44c-5.03.96-9.2,3.15-9.77,8.24-.65,5.78,3.54,14.15,18.32,16.12,21.29,2.84,28.59,3.81,32.22,4.02,16.63.96,20.67-2.17,27.41-5.19,19.32-10.05,20.49-17.46,21.2-21.24.71-3.78-1.63-6.44-4.36-6.44s-10.1-.41-16.27-4.17c-5.06-3.08-15.35-8.56-22.92-7.31-7.57,1.25-10.35,5.18-24.57,10.23-8.9,3.16-14.86,4.51-21.25,5.73Z"/>
    <path class="cls-4" d="m207.37,31.56c0-4.77-4.92-7.85-8.65-5.72-3.73,2.13-2.58,8.45,1.86,9.31,6.12,1.2,5.85-1.46,5.85-1.46,0,0,5.06,3.33,19.03,3.99,13.97.67,36.06-5.46,47.9,8.52,4.92,6.12,5.06,8.91,5.06,8.91,0,0,10.51,2.53,16.5,6.65-9.83-3.61-26.51-6.5-38.1-2.29-1.44.52-3.04.06-4.07-1.08-6.73-7.51-15.19-11.75-32.14-11.14-18.44.67-51.17,9.71-72.46-7.85,1.33-2.26.93-7.72-2.66-9.31-3.59-1.6-9.14-.67-8.65,5.85.49,6.52,8.4,4.24,10.53,4.24,3.93,3.93,12.87,13.49,30.71,15.19,16.82,1.6,47.9-8.78,51.49,7.05,2.26,9.58-7.58,6.79-12.64,4.66-5.06-2.13-18.23-4.07-20.89,2.09-2.66,6.16,10.51,1.9,14.37,3.1s7.19,3.59,7.19,3.59c0,0-19.89,5.65-37.65,23.42-17.76,17.76-24.88,26.88-38.32,35.79-13.44,8.91-32.6,21.02-41.11,45.37,13.01-22.47,48.3-31.27,54.95-32.86.93,2.79-.22,6.92-.22,6.92,0,0,22.58-12.11,34.28-26.48,7.64-9.38,12.08-16.86,15.34-22.02,1.73-2.74,2.55-6.76,19.25-18.39,10.93-19.6,33.01-8.69,33.01-8.69,22.38,4.76,41.25,3.67,59.12-3.65,0,0-4.83-5.53-5.63-10.86-.8-5.32-.67-15.97-6.25-15.97s4.64,7.64-3.06,10.25c-7.7,2.6-11.58-10.11-19.16-16.63-7.58-6.52-20.2-10.82-31.14-9.85-10.93.97-26.06,2.4-30.39,2.4-9.79,0-13.25-3.06-13.25-3.06Z"/>
    <path class="cls-9" d="m99.33,196.41c8.12-10.11,28.61-13.31,40.85-15.04,12.24-1.73,19.69-7.32,19.69-7.32l-2.4,8.65s8.74-2.53,16.89-12.51c22.35-27.37,27.19-42.49,27.19-42.49v-8.52s-19.34,31.45-54.46,44.88c3.79-5.68,3.79-10.97,3.79-10.97,0,0-32.66,11.24-41.71,21.75-11.98,13.84-9.85,21.56-9.85,21.56Z"/>
    <g>
      <path class="cls-4" d="m331.26,227.61c-10.14-21.59-25.92-44.91-25.92-44.91l-10.29-3.19s-4.61,3.73-18.45,4.44c-13.84.71-27.5-3.19-31.76-4.97-4.26-1.77-6.92-2.4-6.92-2.4-4.79-.71-17.21,4.26-22.8,7.27-5.59,3.02-27.04,15.66-30.23,21.6-3.19,5.94-3.19,9.58-3.19,9.58l-.89-3.37s-6.99,6.53-5.59,9.67c1.06,1.6,5.5-3.55,5.5-3.55l.53,1.6s-4.61,8.07-3.28,9.4,4.3-1.82,5.32-2.84c1.02-1.02,6.3-5.32,6.3-5.32,0,0-2.13-.35-2.66-.89,4.35-.62,7.45-1.51,7.45-1.51,0,0-2.84,10.4-.53,10.88,2.31.48,5.59-9.67,5.59-9.67,0,0,1.42-2.01,6.92-4.94,5.5-2.93,28.86-10.91,33.51-15.57-2.21,2.84-7.36,7.76-7.36,7.76-8.97,14.04-6.44,12.31-15.17,31.89-9.96,22.35-22.69,44.87-28.18,64.95,3.02,0,4.97,2.13,4.97,2.13,0,0,4.46-1.71,7.58,1.42,0,0,18.47-21.84,35.68-26.45-9.1-1.8-14.72-8.69-14.72-8.69,0,0,12.38,6.89,25.55,6.74,10.47-.12,40,.15,52.51-27.5,13.48-30.69.18-60.32.18-60.32,0,0,6.03,5.85,9.05,28.74,5.94,5.94,9.02,12.55,9.02,12.55,0,0,.21,7.44,1.38,8.61,1.17,1.17,2.7-7.73,2.7-7.73,0,0,0,0,0,0,2.94-.67,5.96.83,7.18,3.59.95,2.15,1.85,4.03,2.36,4.03,3.03,0-.13-7.92.67-8.72.8-.8,4.26,1.8,4.92,1.13s-4.72-5.46-6.92-5.46Z"/>
      <path class="cls-3" d="m188.01,307.08c-3.19-.67-7.32.4-9.31,5.06,0,0,5.59,2.66,11.71,1.06,0-2.93.67-4.79.67-4.79,0,0,.13-.67-3.06-1.33Z"/>
      <path class="cls-3" d="m197.19,307.08c-3.39,0-4.93,3.29-4.26,5.59,2.66.95,7.05.27,7.98-.67.93-.93.13-4.92-3.73-4.92Z"/>
      <path class="cls-3" d="m287.64,305.78c-3.33.53-8.38,2.26-9.58-1.2-1.2-3.46,1.02-14.91,5.41-21.56,4.39-6.65,5.59-9.7,5.59-9.7,0,0-2.97,2.18-13.88,5.51-10.91,3.33-18.58,2.6-18.58,2.6,5.06,2.79,15.94,7.84,15.01,13.56-.93,5.72-2.99,11.59-1.53,13.06,1.46,1.46,4.39.13,9.85,1.33,5.46,1.2,10.91,0,10.91,0,0,0,.13-4.12-3.19-3.59Z"/>
      <path class="cls-3" d="m291.1,305.58c1.16,1.16,1.46,3.33,1.46,3.33,0,0,.98.57,2.26-.33-.53-2.39-3.73-2.99-3.73-2.99Z"/>
    </g>
    <path class="cls-14" d="m294.02,124.57c2.55-3.73,6.68-4.62,7.5-2.75,1.2,2.75-4.65,0-7.5,2.75Z"/>
    <path class="cls-14" d="m288.16,124.79c-1.6-3.55-8.31-4.38-10.57-2.13-2.26,2.26,4.71.71,6.31.71s4.26,1.42,4.26,1.42Z"/>
    <g>
      <path class="cls-7" d="m218.5,110.67l12.41-3s6.76,11.96,22.19,10.63c15.43-1.32,20.15-13.39,20.15-13.39l-13.99-10.14h-19.38l-9.67,6.55-11.71,9.34Z"/>
      <path class="cls-14" d="m277.51,105.16s-8.55-5.99-18.79-11.31-18.86-1.1-22.11.35c-4.29,1.91-9.24,8.17-18.96,16.47,6.87-2.15,11.58-5.01,15.44-7.61,5.12,15.64,17.03,16.61,24.13,14.46,8.05-2.44,11.45-10.98,12.32-13.6,6.29,1.99,7.97,1.24,7.97,1.24Z"/>
      <circle class="cls-2" cx="243.06" cy="106.28" r="4.38"/>
      <path class="cls-10" d="m247.35,113.86c1.75.47,3.44.61,5.08.46,1.64-.17,3.24-.59,4.76-1.25,1.53-.63,2.96-1.48,4.31-2.48,1.33-1.02,2.56-2.19,3.6-3.67-.28,1.8-1.3,3.47-2.57,4.81-1.27,1.36-2.86,2.42-4.58,3.16-1.73.71-3.63,1.11-5.51.96-1.87-.12-3.73-.79-5.09-1.99Z"/>
    </g>
    <path class="cls-7" d="m268.97,120.1c-.29.15-5.7,2.89-14.03,5.22-8.56,2.4-18.43.92-24.28.92s-10.04,2.17-10.04,2.17c0,0-4.16-.18-2.74-3.63,1.22-2.97,3.87-4.04,4.6-4.29-.87.25-4.42,1.04-5.66-2.39-4.66-12.78,3.19-22.4,3.19-22.4-4.43,2.81-14.2,9.45-14.2,17.5,0,0-.17,14.33,1.43,18.76,0,2.66-.84,6.42,1.8,6.42,4.06-5.32,14.53-9.08,26.59-10.32,12.06-1.24,17.1-.64,26.5-4.54,2.67-1.11,4.82-2.28,6.84-3.42Z"/>
    <ellipse class="cls-5" cx="249.13" cy="65.35" rx="3.73" ry="5.81" transform="translate(133.15 295.32) rotate(-77.94)"/>
    <ellipse class="cls-5" cx="156.76" cy="132.62" rx="5.81" ry="3.73" transform="translate(-38.27 68.39) rotate(-22)"/>
    <ellipse class="cls-12" cx="227.07" cy="141.69" rx="5.81" ry="3.73" transform="translate(-36.54 95.39) rotate(-22)"/>
    <ellipse class="cls-5" cx="201.56" cy="206.02" rx="5.81" ry="3.73" transform="translate(-62.5 90.52) rotate(-22)"/>
    <ellipse class="cls-5" cx="261.39" cy="66.68" rx="2.26" ry="1.33"/>
    <circle class="cls-5" cx="230.91" cy="76.27" r="1.6"/>
    <circle class="cls-5" cx="146.64" cy="136.01" r="1.6"/>
    <circle class="cls-5" cx="210.43" cy="206.02" r="1.6"/>
    <circle class="cls-5" cx="297.89" cy="71.74" r="1.6"/>
    <circle class="cls-5" cx="235.01" cy="148.79" r="1.6"/>
    <path class="cls-5" d="m191.93,118.11c-12.11,17.36-29.41,24.1-29.41,24.1l4.26-8.47-8.52,5.5c-8.52,5.5-40.09,17.56-33.25,7.64h0c-9.66,7.87-19.16,18.31-24.5,33.56,13.01-22.47,48.3-31.27,54.95-32.86.93,2.79-.22,6.92-.22,6.92,0,0,22.58-12.11,34.28-26.48,7.64-9.38,12.08-16.86,15.34-22.02,1.73-2.74,2.55-6.76,19.25-18.39-12.56,4.26-20.08,13.13-32.19,30.49Z"/>
    <path class="cls-13" d="m236.06,82.63c4.32-1.75,6.84-1.32,7.72.54s-7.18,3.8-11.94,8.82c-4.75,5.02-11.69,11.18-8.6,4.48,0,0,5.96-11.07,12.81-13.84Z"/>
    <path class="cls-14" d="m206.23,137.36c.16-4.14,4.29-9.65,4.29-9.65,0,0-4.36.46-7.12,5.97-2.76,5.51,2.83,3.68,2.83,3.68Z"/>
    <circle class="cls-5" cx="142.43" cy="34.35" r="4.22"/>
    <circle class="cls-5" cx="200.51" cy="29.09" r="3.17"/>
    <ellipse class="cls-13" cx="249.55" cy="84.98" rx="1.93" ry="2.4" transform="translate(89.16 294.2) rotate(-71.33)"/>
    <circle class="cls-2" cx="250.88" cy="104.21" r="1.55"/>
    <path class="cls-5" d="m300.91,190.86c6.03,6.03,10.29,27.13,17.56,30.95,2.13,1.11,2.66,3.07,2.66,4.75,0,1.54-.51,3.04-1.35,4.34l-.8,1.25s-4.47-7.99-9.02-12.55c-2.98-22.74-9.05-28.74-9.05-28.74Z"/>
    <g>
      <path class="cls-5" d="m190.38,313.2c0-2.93.67-4.79.67-4.79,0,0,.13-.67-3.06-1.33-1.69,3.81-3.81,7.1-9.31,5.06,0,0,5.59,2.66,11.71,1.06Z"/>
      <path class="cls-5" d="m233.74,270.86c-6.04-5.43-11.54-19.17-5.47-35.99,8.12-15.25,17.66-34.57,15.31-36.43-.32-.25-1.19-1.32-3.99.76-1.12,1.07-7.08,7.49-7.08,7.49-8.97,14.04-6.46,12.31-15.19,31.89-9.96,22.35-22.69,44.87-28.18,64.95,3.02,0,4.97,2.13,4.97,2.13,0,0,4.46-1.71,7.58,1.42,0,0,18.47-21.84,35.68-26.45-9.1-1.8-14.72-8.69-14.72-8.69,0,0,12.38,6.89,25.55,6.74-8.53-3.33-12.96-6.47-14.45-7.82Z"/>
      <path class="cls-5" d="m192.91,312.67c2.66.95,7.05.27,7.98-.67.93-.93.13-4.92-3.73-4.92-3.39,0-4.93,3.29-4.26,5.59Z"/>
      <path class="cls-5" d="m291.1,305.58c1.16,1.16,1.46,3.33,1.46,3.33,0,0,.98.57,2.26-.33-.53-2.39-3.73-2.99-3.73-2.99Z"/>
      <path class="cls-5" d="m271.61,294.99c-.93,5.72-2.99,11.59-1.53,13.06,1.46,1.46,4.39.13,9.85,1.33,5.46,1.2,10.91,0,10.91,0,0,0,.13-4.12-3.19-3.59-3.33.53-8.38,2.26-9.58-1.2-1.2-3.46,1.02-14.91,5.41-21.56,4.39-6.65,5.59-9.7,5.59-9.7,0,0-2.97,2.18-13.88,5.51-10.91,3.33-18.58,2.6-18.58,2.6,5.06,2.79,15.94,7.84,15.01,13.56Z"/>
    </g>
    <path class="cls-12" d="m199.02,305.49c.92.27,1.86.75,2.7,1.59,0,0,19.74-21.84,36.95-26.45-5.28-1.04-10.33-3.8-13.11-5.93-.44-.34-2.57-2.46-2.89-2.76v1.39c1.34,5.68-17.74,26.94-23.65,32.16Z"/>
    <g>
      <path class="cls-7" d="m296.36,106.17l3.55-.42c.97-.12,1.93.24,2.59.96,2.6,2.87,9.82,10,16.14,8.63,7.88-1.71,10.86-3.45,10.86-3.45l-.46-6.32-19.47-8.02-7.98,5.35-5.23,3.29Z"/>
      <path class="cls-14" d="m330,100.2c.4.29.64.48.64.48v-3.38s-1.26-3.9-8.23-5.84-26.63,15.22-26.63,15.22c0,0,3.32-1.76,7.63-3.77,3.23,8.78,9.7,12.94,15.23,12.43,6.57-.6,10.56-7,11.99-11.34.07-.22-.25-1.95-.64-3.8Z"/>
      <path class="cls-10" d="m324.08,111.16c-1.33,1.16-3.13,1.82-4.95,1.93-1.83.14-3.68-.25-5.36-.94-1.67-.72-3.21-1.75-4.45-3.07-1.23-1.3-2.22-2.92-2.5-4.67,1.02,1.43,2.21,2.57,3.5,3.57,1.31.97,2.7,1.81,4.19,2.41,1.47.64,3.03,1.05,4.63,1.21,1.6.15,3.24.01,4.94-.44Z"/>
      <circle class="cls-2" cx="312.71" cy="104.41" r="3.26"/>
    </g>
    <path class="cls-8" d="m201.56,119.2s-19.34,31.45-54.46,44.88c3.79-5.68,3.79-10.97,3.79-10.97,0,0-32.66,11.24-41.71,21.75-3.6,4.16-5.91,7.76-7.41,10.76l.62,1.2c14.53-21.06,33.87-20.15,33.87-20.15l-8.52,10.07,16.32-7.61,20.05-9.58s-8.87,10.64-10.82,12.6c-1.95,1.95,5.94.44,16.5-10.11,10.55-10.55,17.21-9.77,17.23-8.52,11.65-16.75,14.55-25.8,14.55-25.8v-8.52Z"/>
    <path class="cls-5" d="m197.34,67.38c1,4,7.07,2.05,11.04,2.05s12.6,5.24,15.74,5.24l-6.51,1.2s-7.52-4.99-13.93-3.49c-6.41,1.49-8.91-1.41-7.63-3.2l1.28-1.79Z"/>
    <path class="cls-5" d="m254.94,37.29c16.5,1.98,20.64,6.94,25.75,13.51,5.12,6.57,6.51,7.09,6.51,7.09l-8.78-2.79s-2.52-7.43-5.91-9.86c-5.24-5.24-17.58-7.95-17.58-7.95Z"/>
    <path class="cls-5" d="m261.53,209.8c8.83-3.32,17.41-7.68,25.26-12.94,2.79,8.08,4.56,16.55,5.18,25.32-4.19-.84-8.49-1.66-12.89-2.45-.16.75-.3,1.42-.46,2.08-.57,2.28-2.51,3.33-5.01,2.83-1.58-.31-3.15-.63-4.72-.97-2.31-.51-3.43-2-3.01-3.87.16-.72.34-1.44.5-2.23-1.21-.19-2.33-.39-3.47-.53-.23-.03-.54.14-.76.27-.61.38-1.13.86-1.79,1.16-1.12.49-1.82.18-1.91-.78-.19-1.85-.39-3.69-.68-5.5-.13-.8-.3-1.6-.39-2.4-.1-.85.42-1.21,1.5-.96.84.2,1.61.57,2.65.97Zm7.33,8.16c-.18.83-.37,1.54-.51,2.26-.14.7.23,1.18,1.07,1.35,1.69.32,3.38.63,5.08.93.76.13,1.35-.2,1.57-.81.27-.76.38-1.57.54-2.41-2.61-.46-5.12-.89-7.74-1.31Zm20.01-24.6c-.69.48-.73,1.32-.42,2.19,3.11,8.66,5.05,17.78,5.69,27.22.09,1.27.91,2.08,1.99,2.03,1.16-.06,1.9-.98,1.8-2.38-.72-9.71-2.79-19.1-6.08-27.99-.04-.12-.1-.24-.17-.35-.51-.87-1.63-1.28-2.55-.86-.09.04-.18.09-.27.15Z"/>
    <ellipse class="cls-12" cx="207.38" cy="277.99" rx="5.81" ry="3.73" transform="translate(-89.04 97.94) rotate(-22)"/>
    <ellipse class="cls-3" cx="214.73" cy="266.63" rx="2.26" ry="1.33"/>
    <circle class="cls-12" cx="199.02" cy="289.68" r="1.6"/>
    <circle class="cls-2" cx="319.52" cy="101.71" r="1.55"/>
    <path class="cls-5" d="m280.69,147.19c2.79,4.74,6.77,5.54,9.48,5.01s7.55-5.01,7.55-5.01h-17.03Z"/>
    <path class="cls-6" d="m154.9,46.72c3.43,1.14,6.78,2.43,10.22,3.35,3.39,1.03,6.83,1.76,10.31,2.03,3.48.25,6.98.3,10.51.09,3.53-.16,7.08-.48,10.63-.83l5.37-.48,2.72-.23,2.73-.13c3.65-.07,7.33-.13,11.01.46,3.64.56,7.46,1.51,10.56,3.99,1.48,1.3,2.59,3.02,3.08,4.87.48,1.86.34,3.74.04,5.52l-.21-.02c.11-1.78.08-3.59-.48-5.28-.59-1.68-1.69-3.14-3.1-4.22-2.9-2.1-6.53-2.88-10.06-3.25-7.15-.69-14.33.11-21.47.84-7.15.63-14.38,1.2-21.55.27-7.2-.88-13.91-3.79-20.41-6.79l.09-.19Z"/>
    <path class="cls-6" d="m212.72,36.05l2.61.29c.86.12,1.71.26,2.59.27l2.59.13c.86.05,1.73-.02,2.59-.03,3.44.04,6.89-.3,10.33-.68,6.88-.81,13.84-1.93,21.08-1.78,3.6.06,7.26.58,10.79,1.56l2.61.88c.88.27,1.68.75,2.52,1.11l1.24.59.62.29.58.37,2.3,1.52c5.99,4.32,10.17,10.4,12.83,16.92l-.19.09c-1.6-3.1-3.58-6-5.81-8.67-1.13-1.32-2.31-2.62-3.6-3.79-1.3-1.15-2.6-2.34-4.11-3.2l-2.24-1.34-.56-.33-.6-.26-1.19-.53c-.81-.32-1.57-.76-2.41-.99l-2.49-.77c-3.37-.86-6.84-1.36-10.32-1.37-6.98-.21-13.93.83-20.91,1.31-6.97.51-14.08.39-20.88-1.4l.05-.2Z"/>
    <path class="cls-11" d="m91.21,209.88s6.46,4.91,6.46,15.75c23.03-6.19,73.31-29.24,73.31-29.24,0,0-50.18,21.5-79.77,13.49Z"/>
    <path class="cls-14" d="m279.63,146.58c3.51.56,7.06.79,10.61.61,1.77-.06,3.54-.2,5.3-.45.88-.13,1.75-.27,2.61-.47.86-.19,1.73-.39,2.52-.76l.1.2c-.65.78-1.52,1.27-2.35,1.73-.85.43-1.73.79-2.62,1.06-.89.31-1.8.46-2.71.65-.91.14-1.84.22-2.76.29-.92.02-1.85,0-2.77-.06-.92-.11-1.84-.18-2.75-.42-1.82-.4-3.61-1.04-5.22-2.15l.04-.22Z"/>
    <path class="cls-14" d="m244.5,137.66c26.77,5.71,27.41-1.31,48.44-2.26,14.95.27,14.66,5.18,27.86-.11-3.13,2.15-5.9,4.11-13.08,4.21-5.7.08-7.06-1.49-14.71-.98-10.83.73-14.77,2.87-27.54,3.45-11.52.53-17.87-3.08-20.97-4.31Z"/>
    <path class="cls-3" d="m340.5,133.49c-1,4.28-3,8.79-6.56,13.26-.44.55-.88,1.06-1.31,1.58,1.75,2.68,2.89,4.33,2.89,4.33l1.41-6.8s12.94,10.92,13.36,30.95c5.81-12.9-.99-29.7-9.78-43.31Z"/>
    <g>
      <path class="cls-8" d="m313.11,166.62l.05-.13.12-1.82c-.03-.13-.05-.25-.08-.38-.41.22-.8.42-1.19.61.68,1.07,1.1,1.71,1.1,1.71Z"/>
      <path class="cls-8" d="m340.34,158.12l-3.41,7.63s-2.65-7.31-7.01-14.38c-1.99,2.11-3.98,3.97-5.94,5.6l13.71,13.16s5.38,10.07,7.91,18.98c4.81-6.49-.33-27.59-5.26-30.98Z"/>
    </g>
    <path class="cls-1" d="m286.81,178.4c12.77-2.14,16.76-5.72,16.76-5.72,0-.95-.78-6.06-5.82-5.7-3.49.84-13.63,3.08-22.56,3.08-6.12,0-15.97-.1-34.42-2.74l-10.25-.66s-23.12,4.33-38.9,16.84c15.77-7.52,30.28-13.86,39.3-13.86,2.69,0,5.06.44,7.09,1.06.06.04,4.63,2.97,5.34,3.19,5.83,2.9,16.29,6.62,30.68,5.85.03,0,.05,0,.08,0,2.38-.02,10.75-1,12.72-1.34Z"/>
    <path class="cls-7" d="m237.99,170.7c24.68,7.35,51.41,4.99,57.82,1.63s5.88-3.93,5.88-3.93c1.09.92,1.75,2.31,1.89,4.28,0,0-6.5,5.84-29.55,7.07-23.05,1.23-36.03-9.05-36.03-9.05Z"/>
    <path class="cls-12" d="m244.84,178.98c-4.26-1.77-6.92-2.4-6.92-2.4-4.79-.71-17.21,4.26-22.8,7.27-1.03.55-2.59,1.44-4.48,2.54,27.49-7.21,48.74-2.42,58.25-1.56,15.8,1.43,28.23-3.48,30.13-4.09l-3.98-1.24s-4.61,3.73-18.45,4.44c-13.84.71-27.5-3.19-31.76-4.97Z"/>
    <path class="cls-5" d="m183.3,225.94c1.02-1.02,6.3-5.32,6.3-5.32,0,0-2.13-.35-2.66-.89,0,0-6.46,9.11-8.78,6.79,0,0-.04-.08-.11-.19-.34,1.13-.45,2.07-.08,2.45,1.33,1.33,4.3-1.82,5.32-2.84Z"/>
  </g>
  <g>
    <path class="cls-14" d="m474.23,328.7l-.35-.31c-3.35-2.96-10.3-9.12-19.55-7.9-4.47.57-8.45,2.87-11.33,6.39-4.4-2.12-9.35-3.18-13.81-2.69-3.71.41-7.04,2.03-9.78,4.58-4.17-1.41-9.84-2.68-14.49-2.24-2.78.26-6.68,1.32-10.28,4.69-4.9-1.65-11.79-2.74-16.09-2.4-2.32.19-7.28,1.14-11.4,5.61-4.63-1.56-11.03-2.48-15.09-2.35-3.05-.07-7.96-.16-10.4-.02-.08,0-.17.01-.25.02-10.61.78-16.96,1.41-23.96,4.9-5.92-3.83-13.99-5.49-24.07-4.88-.05,0-.1,0-.15,0-7.9.56-15.47,3.85-22.3,9.43-2.14-1.46-5.29-3.01-10.63-5.07-9.24-3.55-11.53-3.56-13.21-3.57-.04,0-.09,0-.14,0-6.14.03-12.36,1.38-17.8,3.17-4.53-3.54-10.5-4.44-14.94-4.51-13.29-.19-28.02.49-39.19,6.35-4.29-2.13-11.77-3.96-16.11-4.28-5.09-.65-8.56-1.02-10.33-1.11-.09,0-.18,0-.27-.01-7.75-.27-13.67-.46-19.52.95-3.46-3.69-8.9-7.58-16.44-6.44-3.41.43-6.1,1.89-8.03,3.29-4.78-4.19-10.93-4.97-15.27-4.26-.46.07-.95.14-1.47.21-3.74.53-8.71,1.24-13.44,3.43-5.53-4.1-12.98-6.69-21.61-7.36-22.83-1.88-41.56,22.86-50.09,66.22-4.7,23.99-2.61,39.64,6.56,49.24,5.12,5.36,12.12,8.19,20.07,8.19,1.68,0,3.41-.13,5.18-.38,12.57-1.7,20.33-8.77,25.96-15.66.39.35.77.7,1.2,1.03.05.04.11.08.16.12,2.39,1.75,4.83,3.5,7.25,5.22,3.05,2.26,6.65,3.43,10.33,3.43,1.5,0,3.01-.2,4.51-.59,5.98-1.59,11.1-6.32,13.69-12.68,4.64,6.13,12.48,9.93,21.05,9.93.73,0,1.46-.03,2.2-.08,4.07-.3,7.52-2.05,10.22-4.5,5.04,2.46,11.28,3.2,17.84,1.8,3.1-.65,5.94-2.17,8.3-4.31,3.61,1.97,8.35,3.36,14.59,3.36,3.52,0,7.52-.44,12.05-1.46,1.86-.41,3.96-.6,5.99-.78,4.19-.37,8.52-.75,12.76-3.11.34-.19.67-.4,1-.6,4.49,2.65,9.93,4.2,15.58,4.2.13,0,.27,0,.4,0,7.52-.09,13.77-4.67,16.32-11.94.04-.13.09-.26.13-.39,1.17-3.66,2.3-7.1,3.42-10.39,1.19-.17,2.45-.42,3.76-.75.74,5.05,2.52,9.47,5.35,13.31,3.89,5.29,11.62,11.67,26.3,11.98.34,0,.67.01,1,.01,8.71,0,15.31-2.55,20.4-5.73,4.66,3.79,10.85,6.19,17.5,6.5,3.79.16,7.47-1.01,10.55-3.18,4.06,2.52,9.07,3.92,14.5,3.92,1.03,0,2.08-.05,3.14-.15,3.71-.35,7.15-1.92,9.91-4.36,4.15,2.52,9.08,4.17,14.25,4.55,3.97.28,7.78-.83,10.93-3.02,4.25,3.08,9.39,5.13,14.71,5.61.53.05,1.05.07,1.57.07,8.08,0,15.13-5.54,17.11-13.68.99-4.05,2.11-8.27,3.3-12.55,1.17.75,2.41,1.45,3.72,2.03-.74,3.81-.6,7.6.41,10.98,3.43,11.53,11.39,18.9,21.88,20.21.72.09,1.44.13,2.14.13,7.82,0,14.51-5.32,16.68-13.55,7.21-27.11,15.65-55.55,20.69-72.54l1.58-5.33c.04-.14.08-.28.12-.42,2.46-9.33-.02-18.29-6.48-23.56Z"/>
    <path class="cls-2" d="m467.77,335.29l-.5-.44c-2.62-2.31-7-6.18-11.89-5.4-3.04.47-5.52,2.89-6.61,6.37-.5,1.49-1.35,4.35-2.44,8.1-.33-1.6-1.07-2.85-1.82-3.86-2.73-3.92-9.55-6.87-14.39-6.22-2.85.38-5.24,2.53-6.73,6.05-.03.07-.06.14-.08.21-.3.81-.61,1.67-.93,2.55-.85-1.71-2.27-2.7-3.16-3.18-2.39-1.24-9.33-3.21-13.48-2.73-1.86.21-3.52,1.11-4.91,2.65-1.26,1.28-2.62,3.18-4.24,5.74-.73-1.52-2.02-2.61-3.39-3.25-2.71-1.32-10.1-2.72-13.95-2.34-1.95.19-4.68,1.21-6.54,5-.05.09-.09.19-.13.28-.65,1.57-1.81,4.45-3.25,8.15.22-2.79-.42-5.92-4.01-7.66-2.93-1.36-9.93-2.34-13.24-2.09-1.64-.01-7.59-.05-9.99.12-11.13.95-15.89,1.47-21.91,4.87-1.03.56-2.17,1.53-3.17,2.71-1.17-1.46-2.55-2.38-3.31-2.88-.21-.14-.41-.27-.53-.35-5.03-3.81-13.23-4.14-19.27-3.74-9.01.69-17.78,6.28-25.09,15.43-.21-2.81-.86-5.41-2.16-6.83-.04-.04-.07-.08-.11-.12-2.78-2.85-17.31-7.47-19.54-7.48-7.94.04-16.22,2.73-21.71,5.1-.18-1.4-.69-2.68-1.75-3.7-.03-.03-.06-.06-.09-.09-2.39-2.17-6.88-2.58-9.35-2.63-13.65-.25-28.81.36-37.83,6.74-.09.07-.98.72-2,1.78-.51-1.37-1.5-2.66-3.26-3.64-.03-.02-.07-.04-.1-.06-2.62-1.38-9.46-3.18-12.86-3.38-5.08-.68-8.4-1.07-9.98-1.17-11.28-.52-16.11-.62-22.29,2.31-.1.05-.21.12-.31.17-.05-.05-.09-.11-.13-.16-.24-.3-.63-.85-1-1.38-1.99-2.85-5.28-7.57-10.45-6.88-2.49.21-4.27,1.85-5.37,2.87-.13.12-.25.23-.35.32-.03.03-.06.06-.1.08-1.79,1.61-5.06,5.72-8.96,11.5.38-2.55.74-5.21,1.08-7.97.27-2.31-.48-4.45-2.11-6.02-2.21-2.13-5.35-2.53-7.27-2.23-.52.07-1.08.14-1.67.21-4.72.56-11.18,1.33-15.01,5.23-.26.26-.51.56-.75.87-.65-.83-1.3-1.49-1.81-2-.24-.24-.47-.47-.65-.67-3.86-4.38-10.61-7.26-18.95-8.11-17.18-1.94-32.39,20.56-39.7,58.72-4,21.01-2.62,34.58,4.23,41.48,2.29,2.31,6.14,4.76,12.1,4.76,1.37,0,2.86-.13,4.46-.42,12.04-1.94,18.27-10.61,23.76-18.27l.05-.07c2.8-3.86,4.26-8.31,4.34-13.22,0-.1,0-.19,0-.29l-.4-9.21c0-.2-.03-.4-.06-.59-.77-4.63-3.51-6.01-5.07-6.41-5.11-1.33-9.33,3.94-12.73,8.17-.49.61-1,1.25-1.19,1.45-2.28,2.37-3.62,3.56-4.4,4.15,0-1.25.17-3.34.85-6.7,1.92-9.44,3.93-16.71,5.72-22.11-.46,2-.45,3.87.39,5.71,1.34,2.93,4.17,4.04,5.42,4.46,3.95,1.75,9.61,2.17,14.72-5.18l.23-.33c1.43-1.99,2.64-3.92,3.7-5.8-.04,5.02.07,10.15.37,15.3.19,3.12.72,6.57,3.03,8.9-2.5,4.64-4.23,8.04-5.44,10.69-.05.11-4.81,11.36,1.17,15.72.02.01.04.03.06.04,2.4,1.7,4.84,3.39,7.24,5.02,1.32.96,2.82,1.45,4.36,1.45.67,0,1.35-.09,2.03-.28,3.52-.97,5.99-4.3,7.05-6.88,5.81-14.39,18.09-35.94,27.71-50.3-3.58,10-8.68,25.05-12.34,38.26-.01.04-.02.08-.03.11-.62,2.46-.58,4.56.13,6.48,1.98,5.1,7.93,8.51,14.53,8.51.58,0,1.17-.03,1.76-.08,3.64-.33,6.24-3.57,7.24-6.74.63-2.16,1.28-4.29,1.92-6.39.06,1.5.33,2.92.7,3.85,2.14,5.6,8.91,8.18,16.78,6.43,3.06-.64,5.64-3.23,6.57-6.6,0,0,0,0,0,0,.72-2.61,1.48-5.21,2.28-7.77,0,0,0,.01,0,.02-.1,1.59.13,3.83.75,5.24h0c1.76,3.8,5.8,7.7,14.99,7.69,2.88,0,6.27-.38,10.26-1.27,2.52-.55,5.08-.79,7.33-.99,3.41-.31,6.36-.58,8.68-1.83,1.7-.89,3.69-2.28,5.66-5.57,2.48,4.44,9.04,7.65,15.78,7.65.11,0,.22,0,.34,0,3.28-.05,5.85-1.91,7.03-5.1.02-.04.03-.09.05-.13,2-5.89,3.9-11.18,5.81-16.23,2.22.64,5.04.49,8.63-.38,4.94-1.19,9.35-3.61,13.15-6.74-2.39,9.67-1.71,16.99,2.1,22.29,3.68,5.12,10.01,7.83,18.81,8.06.33,0,.66.01.98.01,11.06,0,17.46-5.14,22.13-9.4.1.47.24.94.42,1.39,2.13,4.96,8.53,8.7,15.56,9.09,3.89.19,6.81-2.87,7.87-5.82.01-.03.02-.07.04-.1.65-1.95,1.31-3.9,1.98-5.82-.04,1.78.26,3.58.71,4.75,1.88,4.93,7.53,8.03,14.32,8.03.59,0,1.19-.02,1.8-.07,3.32-.23,6.23-2.77,7.23-6.33.71-2.51,1.47-5.03,2.25-7.55-.16,1.54-.15,3.19.32,4.46,1.99,5.14,8.75,9.35,16.08,10.01,3.05.27,5.86-1.41,7.32-4.31.9-1.18,1.83-2.49,2.8-3.9,1.84,4.93,8.09,10.41,15.65,11.25.28.03.55.04.82.04,3.5,0,6.55-2.41,7.44-6,2.57-10.28,5.9-21.64,9.27-32.48.11,4.16,1.41,6.6,2.98,8.9.17.26.35.51.51.77.07.11.13.21.21.32.51.7,6.09,6.06,10.35,6.57,1.68.2,3.78-.45,5.94-1.5-1.07,4.13-2.05,8.04-2.79,11.41-.53,2.39-.5,4.71.08,6.7,2.91,9.9,8.91,12.79,13.44,13.49.36.06.74.08,1.12.08,2.8,0,5.85-1.59,7.03-6.13,6.68-25.29,14.4-52.04,19.5-69.74,1.05-3.65,2.01-6.96,2.84-9.87.01-.04.03-.09.04-.13,1.47-5.73.25-10.79-3.27-13.57Zm-262.42,59.97c-2.03-2.11-4.9-2.07-5.83-2.05-2.85.04-7.85.36-12.98,1.21.25-.57.49-1.14.73-1.7,3.79-.82,8.09-.96,11.58-.98,3.32-.02,6.37-3.22,7.22-4.51.58-.89,5.61-8.88,4.05-13.8-.54-1.7-1.77-3.04-3.45-3.72-2.47-.95-5.45-1.19-8.58-1.04.07-.29.13-.62.17-.98,2.93-.13,6.05-.06,9.72.02,1.72.04,3.52.08,5.45.1.02,0,.04,0,.05,0,1.27,0,2.56-.51,3.7-1.2.03.13.06.27.1.4-2.99,5.89-7.89,17.34-11.8,28.41-.05-.06-.09-.12-.14-.18Zm93.66-9.46c-4.55-1.53-9.04,2.26-12.32,5.04-.47.4-1.11.94-1.39,1.13-3.58,2.44-4.89,2.86-5.22,2.93.09-.64.28-1.56.67-2.85,1.9-6.23,3.91-11.26,5.71-15.08-.09,1.06.03,2.16.52,3.26,1.36,3.1,4.58,3.99,6.04,4.33,5.29,1.71,10.01.29,14.02-4.21l.16-.18c.28-.31.55-.61.82-.92-1.42,3.69-2.95,7.76-4.48,11.93-.83-3.62-3.2-4.92-4.54-5.37Zm-150.56,28.71h0s0,0,0,0Z"/>
    <g>
      <path class="cls-9" d="m45.63,357.51c-2.14,2.38-7.65,14.44-12.23,37.19-2.84,14.22,1.38,13.36,3.98,13.1,1.76-.16,4.38-2.5,7.88-6.19,2.11-2.29,9.41-13.29,10.64-5.88.13,3.08.27,6.15.4,9.22-.06,3.7-1.07,7.23-3.4,10.48-5.27,7.43-10.55,14.97-20.62,16.77-14.01,2.84-21.22-8.23-15.19-40.44,6.75-35.91,20.32-56.92,34.33-55.09,6.78.8,12.68,3.13,15.82,6.72,1.92,2.16,5.22,4.26,3.36,10.29-1.51,4.94-3.63,12.83-9.91,21.53-1.11,1.53-3.85,6.31-9.2,3.79-3.93-1.28-3.58-3.37-1.3-8.82,3.22-7.77,3.12-13.78-.66-14.15-1.77-.16-3.35.85-3.91,1.44Z"/>
      <path class="cls-9" d="m70.36,418.87c-1.98-1.42-.59-7.61.38-9.68,1.8-3.92,4.7-9.39,8.06-15.46-3.31.59-4.84-.74-5.19-6.44-.62-10.7-.54-22.66.72-34.05.24-2.08,1.64-6.1,3.22-7.64,3.09-3.09,9.77-3.37,13.9-3.86,1.26-.17,4.16.4,3.87,2.86-1.58,12.87-3.83,23.2-4.8,32.25,8.47-16.16,17.84-28.81,20.8-31.4.78-.65,2.01-1.97,3.05-1.96,3.01-.49,5.59,4.66,7.29,6.61.54.55,1.25,1.72,1.01,3.21-.32,1.79-1.68,3.92-2.74,5.28-10.06,11.77-28.77,42.97-36.27,61.57-.97,2.36-3.7,5.35-6.08,3.61-2.41-1.6-4.82-3.23-7.23-4.9Z"/>
      <path class="cls-9" d="m148.46,413.61c-.38,1.35-1.44,2.76-2.85,3.06-5.83,1.32-10.08-.34-11.21-3.2-.35-.86-.56-3.1-.21-4.39,3-11.05,9.85-30.32,15.06-43.12-1.19-.04-2.57,0-4.18-.05-1.89.03-6.01-.22-8.8.25.49.18.98.36,1.47.54,1.19.63,1.56,1.41.96,2.94-4.13,10.9-10.49,27.69-16.19,46.8-.47,1.45-1.72,3.09-2.99,3.22-5.66.58-10.08-2.06-11.29-5.11-.35-.91-.3-2.07.05-3.46,5.06-18.05,12.71-38.89,15.3-45.43.02-.07.04-.13.05-.2.06-3.01.3-7.33.84-9.9.3-1.69,2.16-3.75,3.34-4.25,5.05-2.3,8.85-2.22,20-1.62,1.69.12,6.1.71,9.74,1.21.06,0,.11,0,.17.01,2.79.18,8.94,1.82,10.87,2.81,1.11.6,1.91,1.36.48,5.49-4.22,10.14-14.23,31.69-20.62,54.41Z"/>
      <path class="cls-9" d="m183.75,388.36c-1.27,2.77-2.63,5.82-4.09,9.25-.57,1.89-1.89,2.92.65,2.58,6.85-2.07,15.8-2.65,19.28-2.71.93-.02,2.6.05,2.53,1.35.16,4.34-1.44,5.68-2.88,8.42-1.47,2.57-2.76,3.49-4.06,4.14-2.7,1.41-8.53,1-14.79,2.37-8.69,1.93-17.17,1.98-19.76-3.44-.17-.27-.42-2.57-.28-3.04-.04-.74.29-2.42.56-3.35,4.72-14.72,10.55-27.33,15.32-35.94.03-.09.05-.18.17-.27-.06-.09-.11-.18-.17-.27-.52-1.09-.28-5.5-.39-7.66-.16-1.45,2.19-3.78,3.29-4.54,7.72-5.22,22.06-5.7,34.88-5.44,2.8.06,5.35.62,6.15,1.32,1.51,1.39-1.92,8.12-3.51,10.43-.5.77-2.38,2.12-3.14,2.11-9.84-.13-16.58-.72-23.99.88,1.38-.06,2.32.23,2.86.68.77.81,1.32,1.78.94,3.01-.05.18-.19.35-.25.52-.94,1.92-1.99,3.93-3.02,6.12,5.3-.92,11.32-1.64,14.9-.32,2.04.79-1.36,7.54-2.95,9.9-.5.78-2.38,2.19-3.14,2.19-5.17.03-10.51.31-15.08,1.69Z"/>
      <path class="cls-9" d="m222.39,357.96c2.56-1.6,14.01-6.76,24.62-6.82,1.44,0,14.47,4.23,16.02,5.74.89.93,1.55,7.37.23,11.51-3.15,9.92-11.83,20.84-23.65,23.56-7.34,1.71-7.78-.33-8.82-2.64,0,0-.29-.43-.49-.85-2.54,6.07-5.32,13.18-8.62,22.48-.47,1.21-1.25,1.82-2.53,1.84-5.68.1-10.72-2.62-11.93-5.19-.35-.77-.3-1.73.05-2.86,4.46-14.23,12.2-31.29,15.26-36.57-.7-2.06-1.51-5.93-1.6-6.96-.04-1.46.4-2.57,1.46-3.24Zm10.58,24c5.34-.77,11.89-4.78,13.75-10.59,1.01-3.16-.15-6.4-4.65-6.4-1.61,0-3.45.43-5.45,1.11.17,0,.23.09.4.09,1.11.51,2.37,1.88,1.04,4.7-1.63,3.5-3.29,7.08-5.09,11.1Z"/>
      <path class="cls-9" d="m288.43,365.18c-2.16,1.81-7.72,10.5-12.35,25.1-2.87,9.07,1.39,8.77,4.02,8.82,1.78.03,4.43-1.31,7.96-3.63,2.13-1.35,9.49-8.89,10.73-3.55.14,2.23.27,4.46.41,6.69-.06,2.67-1.08,5.14-3.43,7.19-5.32,4.72-10.65,9.02-20.83,8.72-14.17-.41-21.48-7.48-15.38-26.57,6.84-21.35,20.57-36.81,34.7-37.95,6.84-.47,12.78.28,15.94,2.57,1.94,1.35,5.25,2.57,3.38,7.49-1.52,3.97-3.66,10.35-9.98,16.96-1.12,1.18-3.88,4.67-9.27,2.9-3.97-.88-3.61-2.27-1.31-6.18,3.25-5.61,3.15-9.98-.67-9.88-1.78.04-3.38.87-3.95,1.32Z"/>
      <path class="cls-9" d="m343.13,414.32c-.38,1.33-1.44,2.6-2.85,2.68-5.83.39-10.09-1.91-11.21-4.79-.35-.87-.57-3.04-.21-4.24,3.01-10.11,9.86-28.75,15.06-42.43-1.18.05-2.57.2-4.17.26-1.89.17-6.01.22-8.8.88.49.14.98.28,1.47.42,1.19.53,1.56,1.28.96,2.81-4.13,10.95-10.5,26.91-16.21,43.44-.47,1.26-1.73,2.56-3,2.48-5.68-.35-10.11-3.27-11.33-6-.35-.82-.3-1.8.05-2.95,5.08-14.69,12.75-33.51,15.34-39.81.02-.06.04-.12.05-.19.06-2.76.3-6.72.84-9.14.3-1.58,2.17-3.7,3.35-4.33,5.06-2.8,8.87-3.32,20.01-4.35,1.69-.13,6.1-.18,9.74-.19.06,0,.11,0,.17-.01,2.79-.23,8.92.64,10.85,1.5,1.1.51,1.9,1.28.48,6.08-4.21,12.07-14.2,35.86-20.59,57.9Z"/>
      <path class="cls-9" d="m395.76,419c-.38,1.53-1.64,2.38-2.99,2.22-5.57-.69-10.52-5.01-11.65-8.31-.35-1-.3-2.17.06-3.53,1.53-5.88,4.27-14.22,7.34-23.17-6.18,10.6-13.4,22.74-18.94,29.76-.5,1.2-1.5,2.03-2.69,1.91-5.66-.57-10.73-3.83-11.95-6.9-.35-.92.25-3.97.6-5.25,4.56-15.94,18.7-51.77,21.52-58.54.5-1,1.28-2.15,2.63-2.29,2.87-.31,9.41.8,11.33,1.71,1.19.53,1.64,1.38.95,3.22-2.56,6.91-6.77,18.41-11.23,30.93,8.99-11.94,18.86-33.06,23.6-37.84.45-.52,1.06-1.06,1.9-1.16,2.78-.37,8.75,1.09,10.66,2.06,1.1.58,1.56,1.49.95,3.49-4.78,14.54-15.77,46.54-22.14,71.7Z"/>
      <path class="cls-9" d="m443.91,427.73c-.49,1.89-1.35,2.66-2.69,2.44-5.79-.99-8.29-6.18-9.47-10.22-.34-1.18-.35-2.68,0-4.28,1.44-6.5,3.73-15.05,6.16-24.1-4.45,3.88-11.34,8.45-13.5,8.17-2.16-.27-6.7-4.25-6.96-4.6-1.73-2.87-4.58-4.75-1.22-17.27,3.63-13.38,8.77-28.3,11.66-36.2.5-1.18,1.52-2.95,2.87-3.16,3.03-.46,8.06,1.59,9.76,4.1.96,1.29,1.47,2.41.76,4.71-6.71,21.66-10.23,30.99-8.51,33.6,1.3,1.77,6.18-1.39,9.18-4.21q-.03.13,0,.39c4.7-16.56,9.89-35.59,11.43-40.23.44-1.42,1.38-2.95,2.72-3.18,2.93-.52,6.7,3.15,8.53,4.73,2.64,1.99,2.27,6.21,1.65,8.69-4.97,17.7-14.32,50.08-22.36,80.63Z"/>
    </g>
    <g>
      <path class="cls-8" d="m420.08,364.71c-1.36,4.35-2.69,8.83-3.86,13.15-3.36,12.52-.51,14.39,1.22,17.27.26.35,4.8,4.33,6.96,4.6,2.16.27,9.05-4.3,13.5-8.17-2.43,9.06-4.72,17.6-6.16,24.1-.35,1.6-.34,3.1,0,4.28,1.18,4.04,3.68,9.24,9.47,10.22,1.34.22,2.2-.55,2.69-2.44,5.66-21.5,11.96-43.89,16.93-61.45-5.09-.35-10.31-.63-15.61-.86-1.09,3.89-2.2,7.84-3.29,11.67q-.03-.26,0-.39c-3,2.81-7.88,5.98-9.18,4.21-1.15-1.74.04-6.48,2.94-15.85-5.14-.16-10.34-.28-15.61-.35Z"/>
      <path class="cls-8" d="m369.98,365.14c-5.19,13.46-11.62,30.79-14.42,40.59-.35,1.28-.95,4.33-.6,5.25,1.21,3.07,6.28,6.33,11.95,6.9,1.18.12,2.19-.71,2.69-1.91,5.54-7.01,12.75-19.16,18.94-29.76-3.08,8.95-5.82,17.3-7.34,23.17-.35,1.37-.4,2.54-.06,3.53,1.13,3.29,6.08,7.61,11.65,8.31,1.35.16,2.61-.69,2.99-2.22,4.44-17.55,11.13-38.41,16.39-54.37-6.98-.04-14.05,0-21.16.08-3.32,5.74-6.83,11.55-10.22,16.05,2.01-5.65,3.96-11.08,5.74-15.98-5.5.09-11.01.21-16.53.36Z"/>
      <path class="cls-8" d="m32.28,432.22c10.07-1.81,15.35-9.34,20.62-16.77,2.33-3.26,3.35-6.78,3.4-10.48-.11-2.49-.22-4.98-.33-7.47-2.98.53-5.86,1.05-8.63,1.56-.87,1.09-1.61,2.05-2.09,2.56-3.5,3.69-6.12,6.04-7.88,6.19-2.04.2-5.07.74-4.9-5.91-7.03,1.41-12.85,2.68-17.06,3.76l-.23.1c-1.61,21.45,5.35,28.86,17.1,26.47Z"/>
      <path class="cls-8" d="m328.85,407.96c-.36,1.2-.14,3.37.21,4.24,1.13,2.88,5.38,5.18,11.21,4.79,1.41-.08,2.47-1.35,2.85-2.68,5.06-17.43,12.35-35.94,17.27-48.89-5.57.19-11.14.4-16.68.63-5.18,13.63-11.89,31.92-14.86,41.9Z"/>
      <path class="cls-8" d="m207.22,407.59c1.21,2.58,6.25,5.29,11.93,5.19,1.27-.02,2.06-.63,2.53-1.84,3.3-9.3,6.08-16.41,8.62-22.48.2.43.49.85.49.85,1.04,2.31,1.49,4.35,8.82,2.64,10.83-2.49,19.01-11.85,22.73-21.04-5.45.39-10.77.79-15.89,1.17-2.15,5.42-8.36,9.14-13.48,9.88,1.47-3.29,2.85-6.28,4.2-9.18-1.03.08-2.07.16-3.08.23-4.56.35-9.49.78-14.7,1.28-3.67,7.7-8.8,19.85-12.12,30.44-.36,1.13-.4,2.09-.05,2.86Z"/>
      <path class="cls-8" d="m160.34,407.3c-.14.47.11,2.77.28,3.04,2.6,5.42,11.07,5.36,19.76,3.44,6.26-1.37,12.09-.96,14.79-2.37,1.29-.66,2.59-1.57,4.06-4.14,1.44-2.74,3.04-4.08,2.88-8.42.07-1.31-1.6-1.37-2.53-1.35-3.48.06-12.44.64-19.28,2.71-2.54.34-1.22-.68-.65-2.58,1.46-3.43,2.82-6.49,4.09-9.25,4.57-1.37,9.91-1.66,15.08-1.69.76,0,2.64-1.41,3.14-2.19,1.26-1.88,3.68-6.54,3.57-8.76-11.05,1.21-22.99,2.66-35.35,4.27-3.19,6.94-6.45,15.05-9.3,23.95-.27.93-.6,2.61-.56,3.35Z"/>
      <path class="cls-8" d="m145.6,416.67c1.41-.3,2.47-1.71,2.85-3.06,3.23-11.48,7.38-22.65,11.24-32.22-5.71.77-11.47,1.57-17.25,2.39-3.34,9.28-6.48,18.73-8.27,25.29-.35,1.3-.14,3.54.21,4.39,1.13,2.86,5.38,4.52,11.21,3.2Z"/>
      <path class="cls-8" d="m119.53,419.66c1.27-.13,2.52-1.77,2.99-3.22,3.44-11.54,7.12-22.22,10.41-31.28-5.8.84-11.59,1.71-17.32,2.58-2.51,7.4-5.15,15.63-7.31,23.35-.35,1.39-.4,2.55-.05,3.46,1.21,3.05,5.63,5.69,11.29,5.11Z"/>
      <path class="cls-8" d="m70.36,418.87c2.41,1.67,4.82,3.31,7.23,4.9,2.38,1.74,5.11-1.25,6.08-3.61,3.37-8.37,9.02-19.28,15.12-29.83-7.42,1.17-14.65,2.35-21.58,3.5.48.03,1-.01,1.59-.11-3.35,6.08-6.26,11.54-8.06,15.46-.97,2.07-2.35,8.26-.38,9.68Z"/>
      <path class="cls-8" d="m285.26,369.31c-6.08.4-12.02.82-17.82,1.23-3.13,5.13-5.81,11-7.87,17.42-6.11,19.09,1.21,26.15,15.38,26.57,10.18.31,15.51-4,20.83-8.72,2.35-2.05,3.37-4.52,3.43-7.19-.14-2.23-.27-4.46-.41-6.69-1.24-5.34-8.6,2.2-10.73,3.55-3.54,2.31-6.18,3.66-7.96,3.63-2.63-.05-6.89.25-4.02-8.82,3.07-9.7,6.55-16.77,9.18-20.97Z"/>
      <path class="cls-8" d="m318.13,367.31c-2.68,6.53-10.22,25.03-15.23,39.55-.36,1.15-.4,2.13-.05,2.95,1.21,2.73,5.65,5.65,11.33,6,1.27.08,2.53-1.22,3-2.48,5.71-16.53,12.08-32.49,16.21-43.44.61-1.53.23-2.29-.96-2.81-.49-.14-.98-.28-1.47-.42.04,0,.08-.01.12-.02-4.34.21-8.65.44-12.93.67Z"/>
      <path class="cls-8" d="m293.04,373.74c-2.31,3.91-2.66,5.3,1.31,6.18,5.39,1.77,8.15-1.72,9.27-2.9,3.09-3.23,5.18-6.4,6.68-9.27-5.11.3-10.17.6-15.15.92-.33,1.47-1.03,3.2-2.11,5.07Z"/>
    </g>
  </g>
</svg>