<?xml version="1.0" encoding="UTF-8"?>
<svg id="_Слой_1" data-name="Слой 1" xmlns="http://www.w3.org/2000/svg" viewBox="0 0 500 500">
  <defs>
    <style>
      .cls-1 {
        fill: none;
        stroke: #3f3f3f;
        stroke-linecap: round;
        stroke-linejoin: round;
        stroke-width: 15px;
      }
    </style>
  </defs>
  <g>
    <path class="cls-1" d="m439.72,481.41c0,3.73-.13,7.43-.38,11.09H62.88c-.24-3.66-.38-7.37-.38-11.09,0-96.81,84.45-175.3,188.61-175.3s188.61,78.48,188.61,175.3Z"/>
    <path class="cls-1" d="m352.82,184.72c0,49.18-45.76,89.04-102.21,89.04s-102.21-39.86-102.21-89.04c0-25.34,12.15-48.22,31.66-64.44l70.09,39.56,72-38.74c18.93,16.17,30.68,38.7,30.68,63.61Z"/>
    <polygon class="cls-1" points="387.01 86.22 322.14 121.11 250.15 159.85 180.06 120.28 113.33 82.63 250.18 9 387.01 86.22"/>
    <polyline class="cls-1" points="387.77 95.67 387.77 204.43 410.37 249.42 364.85 249.42 382.45 210.76"/>
  </g>
  <path class="cls-1" d="m896.46-86.49l.61.56-208.57,189.02-191.08-180.81c-29.11-22.01-47.91-56.9-47.91-96.2,0-66.59,53.99-120.58,120.58-120.58,36.24,0,68.74,15.99,90.84,41.3l29.74,32.57,29.31-29.48c22.1-27.09,55.75-44.39,93.45-44.39,66.59,0,120.58,53.99,120.58,120.58,0,34.41-14.43,65.46-37.54,87.43Z"/>
</svg>