<?xml version="1.0" encoding="UTF-8"?>
<svg id="_Слой_1" data-name="Слой 1" xmlns="http://www.w3.org/2000/svg" viewBox="0 0 500 500">
  <defs>
    <style>
      .cls-1 {
        stroke-linecap: round;
      }

      .cls-1, .cls-2, .cls-3 {
        fill: none;
        stroke: #3f3f3f;
        stroke-width: 15px;
      }

      .cls-1, .cls-3 {
        stroke-linejoin: round;
      }

      .cls-2 {
        stroke-miterlimit: 10;
      }
    </style>
  </defs>
  <path class="cls-1" d="m896.46-86.49l.61.56-208.57,189.02-191.08-180.81c-29.11-22.01-47.91-56.9-47.91-96.2,0-66.59,53.99-120.58,120.58-120.58,36.24,0,68.74,15.99,90.84,41.3l29.74,32.57,29.31-29.48c22.1-27.09,55.75-44.39,93.45-44.39,66.59,0,120.58,53.99,120.58,120.58,0,34.41-14.43,65.46-37.54,87.43Z"/>
  <g>
    <line class="cls-3" x1="101.87" y1="488" x2="397.08" y2="488"/>
    <path class="cls-3" d="m422.69,185.1c0,109.65-169.65,259.4-169.65,259.4,0,0-175.54-149.75-175.54-259.4,0-95.31,77.28-172.6,172.6-172.6s172.6,77.28,172.6,172.6Z"/>
    <circle class="cls-2" cx="248.48" cy="190.79" r="68.64"/>
  </g>
</svg>