<?xml version="1.0" encoding="UTF-8"?>
<svg id="_Слой_1" data-name="Слой 1" xmlns="http://www.w3.org/2000/svg" viewBox="0 0 500 500">
  <defs>
    <style>
      .cls-1 {
        fill: none;
        stroke: #3f3f3f;
        stroke-linejoin: round;
        stroke-width: 15px;
      }
    </style>
  </defs>
  <path class="cls-1" d="m380.51,480.22l-123.31-64.74c-4.58-2.4-10.05-2.4-14.62,0l-123.23,64.88c-11.52,6.07-25-3.71-22.81-16.55l23.46-137.28c.87-5.1-.82-10.3-4.53-13.91L15.68,215.48c-9.33-9.09-4.19-24.93,8.69-26.81l137.81-20.11c5.12-.75,9.54-3.96,11.83-8.6l61.56-124.92c5.76-11.68,22.41-11.69,28.18-.02l61.71,124.85c2.29,4.64,6.72,7.85,11.84,8.59l137.83,19.95c12.89,1.87,18.05,17.7,8.72,26.8l-99.67,97.27c-3.7,3.61-5.39,8.81-4.51,13.91l23.62,137.25c2.21,12.84-11.26,22.63-22.79,16.58Z"/>
</svg>